<?xml version="1.0" ?>
<svg xmlns="http://www.w3.org/2000/svg" width="1000" height="1000" viewBox="-95 -3 131 449">
	<rect x="-95" y="-3" width="131" height="12" fill="red">
		<title>.id(brain_region)</title>
	</rect>
	<rect x="-95" y="9" width="131" height="144" fill="green">
		<title>.id(cervical_region)</title>
	</rect>
	<rect x="-95" y="153" width="131" height="330" fill="grey">
		<title>.id(thoracic_region)</title>
	</rect>
	<rect x="-95" y="483" width="131" height="174" fill="blue">
		<title>.id(lumbar_region)</title>
	</rect>
	<circle style="fill: rgb(216, 216, 216);" cx="-18.114684930911466" cy="25.581796086437475" r="0.9054">
		<title>.id(point_01)</title>
	</circle>
	<circle style="fill: rgb(216, 216, 216);" cx="-17.574782870159634" cy="25.39399124480845" r="0.9054">
		<title>.id(point_02)</title>
	</circle>
	<circle style="fill: rgb(216, 216, 216);" cx="2.387315155521687" cy="55.94465620406463" r="0.9054">
		<title>.id(point_03)</title>
	</circle>
	<circle style="fill: rgb(216, 216, 216);" cx="2.5525982754580157" cy="56.58465899558348" r="0.9054">
		<title>.id(point_04)</title>
	</circle>
	<circle style="fill: rgb(216, 216, 216);" cx="15.124985590575461" cy="166.04461520712556" r="0.9054">
		<title>.id(point_05)</title>
	</circle>
	<circle style="fill: rgb(216, 216, 216);" cx="15.368651445054665" cy="166.2771112920615" r="0.9054">
		<title>.id(point_06)</title>
	</circle>
	<circle style="fill: rgb(216, 216, 216);" cx="15.538908119725857" cy="186.53424105601044" r="0.9054">
		<title>.id(point_07)</title>
	</circle>
	<circle style="fill: rgb(216, 216, 216);" cx="15.870325883359772" cy="186.48750164408776" r="0.9054">
		<title>.id(point_08)</title>
	</circle>
	<circle style="fill: rgb(216, 216, 216);" cx="13.396441714731107" cy="73.20070533871281" r="0.9054">
		<title>.id(point_09)</title>
	</circle>
	<circle style="fill: rgb(216, 216, 216);" cx="13.39320966978143" cy="71.60326615808452" r="0.9054">
		<title>.id(point_10)</title>
	</circle>
	<circle style="fill: rgb(216, 216, 216);" cx="8.185096350771936" cy="228.38480252474307" r="0.9054">
		<title>.id(point_11)</title>
	</circle>
	<circle style="fill: rgb(216, 216, 216);" cx="8.232140819902362" cy="228.27751065274444" r="0.9054">
		<title>.id(point_12)</title>
	</circle>
	<circle style="fill: rgb(216, 216, 216);" cx="-3.619208607991224" cy="261.18112806558395" r="0.9054">
		<title>.id(point_13)</title>
	</circle>
	<circle style="fill: rgb(216, 216, 216);" cx="-3.601107725467299" cy="261.6584365661204" r="0.9054">
		<title>.id(point_14)</title>
	</circle>
	<circle style="fill: rgb(216, 216, 216);" cx="-8.507558962946732" cy="263.3171918823834" r="0.9054">
		<title>.id(point_15)</title>
	</circle>
	<circle style="fill: rgb(216, 216, 216);" cx="-12.323252267278875" cy="265.1339029257267" r="0.9054">
		<title>.id(point_16)</title>
	</circle>
	<circle style="fill: rgb(216, 216, 216);" cx="-23.49538039149084" cy="283.9443672517586" r="0.9054">
		<title>.id(point_17)</title>
	</circle>
	<circle style="fill: rgb(216, 216, 216);" cx="-7.929746652608898" cy="268.36456627601166" r="0.9054">
		<title>.id(point_18)</title>
	</circle>
	<circle style="fill: rgb(216, 216, 216);" cx="-10.022609126345635" cy="266.878323304718" r="0.9054">
		<title>.id(point_19)</title>
	</circle>
	<circle style="fill: rgb(216, 216, 216);" cx="-13.0795135463869" cy="280.39228444876557" r="0.9054">
		<title>.id(point_20)</title>
	</circle>
	<circle style="fill: rgb(216, 216, 216);" cx="-14.356728163392603" cy="286.25229862892263" r="0.9054">
		<title>.id(point_21)</title>
	</circle>
	<circle style="fill: rgb(216, 216, 216);" cx="21.838714691162153" cy="118.96933057369344" r="0.9054">
		<title>.id(point_22)</title>
	</circle>
	<circle style="fill: rgb(216, 216, 216);" cx="21.589854314749292" cy="118.98905914527526" r="0.9054">
		<title>.id(point_23)</title>
	</circle>
	<circle style="fill: rgb(216, 216, 216);" cx="-18.911952824438394" cy="24.13612214387834" r="0.9054">
		<title>.id(point_24)</title>
	</circle>
	<circle style="fill: rgb(216, 216, 216);" cx="-18.39508074608387" cy="23.687802162077222" r="0.9054">
		<title>.id(point_25)</title>
	</circle>
	<circle style="fill: rgb(216, 216, 216);" cx="-19.41803370975487" cy="24.753470903137043" r="0.9054">
		<title>.id(point_26)</title>
	</circle>
	<circle style="fill: rgb(216, 216, 216);" cx="1.0332488737525258" cy="245.72556187984623" r="0.9054">
		<title>.id(point_27)</title>
	</circle>
	<circle style="fill: rgb(216, 216, 216);" cx="0.38410454134244276" cy="245.494783351849" r="0.9054">
		<title>.id(point_28)</title>
	</circle>
	<circle style="fill: rgb(216, 216, 216);" cx="0.5017246297642919" cy="250.01382573593148" r="0.9054">
		<title>.id(point_29)</title>
	</circle>
	<circle style="fill: rgb(216, 216, 216);" cx="-0.9586658789345319" cy="251.0697382949371" r="0.9054">
		<title>.id(point_30)</title>
	</circle>
	<circle style="fill: rgb(216, 216, 216);" cx="-3.033266139808165" cy="261.4056872921912" r="0.9054">
		<title>.id(point_31)</title>
	</circle>
	<circle style="fill: rgb(216, 216, 216);" cx="11.630984468462161" cy="217.65494082864046" r="0.9054">
		<title>.id(point_32)</title>
	</circle>
	<circle style="fill: rgb(216, 216, 216);" cx="11.498744805036136" cy="217.40855320487154" r="0.9054">
		<title>.id(point_33)</title>
	</circle>
	<circle style="fill: rgb(216, 216, 216);" cx="12.034114796084898" cy="219.95390039306312" r="0.9054">
		<title>.id(point_34)</title>
	</circle>
	<circle style="fill: rgb(216, 216, 216);" cx="7.873989131930132" cy="232.3473904441231" r="0.9054">
		<title>.id(point_35)</title>
	</circle>
	<circle style="fill: rgb(216, 216, 216);" cx="5.236025743738176" cy="235.69632273734217" r="0.9054">
		<title>.id(point_36)</title>
	</circle>
	<circle style="fill: rgb(216, 216, 216);" cx="13.513550106720892" cy="208.48685997668326" r="0.9054">
		<title>.id(point_37)</title>
	</circle>
	<circle style="fill: rgb(216, 216, 216);" cx="13.876738957963344" cy="208.71578953417097" r="0.9054">
		<title>.id(point_38)</title>
	</circle>
	<circle style="fill: rgb(216, 216, 216);" cx="10.767186335585933" cy="221.08267604757748" r="0.9054">
		<title>.id(point_39)</title>
	</circle>
	<circle style="fill: rgb(216, 216, 216);" cx="10.376747049798688" cy="225.73577102192527" r="0.9054">
		<title>.id(point_40)</title>
	</circle>
	<circle style="fill: rgb(216, 216, 216);" cx="-4.229582095015551" cy="261.4719084317589" r="0.9054">
		<title>.id(point_41)</title>
	</circle>
	<circle style="fill: rgb(216, 216, 216);" cx="-19.407242516719453" cy="24.922499680579577" r="0.9054">
		<title>.id(point_42)</title>
	</circle>
	<circle style="fill: rgb(216, 216, 216);" cx="0.7613468076195478" cy="249.49184963060492" r="0.9054">
		<title>.id(point_43)</title>
	</circle>
	<circle style="fill: rgb(216, 216, 216);" cx="12.844963321921803" cy="220.60368395487922" r="0.9054">
		<title>.id(point_44)</title>
	</circle>
	<circle style="fill: rgb(216, 216, 216);" cx="10.844452584036159" cy="221.21095828249307" r="0.9054">
		<title>.id(point_45)</title>
	</circle>
	<circle style="fill: rgb(216, 216, 216);" cx="-3.8371243511165587" cy="261.5718020218754" r="0.9054">
		<title>.id(point_46)</title>
	</circle>
	<circle style="fill: rgb(216, 216, 216);" cx="-1.693429299322627" cy="250.31312150377573" r="0.9054">
		<title>.id(point_47)</title>
	</circle>
	<circle style="fill: rgb(216, 216, 216);" cx="8.991613674212946" cy="232.93248820635765" r="0.9054">
		<title>.id(point_48)</title>
	</circle>
	<circle style="fill: rgb(216, 216, 216);" cx="11.768859092652447" cy="226.62399899792834" r="0.9054">
		<title>.id(point_49)</title>
	</circle>
	<circle style="fill: rgb(216, 216, 216);" cx="-8.75687379607117" cy="263.87923229362553" r="0.9054">
		<title>.id(point_50)</title>
	</circle>
	<circle style="fill: rgb(216, 216, 216);" cx="-3.0422707118502883" cy="261.64710189158933" r="0.9054">
		<title>.id(point_51)</title>
	</circle>
	<circle style="fill: rgb(216, 216, 216);" cx="4.969478485743139" cy="235.23388167255774" r="0.9054">
		<title>.id(point_52)</title>
	</circle>
	<circle style="fill: rgb(216, 216, 216);" cx="-12.3151183465529" cy="265.4171881439834" r="0.9054">
		<title>.id(point_53)</title>
	</circle>
	<circle style="fill: rgb(216, 216, 216);" cx="-15.604371010558026" cy="271.146007625912" r="0.9054">
		<title>.id(point_54)</title>
	</circle>
	<circle style="fill: rgb(216, 216, 216);" cx="-6.572191593520992" cy="268.649684835682" r="0.9054">
		<title>.id(point_55)</title>
	</circle>
	<circle style="fill: rgb(216, 216, 216);" cx="-11.283801069819003" cy="266.5227877315822" r="0.9054">
		<title>.id(point_56)</title>
	</circle>
	<circle style="fill: rgb(216, 216, 216);" cx="-14.019457536975354" cy="279.8859396481777" r="0.9054">
		<title>.id(point_57)</title>
	</circle>
	<circle style="fill: rgb(216, 216, 216);" cx="-15.454847894203112" cy="285.63907404931876" r="0.9054">
		<title>.id(point_58)</title>
	</circle>
	<circle style="fill: rgb(216, 216, 216);" cx="-9.350770250523109" cy="39.74321737556325" r="0.9054">
		<title>.id(point_59)</title>
	</circle>
	<circle style="fill: rgb(216, 216, 216);" cx="-9.866191811860762" cy="39.95092790712178" r="0.9054">
		<title>.id(point_60)</title>
	</circle>
	<circle style="fill: rgb(216, 216, 216);" cx="-28.39914228525214" cy="9.997658693419302" r="0.9054">
		<title>.id(point_61)</title>
	</circle>
	<circle style="fill: rgb(216, 216, 216);" cx="15.447601491529618" cy="180.77583943002833" r="0.9054">
		<title>.id(point_62)</title>
	</circle>
	<circle style="fill: rgb(216, 216, 216);" cx="-83.66827516469195" cy="433.668250662668" r="0.9054">
		<title>.id(point_63)</title>
	</circle>
	<circle style="fill: rgb(216, 216, 216);" cx="-16.939568537024556" cy="27.59101084256293" r="0.9054">
		<title>.id(point_64)</title>
	</circle>
	<circle style="fill: rgb(216, 216, 216);" cx="-16.519125785339792" cy="27.240733626018812" r="0.9054">
		<title>.id(point_65)</title>
	</circle>
	<circle style="fill: rgb(216, 216, 216);" cx="-6.077011392919768" cy="44.46212949615062" r="0.9054">
		<title>.id(point_66)</title>
	</circle>
	<circle style="fill: rgb(216, 216, 216);" cx="-5.865529742432135" cy="43.97070011381319" r="0.9054">
		<title>.id(point_67)</title>
	</circle>
	<circle style="fill: rgb(216, 216, 216);" cx="14.915820870661406" cy="178.86829291439193" r="0.9054">
		<title>.id(point_68)</title>
	</circle>
	<circle style="fill: rgb(216, 216, 216);" cx="14.389501309758774" cy="178.4098775124988" r="0.9054">
		<title>.id(point_69)</title>
	</circle>
	<circle style="fill: rgb(216, 216, 216);" cx="-14.32500692508843" cy="32.886618724437824" r="0.9054">
		<title>.id(point_70)</title>
	</circle>
	<circle style="fill: rgb(216, 216, 216);" cx="-14.326020907008427" cy="33.40421790505313" r="0.9054">
		<title>.id(point_71)</title>
	</circle>
	<circle style="fill: rgb(216, 216, 216);" cx="16.26694285124168" cy="73.74153224227564" r="0.9054">
		<title>.id(point_72)</title>
	</circle>
	<circle style="fill: rgb(216, 216, 216);" cx="15.511779387272645" cy="74.63943023740185" r="0.9054">
		<title>.id(point_73)</title>
	</circle>
	<path d="M -18.114684930911466 25.581796086437475 C -17.934717577317393 25.51919447256485, -17.754750223752946 25.456592858678942, -17.574782870159634 25.39399124480845" stroke="#01136e" fill="none">
		<title>.id(nerve_feature_01)</title>
	</path>
	<path d="M -17.45760366667246 27.470775761337677 C -17.277636313078386 27.40817414746505, -17.097668959531454 27.345572533585237, -16.91770160593814 27.282970919714746 C -16.73773425234483 27.220369305844255, -18.051896780787814 23.442409956031664, -18.231864134381127 23.505011569902155 C -18.41183148797444 23.567613183772647, -18.5917988415564 23.630214797664646, -18.771766195150473 23.692816411537272 C -18.951733548744546 23.7554180254099, -17.63757102026653 27.533377375210303, -17.45760366667246 27.470775761337677" stroke="#e28343" fill="none">
		<title>.id(nerve_feature_01_outline)</title>
	</path>
	<path d="M 2.387315155521687 55.94465620406463 C 2.4424095288361687 56.157990467901975, 2.4975039021431105 56.371324731746675, 2.5525982754580157 56.58465899558348" stroke="#01136e" fill="none">
		<title>.id(nerve_feature_02)</title>
	</path>
	<path d="M 0.45084919966687065 56.44475579596138 C 0.5059435729813522 56.658090059798724, 0.5610379462895314 56.87142432364821, 0.6161323196044366 57.08475858748502 C 0.6712266929193418 57.298092851321826, 4.5441586046264995 56.29789366751875, 4.489064231311595 56.08455940368194 C 4.43396985799669 55.87122513984514, 4.378875484690985 55.657890876005226, 4.323781111376504 55.44455661216788 C 4.268686738062023 55.23122234833053, 0.3957548263523891 56.23142153212403, 0.45084919966687065 56.44475579596138" stroke="#e28343" fill="none">
		<title>.id(nerve_feature_02_outline)</title>
	</path>
	<path d="M 15.124985590575461 166.04461520712556 C 15.20620754207227 166.1221139021122, 15.287429493556878 166.19961259709737, 15.368651445054665 166.2771112920615" stroke="#01136e" fill="none">
		<title>.id(nerve_feature_03)</title>
	</path>
	<path d="M 13.744326357590094 167.49160521482162 C 13.825548309086903 167.56910390980826, 13.906770260790118 167.64660260500202, 13.987992212287903 167.72410129996615 C 14.069214163785688 167.80159999493029, 16.830532629319215 164.907619979121, 16.749310677821427 164.83012128415686 C 16.66808872632364 164.75262258919273, 16.586866775057636 164.67512389441615, 16.50564482356083 164.5976251994295 C 16.42442287206402 164.52012650444286, 13.663104406093284 167.41410651983497, 13.744326357590094 167.49160521482162" stroke="#e28343" fill="none">
		<title>.id(nerve_feature_03_outline)</title>
	</path>
	<path d="M 15.538908119725857 186.53424105601044 C 15.649380707598882 186.51866125202298, 15.759853295488469 186.5030814480685, 15.870325883359772 186.48750164408776" stroke="#01136e" fill="none">
		<title>.id(nerve_feature_04)</title>
	</path>
	<path d="M 15.818201719919752 188.5146438142621 C 15.928674307792777 188.49906401027462, 16.039146895568734 188.4834842063362, 16.149619483440038 188.46790440235543 C 16.26009207131134 188.45232459837467, 15.70150487115081 184.49151908183933, 15.591032283279507 184.50709888582008 C 15.480559695408203 184.52267868980084, 15.370087107404986 184.53825849377134, 15.259614519531961 184.5538382977588 C 15.149141931658937 184.56941810174627, 15.707729132046728 188.53022361824955, 15.818201719919752 188.5146438142621" stroke="#e28343" fill="none">
		<title>.id(nerve_feature_04_outline)</title>
	</path>
	<path d="M 13.396441714731107 73.20070533871281 C 13.09061195218004 72.32701197890069, 13.344384104916452 71.67947594754875, 13.39320966978143 71.60326615808452" stroke="#01136e" fill="none">
		<title>.id(nerve_feature_06)</title>
	</path>
	<path d="M 15.284133441596941 72.53993310539614 C 14.978303679045874 71.66623974558402, 15.02841203503697 72.75838740386665, 15.077237599901947 72.68217761440242 C 15.126063164766924 72.60596782493819, 11.758007304525888 70.4481449123024, 11.709181739660911 70.52435470176663 C 11.660356174795934 70.60056449123086, 11.202920225314207 72.98778421221735, 11.508749987865274 73.86147757202947 C 11.81457975041634 74.7351709318416, 15.589963204148008 73.41362646520827, 15.284133441596941 72.53993310539614" stroke="#e28343" fill="none">
		<title>.id(nerve_feature_06_outline)</title>
	</path>
	<path d="M 8.185096350771936 228.38480252474307 C 8.200777840484578 228.34903856735986, 8.21645933019269 228.31327461011318, 8.232140819902362 228.27751065274444" stroke="#01136e" fill="none">
		<title>.id(nerve_feature_07)</title>
	</path>
	<path d="M 10.016756713890272 229.18793409191073 C 10.032438203602915 229.15217013452752, 10.048119693247491 229.11640617742574, 10.063801182957164 229.080642220057 C 10.079482672666837 229.04487826268826, 6.416161946557233 227.43861512806313, 6.400480456847561 227.47437908543188 C 6.384798967137888 227.51014304280062, 6.369117477366243 227.5459070001922, 6.3534359876536 227.5816709575754 C 6.337754497940957 227.6174349149586, 10.00107522417763 229.22369804929394, 10.016756713890272 229.18793409191073" stroke="#e28343" fill="none">
		<title>.id(nerve_feature_07_outline)</title>
	</path>
	<path d="M 21.838714691162153 118.96933057369344 C 21.755761232360786 118.97590676421308, 21.67280777355133 118.98248295475709, 21.589854314749292 118.98905914527526" stroke="#01136e" fill="none">
		<title>.id(nerve_feature_08)</title>
	</path>
	<path d="M 21.680659245532432 116.97558573643197 C 21.597705786731066 116.9821619269516, 21.514752327957844 116.98873811749274, 21.431798869155806 116.99531430801092 C 21.348845410353768 117.0018904985291, 21.66495630154074 120.98938017305778, 21.74790976034278 120.98280398253961 C 21.830863219144817 120.97622779202143, 21.913816677990507 120.96965160147455, 21.996770136791874 120.96307541095491 C 22.07972359559324 120.95649922043528, 21.7636127043338 116.96900954591233, 21.680659245532432 116.97558573643197" stroke="#e28343" fill="none">
		<title>.id(nerve_feature_08_outline)</title>
	</path>
	<path d="M -18.911952824438394 24.13612214387834 C -18.73966213164529 23.98668214994613, -18.56737143887829 23.83724215601135, -18.39508074608387 23.687802162077222" stroke="#01136e" fill="none">
		<title>.id(nerve_feature_09)</title>
	</path>
	<path d="M -17.601483940263396 25.646973329008475 C -17.42919324747029 25.497533335076266, -17.256902554699398 25.348093341138107, -17.08461186190498 25.19865334720398 C -16.91232116911056 25.049213353269852, -19.533258937468343 22.027510983016338, -19.705549630262762 22.176950976950465 C -19.877840323057182 22.326390970884592, -20.050131015820288 22.475830964815994, -20.222421708613393 22.625270958748203 C -20.394712401406498 22.77471095268041, -17.7737746330565 25.796413322940683, -17.601483940263396 25.646973329008475" stroke="#e28343" fill="none">
		<title>.id(nerve_feature_09_outline)</title>
	</path>
	<path d="M 1.0332488737525258 245.72556187984623 C 0.8168674296390968 245.64863570386916, 0.6004859854553917 245.57170952784975, 0.38410454134244276 245.494783351849" stroke="#01136e" fill="none">
		<title>.id(nerve_feature_10)</title>
	</path>
	<path d="M 1.703195156427985 243.841106526613 C 1.486813712314556 243.76418035063594, 1.270432268315222 243.68725417468207, 1.0540508242022733 243.61032799868133 C 0.8376693800893245 243.5334018226806, -0.5022231856303365 247.30231252901595, -0.2858417415173876 247.3792387050167 C -0.06946029740443871 247.45616488101743, 0.14692114696363756 247.53309105710238, 0.36330259107706664 247.61001723307945 C 0.5796840351904957 247.6869434090565, 1.919576600541414 243.91803270259007, 1.703195156427985 243.841106526613" stroke="#e28343" fill="none">
		<title>.id(nerve_feature_10_outline)</title>
	</path>
	<path d="M 11.630984468462161 217.65494082864046 C 11.586904580663042 217.57281162075515, 11.542824692841732 217.49068241276444, 11.498744805036136 217.40855320487154" stroke="#01136e" fill="none">
		<title>.id(nerve_feature_11)</title>
	</path>
	<path d="M 13.393210623974442 216.70912954892955 C 13.349130736175322 216.62700034104424, 13.305050848332522 216.5448711330135, 13.260970960526926 216.46274192512058 C 13.21689107272133 216.38061271722768, 9.69243876173975 218.2722352767296, 9.736518649545346 218.3543644846225 C 9.780598537350942 218.4364936925154, 9.824678425150761 218.51862290046606, 9.86875831294988 218.60075210835137 C 9.912838200749 218.6828813162367, 13.437290511773561 216.79125875681487, 13.393210623974442 216.70912954892955" stroke="#e28343" fill="none">
		<title>.id(nerve_feature_11_outline)</title>
	</path>
	<path d="M 13.513550106720892 208.48685997668326 C 13.634613057139944 208.56316982914745, 13.755676007542391 208.63947968169853, 13.876738957963344 208.71578953417097" stroke="#01136e" fill="none">
		<title>.id(nerve_feature_12)</title>
	</path>
	<path d="M 12.447072696645087 210.17878962468816 C 12.568135647064139 210.25509947715236, 12.68919859739613 210.33140932965904, 12.810261547817083 210.40771918213147 C 12.931324498238036 210.4840290346039, 15.064279318530557 207.1001697386829, 14.943216368109605 207.02385988621046 C 14.822153417688652 206.94755003373803, 14.70109046721575 206.87124018114255, 14.580027516796697 206.79493032867836 C 14.458964566377645 206.71862047621417, 12.326009746226035 210.10247977222397, 12.447072696645087 210.17878962468816" stroke="#e28343" fill="none">
		<title>.id(nerve_feature_12_outline)</title>
	</path>
	<path d="M -3.619208607991202 261.181128065584 C -3.8226664370089734 261.2780548542967, -4.026124265997426 261.37498164304634, -4.229582095015551 261.4719084317589" stroke="#01136e" fill="none">
		<title>.id(nerve_feature_13)</title>
	</path>
	<path d="M -4.479380370392669 259.37555210784444 C -4.682838199410441 259.47247889655716, -4.886296028396444 259.5694056853056, -5.089753857414569 259.66633247401813 C -5.293211686432693 259.7632592627307, -3.572868161634658 263.3744111782122, -3.369410332616533 263.27748438949965 C -3.1659525035984086 263.1805576007871, -2.962494674607506 263.0836308120363, -2.7590368455897343 262.98670402332357 C -2.5555790165719627 262.88977723461085, -4.275922541374897 259.2786253191317, -4.479380370392669 259.37555210784444" stroke="#e28343" fill="none">
		<title>.id(nerve_feature_13_outline)</title>
	</path>
	<path d="M -19.418033709754866 24.753470903137043 C -19.414436645400606 24.809813828957736, -19.410839581070505 24.866156754764408, -19.407242516719453 24.922499680579577" stroke="#01136e" fill="none">
		<title>.id(nerve_feature_14)</title>
	</path>
	<path d="M -21.41397028230335 24.880896168933955 C -21.41037321794909 24.93723909475465, -21.40677615362542 24.99358202046058, -21.403179089274367 25.04992494627575 C -21.399582024923316 25.106267872090918, -17.407708879813487 24.851417340698575, -17.41130594416454 24.795074414883405 C -17.41490300851559 24.738731489068236, -17.418500072852122 24.682388563160824, -17.422097137206382 24.62604563734013 C -17.425694201560642 24.569702711519437, -21.41756734665761 24.82455324311326, -21.41397028230335 24.880896168933955" stroke="#e28343" fill="none">
		<title>.id(nerve_feature_14_outline)</title>
	</path>
	<path d="M 0.5017246297642921 250.01382573593156 C 0.5882653557319997 249.83983370088913, 0.6748060816730147 249.6658416656456, 0.7613468076195478 249.49184963060492" stroke="#01136e" fill="none">
		<title>.id(nerve_feature_15)</title>
	</path>
	<path d="M 2.292449426908367 250.90450227704696 C 2.3789901528760744 250.73051024200453, 2.465530878900389 250.55651820659352, 2.552071604846922 250.38252617155285 C 2.638612330793455 250.20853413651218, -0.9428372636612936 248.4271810546163, -1.0293779896078266 248.60117308965698 C -1.1159187155543595 248.77516512469765, -1.2024594414120753 248.94915715977373, -1.2890001673797828 249.12314919481616 C -1.3755408933474904 249.2971412298586, 2.2059087009406593 251.0784943120894, 2.292449426908367 250.90450227704696" stroke="#e28343" fill="none">
		<title>.id(nerve_feature_15_outline)</title>
	</path>
	<path d="M 12.034114796084896 219.95390039306307 C 12.304397638038756 220.17049491376113, 12.574680479964291 220.38708943420716, 12.844963321921803 220.60368395487922" stroke="#01136e" fill="none">
		<title>.id(nerve_feature_16)</title>
	</path>
	<path d="M 10.78342856016063 221.51460021662606 C 11.053711402114489 221.73119473732413, 11.323994244141758 221.9477892578517, 11.59427708609927 222.16438377852376 C 11.864559928056782 222.38097829919582, 14.365932399701848 219.25957865190674, 14.095649557744336 219.04298413123468 C 13.825366715786824 218.82638961056261, 13.555083873963023 218.60979509019813, 13.284801032009163 218.39320056950007 C 13.014518190055304 218.176606048802, 10.51314571820677 221.298005695928, 10.78342856016063 221.51460021662606" stroke="#e28343" fill="none">
		<title>.id(nerve_feature_16_outline)</title>
	</path>
	<path d="M 10.767186335585933 221.08267604757748 C 10.792941751735034 221.1254367926366, 10.818697167886743 221.1681975374395, 10.844452584036159 221.21095828249307" stroke="#01136e" fill="none">
		<title>.id(nerve_feature_17)</title>
	</path>
	<path d="M 9.053952339698457 222.1145816999195 C 9.079707755847558 222.15734244497864, 9.10546317206425 222.20010318988943, 9.131218588213665 222.242863934943 C 9.15697400436308 222.28562467999654, 12.583441996008068 220.2218133750967, 12.557686579858652 220.17905263004315 C 12.531931163709237 220.1362918849896, 12.50617574762251 220.09353114029457, 12.48042033147341 220.05077039523545 C 12.454664915324308 220.00800965017632, 9.028196923549356 222.07182095486039, 9.053952339698457 222.1145816999195" stroke="#e28343" fill="none">
		<title>.id(nerve_feature_17_outline)</title>
	</path>
	<path d="M -3.601107725467299 261.6584365661204 C -3.679779934019757 261.6295583847022, -3.7584521425642285 261.6006802032816, -3.8371243511165587 261.5718020218754" stroke="#01136e" fill="none">
		<title>.id(nerve_feature_18)</title>
	</path>
	<path d="M -2.911931503700259 259.7809286073221 C -2.990603712252717 259.7520504259039, -3.0692759210472533 259.72317224439155, -3.1479481295995835 259.6942940629853 C -3.2266203381519136 259.66541588157907, -4.6049727811858645 263.4204317993592, -4.526300572633534 263.44930998076546 C -4.447628364081204 263.4781881621717, -4.368956155786797 263.50706634350047, -4.290283947234339 263.53594452491865 C -4.2116117386818805 263.5648227063368, -2.833259295147801 259.8098067887403, -2.911931503700259 259.7809286073221" stroke="#e28343" fill="none">
		<title>.id(nerve_feature_18_outline)</title>
	</path>
	<path d="M -0.9586658789345324 251.0697382949371 C -1.2035870190794815 250.81753269791665, -1.4485081591706128 250.5653271007783, -1.693429299322627 250.31312150377573" stroke="#01136e" fill="none">
		<title>.id(nerve_feature_19)</title>
	</path>
	<path d="M 0.4761162964759311 249.6763969479857 C 0.23119515633098198 249.42419135096523, -0.01372598382967638 249.17198575375528, -0.25864712398169054 248.91978015675272 C -0.5035682641337047 248.66757455975016, -3.3731326148155776 251.4542572537962, -3.1282114746635634 251.70646285079874 C -2.8832903345115493 251.9586684478013, -2.638369194489945 252.21087404486806, -2.393448054344996 252.46307964188853 C -2.1485269142000467 252.715285238909, 0.7210374366208803 249.92860254500616, 0.4761162964759311 249.6763969479857" stroke="#e28343" fill="none">
		<title>.id(nerve_feature_19_outline)</title>
	</path>
	<path d="M 7.873989131930131 232.3473904441231 C 8.246530646036685 232.54242303154354, 8.619072160108683 232.73745561895518, 8.991613674212946 232.93248820635765" stroke="#01136e" fill="none">
		<title>.id(nerve_feature_20)</title>
	</path>
	<path d="M 6.946379007915342 234.1192650045323 C 7.318920522021896 234.31429759195274, 7.69146203615647 234.50933017939712, 8.064003550260734 234.7043627667996 C 8.436545064365 234.89939535420206, 10.29176531226942 231.35564623331817, 9.919223798165158 231.1606136459157 C 9.546682284060894 230.96558105851324, 9.174140770051475 230.77054847113433, 8.80159925594492 230.5755158837139 C 8.429057741838365 230.38048329629348, 6.573837493808787 233.92423241711188, 6.946379007915342 234.1192650045323" stroke="#e28343" fill="none">
		<title>.id(nerve_feature_20_outline)</title>
	</path>
	<path d="M 10.376747049798688 225.73577102192527 C 10.840784397429902 226.03184701394653, 11.304821745032894 226.3279230059072, 11.768859092652447 226.62399899792834" stroke="#01136e" fill="none">
		<title>.id(nerve_feature_21)</title>
	</path>
	<path d="M 9.300980944848959 227.42180995606685 C 9.765018292480173 227.7178859480881, 10.229055640064246 228.0139619400367, 10.693092987683798 228.31003793205784 C 11.15713033530335 228.60611392407898, 13.308662545240647 225.23403605581998, 12.844625197621095 224.93796006379884 C 12.380587850001543 224.6418840717777, 11.91655050237963 224.34580807980495, 11.452513154748416 224.0497320877837 C 10.988475807117203 223.75365609576244, 8.836943597217745 227.1257339640456, 9.300980944848959 227.42180995606685" stroke="#e28343" fill="none">
		<title>.id(nerve_feature_21_outline)</title>
	</path>
	<path d="M -8.507558962946732 263.3171918823833 C -8.590663907321904 263.50453868619695, -8.673768851696423 263.69188548982083, -8.75687379607117 263.87923229362553" stroke="#01136e" fill="none">
		<title>.id(nerve_feature_22)</title>
	</path>
	<path d="M -10.335762153551647 262.506221418148 C -10.41886709792682 262.69356822196164, -10.501972042288555 262.8809150255567, -10.585076986663303 263.0682618293614 C -10.66818193103805 263.2556086331661, -7.011775549853786 264.87754956169437, -6.928670605479038 264.69020275788967 C -6.84556566110429 264.50285595408496, -6.762460716716989 264.31550915043226, -6.679355772341816 264.12816234661864 C -6.596250827966644 263.940815542805, -10.252657209176474 262.3188746143344, -10.335762153551647 262.506221418148" stroke="#e28343" fill="none">
		<title>.id(nerve_feature_22_outline)</title>
	</path>
	<path d="M -3.0332661398081635 261.4056872921912 C -3.036267663819945 261.4861588253251, -3.03926918784249 261.5666303584362, -3.0422707118502883 261.64710189158933" stroke="#01136e" fill="none">
		<title>.id(nerve_feature_23)</title>
	</path>
	<path d="M -5.031876359260053 261.33114072484926 C -5.034877883271835 261.41161225798317, -5.037879407298728 261.4920837912108, -5.040880931306527 261.5725553243639 C -5.043882455314325 261.65302685751703, -1.0466620164018487 261.80211999196786, -1.0436604923940505 261.72164845881474 C -1.0406589683862522 261.6411769256616, -1.0376574443680546 261.56070539266705, -1.0346559203562733 261.48023385953314 C -1.031654396344492 261.39976232639924, -5.0288748352482715 261.25066919171536, -5.031876359260053 261.33114072484926" stroke="#e28343" fill="none">
		<title>.id(nerve_feature_23_outline)</title>
	</path>
	<path d="M 5.236025743738187 235.69632273734217 C 5.147176657735213 235.5421757157308, 5.058327571745192 235.38802869414462, 4.969478485743139 235.23388167255774" stroke="#01136e" fill="none">
		<title>.id(nerve_feature_24)</title>
	</path>
	<path d="M 6.968795220756503 234.69756854360196 C 6.87994613475353 234.54342152199058, 6.791097048699309 234.38927450029303, 6.702247962697256 234.23512747870615 C 6.613398876695203 234.08098045711927, 3.147859922786968 236.07848884482246, 3.2367090087890213 236.23263586640934 C 3.3255580947910746 236.38678288799622, 3.4144071807168968 236.540929909471, 3.503256266719871 236.69507693108238 C 3.5921053527228453 236.84922395269376, 7.057644306759476 234.85171556521334, 6.968795220756503 234.69756854360196" stroke="#e28343" fill="none">
		<title>.id(nerve_feature_24_outline)</title>
	</path>
	<path d="M -12.323252267278876 265.1339029257267 C -12.320540960366746 265.2283313318272, -12.317829653465521 265.32275973789956, -12.3151183465529 265.4171881439834" stroke="#01136e" fill="none">
		<title>.id(nerve_feature_25)</title>
	</path>
	<path d="M -14.32242834999633 265.1913049317065 C -14.319717043084198 265.28573333780696, -14.317005736182386 265.3801617438998, -14.314294429269765 265.47459014998367 C -14.311583122357144 265.56901855606753, -10.313230956923414 265.45421454406704, -10.315942263836035 265.3597861379832 C -10.318653570748657 265.2653577318993, -10.321364877649293 265.1709293258474, -10.324076184561424 265.07650091974693 C -10.326787491473555 264.9820725136465, -14.32513965690846 265.09687652560604, -14.32242834999633 265.1913049317065" stroke="#e28343" fill="none">
		<title>.id(nerve_feature_25_outline)</title>
	</path>
	<path d="M -23.49538039149084 283.9443672517586 C -22.180212161346816 281.8113073140747, -20.865043931220583 279.6782473765387, -19.549875701008748 277.5451874389162 C -18.234707470796902 275.41212750129364, -16.919539240761583 273.2790675635345, -15.604371010558026 271.146007625912" stroke="#01136e" fill="none">
		<title>.id(nerve_feature_26)</title>
	</path>
	<path d="M -21.79296066318013 284.9940181788093 C -20.477792433036104 282.86095824112545, -19.162624202947534 280.72789830365053, -17.8474559727357 278.594838366028 C -16.532287742523852 276.46177842840547, -15.217119512485581 274.32871849064156, -13.901951282282024 272.19565855301903 C -12.586783052078466 270.0625986153965, -15.99162250863047 267.9632967611824, -17.306790738834028 270.0963566988049 C -18.621958969037586 272.22941663642746, -19.937127199069952 274.3624765741818, -21.25229542928179 276.49553651180435 C -22.567463659493633 278.6285964494269, -23.882631889657528 280.761656387024, -25.197800119801553 282.8947163247079 C -26.512968349945577 285.02777626239174, -23.108128893324153 287.1270781164932, -21.79296066318013 284.9940181788093" stroke="#e28343" fill="none">
		<title>.id(nerve_feature_26_outline)</title>
	</path>
	<path d="M -7.9297466526089 268.36456627601166 C -7.477228299554584 268.45960579593367, -7.02470994656511 268.55464531576, -6.572191593520992 268.649684835682" stroke="#01136e" fill="none">
		<title>.id(nerve_feature_27)</title>
	</path>
	<path d="M -8.340825305708897 270.3218639899442 C -7.888306952654581 270.4169035098662, -7.435788599673979 270.51194302969066, -6.983270246629861 270.60698254961267 C -6.530751893585742 270.7020220695347, -5.708594587368004 266.7874266416734, -6.1611129404121225 266.6923871217514 C -6.613631293456241 266.59734760182937, -7.066149646454587 266.50230808200115, -7.518667999508903 266.40726856207914 C -7.971186352563219 266.3122290421571, -8.793343658763213 270.22682447002217, -8.340825305708897 270.3218639899442" stroke="#e28343" fill="none">
		<title>.id(nerve_feature_27_outline)</title>
	</path>
	<path d="M -10.022609126345621 266.8783233047179 C -10.44300644085889 266.75981144697846, -10.863403755312413 266.6412995893211, -11.283801069819003 266.5227877315822" stroke="#01136e" fill="none">
		<title>.id(nerve_feature_28)</title>
	</path>
	<path d="M -9.47995068842238 264.9533501049692 C -9.900348002935647 264.83483824722975, -10.320745317383595 264.71632638957396, -10.741142631890185 264.59781453183507 C -11.161539946396774 264.4793026740962, -12.24685682225441 268.3292490735904, -11.82645950774782 268.4477609313293 C -11.406062193241231 268.5662727890682, -10.985664878782131 268.68478464672717, -10.565267564268863 268.80329650446663 C -10.144870249755595 268.9218083622061, -9.059553373909111 265.0718619627087, -9.47995068842238 264.9533501049692" stroke="#e28343" fill="none">
		<title>.id(nerve_feature_28_outline)</title>
	</path>
	<path d="M -13.079513546386899 280.3922844487656 C -13.39282820992952 280.2235028484636, -13.70614287344101 280.054721248477, -14.019457536975354 279.8859396481777" stroke="#01136e" fill="none">
		<title>.id(nerve_feature_29)</title>
	</path>
	<path d="M -12.130992811701843 278.6315151805557 C -12.444307475244464 278.4627335802537, -12.757622138748415 278.2939519802711, -13.070936802282759 278.12517037997185 C -13.384251465817103 277.9563887796726, -15.281292935202293 281.47792731608433, -14.967978271667949 281.6467089163836 C -14.654663608133605 281.81549051668287, -14.341348944614577 281.98427211667354, -14.028034281071955 282.15305371697553 C -13.714719617529333 282.32183531727753, -11.81767814815922 278.8002967808577, -12.130992811701843 278.6315151805557" stroke="#e28343" fill="none">
		<title>.id(nerve_feature_29_outline)</title>
	</path>
	<path d="M -14.356728163392603 286.25229862892263 C -14.722768073673969 286.0478904357123, -15.088807983920384 285.84348224255325, -15.454847894203112 285.63907404931876" stroke="#01136e" fill="none">
		<title>.id(nerve_feature_30)</title>
	</path>
	<path d="M -13.381607225426242 284.50612018548117 C -13.747647135707608 284.30171199227084, -14.11368704586894 284.0973037991593, -14.479726956151667 283.8928956059248 C -14.845766866434396 283.68848741269034, -16.796008742537282 287.1808442994782, -16.429968832254556 287.3852524927127 C -16.06392892197183 287.5896606859472, -15.69788901164033 287.79406887915377, -15.331849101358964 287.9984770723641 C -14.965809191077598 288.2028852655744, -13.015567315144876 284.7105283786915, -13.381607225426242 284.50612018548117" stroke="#e28343" fill="none">
		<title>.id(nerve_feature_30_outline)</title>
	</path>
	<path d="M -9.350770250523109 39.74321737556325 C -9.522577437641417 39.812454219414505, -9.694384624743977 39.88169106327043, -9.866191811860762 39.95092790712178" stroke="#01136e" fill="none">
		<title>.id(nerve_feature_31)</title>
	</path>
	<path d="M -10.09833311875614 37.88818374836421 C -10.270140305874447 37.95742059221547, -10.441947492983564 38.02665743607404, -10.61375468010035 38.09589427992539 C -10.785561867217135 38.16513112377674, -9.29043613073796 41.87519837816952, -9.118628943621175 41.80596153431817 C -8.94682175650439 41.73672469046682, -8.775014569408386 41.66748784661354, -8.603207382290078 41.59825100276228 C -8.43140019517177 41.529014158911025, -9.926525931637832 37.818946904512956, -10.09833311875614 37.88818374836421" stroke="#e28343" fill="none">
		<title>.id(nerve_feature_31_outline)</title>
	</path>
	<path d="M 8.185096350771936 228.38480252474307 C 8.200777840484578 228.34903856735986, 8.21645933019269 228.31327461011318, 8.232140819902362 228.27751065274444 M -3.619208607991202 261.181128065584 C -3.8226664370089734 261.2780548542967, -4.026124265997426 261.37498164304634, -4.229582095015551 261.4719084317589 M -3.601107725467299 261.6584365661204 C -3.679779934019757 261.6295583847022, -3.7584521425642285 261.6006802032816, -3.8371243511165587 261.5718020218754 M -8.507558962946732 263.3171918823833 C -8.590663907321904 263.50453868619695, -8.673768851696423 263.69188548982083, -8.75687379607117 263.87923229362553 M -12.323252267278876 265.1339029257267 C -12.320540960366746 265.2283313318272, -12.317829653465521 265.32275973789956, -12.3151183465529 265.4171881439834 M -23.49538039149084 283.9443672517586 C -22.180212161346816 281.8113073140747, -20.865043931220583 279.6782473765387, -19.549875701008748 277.5451874389162 C -18.234707470796902 275.41212750129364, -16.919539240761583 273.2790675635345, -15.604371010558026 271.146007625912 M -7.9297466526089 268.36456627601166 C -7.477228299554584 268.45960579593367, -7.02470994656511 268.55464531576, -6.572191593520992 268.649684835682 M -10.022609126345621 266.8783233047179 C -10.44300644085889 266.75981144697846, -10.863403755312413 266.6412995893211, -11.283801069819003 266.5227877315822 M -13.079513546386899 280.3922844487656 C -13.39282820992952 280.2235028484636, -13.70614287344101 280.054721248477, -14.019457536975354 279.8859396481777 M -14.356728163392603 286.25229862892263 C -14.722768073673969 286.0478904357123, -15.088807983920384 285.84348224255325, -15.454847894203112 285.63907404931876" stroke="#01136e" fill="none">
		<title>.id(nerve_feature_32)</title>
	</path>
	<path d="M 10.016756713890272 229.18793409191073 C 10.032438203602915 229.15217013452752, 10.048119693247491 229.11640617742574, 10.063801182957164 229.080642220057 C 10.079482672666837 229.04487826268826, 6.416161946557233 227.43861512806313, 6.400480456847561 227.47437908543188 C 6.384798967137888 227.51014304280062, 6.369117477366243 227.5459070001922, 6.3534359876536 227.5816709575754 C 6.337754497940957 227.6174349149586, 10.00107522417763 229.22369804929394, 10.016756713890272 229.18793409191073 M -4.479380370392669 259.37555210784444 C -4.682838199410441 259.47247889655716, -4.886296028396444 259.5694056853056, -5.089753857414569 259.66633247401813 C -5.293211686432693 259.7632592627307, -3.572868161634658 263.3744111782122, -3.369410332616533 263.27748438949965 C -3.1659525035984086 263.1805576007871, -2.962494674607506 263.0836308120363, -2.7590368455897343 262.98670402332357 C -2.5555790165719627 262.88977723461085, -4.275922541374897 259.2786253191317, -4.479380370392669 259.37555210784444 M -2.911931503700259 259.7809286073221 C -2.990603712252717 259.7520504259039, -3.0692759210472533 259.72317224439155, -3.1479481295995835 259.6942940629853 C -3.2266203381519136 259.66541588157907, -4.6049727811858645 263.4204317993592, -4.526300572633534 263.44930998076546 C -4.447628364081204 263.4781881621717, -4.368956155786797 263.50706634350047, -4.290283947234339 263.53594452491865 C -4.2116117386818805 263.5648227063368, -2.833259295147801 259.8098067887403, -2.911931503700259 259.7809286073221 M -10.335762153551647 262.506221418148 C -10.41886709792682 262.69356822196164, -10.501972042288555 262.8809150255567, -10.585076986663303 263.0682618293614 C -10.66818193103805 263.2556086331661, -7.011775549853786 264.87754956169437, -6.928670605479038 264.69020275788967 C -6.84556566110429 264.50285595408496, -6.762460716716989 264.31550915043226, -6.679355772341816 264.12816234661864 C -6.596250827966644 263.940815542805, -10.252657209176474 262.3188746143344, -10.335762153551647 262.506221418148 M -14.32242834999633 265.1913049317065 C -14.319717043084198 265.28573333780696, -14.317005736182386 265.3801617438998, -14.314294429269765 265.47459014998367 C -14.311583122357144 265.56901855606753, -10.313230956923414 265.45421454406704, -10.315942263836035 265.3597861379832 C -10.318653570748657 265.2653577318993, -10.321364877649293 265.1709293258474, -10.324076184561424 265.07650091974693 C -10.326787491473555 264.9820725136465, -14.32513965690846 265.09687652560604, -14.32242834999633 265.1913049317065 M -21.79296066318013 284.9940181788093 C -20.477792433036104 282.86095824112545, -19.162624202947534 280.72789830365053, -17.8474559727357 278.594838366028 C -16.532287742523852 276.46177842840547, -15.217119512485581 274.32871849064156, -13.901951282282024 272.19565855301903 C -12.586783052078466 270.0625986153965, -15.99162250863047 267.9632967611824, -17.306790738834028 270.0963566988049 C -18.621958969037586 272.22941663642746, -19.937127199069952 274.3624765741818, -21.25229542928179 276.49553651180435 C -22.567463659493633 278.6285964494269, -23.882631889657528 280.761656387024, -25.197800119801553 282.8947163247079 C -26.512968349945577 285.02777626239174, -23.108128893324153 287.1270781164932, -21.79296066318013 284.9940181788093 M -8.340825305708897 270.3218639899442 C -7.888306952654581 270.4169035098662, -7.435788599673979 270.51194302969066, -6.983270246629861 270.60698254961267 C -6.530751893585742 270.7020220695347, -5.708594587368004 266.7874266416734, -6.1611129404121225 266.6923871217514 C -6.613631293456241 266.59734760182937, -7.066149646454587 266.50230808200115, -7.518667999508903 266.40726856207914 C -7.971186352563219 266.3122290421571, -8.793343658763213 270.22682447002217, -8.340825305708897 270.3218639899442 M -9.47995068842238 264.9533501049692 C -9.900348002935647 264.83483824722975, -10.320745317383595 264.71632638957396, -10.741142631890185 264.59781453183507 C -11.161539946396774 264.4793026740962, -12.24685682225441 268.3292490735904, -11.82645950774782 268.4477609313293 C -11.406062193241231 268.5662727890682, -10.985664878782131 268.68478464672717, -10.565267564268863 268.80329650446663 C -10.144870249755595 268.9218083622061, -9.059553373909111 265.0718619627087, -9.47995068842238 264.9533501049692 M -12.130992811701843 278.6315151805557 C -12.444307475244464 278.4627335802537, -12.757622138748415 278.2939519802711, -13.070936802282759 278.12517037997185 C -13.384251465817103 277.9563887796726, -15.281292935202293 281.47792731608433, -14.967978271667949 281.6467089163836 C -14.654663608133605 281.81549051668287, -14.341348944614577 281.98427211667354, -14.028034281071955 282.15305371697553 C -13.714719617529333 282.32183531727753, -11.81767814815922 278.8002967808577, -12.130992811701843 278.6315151805557 M -13.381607225426242 284.50612018548117 C -13.747647135707608 284.30171199227084, -14.11368704586894 284.0973037991593, -14.479726956151667 283.8928956059248 C -14.845766866434396 283.68848741269034, -16.796008742537282 287.1808442994782, -16.429968832254556 287.3852524927127 C -16.06392892197183 287.5896606859472, -15.69788901164033 287.79406887915377, -15.331849101358964 287.9984770723641 C -14.965809191077598 288.2028852655744, -13.015567315144876 284.7105283786915, -13.381607225426242 284.50612018548117" stroke="#e28343" fill="none">
		<title>.id(nerve_feature_32_outline)</title>
	</path>
	<path d="M 13.396441714731107 73.20070533871281 C 13.09061195218004 72.32701197890069, 13.344384104916452 71.67947594754875, 13.39320966978143 71.60326615808452" stroke="#01136e" fill="none">
		<title>.id(nerve_feature_33)</title>
	</path>
	<path d="M 15.284133441596941 72.53993310539614 C 14.978303679045874 71.66623974558402, 15.02841203503697 72.75838740386665, 15.077237599901947 72.68217761440242 C 15.126063164766924 72.60596782493819, 11.758007304525888 70.4481449123024, 11.709181739660911 70.52435470176663 C 11.660356174795934 70.60056449123086, 11.202920225314207 72.98778421221735, 11.508749987865274 73.86147757202947 C 11.81457975041634 74.7351709318416, 15.589963204148008 73.41362646520827, 15.284133441596941 72.53993310539614" stroke="#e28343" fill="none">
		<title>.id(nerve_feature_33_outline)</title>
	</path>
	<path d="M 21.838714691162153 118.96933057369344 C 21.755761232360786 118.97590676421308, 21.67280777355133 118.98248295475709, 21.589854314749292 118.98905914527526" stroke="#01136e" fill="none">
		<title>.id(nerve_feature_34)</title>
	</path>
	<path d="M 21.680659245532432 116.97558573643197 C 21.597705786731066 116.9821619269516, 21.514752327957844 116.98873811749274, 21.431798869155806 116.99531430801092 C 21.348845410353768 117.0018904985291, 21.66495630154074 120.98938017305778, 21.74790976034278 120.98280398253961 C 21.830863219144817 120.97622779202143, 21.913816677990507 120.96965160147455, 21.996770136791874 120.96307541095491 C 22.07972359559324 120.95649922043528, 21.7636127043338 116.96900954591233, 21.680659245532432 116.97558573643197" stroke="#e28343" fill="none">
		<title>.id(nerve_feature_34_outline)</title>
	</path>
	<path d="M -18.911952824438394 24.13612214387834 C -18.73966213164529 23.98668214994613, -18.56737143887829 23.83724215601135, -18.39508074608387 23.687802162077222 M -19.418033709754866 24.753470903137043 C -19.414436645400606 24.809813828957736, -19.410839581070505 24.866156754764408, -19.407242516719453 24.922499680579577" stroke="#01136e" fill="none">
		<title>.id(nerve_feature_35)</title>
	</path>
	<path d="M -17.601483940263396 25.646973329008475 C -17.42919324747029 25.497533335076266, -17.256902554699398 25.348093341138107, -17.08461186190498 25.19865334720398 C -16.91232116911056 25.049213353269852, -19.533258937468343 22.027510983016338, -19.705549630262762 22.176950976950465 C -19.877840323057182 22.326390970884592, -20.050131015820288 22.475830964815994, -20.222421708613393 22.625270958748203 C -20.394712401406498 22.77471095268041, -17.7737746330565 25.796413322940683, -17.601483940263396 25.646973329008475 M -21.41397028230335 24.880896168933955 C -21.41037321794909 24.93723909475465, -21.40677615362542 24.99358202046058, -21.403179089274367 25.04992494627575 C -21.399582024923316 25.106267872090918, -17.407708879813487 24.851417340698575, -17.41130594416454 24.795074414883405 C -17.41490300851559 24.738731489068236, -17.418500072852122 24.682388563160824, -17.422097137206382 24.62604563734013 C -17.425694201560642 24.569702711519437, -21.41756734665761 24.82455324311326, -21.41397028230335 24.880896168933955" stroke="#e28343" fill="none">
		<title>.id(nerve_feature_35_outline)</title>
	</path>
	<path d="M -28.39914228525214 9.997658693419302 C -26.427490563227018 13.155901058603565, -24.455064913553063 16.31536442346891, -22.48596097080469 19.469225830737532 C -20.51685702805632 22.623087238006153, -18.590044666392565 25.759879297900607, -16.832555576113347 28.98325003861924 C -15.075066485834132 32.20662077933786, -12.178107419788908 34.243058559155756, -10.225624997539846 37.049094039528555 C -8.273142575290787 39.855129519901354, -7.641559625532709 43.47672769196584, -5.573784975750621 45.92619839753884 C -3.5060103259685316 48.37566910311184, -1.1590767498950538 51.60642096269711, 1.1526120356467806 53.86196715521551 C 3.4643008211886164 56.11751334773389, 5.4237717468416164 58.92071851730353, 7.202882203062119 61.40330121509341 C 8.98199265928262 63.88588391288331, 10.929430998539527 67.19372596145391, 12.34379281852525 69.93653115165398 C 13.758154638510973 72.67933634185404, 16.289172642708998 72.58542624134712, 18.35100655010795 76.91611228308675 C 20.4128404575069 81.24679832482634, 22.605287349475518 86.11745196764532, 22.68225297692628 89.98567690859682 C 22.759218604377036 93.85390184954831, 22.975026747068675 95.58296936322667, 23.20409377554058 96.88374561485969 C 23.433160804012488 98.18452186649276, 23.024221186852497 98.2861023294824, 23.304997266625413 99.24724981821737 C 23.585773346398323 100.20839730695238, 22.107730050451874 102.88054960136033, 21.851109592186962 107.4987988503129 C 21.594489133922046 112.11704809926545, 22.790104694743675 117.33178990209221, 21.65044840307503 122.85003166540221 C 20.510792111406378 128.3682734287122, 17.56412345715069 134.04687528778084, 16.417915789277462 138.8369158113981 C 15.271708121404242 143.62695633501534, 15.065297094779321 148.21972886723918, 14.078338679425949 152.94508475279537 C 13.09138026407258 157.67044063835158, 14.600918642525736 163.13902343675235, 15.549180610832664 167.8930578466244 C 16.497442579139598 172.64709225649645, 15.611178774909328 176.7612156228133, 15.447601491529618 180.77583943002833" stroke="#01136e" fill="none">
		<title>.id(nerve_feature_36)</title>
	</path>
	<path d="M -30.095681825849987 11.056787385877424 C -28.124030103824865 14.215029751061685, -26.15155921857301 17.374565571993067, -24.182455275824637 20.52842697926169 C -22.213351333076268 23.682288386530306, -20.34599909833644 26.717284140658712, -18.58851000805722 29.940654881377345 C -16.831020917778005 33.16402562209596, -13.819792270038045 35.38536799729521, -11.867309847788983 38.19140347766801 C -9.914827425539924 40.9974389580408, -9.169824660854797 44.766846284116184, -7.102050011072708 47.21631698968918 C -5.03427536129062 49.66578769526218, -2.5558006144696197 53.03791055264455, -0.2441118289277855 55.29345674516295 C 2.0675769566140554 57.54900293768134, 3.7981146072428427 60.0857244677053, 5.577225063463345 62.56830716549518 C 7.356335519683842 65.05088986328508, 9.151851826913244 68.11035690605507, 10.566213646898968 70.85316209625515 C 11.98057546688469 73.5959672864552, 14.483387265319118 73.44515827564902, 16.545221172718072 77.77584431738865 C 18.60705508011702 82.10653035912824, 20.60568311800932 86.15723786341853, 20.68264874546008 90.02546280437002 C 20.75961437291084 93.8936877453215, 21.005334918730757 95.92983259474425, 21.234401947202663 97.23060884637728 C 21.463468975674566 98.53138509801035, 21.104458340449742 98.84691478794922, 21.38523442022266 99.80806227668418 C 21.666010499995565 100.76920976541918, 20.1108105668492 102.76958755375831, 19.854190108584287 107.38783680271088 C 19.59756965031937 112.00608605166343, 20.83143969195968 116.92727611138888, 19.691783400291033 122.44551787469888 C 18.552127108622386 127.96375963800887, 15.61903579624257 133.5814357198636, 14.472828128369343 138.37147624348086 C 13.326620460496123 143.1615167670981, 13.107544085223482 147.8108240450922, 12.12058566987011 152.5361799306484 C 11.133627254516739 157.2615358162046, 12.639555637491107 163.53024608753006, 13.587817605798035 168.2842804974021 C 14.536079574104969 173.03831490727416, 13.612836894787105 176.67979246793965, 13.449259611407395 180.69441627515468 C 13.285682328027686 184.7090400823697, 17.282366088272127 184.871886392117, 17.44594337165184 180.85726258490197 C 17.609520655031552 176.84263877768694, 18.45880558417423 172.25586960571874, 17.5105436158673 167.5018351958467 C 16.562281647560365 162.74780078597465, 15.04913327362842 158.07934546049856, 16.03609168898179 153.35398957494237 C 17.023050104335162 148.62863368938616, 17.21679578231236 144.09239590293257, 18.363003450185584 139.30235537931532 C 19.509211118058808 134.51231485569807, 22.46945711419037 128.77278721941553, 23.60911340585902 123.25454545610553 C 24.74876969752767 117.73630369279554, 23.59140861752472 112.22801014686746, 23.848029075789633 107.60976089791491 C 24.10464953405455 102.99151164896234, 25.50553619280108 99.64758484848558, 25.224760113028168 98.6864373597506 C 24.94398403325525 97.72528987101559, 25.40285263235041 97.83765863497517, 25.173785603878503 96.53688238334213 C 24.944718575406593 95.23610613170908, 24.758822835843233 93.81411595377512, 24.681857208392476 89.94589101282362 C 24.604891580941715 86.07766607187212, 22.218625834896777 80.38706629052444, 20.156791927497824 76.05638024878483 C 18.09495802009888 71.72569420704522, 15.535733810137256 71.76270539725287, 14.121371990151532 69.0199002070528 C 12.707010170165809 66.27709501685274, 10.607649798881397 62.720877962481545, 8.828539342660894 60.23829526469165 C 7.04942888644039 57.75571256690176, 4.861024685763177 54.686023757786444, 2.549335900221342 52.430477565268056 C 0.23764711467951227 50.17493137274967, -1.9777452906464439 47.0855505109615, -4.045519940428532 44.6360798053885 C -6.1132945902106215 42.1866090998155, -6.631457725041651 38.712820081761905, -8.583940147290713 35.9067846013891 C -10.536422569539772 33.1007491210163, -13.319112053890258 31.249215936579755, -15.076601144169476 28.025845195861123 C -16.83409023444869 24.8024744551425, -18.820362723036375 21.563886089482, -20.789466665784744 18.410024682213376 C -22.758570608533116 15.256163274944754, -24.73095102262917 12.096772366145444, -26.702602744654293 8.93853000096118 C -28.674254466679415 5.780287635776915, -32.06733354787511 7.898545020693163, -30.095681825849987 11.056787385877424" stroke="#e28343" fill="none">
		<title>.id(nerve_feature_36_outline)</title>
	</path>
	<path d="M -16.939568537024556 27.59101084256293 C -16.799420953126493 27.474251770381784, -16.659273369238058 27.357492698199934, -16.519125785339792 27.240733626018812" stroke="#01136e" fill="none">
		<title>.id(nerve_feature_37)</title>
	</path>
	<path d="M -15.659397628642601 29.127618289288513 C -15.519250044744538 29.010859217107367, -15.379102460857355 28.89410014492656, -15.23895487695909 28.77734107274544 C -15.098807293060824 28.660582000564318, -17.65914910982223 25.587367107111064, -17.799296693720496 25.704126179292185 C -17.93944427761876 25.820885251473307, -18.079591861508447 25.9376443236562, -18.21973944540651 26.054403395837348 C -18.359887029304574 26.171162468018494, -15.799545212540664 29.24437736146966, -15.659397628642601 29.127618289288513" stroke="#e28343" fill="none">
		<title>.id(nerve_feature_37_outline)</title>
	</path>
	<path d="M 1.0332488737525258 245.72556187984623 C 0.8168674296390968 245.64863570386916, 0.6004859854553917 245.57170952784975, 0.38410454134244276 245.494783351849 M 0.5017246297642921 250.01382573593156 C 0.5882653557319997 249.83983370088913, 0.6748060816730147 249.6658416656456, 0.7613468076195478 249.49184963060492 M -0.9586658789345324 251.0697382949371 C -1.2035870190794815 250.81753269791665, -1.4485081591706128 250.5653271007783, -1.693429299322627 250.31312150377573 M -3.0332661398081635 261.4056872921912 C -3.036267663819945 261.4861588253251, -3.03926918784249 261.5666303584362, -3.0422707118502883 261.64710189158933" stroke="#01136e" fill="none">
		<title>.id(nerve_feature_38)</title>
	</path>
	<path d="M 1.703195156427985 243.841106526613 C 1.486813712314556 243.76418035063594, 1.270432268315222 243.68725417468207, 1.0540508242022733 243.61032799868133 C 0.8376693800893245 243.5334018226806, -0.5022231856303365 247.30231252901595, -0.2858417415173876 247.3792387050167 C -0.06946029740443871 247.45616488101743, 0.14692114696363756 247.53309105710238, 0.36330259107706664 247.61001723307945 C 0.5796840351904957 247.6869434090565, 1.919576600541414 243.91803270259007, 1.703195156427985 243.841106526613 M 2.292449426908367 250.90450227704696 C 2.3789901528760744 250.73051024200453, 2.465530878900389 250.55651820659352, 2.552071604846922 250.38252617155285 C 2.638612330793455 250.20853413651218, -0.9428372636612936 248.4271810546163, -1.0293779896078266 248.60117308965698 C -1.1159187155543595 248.77516512469765, -1.2024594414120753 248.94915715977373, -1.2890001673797828 249.12314919481616 C -1.3755408933474904 249.2971412298586, 2.2059087009406593 251.0784943120894, 2.292449426908367 250.90450227704696 M 0.4761162964759311 249.6763969479857 C 0.23119515633098198 249.42419135096523, -0.01372598382967638 249.17198575375528, -0.25864712398169054 248.91978015675272 C -0.5035682641337047 248.66757455975016, -3.3731326148155776 251.4542572537962, -3.1282114746635634 251.70646285079874 C -2.8832903345115493 251.9586684478013, -2.638369194489945 252.21087404486806, -2.393448054344996 252.46307964188853 C -2.1485269142000467 252.715285238909, 0.7210374366208803 249.92860254500616, 0.4761162964759311 249.6763969479857 M -5.031876359260053 261.33114072484926 C -5.034877883271835 261.41161225798317, -5.037879407298728 261.4920837912108, -5.040880931306527 261.5725553243639 C -5.043882455314325 261.65302685751703, -1.0466620164018487 261.80211999196786, -1.0436604923940505 261.72164845881474 C -1.0406589683862522 261.6411769256616, -1.0376574443680546 261.56070539266705, -1.0346559203562733 261.48023385953314 C -1.031654396344492 261.39976232639924, -5.0288748352482715 261.25066919171536, -5.031876359260053 261.33114072484926" stroke="#e28343" fill="none">
		<title>.id(nerve_feature_38_outline)</title>
	</path>
	<path d="M 11.630984468462161 217.65494082864046 C 11.586904580663042 217.57281162075515, 11.542824692841732 217.49068241276444, 11.498744805036136 217.40855320487154 M 12.034114796084896 219.95390039306307 C 12.304397638038756 220.17049491376113, 12.574680479964291 220.38708943420716, 12.844963321921803 220.60368395487922 M 7.873989131930131 232.3473904441231 C 8.246530646036685 232.54242303154354, 8.619072160108683 232.73745561895518, 8.991613674212946 232.93248820635765 M 5.236025743738187 235.69632273734217 C 5.147176657735213 235.5421757157308, 5.058327571745192 235.38802869414462, 4.969478485743139 235.23388167255774" stroke="#01136e" fill="none">
		<title>.id(nerve_feature_39)</title>
	</path>
	<path d="M 13.393210623974442 216.70912954892955 C 13.349130736175322 216.62700034104424, 13.305050848332522 216.5448711330135, 13.260970960526926 216.46274192512058 C 13.21689107272133 216.38061271722768, 9.69243876173975 218.2722352767296, 9.736518649545346 218.3543644846225 C 9.780598537350942 218.4364936925154, 9.824678425150761 218.51862290046606, 9.86875831294988 218.60075210835137 C 9.912838200749 218.6828813162367, 13.437290511773561 216.79125875681487, 13.393210623974442 216.70912954892955 M 10.78342856016063 221.51460021662606 C 11.053711402114489 221.73119473732413, 11.323994244141758 221.9477892578517, 11.59427708609927 222.16438377852376 C 11.864559928056782 222.38097829919582, 14.365932399701848 219.25957865190674, 14.095649557744336 219.04298413123468 C 13.825366715786824 218.82638961056261, 13.555083873963023 218.60979509019813, 13.284801032009163 218.39320056950007 C 13.014518190055304 218.176606048802, 10.51314571820677 221.298005695928, 10.78342856016063 221.51460021662606 M 6.946379007915342 234.1192650045323 C 7.318920522021896 234.31429759195274, 7.69146203615647 234.50933017939712, 8.064003550260734 234.7043627667996 C 8.436545064365 234.89939535420206, 10.29176531226942 231.35564623331817, 9.919223798165158 231.1606136459157 C 9.546682284060894 230.96558105851324, 9.174140770051475 230.77054847113433, 8.80159925594492 230.5755158837139 C 8.429057741838365 230.38048329629348, 6.573837493808787 233.92423241711188, 6.946379007915342 234.1192650045323 M 6.968795220756503 234.69756854360196 C 6.87994613475353 234.54342152199058, 6.791097048699309 234.38927450029303, 6.702247962697256 234.23512747870615 C 6.613398876695203 234.08098045711927, 3.147859922786968 236.07848884482246, 3.2367090087890213 236.23263586640934 C 3.3255580947910746 236.38678288799622, 3.4144071807168968 236.540929909471, 3.503256266719871 236.69507693108238 C 3.5921053527228453 236.84922395269376, 7.057644306759476 234.85171556521334, 6.968795220756503 234.69756854360196" stroke="#e28343" fill="none">
		<title>.id(nerve_feature_39_outline)</title>
	</path>
	<path d="M -6.077011392919768 44.46212949615062 C -6.006517509423922 44.29831970204219, -5.936023625928729 44.13450990792305, -5.865529742432135 43.97070011381319" stroke="#01136e" fill="none">
		<title>.id(nerve_feature_40)</title>
	</path>
	<path d="M -4.239899672242666 45.252711892710785 C -4.16940578874682 45.08890209860236, -4.098911905252157 44.925092304484444, -4.028418021755563 44.761282510374585 C -3.957924138258969 44.597472716264726, -7.632147579612113 43.01630792314193, -7.702641463108707 43.18011771725179 C -7.773135346605301 43.34392751136165, -7.843629230101024 43.507737305482024, -7.914123113596871 43.67154709959045 C -7.984616997092717 43.83535689369887, -4.3103935557385125 45.41652168681921, -4.239899672242666 45.252711892710785" stroke="#e28343" fill="none">
		<title>.id(nerve_feature_40_outline)</title>
	</path>
	<path d="M 14.915820870661406 178.86829291439193 C 14.740381017030014 178.71548778040798, 14.564941163393025 178.56268264646258, 14.389501309758774 178.4098775124988" stroke="#01136e" fill="none">
		<title>.id(nerve_feature_41)</title>
	</path>
	<path d="M 16.229395464746126 177.3601411362956 C 16.053955611114734 177.20733600231165, 15.878515757366936 177.05453086826972, 15.703075903732685 176.90172573430596 C 15.527636050098435 176.7489206003422, 12.900486862150613 179.7652241567279, 13.075926715784863 179.91802929069166 C 13.251366569419114 180.07083442465543, 13.426806422945294 180.22363955850432, 13.602246276576686 180.37644469248826 C 13.777686130208078 180.5292498264722, 16.40483531837752 177.51294627027954, 16.229395464746126 177.3601411362956" stroke="#e28343" fill="none">
		<title>.id(nerve_feature_41_outline)</title>
	</path>
	<path d="M -14.32500692508843 32.886618724437824 C -14.325344919058693 33.05915178464595, -14.325682913037925 33.231684844850015, -14.326020907008427 33.40421790505313" stroke="#01136e" fill="none">
		<title>.id(nerve_feature_42)</title>
	</path>
	<path d="M -16.325003087379752 32.882700712187955 C -16.325341081350015 33.05523377239608, -16.32567907532924 33.227766832597254, -16.32601706929974 33.40029989280037 C -16.326355063270242 33.572832953003484, -12.326362738687616 33.580668977509006, -12.326024744717113 33.40813591730589 C -12.32568675074661 33.235602857102776, -12.325348756767372 33.06306979689582, -12.32501076279711 32.89053673668769 C -12.324672768826847 32.71800367647957, -16.32466509340949 32.71016765197983, -16.325003087379752 32.882700712187955" stroke="#e28343" fill="none">
		<title>.id(nerve_feature_42_outline)</title>
	</path>
	<path d="M 13.513550106720892 208.48685997668326 C 13.634613057139944 208.56316982914745, 13.755676007542391 208.63947968169853, 13.876738957963344 208.71578953417097 M 10.767186335585933 221.08267604757748 C 10.792941751735034 221.1254367926366, 10.818697167886743 221.1681975374395, 10.844452584036159 221.21095828249307 M 10.376747049798688 225.73577102192527 C 10.840784397429902 226.03184701394653, 11.304821745032894 226.3279230059072, 11.768859092652447 226.62399899792834" stroke="#01136e" fill="none">
		<title>.id(nerve_feature_43)</title>
	</path>
	<path d="M 12.447072696645087 210.17878962468816 C 12.568135647064139 210.25509947715236, 12.68919859739613 210.33140932965904, 12.810261547817083 210.40771918213147 C 12.931324498238036 210.4840290346039, 15.064279318530557 207.1001697386829, 14.943216368109605 207.02385988621046 C 14.822153417688652 206.94755003373803, 14.70109046721575 206.87124018114255, 14.580027516796697 206.79493032867836 C 14.458964566377645 206.71862047621417, 12.326009746226035 210.10247977222397, 12.447072696645087 210.17878962468816 M 9.053952339698457 222.1145816999195 C 9.079707755847558 222.15734244497864, 9.10546317206425 222.20010318988943, 9.131218588213665 222.242863934943 C 9.15697400436308 222.28562467999654, 12.583441996008068 220.2218133750967, 12.557686579858652 220.17905263004315 C 12.531931163709237 220.1362918849896, 12.50617574762251 220.09353114029457, 12.48042033147341 220.05077039523545 C 12.454664915324308 220.00800965017632, 9.028196923549356 222.07182095486039, 9.053952339698457 222.1145816999195 M 9.300980944848959 227.42180995606685 C 9.765018292480173 227.7178859480881, 10.229055640064246 228.0139619400367, 10.693092987683798 228.31003793205784 C 11.15713033530335 228.60611392407898, 13.308662545240647 225.23403605581998, 12.844625197621095 224.93796006379884 C 12.380587850001543 224.6418840717777, 11.91655050237963 224.34580807980495, 11.452513154748416 224.0497320877837 C 10.988475807117203 223.75365609576244, 8.836943597217745 227.1257339640456, 9.300980944848959 227.42180995606685" stroke="#e28343" fill="none">
		<title>.id(nerve_feature_43_outline)</title>
	</path>
	<path d="M 15.44760149152961 180.7758394300284 C 15.284024208149898 184.79046323724344, 15.189334722749537 189.44658237328343, 14.90483850654214 193.38865790597615 C 14.62034229033474 197.33073343866877, 16.510367399895717 200.4400740461326, 14.862516238025911 203.6968479610373 C 13.214665076156102 206.95362187594202, 12.605627670236748 209.98242872465855, 12.491718805966368 213.6252310224276 C 12.377809941695988 217.26803332019668, 10.426397413959737 221.11146214257224, 9.132902031416 225.57094337684916 C 7.839406648872264 230.03042461112614, 6.072990218791187 234.9974074524635, 4.405769129259249 238.1212386897818 C 2.738548039727309 241.24506992710008, 1.9177640301650423 243.94391602786968, 0.8358136281940947 248.73216088043 C -0.24613677377685272 253.52040573299047, -2.0216621573609386 258.1951486832648, -3.681725367089106 261.4594509476631 C -5.341788576817271 264.7237532120614, -9.566048787035447 261.9771128941426, -12.542293667553146 264.88933507089627 C -15.518538548070834 267.80155724765, -18.322286822430645 272.6240824451066, -20.078737306635006 277.1417090979016 C -21.83518779083937 281.65933575069647, -24.37828900583316 286.93217219778626, -26.375445429586176 289.39819737432464 C -28.372601853339198 291.86422255086296, -31.21046357992245 290.3299224310322, -31.701068880601717 286.9920091942192 C -32.19167418128096 283.65409595740607, -27.824342527802575 278.028097273995, -25.015749533648993 272.9108363986904 C -22.20715653949542 267.79357552338575, -18.309993357640806 262.8854881952405, -13.396114892641592 259.10830936917057 C -8.48223642764237 255.33113054310076, -7.368073283163012 252.93744669467833, -4.934112477064552 253.0530792436822 C -2.500151670966091 253.16871179268608, -3.416573672391123 256.0877943872678, -5.638767827447694 258.29922994195744 C -7.86096198250426 260.510665496647, -7.982799463400875 264.3639932340283, -9.030792248555988 267.7813419258044 C -10.078785033711098 271.1986906175804, -11.363732016487292 274.62232128531576, -11.847925205561138 278.1109016113099 C -12.332118394634984 281.59948193730395, -12.153440074688938 284.7009315780788, -13.614000193539216 287.8568951938161 C -15.074560312389485 291.01285880955345, -16.756028425953904 294.26422738771913, -18.31348167432921 297.5029060117416 C -19.870934922704517 300.74158463576396, -21.429382040648168 303.9829300731733, -22.987368625152815 307.22389463969563 C -24.545355209657455 310.4648592062181, -26.103166142786527 313.706036901621, -27.660737041532588 316.9472717235174 C -29.21830794027864 320.1885065454138, -30.77565487250036 323.429832105222, -32.33279239607437 326.6712498754313 C -33.889929919648374 329.91266764564057, -35.446858960321784 333.15417946560177, -37.00359878386759 336.3957901925605 C -38.56033860741339 339.6374009195193, -40.116889275414565 342.8791105896877, -41.67327031844574 346.1209196666392 C -43.22965136147692 349.3627287435909, -44.78586278573053 352.60463716842753, -46.34192400661104 355.8466414756213 C -47.89798522749155 359.08864578281475, -49.45389624452555 362.3307459180604, -51.00967628999829 365.57293529694624 C -52.565456335471 368.81512467583195, -54.12110540608084 372.05740325199656, -55.6766425469518 375.2997620109204 C -57.23217968782278 378.54212076984396, -58.787604894596456 381.7845596744834, -60.34293704813347 385.02706783737375 C -61.898269201670466 388.26957600026384, -63.45350829721414 391.51215339168493, -65.00867308479665 394.7547877033475 C -66.56383787237912 397.9974220150101, -68.11892834787157 401.2401132227472, -69.6739631650793 404.48284796834747 C -71.22899798228703 407.72558271394746, -72.78397713746418 410.96836097527273, -74.33891921956634 414.2111686550052 C -75.8938613016685 417.453976334738, -77.44876630735108 420.6968134130658, -79.00365278623538 423.9396653179873 C -80.55853926511968 427.1825172229088, -82.11340721428539 430.4253839390116, -83.66827516469195 433.668250662668" stroke="#01136e" fill="none">
		<title>.id(nerve_feature_44)</title>
	</path>
	<path d="M 13.449259611407388 180.69441627515477 C 13.285682328027676 184.7090400823698, 13.194522850521338 189.30261850831232, 12.91002663431394 193.24469404100503 C 12.625530418106539 197.18676957369766, 14.72579957551861 199.53712461222284, 13.077948413648805 202.79389852712754 C 11.430097251778994 206.05067244203227, 10.606604739827805 209.91992013565476, 10.492695875557425 213.56272243342383 C 10.378787011287045 217.2055247311929, 8.50556746314581 220.55431557293713, 7.2120720806020735 225.01379680721405 C 5.918576698058336 229.47327804149103, 4.308560634310348 234.05571310639957, 2.6413395447784107 237.17954434371785 C 0.9741184552464712 240.30337558103614, -0.03305371853809369 243.50310982175998, -1.1150041205090413 248.2913546743203 C -2.19695452247999 253.07959952688077, -3.8043775847533787 257.28854750030894, -5.464440794481546 260.5528497647072 C -7.124504004209718 263.81715202910556, -10.964803556701026 260.5476077020087, -13.941048437218726 263.4598298787624 C -16.917293317736416 266.3720520555161, -20.186352516302627 271.8993348415027, -21.942803000506988 276.4169614942977 C -23.69925348471135 280.9345881470926, -25.932516624296085 285.6734520104503, -27.9296730480491 288.1394771869887 C -29.926829471802122 290.605502363527, -29.23172276243773 290.0390878092625, -29.722328063116997 286.70117457244953 C -30.212933363796235 283.3632613356364, -26.07105773227439 278.9903822763564, -23.26246473812081 273.8731214010518 C -20.453871743967234 268.75586052574715, -17.09112490106214 264.4711614546346, -12.177246436062928 260.6939826285647 C -7.263367971063718 256.9168038024949, -7.4629821883637275 254.9351935003856, -5.029021382265268 255.05082604938946 C -4.497898476673361 253.07380288748536, -4.8273513650811815 254.67015328254203, -7.049545520137752 256.8815888372317 C -9.271739675194318 259.09302439192123, -9.894906961808527 263.77761032625114, -10.94289974696364 267.1949590180272 C -11.99089253211875 270.6123077098032, -13.344742232003986 274.3473694240409, -13.828935421077832 277.835949750035 C -14.313128610151677 281.3245300760291, -13.968490989939053 283.86093742628384, -15.42905110878933 287.0169010420212 C -16.8896112276396 290.1728646577585, -18.558447156588894 293.3974594144667, -20.1159004049642 296.63613803848915 C -21.6733536533395 299.8748166625115, -23.231923692523083 303.11641775747546, -24.78991027702773 306.3573823239978 C -26.347896861532377 309.59834689052025, -27.905826267193437 312.83977107875063, -29.463397165939497 316.081005900647 C -31.020968064685547 319.3222407225434, -32.57842816711292 322.5638018238624, -34.135565690686924 325.8052195940717 C -35.69270321426093 329.04663736428097, -37.249738696134614 332.28837079262865, -38.80647851968042 335.5299815195874 C -40.36321834322622 338.77159224654616, -41.91986754157754 342.0135071171069, -43.47624858460871 345.2553161940584 C -45.03262962763989 348.4971252710101, -46.58893078045645 351.73922061762954, -48.14499200133696 354.9812249248233 C -49.70105322221746 358.22322923201676, -51.25704450585646 361.46549662007783, -52.8128245513292 364.70768599896365 C -54.3686045968019 367.94987537784937, -55.924323983174084 371.19230050478916, -57.479861124045044 374.434659263713 C -59.03539826491602 377.67701802263656, -60.5908834729012 380.91958200481366, -62.14621562643821 384.16209016770404 C -63.7015477799752 387.4045983305941, -65.25683629026517 390.6472787478905, -66.81200107784768 393.88991305955307 C -68.36716586543015 397.13254737121565, -69.92229496675469 400.37531912129987, -71.47732978396242 403.61805386690014 C -73.03236460117013 406.86078861250013, -74.58737144600009 410.10362461779704, -76.14231352810225 413.34643229752953 C -77.69725561020441 416.58923997726237, -79.2521772687047 419.83211178564187, -80.807063747589 423.0749636905634 C -82.3619502264733 426.3178155954849, -83.91682373311653 429.56069390228924, -85.47169168352309 432.80356062594564 C -87.02655963392965 436.046427349602, -83.41972659626737 437.7758074230468, -81.8648586458608 434.5329406993904 C -80.30999069545425 431.290073975734, -78.75512830376606 428.04721885033274, -77.20024182488176 424.80436694541123 C -75.64535534599746 421.5615150404897, -74.09046699313258 418.31871269221364, -72.53552491103042 415.07590501248103 C -70.98058282892826 411.8330973327484, -69.42563136340392 408.5903768153948, -67.8705965461962 405.34764206979463 C -66.31556172898846 402.1049073241945, -64.7605098793281 398.86229665880455, -63.2053450917456 395.61966234714197 C -61.650180304163115 392.3770280354794, -60.09499062336573 389.13455366993355, -58.53965846982872 385.8920455070433 C -56.984326316291714 382.6495373441531, -55.42896111072954 379.40722351705136, -53.87342396985857 376.1648647581276 C -52.31788682898759 372.92250599920396, -50.762308074140094 369.68037397381454, -49.206528028667364 366.43818459492877 C -47.65074798319464 363.195995216043, -46.094917232765646 359.95406233361274, -44.53885601188513 356.7120580264191 C -42.98279479100461 353.4700537192255, -41.426673095313944 350.2283322161717, -39.870292052282764 346.9865231392201 C -38.31391100925159 343.7447140622685, -36.75745887160056 340.5032095924924, -35.20071904805476 337.26159886553364 C -33.64397922450895 334.0199881385749, -32.08715662503582 330.77869792700017, -30.53001910146181 327.53728015679087 C -28.972881577887804 324.2958623865816, -27.41564781587173 321.0547723682842, -25.858076917125672 317.8135375463878 C -24.300506018379618 314.5723027244914, -22.742813557782533 311.3313715219159, -21.18482697327789 308.0904069553935 C -19.626840388773253 304.8494423888711, -18.068516192069534 301.60835260901644, -16.511062943694228 298.36967398499405 C -14.953609695318915 295.13099536097155, -13.25950939713937 291.8528529613484, -11.798949278289095 288.69688934561105 C -10.338389159438822 285.5409257298737, -10.35110817911829 281.8744337985788, -9.866914990044446 278.3858534725847 C -9.382721800970598 274.89727314659063, -8.166677535303446 271.7850735253576, -7.118684750148334 268.3677248335815 C -6.070691964993223 264.9503761418055, -6.450184289814201 261.92830660137275, -4.227990134757631 259.71687104668314 C -2.0057959797010647 257.5054354919936, -0.5024048652588207 253.2636206978868, -2.936365671357281 253.14798814888292 C -7.2731643779622965 250.93969988897106, -9.70110488422102 253.74545728370663, -14.61498334922024 257.5226361097765 C -19.52886181421947 261.29981493584637, -23.960441335023603 266.83129052102436, -26.769034329177185 271.948551396329 C -29.57762732333076 277.0658122716336, -34.17041499876568 283.9449305791757, -33.67980969808642 287.28284381598877 C -33.189204397407174 290.6207570528018, -26.818374234876273 293.1229427381989, -24.821217811123255 290.6569175616605 C -22.824061387370236 288.1908923851222, -19.97112209696739 282.38408335430034, -18.21467161276303 277.8664567015054 C -16.458221128558662 273.34883004871045, -14.119783778405253 269.2310624397839, -11.14353889788756 266.3188402630302 C -8.167294017369867 263.40661808627647, -3.5590731494248233 265.63035439501726, -1.8990099396966578 262.3660521306189 C -0.2389467299684982 259.10174986622064, 1.7046809749262846 253.96121193910017, 2.7866313768972324 249.17296708653978 C 3.8685817788681782 244.38472223397937, 4.502977624208147 242.18676427316402, 6.170198713740086 239.06293303584573 C 7.8374198032720255 235.93910179852745, 9.760236599686191 230.58757118076124, 11.053731982229927 226.1280899464843 C 12.347227364773664 221.66860871220734, 14.37683287210493 217.33054190920046, 14.490741736375313 213.6877396114314 C 14.60465060064569 210.04493731366233, 14.99923290053321 207.85657130985177, 16.647084062403017 204.59979739494705 C 18.294935224272823 201.34302348004235, 16.61515416256294 197.47469730363989, 16.89965037877034 193.5326217709472 C 17.184146594977737 189.59054623825455, 17.28236608827212 184.8718863921171, 17.445943371651833 180.85726258490206 C 17.609520655031545 176.84263877768703, 13.612836894787101 176.67979246793973, 13.449259611407388 180.69441627515477" stroke="#e28343" fill="none">
		<title>.id(nerve_feature_44_outline)</title>
	</path>
	<path d="M 16.26694285124168 73.74153224227564 C 16.367490487444883 73.92264088829269, 15.905476580199462 74.50643610208527, 15.511779387272645 74.63943023740185" stroke="#01136e" fill="none">
		<title>.id(nerve_feature_45)</title>
	</path>
	<path d="M 14.51834851280286 74.71231431853153 C 14.618896149006062 74.89342296454858, 15.265395074100898 72.61162854838739, 14.87169788117408 72.74462268370397 C 14.478000688247263 72.87761681902055, 15.758163700444396 76.66723192641632, 16.15186089337121 76.53423779109974 C 16.545558086298026 76.40124365578316, 18.116084825883704 72.9518588120368, 18.0155371896805 72.77075016601975 C 17.914989553477298 72.5896415200027, 14.417800876599657 74.53120567251447, 14.51834851280286 74.71231431853153" stroke="#e28343" fill="none">
		<title>.id(nerve_feature_45_outline)</title>
	</path>
	<path d="M -28.39914228525214 9.997658693419302 C -26.427490563227018 13.155901058603565, -24.455064913553063 16.31536442346891, -22.48596097080469 19.469225830737532 C -20.51685702805632 22.623087238006153, -18.590044666392565 25.759879297900607, -16.832555576113347 28.98325003861924 C -15.075066485834132 32.20662077933786, -12.178107419788908 34.243058559155756, -10.225624997539846 37.049094039528555 C -8.273142575290787 39.855129519901354, -7.641559625532709 43.47672769196584, -5.573784975750621 45.92619839753884 C -3.5060103259685316 48.37566910311184, -1.1590767498950538 51.60642096269711, 1.1526120356467806 53.86196715521551 C 3.4643008211886164 56.11751334773389, 5.4237717468416164 58.92071851730353, 7.202882203062119 61.40330121509341 C 8.98199265928262 63.88588391288331, 10.929430998539527 67.19372596145391, 12.34379281852525 69.93653115165398 C 13.758154638510973 72.67933634185404, 16.289172642708998 72.58542624134712, 18.35100655010795 76.91611228308675 C 20.4128404575069 81.24679832482634, 22.605287349475518 86.11745196764532, 22.68225297692628 89.98567690859682 C 22.759218604377036 93.85390184954831, 22.975026747068675 95.58296936322667, 23.20409377554058 96.88374561485969 C 23.433160804012488 98.18452186649276, 23.024221186852497 98.2861023294824, 23.304997266625413 99.24724981821737 C 23.585773346398323 100.20839730695238, 22.107730050451874 102.88054960136033, 21.851109592186962 107.4987988503129 C 21.594489133922046 112.11704809926545, 22.790104694743675 117.33178990209221, 21.65044840307503 122.85003166540221 C 20.510792111406378 128.3682734287122, 17.56412345715069 134.04687528778084, 16.417915789277462 138.8369158113981 C 15.271708121404242 143.62695633501534, 15.065297094779321 148.21972886723918, 14.078338679425949 152.94508475279537 C 13.09138026407258 157.67044063835158, 14.600918642525736 163.13902343675235, 15.549180610832664 167.8930578466244 C 16.497442579139598 172.64709225649645, 15.611178774909328 176.7612156228133, 15.447601491529618 180.77583943002833 C 15.284024208149898 184.79046323724344, 15.189334722749537 189.44658237328343, 14.90483850654214 193.38865790597615 C 14.62034229033474 197.33073343866877, 16.510367399895717 200.4400740461326, 14.862516238025911 203.6968479610373 C 13.214665076156102 206.95362187594202, 12.605627670236748 209.98242872465855, 12.491718805966368 213.6252310224276 C 12.377809941695988 217.26803332019668, 10.426397413959737 221.11146214257224, 9.132902031416 225.57094337684916 C 7.839406648872264 230.03042461112614, 6.072990218791187 234.9974074524635, 4.405769129259249 238.1212386897818 C 2.738548039727309 241.24506992710008, 1.9177640301650423 243.94391602786968, 0.8358136281940947 248.73216088043 C -0.24613677377685272 253.52040573299047, -2.0216621573609386 258.1951486832648, -3.681725367089106 261.4594509476631 C -5.341788576817271 264.7237532120614, -9.566048787035447 261.9771128941426, -12.542293667553146 264.88933507089627 C -15.518538548070834 267.80155724765, -18.322286822430645 272.6240824451066, -20.078737306635006 277.1417090979016 C -21.83518779083937 281.65933575069647, -24.37828900583316 286.93217219778626, -26.375445429586176 289.39819737432464 C -28.372601853339198 291.86422255086296, -31.21046357992245 290.3299224310322, -31.701068880601717 286.9920091942192 C -32.19167418128096 283.65409595740607, -27.824342527802575 278.028097273995, -25.015749533648993 272.9108363986904 C -22.20715653949542 267.79357552338575, -18.309993357640806 262.8854881952405, -13.396114892641592 259.10830936917057 C -8.48223642764237 255.33113054310076, -7.368073283163012 252.93744669467833, -4.934112477064552 253.0530792436822 C -2.500151670966091 253.16871179268608, -3.416573672391123 256.0877943872678, -5.638767827447694 258.29922994195744 C -7.86096198250426 260.510665496647, -7.982799463400875 264.3639932340283, -9.030792248555988 267.7813419258044 C -10.078785033711098 271.1986906175804, -11.363732016487292 274.62232128531576, -11.847925205561138 278.1109016113099 C -12.332118394634984 281.59948193730395, -12.153440074688938 284.7009315780788, -13.614000193539216 287.8568951938161 C -15.074560312389485 291.01285880955345, -16.756028425953904 294.26422738771913, -18.31348167432921 297.5029060117416 C -19.870934922704517 300.74158463576396, -21.429382040648168 303.9829300731733, -22.987368625152815 307.22389463969563 C -24.545355209657455 310.4648592062181, -26.103166142786527 313.706036901621, -27.660737041532588 316.9472717235174 C -29.21830794027864 320.1885065454138, -30.77565487250036 323.429832105222, -32.33279239607437 326.6712498754313 C -33.889929919648374 329.91266764564057, -35.446858960321784 333.15417946560177, -37.00359878386759 336.3957901925605 C -38.56033860741339 339.6374009195193, -40.116889275414565 342.8791105896877, -41.67327031844574 346.1209196666392 C -43.22965136147692 349.3627287435909, -44.78586278573053 352.60463716842753, -46.34192400661104 355.8466414756213 C -47.89798522749155 359.08864578281475, -49.45389624452555 362.3307459180604, -51.00967628999829 365.57293529694624 C -52.565456335471 368.81512467583195, -54.12110540608084 372.05740325199656, -55.6766425469518 375.2997620109204 C -57.23217968782278 378.54212076984396, -58.787604894596456 381.7845596744834, -60.34293704813347 385.02706783737375 C -61.898269201670466 388.26957600026384, -63.45350829721414 391.51215339168493, -65.00867308479665 394.7547877033475 C -66.56383787237912 397.9974220150101, -68.11892834787157 401.2401132227472, -69.6739631650793 404.48284796834747 C -71.22899798228703 407.72558271394746, -72.78397713746418 410.96836097527273, -74.33891921956634 414.2111686550052 C -75.8938613016685 417.453976334738, -77.44876630735108 420.6968134130658, -79.00365278623538 423.9396653179873 C -80.55853926511968 427.1825172229088, -82.11340721428539 430.4253839390116, -83.66827516469195 433.668250662668" stroke="#01136e" fill="none">
		<title>.id(nerve_feature_46)</title>
	</path>
	<path d="M -30.095681825849987 11.056787385877424 C -28.124030103824865 14.215029751061685, -26.15155921857301 17.374565571993067, -24.182455275824637 20.52842697926169 C -22.213351333076268 23.682288386530306, -20.34599909833644 26.717284140658712, -18.58851000805722 29.940654881377345 C -16.831020917778005 33.16402562209596, -13.819792270038045 35.38536799729521, -11.867309847788983 38.19140347766801 C -9.914827425539924 40.9974389580408, -9.169824660854797 44.766846284116184, -7.102050011072708 47.21631698968918 C -5.03427536129062 49.66578769526218, -2.5558006144696197 53.03791055264455, -0.2441118289277855 55.29345674516295 C 2.0675769566140554 57.54900293768134, 3.7981146072428427 60.0857244677053, 5.577225063463345 62.56830716549518 C 7.356335519683842 65.05088986328508, 9.151851826913244 68.11035690605507, 10.566213646898968 70.85316209625515 C 11.98057546688469 73.5959672864552, 14.483387265319118 73.44515827564902, 16.545221172718072 77.77584431738865 C 18.60705508011702 82.10653035912824, 20.60568311800932 86.15723786341853, 20.68264874546008 90.02546280437002 C 20.75961437291084 93.8936877453215, 21.005334918730757 95.92983259474425, 21.234401947202663 97.23060884637728 C 21.463468975674566 98.53138509801035, 21.104458340449742 98.84691478794922, 21.38523442022266 99.80806227668418 C 21.666010499995565 100.76920976541918, 20.1108105668492 102.76958755375831, 19.854190108584287 107.38783680271088 C 19.59756965031937 112.00608605166343, 20.83143969195968 116.92727611138888, 19.691783400291033 122.44551787469888 C 18.552127108622386 127.96375963800887, 15.61903579624257 133.5814357198636, 14.472828128369343 138.37147624348086 C 13.326620460496123 143.1615167670981, 13.107544085223482 147.8108240450922, 12.12058566987011 152.5361799306484 C 11.133627254516739 157.2615358162046, 12.639555637491107 163.53024608753006, 13.587817605798035 168.2842804974021 C 14.536079574104969 173.03831490727416, 13.612836894787105 176.67979246793965, 13.449259611407395 180.69441627515468 C 13.285682328027676 184.7090400823698, 13.194522850521338 189.30261850831232, 12.91002663431394 193.24469404100503 C 12.625530418106539 197.18676957369766, 14.72579957551861 199.53712461222284, 13.077948413648805 202.79389852712754 C 11.430097251778994 206.05067244203227, 10.606604739827805 209.91992013565476, 10.492695875557425 213.56272243342383 C 10.378787011287045 217.2055247311929, 8.50556746314581 220.55431557293713, 7.2120720806020735 225.01379680721405 C 5.918576698058336 229.47327804149103, 4.308560634310348 234.05571310639957, 2.6413395447784107 237.17954434371785 C 0.9741184552464712 240.30337558103614, -0.03305371853809369 243.50310982175998, -1.1150041205090413 248.2913546743203 C -2.19695452247999 253.07959952688077, -3.8043775847533787 257.28854750030894, -5.464440794481546 260.5528497647072 C -7.124504004209718 263.81715202910556, -10.964803556701026 260.5476077020087, -13.941048437218726 263.4598298787624 C -16.917293317736416 266.3720520555161, -20.186352516302627 271.8993348415027, -21.942803000506988 276.4169614942977 C -23.69925348471135 280.9345881470926, -25.932516624296085 285.6734520104503, -27.9296730480491 288.1394771869887 C -29.926829471802122 290.605502363527, -29.23172276243773 290.0390878092625, -29.722328063116997 286.70117457244953 C -30.212933363796235 283.3632613356364, -26.07105773227439 278.9903822763564, -23.26246473812081 273.8731214010518 C -20.453871743967234 268.75586052574715, -17.09112490106214 264.4711614546346, -12.177246436062928 260.6939826285647 C -7.263367971063718 256.9168038024949, -7.4629821883637275 254.9351935003856, -5.029021382265268 255.05082604938946 C -4.497898476673361 253.07380288748536, -4.8273513650811815 254.67015328254203, -7.049545520137752 256.8815888372317 C -9.271739675194318 259.09302439192123, -9.894906961808527 263.77761032625114, -10.94289974696364 267.1949590180272 C -11.99089253211875 270.6123077098032, -13.344742232003986 274.3473694240409, -13.828935421077832 277.835949750035 C -14.313128610151677 281.3245300760291, -13.968490989939053 283.86093742628384, -15.42905110878933 287.0169010420212 C -16.8896112276396 290.1728646577585, -18.558447156588894 293.3974594144667, -20.1159004049642 296.63613803848915 C -21.6733536533395 299.8748166625115, -23.231923692523083 303.11641775747546, -24.78991027702773 306.3573823239978 C -26.347896861532377 309.59834689052025, -27.905826267193437 312.83977107875063, -29.463397165939497 316.081005900647 C -31.020968064685547 319.3222407225434, -32.57842816711292 322.5638018238624, -34.135565690686924 325.8052195940717 C -35.69270321426093 329.04663736428097, -37.249738696134614 332.28837079262865, -38.80647851968042 335.5299815195874 C -40.36321834322622 338.77159224654616, -41.91986754157754 342.0135071171069, -43.47624858460871 345.2553161940584 C -45.03262962763989 348.4971252710101, -46.58893078045645 351.73922061762954, -48.14499200133696 354.9812249248233 C -49.70105322221746 358.22322923201676, -51.25704450585646 361.46549662007783, -52.8128245513292 364.70768599896365 C -54.3686045968019 367.94987537784937, -55.924323983174084 371.19230050478916, -57.479861124045044 374.434659263713 C -59.03539826491602 377.67701802263656, -60.5908834729012 380.91958200481366, -62.14621562643821 384.16209016770404 C -63.7015477799752 387.4045983305941, -65.25683629026517 390.6472787478905, -66.81200107784768 393.88991305955307 C -68.36716586543015 397.13254737121565, -69.92229496675469 400.37531912129987, -71.47732978396242 403.61805386690014 C -73.03236460117013 406.86078861250013, -74.58737144600009 410.10362461779704, -76.14231352810225 413.34643229752953 C -77.69725561020441 416.58923997726237, -79.2521772687047 419.83211178564187, -80.807063747589 423.0749636905634 C -82.3619502264733 426.3178155954849, -83.91682373311653 429.56069390228924, -85.47169168352309 432.80356062594564 C -87.02655963392965 436.046427349602, -83.41972659626737 437.7758074230468, -81.8648586458608 434.5329406993904 C -80.30999069545425 431.290073975734, -78.75512830376606 428.04721885033274, -77.20024182488176 424.80436694541123 C -75.64535534599746 421.5615150404897, -74.09046699313258 418.31871269221364, -72.53552491103042 415.07590501248103 C -70.98058282892826 411.8330973327484, -69.42563136340392 408.5903768153948, -67.8705965461962 405.34764206979463 C -66.31556172898846 402.1049073241945, -64.7605098793281 398.86229665880455, -63.2053450917456 395.61966234714197 C -61.650180304163115 392.3770280354794, -60.09499062336573 389.13455366993355, -58.53965846982872 385.8920455070433 C -56.984326316291714 382.6495373441531, -55.42896111072954 379.40722351705136, -53.87342396985857 376.1648647581276 C -52.31788682898759 372.92250599920396, -50.762308074140094 369.68037397381454, -49.206528028667364 366.43818459492877 C -47.65074798319464 363.195995216043, -46.094917232765646 359.95406233361274, -44.53885601188513 356.7120580264191 C -42.98279479100461 353.4700537192255, -41.426673095313944 350.2283322161717, -39.870292052282764 346.9865231392201 C -38.31391100925159 343.7447140622685, -36.75745887160056 340.5032095924924, -35.20071904805476 337.26159886553364 C -33.64397922450895 334.0199881385749, -32.08715662503582 330.77869792700017, -30.53001910146181 327.53728015679087 C -28.972881577887804 324.2958623865816, -27.41564781587173 321.0547723682842, -25.858076917125672 317.8135375463878 C -24.300506018379618 314.5723027244914, -22.742813557782533 311.3313715219159, -21.18482697327789 308.0904069553935 C -19.626840388773253 304.8494423888711, -18.068516192069534 301.60835260901644, -16.511062943694228 298.36967398499405 C -14.953609695318915 295.13099536097155, -13.25950939713937 291.8528529613484, -11.798949278289095 288.69688934561105 C -10.338389159438822 285.5409257298737, -10.35110817911829 281.8744337985788, -9.866914990044446 278.3858534725847 C -9.382721800970598 274.89727314659063, -8.166677535303446 271.7850735253576, -7.118684750148334 268.3677248335815 C -6.070691964993223 264.9503761418055, -6.450184289814201 261.92830660137275, -4.227990134757631 259.71687104668314 C -2.0057959797010647 257.5054354919936, -0.5024048652588207 253.2636206978868, -2.936365671357281 253.14798814888292 C -7.2731643779622965 250.93969988897106, -9.70110488422102 253.74545728370663, -14.61498334922024 257.5226361097765 C -19.52886181421947 261.29981493584637, -23.960441335023603 266.83129052102436, -26.769034329177185 271.948551396329 C -29.57762732333076 277.0658122716336, -34.17041499876568 283.9449305791757, -33.67980969808642 287.28284381598877 C -33.189204397407174 290.6207570528018, -26.818374234876273 293.1229427381989, -24.821217811123255 290.6569175616605 C -22.824061387370236 288.1908923851222, -19.97112209696739 282.38408335430034, -18.21467161276303 277.8664567015054 C -16.458221128558662 273.34883004871045, -14.119783778405253 269.2310624397839, -11.14353889788756 266.3188402630302 C -8.167294017369867 263.40661808627647, -3.5590731494248233 265.63035439501726, -1.8990099396966578 262.3660521306189 C -0.2389467299684982 259.10174986622064, 1.7046809749262846 253.96121193910017, 2.7866313768972324 249.17296708653978 C 3.8685817788681782 244.38472223397937, 4.502977624208147 242.18676427316402, 6.170198713740086 239.06293303584573 C 7.8374198032720255 235.93910179852745, 9.760236599686191 230.58757118076124, 11.053731982229927 226.1280899464843 C 12.347227364773664 221.66860871220734, 14.37683287210493 217.33054190920046, 14.490741736375313 213.6877396114314 C 14.60465060064569 210.04493731366233, 14.99923290053321 207.85657130985177, 16.647084062403017 204.59979739494705 C 18.294935224272823 201.34302348004235, 16.61515416256294 197.47469730363989, 16.89965037877034 193.5326217709472 C 17.184146594977737 189.59054623825455, 17.28236608827212 184.8718863921171, 17.445943371651833 180.85726258490206 C 17.609520655031552 176.84263877768694, 18.45880558417423 172.25586960571874, 17.5105436158673 167.5018351958467 C 16.562281647560365 162.74780078597465, 15.04913327362842 158.07934546049856, 16.03609168898179 153.35398957494237 C 17.023050104335162 148.62863368938616, 17.21679578231236 144.09239590293257, 18.363003450185584 139.30235537931532 C 19.509211118058808 134.51231485569807, 22.46945711419037 128.77278721941553, 23.60911340585902 123.25454545610553 C 24.74876969752767 117.73630369279554, 23.59140861752472 112.22801014686746, 23.848029075789633 107.60976089791491 C 24.10464953405455 102.99151164896234, 25.50553619280108 99.64758484848558, 25.224760113028168 98.6864373597506 C 24.94398403325525 97.72528987101559, 25.40285263235041 97.83765863497517, 25.173785603878503 96.53688238334213 C 24.944718575406593 95.23610613170908, 24.758822835843233 93.81411595377512, 24.681857208392476 89.94589101282362 C 24.604891580941715 86.07766607187212, 22.218625834896777 80.38706629052444, 20.156791927497824 76.05638024878483 C 18.09495802009888 71.72569420704522, 15.535733810137256 71.76270539725287, 14.121371990151532 69.0199002070528 C 12.707010170165809 66.27709501685274, 10.607649798881397 62.720877962481545, 8.828539342660894 60.23829526469165 C 7.04942888644039 57.75571256690176, 4.861024685763177 54.686023757786444, 2.549335900221342 52.430477565268056 C 0.23764711467951227 50.17493137274967, -1.9777452906464439 47.0855505109615, -4.045519940428532 44.6360798053885 C -6.1132945902106215 42.1866090998155, -6.631457725041651 38.712820081761905, -8.583940147290713 35.9067846013891 C -10.536422569539772 33.1007491210163, -13.319112053890258 31.249215936579755, -15.076601144169476 28.025845195861123 C -16.83409023444869 24.8024744551425, -18.820362723036375 21.563886089482, -20.789466665784744 18.410024682213376 C -22.758570608533116 15.256163274944754, -24.73095102262917 12.096772366145444, -26.702602744654293 8.93853000096118 C -28.674254466679415 5.780287635776915, -32.06733354787511 7.898545020693163, -30.095681825849987 11.056787385877424" stroke="#e28343" fill="none">
		<title>.id(nerve_feature_46_outline)</title>
	</path>
	<circle cx="-20.258001639658502" cy="23.0768571715361" r="1" fill="orange">
		<title>.id(marker_10001)</title>
	</circle>
	<circle cx="-15.545678872985206" cy="30.937980789454603" r="1" fill="orange">
		<title>.id(marker_10002)</title>
	</circle>
	<circle cx="8.96233403549731" cy="64.03056686060351" r="1" fill="orange">
		<title>.id(marker_10003)</title>
	</circle>
	<circle cx="22.596903182152158" cy="88.78786172604559" r="1" fill="orange">
		<title>.id(marker_10004)</title>
	</circle>
	<circle cx="22.617248307182262" cy="102.62373322581892" r="1" fill="orange">
		<title>.id(marker_10005)</title>
	</circle>
	<circle cx="15.461507581026956" cy="180.4680111223859" r="1" fill="orange">
		<title>.id(marker_10006)</title>
	</circle>
	<circle cx="13.173891459671058" cy="208.2135460643314" r="1" fill="orange">
		<title>.id(marker_10007)</title>
	</circle>
	<circle cx="-6.496516910244714" cy="263.2197133292344" r="1" fill="orange">
		<title>.id(marker_10008)</title>
	</circle>
</svg>
