<?xml version="1.0" ?>
<svg xmlns="http://www.w3.org/2000/svg" width="1000" height="1000" viewBox="-41 -13 192 372">
	<rect x="-41" y="-13" width="192" height="21" fill="red">
		<title>.id(brain_region)</title>
	</rect>
	<rect x="-41" y="8" width="192" height="143" fill="green">
		<title>.id(cervical_region)</title>
	</rect>
	<rect x="-41" y="151" width="192" height="327" fill="grey">
		<title>.id(thoracic_region)</title>
	</rect>
	<rect x="-41" y="478" width="192" height="163" fill="blue">
		<title>.id(lumbar_region)</title>
	</rect>
	<circle style="fill: rgb(216, 216, 216);" cx="-0.22460483196616599" cy="59.42181371528646" r="0.9054">
		<title>.id(point_01)</title>
	</circle>
	<circle style="fill: rgb(216, 216, 216);" cx="0.7037308647441286" cy="59.44805780266991" r="0.9054">
		<title>.id(point_02)</title>
	</circle>
	<circle style="fill: rgb(216, 216, 216);" cx="2.9859552864088976" cy="27.993741183524797" r="0.9054">
		<title>.id(point_03)</title>
	</circle>
	<circle style="fill: rgb(216, 216, 216);" cx="4.117191826772168" cy="28.363917636072177" r="0.9054">
		<title>.id(point_04)</title>
	</circle>
	<circle style="fill: rgb(216, 216, 216);" cx="-1.6235002771690952" cy="58.85801501270568" r="0.9054">
		<title>.id(point_05)</title>
	</circle>
	<circle style="fill: rgb(216, 216, 216);" cx="-2.0946555779517637" cy="58.661381075885615" r="0.9054">
		<title>.id(point_06)</title>
	</circle>
	<circle style="fill: rgb(216, 216, 216);" cx="-2.447733924419345" cy="51.99210053234234" r="0.9054">
		<title>.id(point_07)</title>
	</circle>
	<circle style="fill: rgb(216, 216, 216);" cx="-3.083013350000106" cy="52.55221953267859" r="0.9054">
		<title>.id(point_08)</title>
	</circle>
	<circle style="fill: rgb(216, 216, 216);" cx="-10.84654023541591" cy="297.3748856583867" r="0.9054">
		<title>.id(point_09)</title>
	</circle>
	<circle style="fill: rgb(216, 216, 216);" cx="-11.19497921181562" cy="297.08387093372767" r="0.9054">
		<title>.id(point_10)</title>
	</circle>
	<circle style="fill: rgb(216, 216, 216);" cx="-16.37375277604015" cy="313.3726205945227" r="0.9054">
		<title>.id(point_11)</title>
	</circle>
	<circle style="fill: rgb(216, 216, 216);" cx="-7.51481602400958" cy="340.16418945026066" r="0.9054">
		<title>.id(point_12)</title>
	</circle>
	<circle style="fill: rgb(216, 216, 216);" cx="-6.421817051573513" cy="341.4702696302355" r="0.9054">
		<title>.id(point_13)</title>
	</circle>
	<circle style="fill: rgb(216, 216, 216);" cx="-2.9414596394602555" cy="340.96055502325305" r="0.9054">
		<title>.id(point_14)</title>
	</circle>
	<circle style="fill: rgb(216, 216, 216);" cx="3.005806415077216" cy="340.81193951805574" r="0.9054">
		<title>.id(point_15)</title>
	</circle>
	<circle style="fill: rgb(216, 216, 216);" cx="12.9703452892539" cy="336.49776194842843" r="0.9054">
		<title>.id(point_16)</title>
	</circle>
	<circle style="fill: rgb(216, 216, 216);" cx="-1.6006402699065934" cy="79.09364712200309" r="0.9054">
		<title>.id(point_17)</title>
	</circle>
	<circle style="fill: rgb(216, 216, 216);" cx="-0.7094689937368197" cy="79.19478158017091" r="0.9054">
		<title>.id(point_18)</title>
	</circle>
	<circle style="fill: rgb(216, 216, 216);" cx="-3.827670225499558" cy="89.50745227795211" r="0.9054">
		<title>.id(point_19)</title>
	</circle>
	<circle style="fill: rgb(216, 216, 216);" cx="-5.030530104067063" cy="98.6660231277922" r="0.9054">
		<title>.id(point_20)</title>
	</circle>
	<circle style="fill: rgb(216, 216, 216);" cx="-4.447076748295621" cy="109.1373900180397" r="0.9054">
		<title>.id(point_21)</title>
	</circle>
	<circle style="fill: rgb(216, 216, 216);" cx="12.46321004536657" cy="236.5467988180641" r="0.9054">
		<title>.id(point_22)</title>
	</circle>
	<circle style="fill: rgb(216, 216, 216);" cx="14.994947903666024" cy="236.09666936712532" r="0.9054">
		<title>.id(point_23)</title>
	</circle>
	<circle style="fill: rgb(216, 216, 216);" cx="-13.089541602728975" cy="338.07293082219707" r="0.9054">
		<title>.id(point_24)</title>
	</circle>
	<circle style="fill: rgb(216, 216, 216);" cx="0.2843366061023753" cy="52.270423191720155" r="0.9054">
		<title>.id(point_25)</title>
	</circle>
	<circle style="fill: rgb(216, 216, 216);" cx="1.0829968468220508" cy="51.941468289739426" r="0.9054">
		<title>.id(point_26)</title>
	</circle>
	<circle style="fill: rgb(216, 216, 216);" cx="-0.3547067929005141" cy="54.372305226441796" r="0.9054">
		<title>.id(point_27)</title>
	</circle>
	<circle style="fill: rgb(216, 216, 216);" cx="5.613526321123698" cy="257.44947389523486" r="0.9054">
		<title>.id(point_28)</title>
	</circle>
	<circle style="fill: rgb(216, 216, 216);" cx="5.282665421595672" cy="260.19060945311406" r="0.9054">
		<title>.id(point_29)</title>
	</circle>
	<circle style="fill: rgb(216, 216, 216);" cx="2.525586636003208" cy="260.63627635845523" r="0.9054">
		<title>.id(point_30)</title>
	</circle>
	<circle style="fill: rgb(216, 216, 216);" cx="-15.51251913728747" cy="314.00223362625496" r="0.9054">
		<title>.id(point_31)</title>
	</circle>
	<circle style="fill: rgb(216, 216, 216);" cx="-3.774742394629035" cy="89.51051080942166" r="0.9054">
		<title>.id(point_32)</title>
	</circle>
	<circle style="fill: rgb(216, 216, 216);" cx="-13.558738334683" cy="339.84785863864704" r="0.9054">
		<title>.id(point_33)</title>
	</circle>
	<circle style="fill: rgb(216, 216, 216);" cx="0.15306097540317287" cy="54.11601944245821" r="0.9054">
		<title>.id(point_34)</title>
	</circle>
	<circle style="fill: rgb(216, 216, 216);" cx="2.273436778046211" cy="260.5117606645451" r="0.9054">
		<title>.id(point_35)</title>
	</circle>
	<circle style="fill: rgb(216, 216, 216);" cx="-7.599467324566864" cy="339.6427920069314" r="0.9054">
		<title>.id(point_36)</title>
	</circle>
	<circle style="fill: rgb(216, 216, 216);" cx="-5.4572277445789235" cy="98.67130347080736" r="0.9054">
		<title>.id(point_37)</title>
	</circle>
	<circle style="fill: rgb(216, 216, 216);" cx="-6.490771787236525" cy="341.973288188101" r="0.9054">
		<title>.id(point_38)</title>
	</circle>
	<circle style="fill: rgb(216, 216, 216);" cx="-5.557542708823417" cy="109.31434686019294" r="0.9054">
		<title>.id(point_39)</title>
	</circle>
	<circle style="fill: rgb(216, 216, 216);" cx="-2.984604966130265" cy="340.33528467383314" r="0.9054">
		<title>.id(point_40)</title>
	</circle>
	<circle style="fill: rgb(216, 216, 216);" cx="3.3282908364262016" cy="341.3908869851169" r="0.9054">
		<title>.id(point_41)</title>
	</circle>
	<circle style="fill: rgb(216, 216, 216);" cx="13.221652380214232" cy="337.061587487933" r="0.9054">
		<title>.id(point_42)</title>
	</circle>
	<circle style="fill: rgb(216, 216, 216);" cx="7.280103380943517" cy="-0.85164203829477" r="0.9054">
		<title>.id(point_43)</title>
	</circle>
	<circle style="fill: rgb(216, 216, 216);" cx="3.3850107929520545" cy="184.51660144147607" r="0.9054">
		<title>.id(point_44)</title>
	</circle>
	<circle style="fill: rgb(216, 216, 216);" cx="137.8342410231911" cy="253.60472825128429" r="0.9054">
		<title>.id(point_45)</title>
	</circle>
	<circle style="fill: rgb(216, 216, 216);" cx="-6.54142546172241" cy="290.00279801600374" r="0.9054">
		<title>.id(point_46)</title>
	</circle>
	<circle style="fill: rgb(216, 216, 216);" cx="-6.207542098313351" cy="290.0100512995597" r="0.9054">
		<title>.id(point_47)</title>
	</circle>
	<circle style="fill: rgb(216, 216, 216);" cx="-1.7960552277375847" cy="51.09056617621846" r="0.9054">
		<title>.id(point_48)</title>
	</circle>
	<circle style="fill: rgb(216, 216, 216);" cx="-1.9116222077387106" cy="50.843176401656166" r="0.9054">
		<title>.id(point_49)</title>
	</circle>
	<circle style="fill: rgb(216, 216, 216);" cx="11.27780636904669" cy="238.1498269376496" r="0.9054">
		<title>.id(point_50)</title>
	</circle>
	<circle style="fill: rgb(216, 216, 216);" cx="18.87829948392465" cy="262.6412682761048" r="0.9054">
		<title>.id(point_51)</title>
	</circle>
	<circle style="fill: rgb(216, 216, 216);" cx="7.161089884749983" cy="249.69637323829244" r="0.9054">
		<title>.id(point_52)</title>
	</circle>
	<circle style="fill: rgb(216, 216, 216);" cx="9.686696490392018" cy="267.7751431332221" r="0.9054">
		<title>.id(point_53)</title>
	</circle>
	<path d="M -0.22460483196616599 59.42181371528646 C 0.08484040026866158 59.43056174441933, 0.39428563250901594 59.43930977353704, 0.7037308647441286 59.44805780266991" stroke="#01136e" fill="none">
		<title>.id(nerve_feature_01)</title>
	</path>
	<path d="M -0.281122332477091 61.42101499883347 C 0.028322899757736573 61.42976302796634, 0.337768131998143 61.43851105708405, 0.6472133642332556 61.44725908621692 C 0.9566585964683683 61.456007115349784, 1.0696935974901143 57.457604548255766, 0.7602483652550016 57.4488565191229 C 0.4508031330198889 57.44010848999003, 0.14135790077958657 57.43136046087232, -0.168087331455241 57.42261243173945 C -0.4775325636900686 57.413864402606585, -0.5905675647119186 61.4122669697006, -0.281122332477091 61.42101499883347" stroke="#e28343" fill="none">
		<title>.id(nerve_feature_01_outline)</title>
	</path>
	<path d="M 2.9859552864088976 27.993741183524797 C 3.3630341331977713 28.117133334364645, 3.740112979983322 28.240525485237978, 4.117191826772168 28.363917636072177" stroke="#01136e" fill="none">
		<title>.id(nerve_feature_02)</title>
	</path>
	<path d="M 2.363947612236771 29.894558495438538 C 2.741026459025645 30.017950646278386, 3.1181053058368753 30.14134279716012, 3.4951841526257215 30.26473494799432 C 3.8722629994145676 30.38812709882852, 5.1162783477074605 26.586492474984233, 4.739199500918614 26.463100324150034 C 4.362120654129768 26.339708173315834, 3.985041807369898 26.216316022450904, 3.607962960581024 26.092923871611056 C 3.2308841137921505 25.969531720771208, 1.9868687654478974 29.77116634459869, 2.363947612236771 29.894558495438538" stroke="#e28343" fill="none">
		<title>.id(nerve_feature_02_outline)</title>
	</path>
	<path d="M -1.6235002771690952 58.85801501270568 C -1.7805520440969334 58.79247036709921, -1.9376038110240095 58.72692572149159, -2.0946555779517637 58.661381075885615" stroke="#01136e" fill="none">
		<title>.id(nerve_feature_03)</title>
	</path>
	<path d="M -0.8532040801098923 57.012305455707036 C -1.0102558470377305 56.94676081010057, -1.1673076139693632 56.88121616449104, -1.3243593808971175 56.81567151888507 C -1.4814111478248717 56.75012687327909, -3.022003541934164 60.441545987280186, -2.8649517750064097 60.50709063288616 C -2.7079000080786555 60.572635278492136, -2.550848241156136 60.638179924097855, -2.393796474228298 60.70372456970432 C -2.23674470730046 60.769269215310786, -0.6961523131820542 57.0778501013135, -0.8532040801098923 57.012305455707036" stroke="#e28343" fill="none">
		<title>.id(nerve_feature_03_outline)</title>
	</path>
	<path d="M -2.447733924419345 51.99210053234234 C -2.659493732947076 52.178806865783166, -2.87125354147352 52.36551319923821, -3.083013350000106 52.55221953267859" stroke="#01136e" fill="none">
		<title>.id(nerve_feature_05)</title>
	</path>
	<path d="M -3.770417242711014 50.49193092875982 C -3.982177051238745 50.678637262200645, -4.193936859767456 50.865343595657684, -4.405696668294043 51.05204992909807 C -4.61745647682063 51.23875626253845, -1.9720898402327554 54.2390954696995, -1.7603300317061694 54.052389136259116 C -1.5485702231795835 53.86568280281873, -1.3368104146554065 53.678976469365686, -1.1250506061276757 53.49227013592486 C -0.9132907975999449 53.30556380248404, -3.5586574341832833 50.305224595319, -3.770417242711014 50.49193092875982" stroke="#e28343" fill="none">
		<title>.id(nerve_feature_05_outline)</title>
	</path>
	<path d="M -10.84654023541591 297.3748856583867 C -10.962686560885029 297.27788075027206, -11.078832886347405 297.18087584185577, -11.19497921181562 297.08387093372767" stroke="#01136e" fill="none">
		<title>.id(nerve_feature_06)</title>
	</path>
	<path d="M -9.56448507496884 295.8398499696905 C -9.680631400437958 295.74284506157585, -9.796777725789568 295.6458401532521, -9.912924051257782 295.548835245124 C -10.029070376725997 295.4518303369959, -12.593180697841671 298.52190171420324, -12.477034372373456 298.61890662233134 C -12.360888046905242 298.71591153045944, -12.2447417213321 298.8129164389683, -12.12859539586298 298.9099213470829 C -12.012449070393862 299.0069262551975, -9.44833874949972 295.9368548778051, -9.56448507496884 295.8398499696905" stroke="#e28343" fill="none">
		<title>.id(nerve_feature_06_outline)</title>
	</path>
	<path d="M -1.6006402699065934 79.09364712200309 C -1.3035831778487474 79.12735860806106, -1.0065260857938203 79.16107009411292, -0.7094689937368197 79.19478158017091" stroke="#01136e" fill="none">
		<title>.id(nerve_feature_07)</title>
	</path>
	<path d="M -1.8261624304890005 81.08089138355884 C -1.5291053384311546 81.1146028696168, -1.2320482463770488 81.14831435566857, -0.9349911543200481 81.18202584172657 C -0.6379340622630474 81.21573732778457, -0.18688974109659073 77.24124880467325, -0.4839468331535913 77.20753731861525 C -0.7810039252105919 77.17382583255726, -1.0780610172663403 77.14011434650531, -1.3751181093241862 77.10640286044735 C -1.6721752013820321 77.07269137438938, -2.1232195225468464 81.04717989750087, -1.8261624304890005 81.08089138355884" stroke="#e28343" fill="none">
		<title>.id(nerve_feature_07_outline)</title>
	</path>
	<path d="M 12.46321004536657 236.5467988180641 C 13.189727002779566 237.19598227546555, 14.901688674064886 237.13790719668805, 14.994947903666024 236.09666936712532" stroke="#01136e" fill="none">
		<title>.id(nerve_feature_08)</title>
	</path>
	<path d="M 11.13059882510596 238.03815636594976 C 11.857115782518957 238.6873398233512, 16.89371459771713 237.31632445901832, 16.986973827318266 236.2750866294556 C 17.080233056919404 235.23384879989285, 13.096181209614919 234.8770142752323, 13.002921980013781 235.91825210479504 C 12.909662750412643 236.95948993435778, 14.522338223040176 235.7046247275799, 13.795821265627179 235.05544127017845 C 13.069304308214182 234.406257812777, 10.404081867692963 237.3889729085483, 11.13059882510596 238.03815636594976" stroke="#e28343" fill="none">
		<title>.id(nerve_feature_08_outline)</title>
	</path>
	<path d="M 0.2843366061023753 52.270423191720155 C 0.5505566863432945 52.160771557732545, 0.816776766581121 52.051119923727015, 1.0829968468220508 51.941468289739426" stroke="#01136e" fill="none">
		<title>.id(nerve_feature_09)</title>
	</path>
	<path d="M 1.0460239034299326 54.11970209472258 C 1.312243983670852 54.010050460734966, 1.5784640639085257 53.9003988267295, 1.8446841441494555 53.79074719274191 C 2.110904224390385 53.68109555875432, 0.5875296297355759 49.98253775274935, 0.3213095494946461 50.09218938673694 C 0.05508946925371627 50.20184102072453, -0.2111306109842629 50.311492654730124, -0.47735069122518203 50.421144288717734 C -0.7435707714661012 50.530795922705344, 0.7798038231890132 54.22935372871019, 1.0460239034299326 54.11970209472258" stroke="#e28343" fill="none">
		<title>.id(nerve_feature_09_outline)</title>
	</path>
	<path d="M 5.613526321123698 257.44947389523486 C 5.731032795523954 257.4686910494835, 4.8492803152687785 258.94977460179274, 5.282665421595672 260.19060945311406" stroke="#01136e" fill="none">
		<title>.id(nerve_feature_10)</title>
	</path>
	<path d="M 5.290732047630412 259.4232529753246 C 5.408238522030668 259.4424701295732, 2.961133620537643 259.60924564677947, 3.3945187268645363 260.8500804981008 C 3.8279038331914297 262.0909153494221, 7.604197222653701 260.77197325944866, 7.1708121163268075 259.53113840812733 C 6.737427009999914 258.290303556806, 6.05382706901724 255.49491196939374, 5.9363205946169835 255.47569481514512 C 5.818814120216727 255.4564776608965, 5.173225573230155 259.404035821076, 5.290732047630412 259.4232529753246" stroke="#e28343" fill="none">
		<title>.id(nerve_feature_10_outline)</title>
	</path>
	<path d="M -16.373752776040185 313.37262059452274 C -16.086674896452145 313.582491605032, -15.799597016875246 313.792362615735, -15.51251913728747 314.00223362625496" stroke="#01136e" fill="none">
		<title>.id(nerve_feature_11)</title>
	</path>
	<path d="M -17.55409143957888 314.98717955577365 C -17.26701355999084 315.1970505662829, -16.979935680454023 315.4069215769566, -16.692857800866246 315.6167925874766 C -16.40577992127847 315.82666359799657, -14.045102594120916 312.5975456755533, -14.332180473708693 312.38767466503333 C -14.61925835329647 312.17780365451335, -14.90633623291345 311.96793264378107, -15.19341411250149 311.75806163327184 C -15.48049199208953 311.5481906227626, -17.84116931916692 314.7773085452644, -17.55409143957888 314.98717955577365" stroke="#e28343" fill="none">
		<title>.id(nerve_feature_11_outline)</title>
	</path>
	<path d="M -3.827670225499557 89.50745227795208 C -3.810027615209211 89.50847178844673, -3.792385004919384 89.50949129892706, -3.774742394629035 89.51051080942166" stroke="#01136e" fill="none">
		<title>.id(nerve_feature_12)</title>
	</path>
	<path d="M -3.943051395819554 91.50412130048326 C -3.925408785529208 91.5051408109779, -3.9077661752345545 91.50616032145851, -3.8901235649442056 91.50717983195311 C -3.8724809546538568 91.50819934244771, -3.6417186140235156 87.51486129738481, -3.6593612243138645 87.51384178689021 C -3.6770038346042133 87.51282227639561, -3.694646444889214 87.51180276591555, -3.71228905517956 87.5107832554209 C -3.7299316654699064 87.50976374492626, -3.9606940061099003 91.50310178998862, -3.943051395819554 91.50412130048326" stroke="#e28343" fill="none">
		<title>.id(nerve_feature_12_outline)</title>
	</path>
	<path d="M -13.089541602728975 338.072930822197 C -13.09798682139782 339.57414664112366, -13.550293116011405 338.3466428198804, -13.558738334683 339.84785863864704" stroke="#01136e" fill="none">
		<title>.id(nerve_feature_13)</title>
	</path>
	<path d="M -15.089509956262459 338.06167982826037 C -15.097955174931304 339.562895647187, -15.550261469544862 338.33539182593887, -15.558706688216457 339.8366076447055 C -15.567151906888052 341.33782346347215, -11.567215199821137 341.3603254513552, -11.558769981149542 339.85910963258857 C -11.550324762477947 338.35789381382193, -11.098018467864335 339.5853976350603, -11.08957324919549 338.08418181613365 C -11.081128030526646 336.582965997207, -15.081064737593614 336.5604640093337, -15.089509956262459 338.06167982826037" stroke="#e28343" fill="none">
		<title>.id(nerve_feature_13_outline)</title>
	</path>
	<path d="M -0.35470679290051454 54.372305226441796 C -0.18545087013174333 54.28687663178199, -0.016194947364867457 54.20144803711798, 0.15306097540317287 54.11601944245821" stroke="#01136e" fill="none">
		<title>.id(nerve_feature_14)</title>
	</path>
	<path d="M 0.5464706563839354 56.15776852903336 C 0.7157265791527067 56.07233993437356, 0.884982501922385 55.98691133970813, 1.0542384246904253 55.901482745048355 C 1.2234943474584656 55.81605415038858, -0.5788605511160393 52.245127545208305, -0.7481164738840796 52.330556139868065 C -0.91737239665212 52.415984734527825, -1.0866283194161932 52.50141332919043, -1.2558842421849645 52.58684192385023 C -1.4251401649537359 52.67227051851003, 0.3772147336151642 56.243197123693164, 0.5464706563839354 56.15776852903336" stroke="#e28343" fill="none">
		<title>.id(nerve_feature_14_outline)</title>
	</path>
	<path d="M 2.5255866360032306 260.6362763584552 C 2.4415366833490353 260.59477112712983, 2.3574867307004475 260.55326589586565, 2.273436778046211 260.5117606645451" stroke="#01136e" fill="none">
		<title>.id(nerve_feature_15)</title>
	</path>
	<path d="M 3.411131512340521 258.8430083160274 C 3.3270815596863255 258.80150308470206, 3.243031606955485 258.75999785339724, 3.1589816543012486 258.71849262207667 C 3.074931701647012 258.6769873907561, 1.3038419491369362 262.2635234756929, 1.3878919017911728 262.3050287070135 C 1.4719418544454095 262.34653393833406, 1.555991807011745 262.3880391695576, 1.6400417596659405 262.42954440088295 C 1.7240917123201358 262.4710496322083, 3.495181464994716 258.88451354735275, 3.411131512340521 258.8430083160274" stroke="#e28343" fill="none">
		<title>.id(nerve_feature_15_outline)</title>
	</path>
	<path d="M -7.5148160240095745 340.16418945026066 C -7.543033124198047 339.9903903024927, -7.571250224377288 339.8165911546858, -7.599467324566864 339.6427920069314" stroke="#01136e" fill="none">
		<title>.id(nerve_feature_16)</title>
	</path>
	<path d="M -5.5406651466328 339.8436768711744 C -5.568882246821272 339.66987772340644, -5.597099347006459 339.49607857556293, -5.625316447196035 339.32227942780855 C -5.65353354738561 339.1484802800542, -9.601835302127268 339.7895054382999, -9.573618201937693 339.9633045860543 C -9.545401101748118 340.13710373380866, -9.51718400157482 340.31090288157895, -9.488966901386348 340.4847020293469 C -9.460749801197876 340.6585011771149, -5.5124480464443275 340.0174760189424, -5.5406651466328 339.8436768711744" stroke="#e28343" fill="none">
		<title>.id(nerve_feature_16_outline)</title>
	</path>
	<path d="M -5.030530104067063 98.6660231277922 C -5.172762650905739 98.66778324212125, -5.3149951977402115 98.66954335647566, -5.4572277445789235 98.67130347080736" stroke="#01136e" fill="none">
		<title>.id(nerve_feature_17)</title>
	</path>
	<path d="M -5.055278020253528 96.66617624849258 C -5.197510567092204 96.66793636282162, -5.339743113964029 96.6696964771765, -5.481975660802741 96.6714565915082 C -5.624208207641453 96.6732167058399, -5.574712375193818 100.67291046443822, -5.432479828355106 100.67115035010652 C -5.290247281516394 100.66939023577481, -5.148014734719274 100.66763012142087, -5.005782187880598 100.66587000709183 C -4.8635496410419226 100.66410989276278, -4.9130454734148525 96.66441613416353, -5.055278020253528 96.66617624849258" stroke="#e28343" fill="none">
		<title>.id(nerve_feature_17_outline)</title>
	</path>
	<path d="M -6.421817051573512 341.4702696302355 C -6.444801963462848 341.63794248286666, -6.467786875347632 341.8056153354901, -6.490771787236525 341.973288188101" stroke="#01136e" fill="none">
		<title>.id(nerve_feature_18)</title>
	</path>
	<path d="M -8.403286365048933 341.1986460676434 C -8.42627127693827 341.3663189202745, -8.449256188819346 341.5339917728709, -8.47224110070824 341.7016646254818 C -8.495226012597135 341.8693374780927, -4.532287385653704 342.4125846033311, -4.50930247376481 342.2449117507202 C -4.486317561875917 342.0772388981093, -4.463332649987427 341.9095660454588, -4.44034773809809 341.74189319282766 C -4.417362826208754 341.5742203401965, -8.380301453159596 341.03097321501224, -8.403286365048933 341.1986460676434" stroke="#e28343" fill="none">
		<title>.id(nerve_feature_18_outline)</title>
	</path>
	<path d="M -4.44707674829562 109.1373900180397 C -4.817232068472605 109.196375632068, -5.1873873886465605 109.25536124616582, -5.557542708823417 109.31434686019294" stroke="#01136e" fill="none">
		<title>.id(nerve_feature_19)</title>
	</path>
	<path d="M -4.761813025846732 107.16231000052312 C -5.131968346023717 107.22129561455142, -5.5021236661916415 107.28028122864828, -5.872278986368498 107.3392668426754 C -6.242434306545354 107.39825245670252, -5.612961751455192 111.3484124917376, -5.242806431278336 111.28942687771048 C -4.872651111101479 111.23044126368336, -4.502495790921493 111.17145564958457, -4.132340470744508 111.11247003555627 C -3.7621851505675235 111.05348442152797, -4.391657705669747 107.10332438649482, -4.761813025846732 107.16231000052312" stroke="#e28343" fill="none">
		<title>.id(nerve_feature_19_outline)</title>
	</path>
	<path d="M -2.9414596394602537 340.96055502325305 C -2.9558414150204806 340.7521315734305, -2.9702231905684195 340.54370812364135, -2.984604966130265 340.33528467383314" stroke="#01136e" fill="none">
		<title>.id(nerve_feature_20)</title>
	</path>
	<path d="M -0.9462040728181498 340.82287705194426 C -0.9605858483783767 340.6144536021217, -0.9749676239280296 340.4060301523077, -0.9893493994898752 340.1976067024995 C -1.0037311750517208 339.9891832526913, -4.9942423083325 340.26453919535857, -4.979860532770655 340.4729626451668 C -4.9654787572088095 340.681386094975, -4.951096981662585 340.8898095447393, -4.936715206102358 341.09823299456184 C -4.922333430542131 341.3066564443844, -0.9318222972579229 341.0313005017668, -0.9462040728181498 340.82287705194426" stroke="#e28343" fill="none">
		<title>.id(nerve_feature_20_outline)</title>
	</path>
	<path d="M 3.00580641507719 340.81193951805574 C 3.1133012221947505 341.00492200702365, 3.220796029308144 341.1979044961545, 3.3282908364262016 341.3908869851169" stroke="#01136e" fill="none">
		<title>.id(nerve_feature_21)</title>
	</path>
	<path d="M 1.2585780536313012 341.78517795387666 C 1.3660728607488615 341.97816044284457, 1.4735676678759904 342.17114293200007, 1.581062474994048 342.36412542096247 C 1.6885572821121058 342.55710790992487, 5.183014004976413 340.6106310382337, 5.075519197858355 340.4176485492713 C 4.968024390740298 340.2246660603089, 4.8605295836406395 340.03168357120273, 4.753034776523079 339.8387010822348 C 4.645539969405519 339.6457185932669, 1.1510832465137408 341.59219546490874, 1.2585780536313012 341.78517795387666" stroke="#e28343" fill="none">
		<title>.id(nerve_feature_21_outline)</title>
	</path>
	<path d="M 12.970345289253899 336.4977619484284 C 13.054114319574964 336.68570379495657, 13.13788334989365 336.8736456414186, 13.221652380214232 337.061587487933" stroke="#01136e" fill="none">
		<title>.id(nerve_feature_22)</title>
	</path>
	<path d="M 11.143586538366558 337.3119808784813 C 11.227355568687623 337.49992272500947, 11.311124599026723 337.6878645715173, 11.394893629347305 337.87580641803174 C 11.478662659667886 338.0637482645462, 15.132180161401742 336.43531040434874, 15.04841113108116 336.2473685578343 C 14.964642100760578 336.0594267113199, 14.880873070462306 335.87148486490366, 14.79710404014124 335.6835430183755 C 14.713335009820176 335.4956011718473, 11.059817508045493 337.1240390319531, 11.143586538366558 337.3119808784813" stroke="#e28343" fill="none">
		<title>.id(nerve_feature_22_outline)</title>
	</path>
	<path d="M -2.447733924419345 51.99210053234234 C -2.659493732947076 52.178806865783166, -2.87125354147352 52.36551319923821, -3.083013350000106 52.55221953267859" stroke="#01136e" fill="none">
		<title>.id(nerve_feature_23)</title>
	</path>
	<path d="M -3.770417242711014 50.49193092875982 C -3.982177051238745 50.678637262200645, -4.193936859767456 50.865343595657684, -4.405696668294043 51.05204992909807 C -4.61745647682063 51.23875626253845, -1.9720898402327554 54.2390954696995, -1.7603300317061694 54.052389136259116 C -1.5485702231795835 53.86568280281873, -1.3368104146554065 53.678976469365686, -1.1250506061276757 53.49227013592486 C -0.9132907975999449 53.30556380248404, -3.5586574341832833 50.305224595319, -3.770417242711014 50.49193092875982" stroke="#e28343" fill="none">
		<title>.id(nerve_feature_23_outline)</title>
	</path>
	<path d="M -10.84654023541591 297.3748856583867 C -10.962686560885029 297.27788075027206, -11.078832886347405 297.18087584185577, -11.19497921181562 297.08387093372767 M -16.373752776040185 313.37262059452274 C -16.086674896452145 313.582491605032, -15.799597016875246 313.792362615735, -15.51251913728747 314.00223362625496 M -7.5148160240095745 340.16418945026066 C -7.543033124198047 339.9903903024927, -7.571250224377288 339.8165911546858, -7.599467324566864 339.6427920069314 M -6.421817051573512 341.4702696302355 C -6.444801963462848 341.63794248286666, -6.467786875347632 341.8056153354901, -6.490771787236525 341.973288188101 M -2.9414596394602537 340.96055502325305 C -2.9558414150204806 340.7521315734305, -2.9702231905684195 340.54370812364135, -2.984604966130265 340.33528467383314 M 3.00580641507719 340.81193951805574 C 3.1133012221947505 341.00492200702365, 3.220796029308144 341.1979044961545, 3.3282908364262016 341.3908869851169 M 12.970345289253899 336.4977619484284 C 13.054114319574964 336.68570379495657, 13.13788334989365 336.8736456414186, 13.221652380214232 337.061587487933" stroke="#01136e" fill="none">
		<title>.id(nerve_feature_24)</title>
	</path>
	<path d="M -9.56448507496884 295.8398499696905 C -9.680631400437958 295.74284506157585, -9.796777725789568 295.6458401532521, -9.912924051257782 295.548835245124 C -10.029070376725997 295.4518303369959, -12.593180697841671 298.52190171420324, -12.477034372373456 298.61890662233134 C -12.360888046905242 298.71591153045944, -12.2447417213321 298.8129164389683, -12.12859539586298 298.9099213470829 C -12.012449070393862 299.0069262551975, -9.44833874949972 295.9368548778051, -9.56448507496884 295.8398499696905 M -17.55409143957888 314.98717955577365 C -17.26701355999084 315.1970505662829, -16.979935680454023 315.4069215769566, -16.692857800866246 315.6167925874766 C -16.40577992127847 315.82666359799657, -14.045102594120916 312.5975456755533, -14.332180473708693 312.38767466503333 C -14.61925835329647 312.17780365451335, -14.90633623291345 311.96793264378107, -15.19341411250149 311.75806163327184 C -15.48049199208953 311.5481906227626, -17.84116931916692 314.7773085452644, -17.55409143957888 314.98717955577365 M -5.5406651466328 339.8436768711744 C -5.568882246821272 339.66987772340644, -5.597099347006459 339.49607857556293, -5.625316447196035 339.32227942780855 C -5.65353354738561 339.1484802800542, -9.601835302127268 339.7895054382999, -9.573618201937693 339.9633045860543 C -9.545401101748118 340.13710373380866, -9.51718400157482 340.31090288157895, -9.488966901386348 340.4847020293469 C -9.460749801197876 340.6585011771149, -5.5124480464443275 340.0174760189424, -5.5406651466328 339.8436768711744 M -8.403286365048933 341.1986460676434 C -8.42627127693827 341.3663189202745, -8.449256188819346 341.5339917728709, -8.47224110070824 341.7016646254818 C -8.495226012597135 341.8693374780927, -4.532287385653704 342.4125846033311, -4.50930247376481 342.2449117507202 C -4.486317561875917 342.0772388981093, -4.463332649987427 341.9095660454588, -4.44034773809809 341.74189319282766 C -4.417362826208754 341.5742203401965, -8.380301453159596 341.03097321501224, -8.403286365048933 341.1986460676434 M -0.9462040728181498 340.82287705194426 C -0.9605858483783767 340.6144536021217, -0.9749676239280296 340.4060301523077, -0.9893493994898752 340.1976067024995 C -1.0037311750517208 339.9891832526913, -4.9942423083325 340.26453919535857, -4.979860532770655 340.4729626451668 C -4.9654787572088095 340.681386094975, -4.951096981662585 340.8898095447393, -4.936715206102358 341.09823299456184 C -4.922333430542131 341.3066564443844, -0.9318222972579229 341.0313005017668, -0.9462040728181498 340.82287705194426 M 1.2585780536313012 341.78517795387666 C 1.3660728607488615 341.97816044284457, 1.4735676678759904 342.17114293200007, 1.581062474994048 342.36412542096247 C 1.6885572821121058 342.55710790992487, 5.183014004976413 340.6106310382337, 5.075519197858355 340.4176485492713 C 4.968024390740298 340.2246660603089, 4.8605295836406395 340.03168357120273, 4.753034776523079 339.8387010822348 C 4.645539969405519 339.6457185932669, 1.1510832465137408 341.59219546490874, 1.2585780536313012 341.78517795387666 M 11.143586538366558 337.3119808784813 C 11.227355568687623 337.49992272500947, 11.311124599026723 337.6878645715173, 11.394893629347305 337.87580641803174 C 11.478662659667886 338.0637482645462, 15.132180161401742 336.43531040434874, 15.04841113108116 336.2473685578343 C 14.964642100760578 336.0594267113199, 14.880873070462306 335.87148486490366, 14.79710404014124 335.6835430183755 C 14.713335009820176 335.4956011718473, 11.059817508045493 337.1240390319531, 11.143586538366558 337.3119808784813" stroke="#e28343" fill="none">
		<title>.id(nerve_feature_24_outline)</title>
	</path>
	<path d="M -1.6006402699065934 79.09364712200309 C -1.3035831778487474 79.12735860806106, -1.0065260857938203 79.16107009411292, -0.7094689937368197 79.19478158017091 M -3.827670225499557 89.50745227795208 C -3.810027615209211 89.50847178844673, -3.792385004919384 89.50949129892706, -3.774742394629035 89.51051080942166 M -5.030530104067063 98.6660231277922 C -5.172762650905739 98.66778324212125, -5.3149951977402115 98.66954335647566, -5.4572277445789235 98.67130347080736 M -4.44707674829562 109.1373900180397 C -4.817232068472605 109.196375632068, -5.1873873886465605 109.25536124616582, -5.557542708823417 109.31434686019294" stroke="#01136e" fill="none">
		<title>.id(nerve_feature_25)</title>
	</path>
	<path d="M -1.8261624304890005 81.08089138355884 C -1.5291053384311546 81.1146028696168, -1.2320482463770488 81.14831435566857, -0.9349911543200481 81.18202584172657 C -0.6379340622630474 81.21573732778457, -0.18688974109659073 77.24124880467325, -0.4839468331535913 77.20753731861525 C -0.7810039252105919 77.17382583255726, -1.0780610172663403 77.14011434650531, -1.3751181093241862 77.10640286044735 C -1.6721752013820321 77.07269137438938, -2.1232195225468464 81.04717989750087, -1.8261624304890005 81.08089138355884 M -3.943051395819554 91.50412130048326 C -3.925408785529208 91.5051408109779, -3.9077661752345545 91.50616032145851, -3.8901235649442056 91.50717983195311 C -3.8724809546538568 91.50819934244771, -3.6417186140235156 87.51486129738481, -3.6593612243138645 87.51384178689021 C -3.6770038346042133 87.51282227639561, -3.694646444889214 87.51180276591555, -3.71228905517956 87.5107832554209 C -3.7299316654699064 87.50976374492626, -3.9606940061099003 91.50310178998862, -3.943051395819554 91.50412130048326 M -5.055278020253528 96.66617624849258 C -5.197510567092204 96.66793636282162, -5.339743113964029 96.6696964771765, -5.481975660802741 96.6714565915082 C -5.624208207641453 96.6732167058399, -5.574712375193818 100.67291046443822, -5.432479828355106 100.67115035010652 C -5.290247281516394 100.66939023577481, -5.148014734719274 100.66763012142087, -5.005782187880598 100.66587000709183 C -4.8635496410419226 100.66410989276278, -4.9130454734148525 96.66441613416353, -5.055278020253528 96.66617624849258 M -4.761813025846732 107.16231000052312 C -5.131968346023717 107.22129561455142, -5.5021236661916415 107.28028122864828, -5.872278986368498 107.3392668426754 C -6.242434306545354 107.39825245670252, -5.612961751455192 111.3484124917376, -5.242806431278336 111.28942687771048 C -4.872651111101479 111.23044126368336, -4.502495790921493 111.17145564958457, -4.132340470744508 111.11247003555627 C -3.7621851505675235 111.05348442152797, -4.391657705669747 107.10332438649482, -4.761813025846732 107.16231000052312" stroke="#e28343" fill="none">
		<title>.id(nerve_feature_25_outline)</title>
	</path>
	<path d="M 12.46321004536657 236.5467988180641 C 13.189727002779566 237.19598227546555, 14.901688674064886 237.13790719668805, 14.994947903666024 236.09666936712532 M -13.089541602728975 338.072930822197 C -13.09798682139782 339.57414664112366, -13.550293116011405 338.3466428198804, -13.558738334683 339.84785863864704" stroke="#01136e" fill="none">
		<title>.id(nerve_feature_26)</title>
	</path>
	<path d="M 11.13059882510596 238.03815636594976 C 11.857115782518957 238.6873398233512, 16.89371459771713 237.31632445901832, 16.986973827318266 236.2750866294556 C 17.080233056919404 235.23384879989285, 13.096181209614919 234.8770142752323, 13.002921980013781 235.91825210479504 C 12.909662750412643 236.95948993435778, 14.522338223040176 235.7046247275799, 13.795821265627179 235.05544127017845 C 13.069304308214182 234.406257812777, 10.404081867692963 237.3889729085483, 11.13059882510596 238.03815636594976 M -15.089509956262459 338.06167982826037 C -15.097955174931304 339.562895647187, -15.550261469544862 338.33539182593887, -15.558706688216457 339.8366076447055 C -15.567151906888052 341.33782346347215, -11.567215199821137 341.3603254513552, -11.558769981149542 339.85910963258857 C -11.550324762477947 338.35789381382193, -11.098018467864335 339.5853976350603, -11.08957324919549 338.08418181613365 C -11.081128030526646 336.582965997207, -15.081064737593614 336.5604640093337, -15.089509956262459 338.06167982826037" stroke="#e28343" fill="none">
		<title>.id(nerve_feature_26_outline)</title>
	</path>
	<path d="M 7.280103380943517 -0.85164203829477 C 6.603227819167672 2.69637190771807, 5.926291222228374 6.244706077788901, 5.249628846949557 9.791599899763238 C 4.572966471670738 13.338493721737569, 3.896564633111168 16.90802878591181, 3.224002107112216 20.40895864061207 C 2.551439581113266 23.909888495312334, 1.5971962788402352 27.22523222550629, 0.770604630875071 30.730828708638988 C -0.05598701709009324 34.23642519177166, -0.20664698803260023 37.87137656313328, -0.673211560270386 41.49401143269347 C -1.139776132508169 45.11664630225369, -1.2412113520497359 48.75273574242199, -0.9754365487031924 52.40070635057793 C -0.7096617453566458 56.048676958733864, -0.8645123533461617 59.61034692824215, -1.0204992785459401 63.2245574784794 C -1.1764862037457233 66.83876802871664, -1.31648091920018 70.54981258922743, -1.73390485777528 74.22662349703602 C -2.151328796350383 77.90343440484463, -3.269189147844114 81.52184897295093, -3.701916231721621 85.21578820997132 C -4.1346433155991305 88.90972744699171, -4.162100902103686 92.66773803109291, -4.368037013551441 96.320258311817 C -4.573973124999199 99.97277859254116, -5.76630067655734 103.20576517953339, -4.296625356539746 106.46282853305222 C -2.8269500365221507 109.71989188657102, -2.7936402166803287 113.57740772492875, -2.5198769992546968 117.35792638606219 C -2.246113781829068 121.13844504719565, -2.180414864828388 124.79127360997555, -2.848079667857777 128.45293952385947 C -3.5157444708871655 132.1146054377433, -2.017559420369873 135.77873150294636, -1.6276236837579796 139.51532864739525 C -1.237687947146086 143.2519257918441, -2.011168612666346 146.96748559400868, -1.5444875466799768 150.81628743772103 C -1.0778064806936092 154.66508928143347, -0.27266680520293535 158.380829196586, -0.33646328837075723 162.1719437767138 C -0.40025977153857795 165.9630583568416, -0.08800394728225647 169.74088011289396, 1.1182356204065054 173.3524063515046 C 2.324475188095268 176.96393259011538, 2.2640976229707848 180.85672084788067, 3.3850107929520545 184.51660144147607" stroke="#01136e" fill="none">
		<title>.id(nerve_feature_27)</title>
	</path>
	<path d="M 5.315534556893202 -1.2264344282516149 C 4.638658995117357 2.3215795177612253, 3.961722449786375 5.869913417314158, 3.285060074507558 9.416807239288493 C 2.608397699228739 12.963701061262825, 1.9324796525303187 16.53070904211787, 1.2599171265313667 20.03163889681813 C 0.5873546005324168 23.532568751518394, -0.34942175503413586 26.766235242732897, -1.1760134029993 30.271831725865596 C -2.002605050964464 33.777428208998266, -2.1902632791115937 37.61590364917562, -2.6568278513493793 41.23853851873581 C -3.1233924235871626 44.86117338829603, -3.2359244624793 48.89806160756792, -2.9701496591327565 52.546032215723855 C -2.70437485578621 56.1940028238798, -2.8626522234018394 59.52410853949399, -3.0186391486016175 63.13831908973123 C -3.174626073801401 66.75252963996849, -3.303715397646367 70.32420423903908, -3.7211393362214666 74.00101514684766 C -4.13856327479657 77.67782605465628, -5.255605804787053 81.28914988610349, -5.68833288866456 84.98308912312388 C -6.121059972542069 88.67702836014425, -6.158929540172916 92.55515299573482, -6.364865651620671 96.2076732764589 C -6.570801763068429 99.86019355718307, -7.589305589318951 104.02835443794066, -6.119630269301357 107.2854177914595 C -4.64995494928376 110.5424811449783, -4.788416934463886 113.72185787615282, -4.514653717038254 117.50237653728627 C -4.240890499612625 121.28289519841972, -4.147974052023422 124.43251067308766, -4.815638855052811 128.0941765869716 C -5.483303658082199 131.75584250085544, -4.006757425672503 135.98631593323927, -3.6168216890606097 139.72291307768816 C -3.226885952448716 143.459510222137, -3.996626338083437 147.20822948402792, -3.529945272097067 151.05703132774028 C -3.0632642061107 154.9058331714527, -2.2723836872358887 158.34717816818562, -2.3361801704037104 162.1382927483134 C -2.3999766535715312 165.92940732844121, -1.9849924138502568 170.37446890517802, -0.778752846161495 173.98599514378867 C 0.42748672152726597 177.59752138239944, 0.35177693083943407 181.44240811122714, 1.4726901008207038 185.10228870482254 C 2.5936032708019736 188.76216929841794, 6.418244655064675 187.590794771725, 5.297331485083405 183.9309141781296 C 4.1764183151021355 180.2710335845342, 4.221463654663269 176.33034379783132, 3.015224086974508 172.71881755922064 C 1.8089845192857439 169.1072913206099, 1.5994571104943751 165.99670938524199, 1.6632535936621966 162.20559480511417 C 1.7270500768300179 158.4144802249864, 0.9076512447234815 154.42434539141422, 0.44097017873711275 150.57554354770184 C -0.025710887249255743 146.72674170398943, 0.7515100581565441 143.04434136155118, 0.3615743215446512 139.30774421710228 C -0.02836141506724288 135.57114707265345, -1.548185283692132 132.47336837463118, -0.8805204806627429 128.81170246074728 C -0.21285567763335367 125.15003654686343, -0.2513370640455108 120.99399489597157, -0.525100281471141 117.21347623483813 C -0.7988634988967716 113.43295757370467, -1.003945123760541 108.89730262816374, -2.4736204437781355 105.64023927464493 C -3.943295763795729 102.38317592112611, -2.577144486929969 100.08536362789926, -2.3712083754822117 96.43284334717512 C -2.1652722640344555 92.780323066451, -2.148226658656192 89.14242653383917, -1.7154995747786834 85.44848729681878 C -1.2827724909011753 81.75454805979838, -0.16409431790419582 78.12904275503298, 0.2533296206709057 74.45223184722438 C 0.6707535592460068 70.77542093941578, 0.8216536663099543 66.9250064174648, 0.9776405915097348 63.31079586722756 C 1.1336275167095158 59.696585316990316, 1.2850513650729183 55.90335109358793, 1.0192765617263735 52.25538048543199 C 0.7535017583798282 48.60740987727606, 0.8438401585708244 45.37211921621135, 1.3104047308086093 41.74948434665115 C 1.7769693030463931 38.12684947709094, 1.8906310167842775 34.69542217454505, 2.7172226647494426 31.18982569141236 C 3.5438143127146065 27.68422920827968, 4.515524561694115 24.287208239106274, 5.188087087693067 20.78627838440601 C 5.860649613692018 17.28534852970575, 6.537535244112737 13.713286382212313, 7.2141976193915545 10.16639256023798 C 7.8908599946703735 6.619498738263645, 8.567796643217987 3.071164297674915, 9.244672204993831 -0.4768496483379251 C 9.921547766769676 -4.024863594350765, 5.9924101186690475 -4.7744483742644555, 5.315534556893202 -1.2264344282516149" stroke="#e28343" fill="none">
		<title>.id(nerve_feature_27_outline)</title>
	</path>
	<path d="M 0.2843366061023753 52.270423191720155 C 0.5505566863432945 52.160771557732545, 0.816776766581121 52.051119923727015, 1.0829968468220508 51.941468289739426 M -0.35470679290051454 54.372305226441796 C -0.18545087013174333 54.28687663178199, -0.016194947364867457 54.20144803711798, 0.15306097540317287 54.11601944245821" stroke="#01136e" fill="none">
		<title>.id(nerve_feature_28)</title>
	</path>
	<path d="M 1.0460239034299326 54.11970209472258 C 1.312243983670852 54.010050460734966, 1.5784640639085257 53.9003988267295, 1.8446841441494555 53.79074719274191 C 2.110904224390385 53.68109555875432, 0.5875296297355759 49.98253775274935, 0.3213095494946461 50.09218938673694 C 0.05508946925371627 50.20184102072453, -0.2111306109842629 50.311492654730124, -0.47735069122518203 50.421144288717734 C -0.7435707714661012 50.530795922705344, 0.7798038231890132 54.22935372871019, 1.0460239034299326 54.11970209472258 M 0.5464706563839354 56.15776852903336 C 0.7157265791527067 56.07233993437356, 0.884982501922385 55.98691133970813, 1.0542384246904253 55.901482745048355 C 1.2234943474584656 55.81605415038858, -0.5788605511160393 52.245127545208305, -0.7481164738840796 52.330556139868065 C -0.91737239665212 52.415984734527825, -1.0866283194161932 52.50141332919043, -1.2558842421849645 52.58684192385023 C -1.4251401649537359 52.67227051851003, 0.3772147336151642 56.243197123693164, 0.5464706563839354 56.15776852903336" stroke="#e28343" fill="none">
		<title>.id(nerve_feature_28_outline)</title>
	</path>
	<path d="M 5.613526321123698 257.44947389523486 C 5.731032795523954 257.4686910494835, 4.8492803152687785 258.94977460179274, 5.282665421595672 260.19060945311406 M 2.5255866360032306 260.6362763584552 C 2.4415366833490353 260.59477112712983, 2.3574867307004475 260.55326589586565, 2.273436778046211 260.5117606645451" stroke="#01136e" fill="none">
		<title>.id(nerve_feature_29)</title>
	</path>
	<path d="M 5.290732047630412 259.4232529753246 C 5.408238522030668 259.4424701295732, 2.961133620537643 259.60924564677947, 3.3945187268645363 260.8500804981008 C 3.8279038331914297 262.0909153494221, 7.604197222653701 260.77197325944866, 7.1708121163268075 259.53113840812733 C 6.737427009999914 258.290303556806, 6.05382706901724 255.49491196939374, 5.9363205946169835 255.47569481514512 C 5.818814120216727 255.4564776608965, 5.173225573230155 259.404035821076, 5.290732047630412 259.4232529753246 M 3.411131512340521 258.8430083160274 C 3.3270815596863255 258.80150308470206, 3.243031606955485 258.75999785339724, 3.1589816543012486 258.71849262207667 C 3.074931701647012 258.6769873907561, 1.3038419491369362 262.2635234756929, 1.3878919017911728 262.3050287070135 C 1.4719418544454095 262.34653393833406, 1.555991807011745 262.3880391695576, 1.6400417596659405 262.42954440088295 C 1.7240917123201358 262.4710496322083, 3.495181464994716 258.88451354735275, 3.411131512340521 258.8430083160274" stroke="#e28343" fill="none">
		<title>.id(nerve_feature_29_outline)</title>
	</path>
	<path d="M -6.54142546172241 290.00279801600374 C -6.430131007253506 290.0052157771977, -6.318836552782261 290.00763353836555, -6.207542098313351 290.0100512995597" stroke="#01136e" fill="none">
		<title>.id(nerve_feature_30)</title>
	</path>
	<path d="M -6.584863221446744 292.0023262506206 C -6.47356876697784 292.0047440118146, -6.362274312509656 292.0071617729824, -6.250979858040746 292.0095795341765 C -6.1396854035718365 292.01199729537063, -6.052809884117047 288.01294082613697, -6.164104338585957 288.01052306494284 C -6.275398793054866 288.0081053037487, -6.386693247529172 288.0056875425808, -6.497987701998076 288.00326978138685 C -6.60928215646698 288.0008520201929, -6.696157675915648 291.9999084894267, -6.584863221446744 292.0023262506206" stroke="#e28343" fill="none">
		<title>.id(nerve_feature_30_outline)</title>
	</path>
	<path d="M -1.7960552277375847 51.09056617621846 C -1.8345775544048735 51.00810291803204, -1.873099881071706 50.92563965984066, -1.9116222077387106 50.843176401656166" stroke="#01136e" fill="none">
		<title>.id(nerve_feature_31)</title>
	</path>
	<path d="M 0.015978526098617607 50.24408305473388 C -0.022543800568671113 50.161619796547456, -0.06106612724068827 50.07915653834498, -0.09958845390769278 49.996693280160486 C -0.13811078057469728 49.91423002197599, -3.7621782882367336 51.60719626496735, -3.7236559615697287 51.689659523151846 C -3.6851336349027237 51.77212278133634, -3.646611308241076 51.85458603951662, -3.608088981573787 51.93704929770304 C -3.5695666549064984 52.01951255588946, 0.05450085276590633 50.3265463129203, 0.015978526098617607 50.24408305473388" stroke="#e28343" fill="none">
		<title>.id(nerve_feature_31_outline)</title>
	</path>
	<path d="M 11.27780636904669 238.1498269376496 C 13.115302149840435 240.16279749014535, 11.901047132085036 243.51368996767303, 12.687272620734117 246.3890669559011 C 13.4734981093832 249.26444394412914, 14.768293693695655 251.42232125206107, 15.860902831470266 254.21784569453084 C 16.953511969244886 257.0133701370006, 17.661965103932296 259.90563675172723, 18.87829948392465 262.6412682761048" stroke="#01136e" fill="none">
		<title>.id(nerve_feature_32)</title>
	</path>
	<path d="M 9.800676865488352 239.498192032762 C 11.638172646282097 241.51116258525775, 9.97186594350338 244.04119346682984, 10.75809143215246 246.9165704550579 C 11.544316920801544 249.79194744328595, 12.905516198167605 252.15037344947154, 13.998125335942216 254.9458978919413 C 15.090734473716834 257.7414223344111, 15.834465533777434 260.7181915628531, 17.050799913769787 263.4538230872307 C 18.26713429376214 266.1894546116083, 21.922133434071867 264.5643449893565, 20.705799054079513 261.82871346497893 C 19.48946467408716 259.09308194060134, 18.816289464772936 256.28531793959013, 17.72368032699832 253.48979349712033 C 16.631071189223707 250.6942690546506, 15.402679297964857 248.73694044497233, 14.616453809315777 245.86156345674428 C 13.830228320666693 242.98618646851622, 14.592431653398773 238.81443239503295, 12.754935872605028 236.8014618425372 C 10.917440091811283 234.78849129004146, 7.963181084694607 237.48522148026626, 9.800676865488352 239.498192032762" stroke="#e28343" fill="none">
		<title>.id(nerve_feature_32_outline)</title>
	</path>
	<path d="M 7.161089884749983 249.69637323829244 C 7.588000412867467 250.32457809431273, 9.526878556260824 252.10910198754888, 10.709057527848952 254.29565576775852 C 11.891236499437078 256.48220954796807, 11.3069410290007 258.503110500982, 11.252369090394359 260.9325177009034 C 11.197797151788022 263.3619249008249, 10.7477505414449 265.95688209593516, 9.686696490392018 267.7751431332221" stroke="#01136e" fill="none">
		<title>.id(nerve_feature_33)</title>
	</path>
	<path d="M 5.506907863485403 250.82050928011523 C 5.9338183916028875 251.44871413613552, 7.767552377574306 253.06029670840698, 8.949731349162434 255.24685048861662 C 10.13191032075057 257.43340426882617, 9.307445427537365 258.45819569575286, 9.252873488931023 260.88760289567426 C 9.198301550324686 263.3170100955958, 9.020358891613412 264.94885526688125, 7.959304840560531 266.7671163041682 C 6.8982507895076495 268.58537734145517, 10.353034089170624 270.601430999563, 11.414088140223505 268.783169962276 C 12.475142191276387 266.96490892498906, 13.197292753251357 263.406839706054, 13.251864691857696 260.9774325061326 C 13.306436630464036 258.5480253062112, 13.650562678123585 255.53101482710997, 12.468383706535459 253.3444610469004 C 11.286204734947342 251.15790726669078, 9.242182434132047 249.20044205248993, 8.815271906014562 248.57223719646964 C 8.388361377897077 247.94403234044935, 5.079997335367919 250.19230442409494, 5.506907863485403 250.82050928011523" stroke="#e28343" fill="none">
		<title>.id(nerve_feature_33_outline)</title>
	</path>
	<path d="M 3.3850107929520545 184.516601441476 C 4.505923962933323 188.1764820350714, 5.467857907331765 192.006316115006, 6.718118072765747 195.50689897021272 C 7.968378238199727 199.0074818254194, 10.364531501092484 201.92024702148333, 11.745243710640075 205.47139401679257 C 13.125955920187671 209.022541012102, 13.445415130922822 212.96887354765227, 13.746053745478884 216.85280373593054 C 14.04669236003494 220.73673392420878, 13.896306922575766 224.43938926671285, 13.137625362307093 228.1627610344132 C 12.378943802038417 231.8861328021134, 13.0381441114508 235.6955328837715, 11.152736572890397 238.28056604414928 C 9.26732903433 240.86559920452711, 8.273690280847315 244.0721717880076, 7.6595098421072505 247.73813027502052 C 7.045329403367179 251.4040887620334, 6.1332616170637895 254.79301928410774, 5.004045393767162 258.2280033073159 C 3.874829170470533 261.662987330524, 2.116726156122968 265.0717201452834, 1.4594864157163103 268.762563225415 C 0.8022466753096522 272.45340630554665, -0.2648884544223822 276.07927076497157, -2.0472573615125027 279.5120771349997 C -3.8296262686026252 282.9448835050278, -5.569685784548266 286.4441058096469, -7.114099734781951 289.9974179707532 C -8.658513685015635 293.5507301318595, -9.967671455340334 297.1561816392421, -10.969797775285542 300.8360756323569 C -11.971924095230747 304.51596962547166, -13.588298867831714 307.9309238314809, -15.883813479273151 311.01140177921974 C -18.179328090714602 314.09187972695844, -20.42517508640928 317.23350188583004, -21.915772524237195 320.7639000153276 C -23.406369962065106 324.29429814482523, -24.906275141688887 327.8411656523575, -26.99786085896531 331.0091616508441 C -29.089446576241738 334.1771576493305, -30.87784484697393 337.49765690008314, -29.823679400835594 340.5611846040488 C -28.769513954697278 343.6247123080144, -26.173477739632197 346.1675561674585, -23.10518209687375 346.31791091752063 C -20.036886454115308 346.46826566758267, -17.315719242729855 343.53297599177256, -14.544486531104244 341.7022415664865 C -11.77325381947864 339.8715071412003, -8.131142426371396 340.8718196364615, -4.608069408775835 341.22338966640484 C -1.0849963911802702 341.574959696348, 2.365414035384458 340.5192969858949, 5.742203199156411 339.0394822683813 C 9.118992362928365 337.55966755086763, 12.457089337555031 335.890391076888, 15.453171458770091 333.6866764729049 C 18.449253579985164 331.48296186892173, 21.441291195916296 329.2232704285614, 24.58504729381705 327.1815941914917 C 27.728803391717804 325.13991795442195, 30.87501685932523 323.095836363008, 34.02078758384283 321.0521248020079 C 37.16655830836044 319.00841324100776, 40.31248057618668 316.96458708135543, 43.45836974084543 314.92076967213404 C 46.60425890550418 312.87695226291254, 49.75015076089772 310.8331202832706, 52.89603590072697 308.7892823762712 C 56.04192104055622 306.7454444692719, 59.18780150624013 304.70159929788593, 62.333677695018764 302.6577486571589 C 65.47955388379738 300.61389801643185, 68.6254259104004 298.57004182523895, 71.77129457042479 296.5261812476531 C 74.91716323044918 294.4823206700672, 78.06302852890917 292.4384556985309, 81.20889115710618 290.3945872722167 C 84.35475378530319 288.3507188459025, 87.50061374193405 286.3068469623202, 90.64647161340847 284.2629724023649 C 93.79232948488287 282.21909784240955, 96.9381852699703 280.1752206043911, 100.08403947387563 278.1313413508333 C 103.22989367778094 276.0874620972754, 106.37574629909557 274.04358082613936, 109.52159778287898 271.99969811282983 C 112.66744926666244 269.9558153995204, 115.81329961196643 267.9119312424976, 118.95914922124618 265.8680461562681 C 122.10499883052596 263.8241610700387, 125.25084770274879 261.78027505278084, 128.39669621391403 259.73638858039374 C 131.5425447250792 257.6925021080066, 134.68839287361004 255.64861517936765, 137.8342410231911 253.60472825128429" stroke="#01136e" fill="none">
		<title>.id(nerve_feature_34)</title>
	</path>
	<path d="M 1.4726901008207052 185.10228870482248 C 2.593603270801974 188.76216929841786, 3.58438294672879 192.67901372372899, 4.834643112162772 196.1795965789357 C 6.0849032775967515 199.6801794341424, 8.50047084686455 202.64500758702158, 9.88118305641214 206.19615458233082 C 11.26189526595973 209.74730157764026, 11.451379993261565 213.12322337684637, 11.752018607817627 217.00715356512464 C 12.052657222373682 220.89108375340288, 11.93657616102463 224.04007066931197, 11.177894600755957 227.76344243701232 C 10.419213040487282 231.48681420471252, 11.42227413924349 234.51698961646278, 9.536866600683087 237.10202277684056 C 7.651459062122684 239.6870559372184, 6.301181245780937 243.74170528958226, 5.687000807040872 247.40766377659517 C 5.0728203683008015 251.07362226360806, 4.233293052239713 254.1684238529042, 3.104076828943085 257.6034078761123 C 1.974860605646456 261.03839189932046, 0.14770141946817006 264.72108987499644, -0.5095383209384878 268.41193295512807 C -1.166778061345146 272.1027760352597, -2.039891135812927 275.1576604996987, -3.8222600429030473 278.5904668697268 C -5.604628949993169 282.02327323975493, -7.403921088449694 285.64687256277267, -8.948335038683378 289.200184723879 C -10.492748988917063 292.7534968849853, -11.897396125018139 296.6306697942406, -12.899522444963347 300.31056378735536 C -13.901648764908552 303.99045778047014, -15.192000534972772 306.73587531246216, -17.48751514641421 309.81635326020097 C -19.78302975785565 312.8968312079396, -22.26767703424224 316.4555645025968, -23.758274472070156 319.98596263209436 C -25.248871909898067 323.516360761592, -26.57532236215765 326.73922129085577, -28.666908079434073 329.9072172893423 C -30.75849379671049 333.0752132878288, -32.769013409777166 338.1484114368055, -31.71484796363883 341.2119391407711 C -30.66068251750052 344.27546684473674, -26.27136566914505 348.16515921943244, -23.203070026386605 348.3155139694946 C -20.134774383628162 348.4658687195566, -16.21331312021778 345.20171825498994, -13.44208040859217 343.3709838297039 C -10.670847696966542 341.5402494044177, -8.329737513072002 342.8619352088689, -4.806664495476441 343.2135052388122 C -1.2835914778808444 343.5650752687554, 3.1681759535679244 342.3511193852324, 6.544965117339878 340.87130466771873 C 9.92175428111183 339.3914899502051, 13.642119101120766 337.50151008536113, 16.638201222335827 335.297795481378 C 19.634283343550898 333.09408087739484, 22.530605725847263 330.9005878865524, 25.674361823748015 328.85891164948265 C 28.81811792164877 326.8172354124129, 31.96460396878304 324.7729767658674, 35.11037469330064 322.72926520486726 C 38.25614541781825 320.68555364386714, 41.402078520396046 318.6417204451565, 44.54796768505479 316.59790303593513 C 47.69385684971356 314.55408562671363, 50.839757369677095 312.51024801785263, 53.98564250950635 310.46641011085325 C 57.131527649335595 308.4225722038539, 60.27741506875098 306.3787225147047, 63.42329125752962 304.33487187397765 C 66.56916744630824 302.29102123325055, 69.7150450317267 300.24716143052655, 72.86091369175108 298.2033008529407 C 76.00678235177548 296.1594402753548, 79.15265206165805 294.1155724377235, 82.29851468985505 292.0717040114093 C 85.44437731805206 290.0278355850951, 88.59024073258956 287.98396145490415, 91.73609860406398 285.9400868949488 C 94.88195647553839 283.8962123349935, 98.02781491341894 281.8523333734433, 101.17366911732427 279.8084541198855 C 104.31952332122957 277.7645748663276, 107.46537790203448 275.72069232209805, 110.6112293858179 273.6768096087885 C 113.75708086960132 271.6329268954791, 116.90293256100921 269.58904186388196, 120.04878217028896 267.5451567776525 C 123.19463177956874 265.5012716914231, 126.34048143888477 263.45738516278385, 129.48632995005002 261.41349869039675 C 132.6321784612152 259.3696122180096, 135.77802686864277 257.3257251211631, 138.92387501822384 255.2818381930797 C 142.0697231678049 253.2379512649963, 139.89045517773945 249.8837313814055, 136.74460702815838 251.92761830948888 C 133.5987588785773 253.97150523757225, 130.45291098894322 256.01539199800357, 127.307062477778 258.05927847039067 C 124.1612139666128 260.1031649427778, 121.01536588148318 262.14705044865434, 117.86951627220341 264.1909355348838 C 114.72366666292365 266.2348206211132, 111.57781766372356 268.27870390356173, 108.43196617994012 270.3225866168712 C 105.28611469615666 272.3664693301807, 102.1402640343323 274.4103493282232, 98.99440983042697 276.454228581781 C 95.84855562652167 278.4981078353389, 92.70270249422735 280.5419833498256, 89.55684462275293 282.58585790978094 C 86.41098675127853 284.62973246973627, 83.26513025255431 286.67360210670995, 80.1192676243573 288.71747053302414 C 76.9734049961603 290.76133895933833, 73.82754410912287 292.8052010647796, 70.68167544909849 294.8490616423655 C 67.53580678907409 296.89292221995134, 64.38994032128652 298.93677479961315, 61.2440641325079 300.9806254403402 C 58.09818794372927 303.0244760810672, 54.95231443177684 305.06831673468986, 51.806429291947595 307.11215464168924 C 48.66054415211834 309.1559925486886, 45.5146609612948 311.19981889911145, 42.36877179663605 313.2436363083329 C 39.22288263197731 315.28745371755434, 36.07697119890263 317.3312728381484, 32.93120047438503 319.3749843991485 C 29.785429749867415 321.4186959601486, 26.639488861786838 323.462600496431, 23.495732763886082 325.5042767335007 C 20.35197666598533 327.54595297057045, 17.26422381641943 329.8718428604486, 14.268141695204367 332.07555746443177 C 11.272059573989296 334.2792720684149, 8.3162304447449 335.7278451515302, 4.939441280972945 337.2076598690438 C 1.5626521172009915 338.68747458655747, -0.8864013044796961 339.5848441239406, -4.409474322075259 339.23327409399735 C -7.93254733967079 338.88170406405413, -12.875659941990738 338.20276487798293, -15.646892653616346 340.033499303269 C -18.41812536524193 341.8642337285552, -19.938998524602454 344.4706626156087, -23.007294167360897 344.32030786554657 C -26.075589810119343 344.16995311548453, -26.878345391894037 342.9739577712921, -27.93251083803236 339.91043006732644 C -28.98667628417069 336.8469023633608, -27.420399355772986 335.2791020108323, -25.32881363849656 332.1111060123458 C -23.237227921220125 328.94311001385927, -21.563868014232145 325.07223552805846, -20.07327057640423 321.5418373985609 C -18.582673138576318 318.01143926906326, -16.575626423573553 315.28692824597726, -14.280111812132114 312.2064502982385 C -11.984597200690656 309.1259723504997, -10.042199425552942 305.0414814704732, -9.040073105607734 301.3615874773584 C -8.037946785662529 297.6816934842436, -6.8242783811142065 294.3479633787337, -5.279864430880522 290.7946512176274 C -3.735450480646838 287.2413390565211, -2.054623587212081 283.8664937703007, -0.27225468012195964 280.43368740027256 C 1.5101142269681624 277.00088103024444, 2.7712714119644506 272.8040365758336, 3.428511152371108 269.113193495702 C 4.085750892777766 265.42235041557035, 5.77479773529461 262.28758276172755, 6.9040139585912375 258.8525987385194 C 8.033230181887866 255.4176147153113, 9.017838438433557 251.73455526045876, 9.632018877173625 248.06859677344585 C 10.246199315913694 244.40263828643296, 10.883199006537318 242.04414247183584, 12.768606545097718 239.45910931145804 C 14.65401408365811 236.87407615108023, 14.338674563589553 232.28545139951427, 15.097356123858226 228.562079631814 C 15.856037684126902 224.83870786411373, 16.0407274976962 220.58238409501467, 15.740088883140139 216.6984539067364 C 15.439450268584078 212.81452371845816, 14.990016574415613 208.29778044656376, 13.609304364868022 204.74663345125444 C 12.228592155320419 201.1954864559451, 9.851853198802702 198.33478421669642, 8.60159303336872 194.8342013614897 C 7.351332867934739 191.33361850628302, 6.418244655064672 187.59079477172492, 5.297331485083404 183.93091417812954 C 4.176418315102136 180.27103358453417, 0.3517769308394363 181.4424081112271, 1.4726901008207052 185.10228870482248" stroke="#e28343" fill="none">
		<title>.id(nerve_feature_34_outline)</title>
	</path>
	<path d="M 7.280103380943517 -0.85164203829477 C 6.603227819167672 2.69637190771807, 5.926291222228374 6.244706077788901, 5.249628846949557 9.791599899763238 C 4.572966471670738 13.338493721737569, 3.896564633111168 16.90802878591181, 3.224002107112216 20.40895864061207 C 2.551439581113266 23.909888495312334, 1.5971962788402352 27.22523222550629, 0.770604630875071 30.730828708638988 C -0.05598701709009324 34.23642519177166, -0.20664698803260023 37.87137656313328, -0.673211560270386 41.49401143269347 C -1.139776132508169 45.11664630225369, -1.2412113520497359 48.75273574242199, -0.9754365487031924 52.40070635057793 C -0.7096617453566458 56.048676958733864, -0.8645123533461617 59.61034692824215, -1.0204992785459401 63.2245574784794 C -1.1764862037457233 66.83876802871664, -1.31648091920018 70.54981258922743, -1.73390485777528 74.22662349703602 C -2.151328796350383 77.90343440484463, -3.269189147844114 81.52184897295093, -3.701916231721621 85.21578820997132 C -4.1346433155991305 88.90972744699171, -4.162100902103686 92.66773803109291, -4.368037013551441 96.320258311817 C -4.573973124999199 99.97277859254116, -5.76630067655734 103.20576517953339, -4.296625356539746 106.46282853305222 C -2.8269500365221507 109.71989188657102, -2.7936402166803287 113.57740772492875, -2.5198769992546968 117.35792638606219 C -2.246113781829068 121.13844504719565, -2.180414864828388 124.79127360997555, -2.848079667857777 128.45293952385947 C -3.5157444708871655 132.1146054377433, -2.017559420369873 135.77873150294636, -1.6276236837579796 139.51532864739525 C -1.237687947146086 143.2519257918441, -2.011168612666346 146.96748559400868, -1.5444875466799768 150.81628743772103 C -1.0778064806936092 154.66508928143347, -0.27266680520293535 158.380829196586, -0.33646328837075723 162.1719437767138 C -0.40025977153857795 165.9630583568416, -0.08800394728225647 169.74088011289396, 1.1182356204065054 173.3524063515046 C 2.324475188095268 176.96393259011538, 2.2640976229707848 180.85672084788067, 3.3850107929520545 184.51660144147607 C 4.505923962933323 188.1764820350714, 5.467857907331765 192.006316115006, 6.718118072765747 195.50689897021272 C 7.968378238199727 199.0074818254194, 10.364531501092484 201.92024702148333, 11.745243710640075 205.47139401679257 C 13.125955920187671 209.022541012102, 13.445415130922822 212.96887354765227, 13.746053745478884 216.85280373593054 C 14.04669236003494 220.73673392420878, 13.896306922575766 224.43938926671285, 13.137625362307093 228.1627610344132 C 12.378943802038417 231.8861328021134, 13.0381441114508 235.6955328837715, 11.152736572890397 238.28056604414928 C 9.26732903433 240.86559920452711, 8.273690280847315 244.0721717880076, 7.6595098421072505 247.73813027502052 C 7.045329403367179 251.4040887620334, 6.1332616170637895 254.79301928410774, 5.004045393767162 258.2280033073159 C 3.874829170470533 261.662987330524, 2.116726156122968 265.0717201452834, 1.4594864157163103 268.762563225415 C 0.8022466753096522 272.45340630554665, -0.2648884544223822 276.07927076497157, -2.0472573615125027 279.5120771349997 C -3.8296262686026252 282.9448835050278, -5.569685784548266 286.4441058096469, -7.114099734781951 289.9974179707532 C -8.658513685015635 293.5507301318595, -9.967671455340334 297.1561816392421, -10.969797775285542 300.8360756323569 C -11.971924095230747 304.51596962547166, -13.588298867831714 307.9309238314809, -15.883813479273151 311.01140177921974 C -18.179328090714602 314.09187972695844, -20.42517508640928 317.23350188583004, -21.915772524237195 320.7639000153276 C -23.406369962065106 324.29429814482523, -24.906275141688887 327.8411656523575, -26.99786085896531 331.0091616508441 C -29.089446576241738 334.1771576493305, -30.87784484697393 337.49765690008314, -29.823679400835594 340.5611846040488 C -28.769513954697278 343.6247123080144, -26.173477739632197 346.1675561674585, -23.10518209687375 346.31791091752063 C -20.036886454115308 346.46826566758267, -17.315719242729855 343.53297599177256, -14.544486531104244 341.7022415664865 C -11.77325381947864 339.8715071412003, -8.131142426371396 340.8718196364615, -4.608069408775835 341.22338966640484 C -1.0849963911802702 341.574959696348, 2.365414035384458 340.5192969858949, 5.742203199156411 339.0394822683813 C 9.118992362928365 337.55966755086763, 12.457089337555031 335.890391076888, 15.453171458770091 333.6866764729049 C 18.449253579985164 331.48296186892173, 21.441291195916296 329.2232704285614, 24.58504729381705 327.1815941914917 C 27.728803391717804 325.13991795442195, 30.87501685932523 323.095836363008, 34.02078758384283 321.0521248020079 C 37.16655830836044 319.00841324100776, 40.31248057618668 316.96458708135543, 43.45836974084543 314.92076967213404 C 46.60425890550418 312.87695226291254, 49.75015076089772 310.8331202832706, 52.89603590072697 308.7892823762712 C 56.04192104055622 306.7454444692719, 59.18780150624013 304.70159929788593, 62.333677695018764 302.6577486571589 C 65.47955388379738 300.61389801643185, 68.6254259104004 298.57004182523895, 71.77129457042479 296.5261812476531 C 74.91716323044918 294.4823206700672, 78.06302852890917 292.4384556985309, 81.20889115710618 290.3945872722167 C 84.35475378530319 288.3507188459025, 87.50061374193405 286.3068469623202, 90.64647161340847 284.2629724023649 C 93.79232948488287 282.21909784240955, 96.9381852699703 280.1752206043911, 100.08403947387563 278.1313413508333 C 103.22989367778094 276.0874620972754, 106.37574629909557 274.04358082613936, 109.52159778287898 271.99969811282983 C 112.66744926666244 269.9558153995204, 115.81329961196643 267.9119312424976, 118.95914922124618 265.8680461562681 C 122.10499883052596 263.8241610700387, 125.25084770274879 261.78027505278084, 128.39669621391403 259.73638858039374 C 131.5425447250792 257.6925021080066, 134.68839287361004 255.64861517936765, 137.8342410231911 253.60472825128429" stroke="#01136e" fill="none">
		<title>.id(nerve_feature_35)</title>
	</path>
	<path d="M 5.315534556893202 -1.2264344282516149 C 4.638658995117357 2.3215795177612253, 3.961722449786375 5.869913417314158, 3.285060074507558 9.416807239288493 C 2.608397699228739 12.963701061262825, 1.9324796525303187 16.53070904211787, 1.2599171265313667 20.03163889681813 C 0.5873546005324168 23.532568751518394, -0.34942175503413586 26.766235242732897, -1.1760134029993 30.271831725865596 C -2.002605050964464 33.777428208998266, -2.1902632791115937 37.61590364917562, -2.6568278513493793 41.23853851873581 C -3.1233924235871626 44.86117338829603, -3.2359244624793 48.89806160756792, -2.9701496591327565 52.546032215723855 C -2.70437485578621 56.1940028238798, -2.8626522234018394 59.52410853949399, -3.0186391486016175 63.13831908973123 C -3.174626073801401 66.75252963996849, -3.303715397646367 70.32420423903908, -3.7211393362214666 74.00101514684766 C -4.13856327479657 77.67782605465628, -5.255605804787053 81.28914988610349, -5.68833288866456 84.98308912312388 C -6.121059972542069 88.67702836014425, -6.158929540172916 92.55515299573482, -6.364865651620671 96.2076732764589 C -6.570801763068429 99.86019355718307, -7.589305589318951 104.02835443794066, -6.119630269301357 107.2854177914595 C -4.64995494928376 110.5424811449783, -4.788416934463886 113.72185787615282, -4.514653717038254 117.50237653728627 C -4.240890499612625 121.28289519841972, -4.147974052023422 124.43251067308766, -4.815638855052811 128.0941765869716 C -5.483303658082199 131.75584250085544, -4.006757425672503 135.98631593323927, -3.6168216890606097 139.72291307768816 C -3.226885952448716 143.459510222137, -3.996626338083437 147.20822948402792, -3.529945272097067 151.05703132774028 C -3.0632642061107 154.9058331714527, -2.2723836872358887 158.34717816818562, -2.3361801704037104 162.1382927483134 C -2.3999766535715312 165.92940732844121, -1.9849924138502568 170.37446890517802, -0.778752846161495 173.98599514378867 C 0.42748672152726597 177.59752138239944, 0.35177693083943407 181.44240811122714, 1.4726901008207038 185.10228870482254 C 2.593603270801974 188.76216929841786, 3.58438294672879 192.67901372372899, 4.834643112162772 196.1795965789357 C 6.0849032775967515 199.6801794341424, 8.50047084686455 202.64500758702158, 9.88118305641214 206.19615458233082 C 11.26189526595973 209.74730157764026, 11.451379993261565 213.12322337684637, 11.752018607817627 217.00715356512464 C 12.052657222373682 220.89108375340288, 11.93657616102463 224.04007066931197, 11.177894600755957 227.76344243701232 C 10.419213040487282 231.48681420471252, 11.42227413924349 234.51698961646278, 9.536866600683087 237.10202277684056 C 7.651459062122684 239.6870559372184, 6.301181245780937 243.74170528958226, 5.687000807040872 247.40766377659517 C 5.0728203683008015 251.07362226360806, 4.233293052239713 254.1684238529042, 3.104076828943085 257.6034078761123 C 1.974860605646456 261.03839189932046, 0.14770141946817006 264.72108987499644, -0.5095383209384878 268.41193295512807 C -1.166778061345146 272.1027760352597, -2.039891135812927 275.1576604996987, -3.8222600429030473 278.5904668697268 C -5.604628949993169 282.02327323975493, -7.403921088449694 285.64687256277267, -8.948335038683378 289.200184723879 C -10.492748988917063 292.7534968849853, -11.897396125018139 296.6306697942406, -12.899522444963347 300.31056378735536 C -13.901648764908552 303.99045778047014, -15.192000534972772 306.73587531246216, -17.48751514641421 309.81635326020097 C -19.78302975785565 312.8968312079396, -22.26767703424224 316.4555645025968, -23.758274472070156 319.98596263209436 C -25.248871909898067 323.516360761592, -26.57532236215765 326.73922129085577, -28.666908079434073 329.9072172893423 C -30.75849379671049 333.0752132878288, -32.769013409777166 338.1484114368055, -31.71484796363883 341.2119391407711 C -30.66068251750052 344.27546684473674, -26.27136566914505 348.16515921943244, -23.203070026386605 348.3155139694946 C -20.134774383628162 348.4658687195566, -16.21331312021778 345.20171825498994, -13.44208040859217 343.3709838297039 C -10.670847696966542 341.5402494044177, -8.329737513072002 342.8619352088689, -4.806664495476441 343.2135052388122 C -1.2835914778808444 343.5650752687554, 3.1681759535679244 342.3511193852324, 6.544965117339878 340.87130466771873 C 9.92175428111183 339.3914899502051, 13.642119101120766 337.50151008536113, 16.638201222335827 335.297795481378 C 19.634283343550898 333.09408087739484, 22.530605725847263 330.9005878865524, 25.674361823748015 328.85891164948265 C 28.81811792164877 326.8172354124129, 31.96460396878304 324.7729767658674, 35.11037469330064 322.72926520486726 C 38.25614541781825 320.68555364386714, 41.402078520396046 318.6417204451565, 44.54796768505479 316.59790303593513 C 47.69385684971356 314.55408562671363, 50.839757369677095 312.51024801785263, 53.98564250950635 310.46641011085325 C 57.131527649335595 308.4225722038539, 60.27741506875098 306.3787225147047, 63.42329125752962 304.33487187397765 C 66.56916744630824 302.29102123325055, 69.7150450317267 300.24716143052655, 72.86091369175108 298.2033008529407 C 76.00678235177548 296.1594402753548, 79.15265206165805 294.1155724377235, 82.29851468985505 292.0717040114093 C 85.44437731805206 290.0278355850951, 88.59024073258956 287.98396145490415, 91.73609860406398 285.9400868949488 C 94.88195647553839 283.8962123349935, 98.02781491341894 281.8523333734433, 101.17366911732427 279.8084541198855 C 104.31952332122957 277.7645748663276, 107.46537790203448 275.72069232209805, 110.6112293858179 273.6768096087885 C 113.75708086960132 271.6329268954791, 116.90293256100921 269.58904186388196, 120.04878217028896 267.5451567776525 C 123.19463177956874 265.5012716914231, 126.34048143888477 263.45738516278385, 129.48632995005002 261.41349869039675 C 132.6321784612152 259.3696122180096, 135.77802686864277 257.3257251211631, 138.92387501822384 255.2818381930797 C 142.0697231678049 253.2379512649963, 139.89045517773945 249.8837313814055, 136.74460702815838 251.92761830948888 C 133.5987588785773 253.97150523757225, 130.45291098894322 256.01539199800357, 127.307062477778 258.05927847039067 C 124.1612139666128 260.1031649427778, 121.01536588148318 262.14705044865434, 117.86951627220341 264.1909355348838 C 114.72366666292365 266.2348206211132, 111.57781766372356 268.27870390356173, 108.43196617994012 270.3225866168712 C 105.28611469615666 272.3664693301807, 102.1402640343323 274.4103493282232, 98.99440983042697 276.454228581781 C 95.84855562652167 278.4981078353389, 92.70270249422735 280.5419833498256, 89.55684462275293 282.58585790978094 C 86.41098675127853 284.62973246973627, 83.26513025255431 286.67360210670995, 80.1192676243573 288.71747053302414 C 76.9734049961603 290.76133895933833, 73.82754410912287 292.8052010647796, 70.68167544909849 294.8490616423655 C 67.53580678907409 296.89292221995134, 64.38994032128652 298.93677479961315, 61.2440641325079 300.9806254403402 C 58.09818794372927 303.0244760810672, 54.95231443177684 305.06831673468986, 51.806429291947595 307.11215464168924 C 48.66054415211834 309.1559925486886, 45.5146609612948 311.19981889911145, 42.36877179663605 313.2436363083329 C 39.22288263197731 315.28745371755434, 36.07697119890263 317.3312728381484, 32.93120047438503 319.3749843991485 C 29.785429749867415 321.4186959601486, 26.639488861786838 323.462600496431, 23.495732763886082 325.5042767335007 C 20.35197666598533 327.54595297057045, 17.26422381641943 329.8718428604486, 14.268141695204367 332.07555746443177 C 11.272059573989296 334.2792720684149, 8.3162304447449 335.7278451515302, 4.939441280972945 337.2076598690438 C 1.5626521172009915 338.68747458655747, -0.8864013044796961 339.5848441239406, -4.409474322075259 339.23327409399735 C -7.93254733967079 338.88170406405413, -12.875659941990738 338.20276487798293, -15.646892653616346 340.033499303269 C -18.41812536524193 341.8642337285552, -19.938998524602454 344.4706626156087, -23.007294167360897 344.32030786554657 C -26.075589810119343 344.16995311548453, -26.878345391894037 342.9739577712921, -27.93251083803236 339.91043006732644 C -28.98667628417069 336.8469023633608, -27.420399355772986 335.2791020108323, -25.32881363849656 332.1111060123458 C -23.237227921220125 328.94311001385927, -21.563868014232145 325.07223552805846, -20.07327057640423 321.5418373985609 C -18.582673138576318 318.01143926906326, -16.575626423573553 315.28692824597726, -14.280111812132114 312.2064502982385 C -11.984597200690656 309.1259723504997, -10.042199425552942 305.0414814704732, -9.040073105607734 301.3615874773584 C -8.037946785662529 297.6816934842436, -6.8242783811142065 294.3479633787337, -5.279864430880522 290.7946512176274 C -3.735450480646838 287.2413390565211, -2.054623587212081 283.8664937703007, -0.27225468012195964 280.43368740027256 C 1.5101142269681624 277.00088103024444, 2.7712714119644506 272.8040365758336, 3.428511152371108 269.113193495702 C 4.085750892777766 265.42235041557035, 5.77479773529461 262.28758276172755, 6.9040139585912375 258.8525987385194 C 8.033230181887866 255.4176147153113, 9.017838438433557 251.73455526045876, 9.632018877173625 248.06859677344585 C 10.246199315913694 244.40263828643296, 10.883199006537318 242.04414247183584, 12.768606545097718 239.45910931145804 C 14.65401408365811 236.87407615108023, 14.338674563589553 232.28545139951427, 15.097356123858226 228.562079631814 C 15.856037684126902 224.83870786411373, 16.0407274976962 220.58238409501467, 15.740088883140139 216.6984539067364 C 15.439450268584078 212.81452371845816, 14.990016574415613 208.29778044656376, 13.609304364868022 204.74663345125444 C 12.228592155320419 201.1954864559451, 9.851853198802702 198.33478421669642, 8.60159303336872 194.8342013614897 C 7.351332867934739 191.33361850628302, 6.418244655064672 187.59079477172492, 5.297331485083404 183.93091417812954 C 4.1764183151021355 180.2710335845342, 4.221463654663269 176.33034379783132, 3.015224086974508 172.71881755922064 C 1.8089845192857439 169.1072913206099, 1.5994571104943751 165.99670938524199, 1.6632535936621966 162.20559480511417 C 1.7270500768300179 158.4144802249864, 0.9076512447234815 154.42434539141422, 0.44097017873711275 150.57554354770184 C -0.025710887249255743 146.72674170398943, 0.7515100581565441 143.04434136155118, 0.3615743215446512 139.30774421710228 C -0.02836141506724288 135.57114707265345, -1.548185283692132 132.47336837463118, -0.8805204806627429 128.81170246074728 C -0.21285567763335367 125.15003654686343, -0.2513370640455108 120.99399489597157, -0.525100281471141 117.21347623483813 C -0.7988634988967716 113.43295757370467, -1.003945123760541 108.89730262816374, -2.4736204437781355 105.64023927464493 C -3.943295763795729 102.38317592112611, -2.577144486929969 100.08536362789926, -2.3712083754822117 96.43284334717512 C -2.1652722640344555 92.780323066451, -2.148226658656192 89.14242653383917, -1.7154995747786834 85.44848729681878 C -1.2827724909011753 81.75454805979838, -0.16409431790419582 78.12904275503298, 0.2533296206709057 74.45223184722438 C 0.6707535592460068 70.77542093941578, 0.8216536663099543 66.9250064174648, 0.9776405915097348 63.31079586722756 C 1.1336275167095158 59.696585316990316, 1.2850513650729183 55.90335109358793, 1.0192765617263735 52.25538048543199 C 0.7535017583798282 48.60740987727606, 0.8438401585708244 45.37211921621135, 1.3104047308086093 41.74948434665115 C 1.7769693030463931 38.12684947709094, 1.8906310167842775 34.69542217454505, 2.7172226647494426 31.18982569141236 C 3.5438143127146065 27.68422920827968, 4.515524561694115 24.287208239106274, 5.188087087693067 20.78627838440601 C 5.860649613692018 17.28534852970575, 6.537535244112737 13.713286382212313, 7.2141976193915545 10.16639256023798 C 7.8908599946703735 6.619498738263645, 8.567796643217987 3.071164297674915, 9.244672204993831 -0.4768496483379251 C 9.921547766769676 -4.024863594350765, 5.9924101186690475 -4.7744483742644555, 5.315534556893202 -1.2264344282516149" stroke="#e28343" fill="none">
		<title>.id(nerve_feature_35_outline)</title>
	</path>
	<circle cx="4.5015636706692845" cy="13.718925341473351" r="1" fill="orange">
		<title>.id(marker_10001)</title>
	</circle>
	<circle cx="2.7494467935832008" cy="22.670596732616556" r="1" fill="orange">
		<title>.id(marker_10002)</title>
	</circle>
	<circle cx="-1.1473758124445212" cy="66.13267602063334" r="1" fill="orange">
		<title>.id(marker_10003)</title>
	</circle>
	<circle cx="-3.5000179044296487" cy="83.76966460719603" r="1" fill="orange">
		<title>.id(marker_10004)</title>
	</circle>
	<circle cx="-3.3849513910461635" cy="109.229281841445" r="1" fill="orange">
		<title>.id(marker_10005)</title>
	</circle>
	<circle cx="3.1488030258205653" cy="183.678205626941" r="1" fill="orange">
		<title>.id(marker_10006)</title>
	</circle>
	<circle cx="11.871235209154626" cy="205.8044442377896" r="1" fill="orange">
		<title>.id(marker_10007)</title>
	</circle>
	<circle cx="4.274199933752601" cy="260.2638959047227" r="1" fill="orange">
		<title>.id(marker_10008)</title>
	</circle>
</svg>
