<?xml version="1.0" ?>
<svg xmlns="http://www.w3.org/2000/svg" width="1000" height="1000" viewBox="-136 -2 178 449">
	<rect x="-136" y="-2" width="178" height="13" fill="red">
		<title>.id(brain_region)</title>
	</rect>
	<rect x="-136" y="11" width="178" height="143" fill="green">
		<title>.id(cervical_region)</title>
	</rect>
	<rect x="-136" y="154" width="178" height="327" fill="grey">
		<title>.id(thoracic_region)</title>
	</rect>
	<rect x="-136" y="481" width="178" height="171" fill="blue">
		<title>.id(lumbar_region)</title>
	</rect>
	<circle style="fill: rgb(216, 216, 216);" cx="-23.76743793708752" cy="25.933806395046048" r="0.9054">
		<title>.id(point_01)</title>
	</circle>
	<circle style="fill: rgb(216, 216, 216);" cx="-23.848061838840643" cy="25.74610487313129" r="0.9054">
		<title>.id(point_02)</title>
	</circle>
	<circle style="fill: rgb(216, 216, 216);" cx="0.7568841916047555" cy="56.12257163548154" r="0.9054">
		<title>.id(point_03)</title>
	</circle>
	<circle style="fill: rgb(216, 216, 216);" cx="0.23298347954181672" cy="56.76064209064953" r="0.9054">
		<title>.id(point_04)</title>
	</circle>
	<circle style="fill: rgb(216, 216, 216);" cx="27.06448347118748" cy="165.75580971498627" r="0.9054">
		<title>.id(point_05)</title>
	</circle>
	<circle style="fill: rgb(216, 216, 216);" cx="27.735227003710765" cy="165.9862155607247" r="0.9054">
		<title>.id(point_06)</title>
	</circle>
	<circle style="fill: rgb(216, 216, 216);" cx="22.58042249967225" cy="186.17364408926505" r="0.9054">
		<title>.id(point_07)</title>
	</circle>
	<circle style="fill: rgb(216, 216, 216);" cx="22.314815711844812" cy="186.12699747580152" r="0.9054">
		<title>.id(point_08)</title>
	</circle>
	<circle style="fill: rgb(216, 216, 216);" cx="12.067017559521254" cy="73.2840230388972" r="0.9054">
		<title>.id(point_09)</title>
	</circle>
	<circle style="fill: rgb(216, 216, 216);" cx="14.171155208677755" cy="71.689807110561" r="0.9054">
		<title>.id(point_10)</title>
	</circle>
	<circle style="fill: rgb(216, 216, 216);" cx="10.909105152265981" cy="227.89172317525103" r="0.9054">
		<title>.id(point_11)</title>
	</circle>
	<circle style="fill: rgb(216, 216, 216);" cx="10.473087872492208" cy="227.78535401839102" r="0.9054">
		<title>.id(point_12)</title>
	</circle>
	<circle style="fill: rgb(216, 216, 216);" cx="-1.2339718053147806" cy="260.5961820352329" r="0.9054">
		<title>.id(point_13)</title>
	</circle>
	<circle style="fill: rgb(216, 216, 216);" cx="-2.263845863800372" cy="261.07303886516274" r="0.9054">
		<title>.id(point_14)</title>
	</circle>
	<circle style="fill: rgb(216, 216, 216);" cx="-9.444299985000065" cy="262.7415695503272" r="0.9054">
		<title>.id(point_15)</title>
	</circle>
	<circle style="fill: rgb(216, 216, 216);" cx="-14.898022606577886" cy="264.5637242417866" r="0.9054">
		<title>.id(point_16)</title>
	</circle>
	<circle style="fill: rgb(216, 216, 216);" cx="-26.859421929025757" cy="284.5934836548432" r="0.9054">
		<title>.id(point_17)</title>
	</circle>
	<circle style="fill: rgb(216, 216, 216);" cx="-13.875731934740214" cy="267.76491768163805" r="0.9054">
		<title>.id(point_18)</title>
	</circle>
	<circle style="fill: rgb(216, 216, 216);" cx="-14.382485805279533" cy="266.2967091468406" r="0.9054">
		<title>.id(point_19)</title>
	</circle>
	<circle style="fill: rgb(216, 216, 216);" cx="-23.517862603729796" cy="279.7770761225081" r="0.9054">
		<title>.id(point_20)</title>
	</circle>
	<circle style="fill: rgb(216, 216, 216);" cx="-27.258347637027136" cy="285.62166983017704" r="0.9054">
		<title>.id(point_21)</title>
	</circle>
	<circle style="fill: rgb(216, 216, 216);" cx="28.666971252976353" cy="118.84694369617563" r="0.9054">
		<title>.id(point_22)</title>
	</circle>
	<circle style="fill: rgb(216, 216, 216);" cx="28.110981132738715" cy="118.8676660963586" r="0.9054">
		<title>.id(point_23)</title>
	</circle>
	<circle style="fill: rgb(216, 216, 216);" cx="-24.659778785140247" cy="24.495819312529072" r="0.9054">
		<title>.id(point_24)</title>
	</circle>
	<circle style="fill: rgb(216, 216, 216);" cx="-24.988000521874234" cy="24.04894434745949" r="0.9054">
		<title>.id(point_25)</title>
	</circle>
	<circle style="fill: rgb(216, 216, 216);" cx="-25.916325337864702" cy="25.11318141605" r="0.9054">
		<title>.id(point_26)</title>
	</circle>
	<circle style="fill: rgb(216, 216, 216);" cx="3.94168837088647" cy="245.1858370308293" r="0.9054">
		<title>.id(point_27)</title>
	</circle>
	<circle style="fill: rgb(216, 216, 216);" cx="2.7706148892810085" cy="244.9583428191894" r="0.9054">
		<title>.id(point_28)</title>
	</circle>
	<circle style="fill: rgb(216, 216, 216);" cx="2.216592752450591" cy="249.45753460049733" r="0.9054">
		<title>.id(point_29)</title>
	</circle>
	<circle style="fill: rgb(216, 216, 216);" cx="2.435200318880138" cy="250.51450528232928" r="0.9054">
		<title>.id(point_30)</title>
	</circle>
	<circle style="fill: rgb(216, 216, 216);" cx="-0.9302892227937238" cy="260.81871833033927" r="0.9054">
		<title>.id(point_31)</title>
	</circle>
	<circle style="fill: rgb(216, 216, 216);" cx="14.574156096321044" cy="217.18712643332492" r="0.9054">
		<title>.id(point_32)</title>
	</circle>
	<circle style="fill: rgb(216, 216, 216);" cx="13.210534896337965" cy="216.94940577809592" r="0.9054">
		<title>.id(point_33)</title>
	</circle>
	<circle style="fill: rgb(216, 216, 216);" cx="16.527544403563947" cy="219.48003965802022" r="0.9054">
		<title>.id(point_34)</title>
	</circle>
	<circle style="fill: rgb(216, 216, 216);" cx="10.628387411767589" cy="231.8312102842775" r="0.9054">
		<title>.id(point_35)</title>
	</circle>
	<circle style="fill: rgb(216, 216, 216);" cx="6.7489914445912955" cy="235.18511550577438" r="0.9054">
		<title>.id(point_36)</title>
	</circle>
	<circle style="fill: rgb(216, 216, 216);" cx="19.480854686723397" cy="208.0503309561231" r="0.9054">
		<title>.id(point_37)</title>
	</circle>
	<circle style="fill: rgb(216, 216, 216);" cx="19.82499247802526" cy="208.2774609120456" r="0.9054">
		<title>.id(point_38)</title>
	</circle>
	<circle style="fill: rgb(216, 216, 216);" cx="15.60227958966896" cy="220.60746337753503" r="0.9054">
		<title>.id(point_39)</title>
	</circle>
	<circle style="fill: rgb(216, 216, 216);" cx="14.5175807058502" cy="225.24787888892644" r="0.9054">
		<title>.id(point_40)</title>
	</circle>
	<circle style="fill: rgb(216, 216, 216);" cx="-1.0352629198772196" cy="260.8864067323561" r="0.9054">
		<title>.id(point_41)</title>
	</circle>
	<circle style="fill: rgb(216, 216, 216);" cx="-27.50109362732629" cy="25.28366855449179" r="0.9054">
		<title>.id(point_42)</title>
	</circle>
	<circle style="fill: rgb(216, 216, 216);" cx="0.31676969878204664" cy="248.943115358882" r="0.9054">
		<title>.id(point_43)</title>
	</circle>
	<circle style="fill: rgb(216, 216, 216);" cx="17.51178861336533" cy="220.12499541783538" r="0.9054">
		<title>.id(point_44)</title>
	</circle>
	<circle style="fill: rgb(216, 216, 216);" cx="16.223161397800762" cy="220.7343338363447" r="0.9054">
		<title>.id(point_45)</title>
	</circle>
	<circle style="fill: rgb(216, 216, 216);" cx="-2.345166554300473" cy="260.9871501879192" r="0.9054">
		<title>.id(point_46)</title>
	</circle>
	<circle style="fill: rgb(216, 216, 216);" cx="1.470134676391907" cy="249.762993061486" r="0.9054">
		<title>.id(point_47)</title>
	</circle>
	<circle style="fill: rgb(216, 216, 216);" cx="11.987433306673223" cy="232.41977235157754" r="0.9054">
		<title>.id(point_48)</title>
	</circle>
	<circle style="fill: rgb(216, 216, 216);" cx="16.650990153983006" cy="226.12518747516214" r="0.9054">
		<title>.id(point_49)</title>
	</circle>
	<circle style="fill: rgb(216, 216, 216);" cx="-9.401268482298283" cy="263.30176330805307" r="0.9054">
		<title>.id(point_50)</title>
	</circle>
	<circle style="fill: rgb(216, 216, 216);" cx="-0.3033997709962909" cy="261.05840054830287" r="0.9054">
		<title>.id(point_51)</title>
	</circle>
	<circle style="fill: rgb(216, 216, 216);" cx="6.318770106473668" cy="234.72534121591454" r="0.9054">
		<title>.id(point_52)</title>
	</circle>
	<circle style="fill: rgb(216, 216, 216);" cx="-14.621016429987906" cy="264.8455624446407" r="0.9054">
		<title>.id(point_53)</title>
	</circle>
	<circle style="fill: rgb(216, 216, 216);" cx="-26.436576783334043" cy="284.8538480245031" r="0.9054">
		<title>.id(point_54)</title>
	</circle>
	<circle style="fill: rgb(216, 216, 216);" cx="-13.277604618533486" cy="268.0565184598378" r="0.9054">
		<title>.id(point_55)</title>
	</circle>
	<circle style="fill: rgb(216, 216, 216);" cx="-15.056923255803397" cy="265.946216294075" r="0.9054">
		<title>.id(point_56)</title>
	</circle>
	<circle style="fill: rgb(216, 216, 216);" cx="-24.539796708705303" cy="279.27523893243324" r="0.9054">
		<title>.id(point_57)</title>
	</circle>
	<circle style="fill: rgb(216, 216, 216);" cx="-28.19250554258612" cy="285.01344731209093" r="0.9054">
		<title>.id(point_58)</title>
	</circle>
	<circle style="fill: rgb(216, 216, 216);" cx="-13.0364553081264" cy="40.016022757231895" r="0.9054">
		<title>.id(point_59)</title>
	</circle>
	<circle style="fill: rgb(216, 216, 216);" cx="-13.286141695317971" cy="40.223962376145586" r="0.9054">
		<title>.id(point_60)</title>
	</circle>
	<circle style="fill: rgb(216, 216, 216);" cx="-34.14707770403029" cy="10.40087745014549" r="0.9054">
		<title>.id(point_61)</title>
	</circle>
	<circle style="fill: rgb(216, 216, 216);" cx="23.127748254750546" cy="180.41942770708263" r="0.9054">
		<title>.id(point_62)</title>
	</circle>
	<circle style="fill: rgb(216, 216, 216);" cx="-124.85847023754542" cy="434.0300588384948" r="0.9054">
		<title>.id(point_63)</title>
	</circle>
	<circle style="fill: rgb(216, 216, 216);" cx="-21.68614414109691" cy="27.93112980980846" r="0.9054">
		<title>.id(point_64)</title>
	</circle>
	<circle style="fill: rgb(216, 216, 216);" cx="-21.242391427871663" cy="27.581027642593938" r="0.9054">
		<title>.id(point_65)</title>
	</circle>
	<circle style="fill: rgb(216, 216, 216);" cx="-9.000455091566867" cy="44.70746348037658" r="0.9054">
		<title>.id(point_66)</title>
	</circle>
	<circle style="fill: rgb(216, 216, 216);" cx="-8.57585787008444" cy="44.21704204485696" r="0.9054">
		<title>.id(point_67)</title>
	</circle>
	<circle style="fill: rgb(216, 216, 216);" cx="22.680325213877413" cy="178.53727335013554" r="0.9054">
		<title>.id(point_68)</title>
	</circle>
	<circle style="fill: rgb(216, 216, 216);" cx="21.72433808553501" cy="178.0825518798286" r="0.9054">
		<title>.id(point_69)</title>
	</circle>
	<circle style="fill: rgb(216, 216, 216);" cx="-19.427719190438374" cy="33.20032825764733" r="0.9054">
		<title>.id(point_70)</title>
	</circle>
	<circle style="fill: rgb(216, 216, 216);" cx="-19.94114894304864" cy="33.7166616653903" r="0.9054">
		<title>.id(point_71)</title>
	</circle>
	<circle style="fill: rgb(216, 216, 216);" cx="16.326526159682903" cy="73.81335766526021" r="0.9054">
		<title>.id(point_72)</title>
	</circle>
	<circle style="fill: rgb(216, 216, 216);" cx="16.21367250970539" cy="74.70901769059499" r="0.9054">
		<title>.id(point_73)</title>
	</circle>
	<path d="M -23.76743793708752 25.933806395046048 C -23.794312571003484 25.871239221077307, -23.821187204924325 25.808672047102682, -23.848061838840643 25.74610487313129" stroke="#01136e" fill="none">
		<title>.id(nerve_feature_01)</title>
	</path>
	<path d="M -21.929787929399758 25.144476014758325 C -21.95666256331572 25.081908840789584, -21.98353719722822 25.01934166683438, -22.010411831144538 24.956774492862987 C -22.037286465060856 24.894207318891596, -25.712586480453066 26.472868079428203, -25.685711846536748 26.535435253399594 C -25.65883721262043 26.598002427370986, -25.631962578691248 26.66056960136503, -25.605087944775285 26.72313677533377 C -25.578213310859322 26.785703949302512, -21.902913295483796 25.207043188727067, -21.929787929399758 25.144476014758325" stroke="#e28343" fill="none">
		<title>.id(nerve_feature_01_outline)</title>
	</path>
	<path d="M 0.7568841916047555 56.12257163548154 C 0.5822506209152849 56.33526178720775, 0.4076170502308647 56.54795193892434, 0.23298347954181672 56.76064209064953" stroke="#01136e" fill="none">
		<title>.id(nerve_feature_02)</title>
	</path>
	<path d="M -0.788839890016207 54.85342347096448 C -0.9634734607056776 55.066113622690686, -1.1381070313886306 55.27880377440549, -1.3127406020776786 55.49149392613068 C -1.4873741727667267 55.70418407785587, 1.6040739904722638 58.24248040689358, 1.778707561161312 58.029790255168386 C 1.95334113185036 57.817100103443195, 2.1279747025362474 57.60440995172481, 2.302608273225718 57.391719799998604 C 2.477241843915188 57.1790296482724, -0.6142063193267364 54.64073331923827, -0.788839890016207 54.85342347096448" stroke="#e28343" fill="none">
		<title>.id(nerve_feature_02_outline)</title>
	</path>
	<path d="M 27.06448347118748 165.75580971498627 C 27.288064648689744 165.83261166357588, 27.511645826205942 165.90941361213189, 27.735227003710765 165.9862155607247" stroke="#01136e" fill="none">
		<title>.id(nerve_feature_03)</title>
	</path>
	<path d="M 26.41473312983483 167.64732352511618 C 26.638314307337094 167.72412547370578, 26.86189548483564 167.8009274222557, 27.08547666234046 167.87772937084853 C 27.309057839845284 167.95453131944134, 28.60855852258589 164.1715036991937, 28.38497734508107 164.09470175060088 C 28.161396167576246 164.01789980200806, 27.937814990042394 163.94109785344597, 27.71423381254013 163.86429590485636 C 27.490652635037865 163.78749395626676, 26.191151952332564 167.57052157652657, 26.41473312983483 167.64732352511618" stroke="#e28343" fill="none">
		<title>.id(nerve_feature_03_outline)</title>
	</path>
	<path d="M 22.58042249967225 186.17364408926505 C 22.49188690373713 186.15809521808242, 22.403351307782234 186.14254634697292, 22.314815711844812 186.12699747580152" stroke="#01136e" fill="none">
		<title>.id(nerve_feature_04)</title>
	</path>
	<path d="M 22.926373510725508 184.2037918364422 C 22.837837914790388 184.18824296525958, 22.749302318584455 184.172694094106, 22.660766722647033 184.1571452229346 C 22.57223112670961 184.14159635176318, 21.88032910510517 188.08130085749704, 21.96886470104259 188.09684972866845 C 22.057400296980013 188.11239859983985, 22.14593589268387 188.12794747090527, 22.23447148861899 188.1434963420879 C 22.32300708455411 188.15904521327053, 23.014909106660628 184.21934070762484, 22.926373510725508 184.2037918364422" stroke="#e28343" fill="none">
		<title>.id(nerve_feature_04_outline)</title>
	</path>
	<path d="M 12.067017559521254 73.2840230388972 C 12.410078103508964 72.4135686797469, 13.221780868898334 71.76705783286927, 14.171155208677755 71.689807110561" stroke="#01136e" fill="none">
		<title>.id(nerve_feature_08)</title>
	</path>
	<path d="M 13.927721857248498 74.01735755766703 C 14.270782401236207 73.14690319851672, 13.383985048481987 73.76046943214465, 14.333359388261409 73.68321870983638 C 15.28273372804083 73.60596798752812, 14.958325368873522 69.61914478897737, 14.008951029094101 69.69639551128563 C 13.05957668931468 69.7736462335939, 10.54937380578172 71.68023416097708, 10.20631326179401 72.55068852012738 C 9.8632527178063 73.42114287927768, 13.584661313260789 74.88781191681733, 13.927721857248498 74.01735755766703" stroke="#e28343" fill="none">
		<title>.id(nerve_feature_08_outline)</title>
	</path>
	<path d="M 10.909105152265981 227.89172317525103 C 10.763766059006269 227.85626678962447, 10.618426965754434 227.82081040401286, 10.473087872492208 227.78535401839102" stroke="#01136e" fill="none">
		<title>.id(nerve_feature_09)</title>
	</path>
	<path d="M 11.383116265892669 225.94870658650086 C 11.237777172632956 225.9132502008743, 11.092438079313853 225.87779381524626, 10.947098986051627 225.84233742962442 C 10.8017598927894 225.80688104400258, 9.853737665670563 229.69291422153577, 9.99907675893279 229.72837060715761 C 10.144415852195015 229.76382699277946, 10.289754945379581 229.79928337837464, 10.435094038639294 229.8347397640012 C 10.580433131899007 229.87019614962776, 11.528455359152382 225.98416297212742, 11.383116265892669 225.94870658650086" stroke="#e28343" fill="none">
		<title>.id(nerve_feature_09_outline)</title>
	</path>
	<path d="M 28.666971252976353 118.84694369617563 C 28.481641212897284 118.85385116292807, 28.29631117281938 118.8607586296056, 28.110981132738715 118.8676660963586" stroke="#01136e" fill="none">
		<title>.id(nerve_feature_10)</title>
	</path>
	<path d="M 28.592480641269717 116.84833139040755 C 28.407150601190647 116.85523885715999, 28.22182056110726 116.86214632383773, 28.036490521026597 116.86905379059074 C 27.851160480945932 116.87596125734375, 28.00014170437017 120.87318586887947, 28.185471744450833 120.86627840212647 C 28.370801784531498 120.85937093537346, 28.55613182460392 120.85246346869614, 28.74146186468299 120.8455560019437 C 28.92679190476206 120.83864853519127, 28.777810681348786 116.84142392365511, 28.592480641269717 116.84833139040755" stroke="#e28343" fill="none">
		<title>.id(nerve_feature_10_outline)</title>
	</path>
	<path d="M -24.659778785140247 24.495819312529072 C -24.76918603071304 24.346860990843346, -24.87859327630163 24.197902669146277, -24.988000521874234 24.04894434745949" stroke="#01136e" fill="none">
		<title>.id(nerve_feature_11)</title>
	</path>
	<path d="M -23.047852419416735 23.311887983656746 C -23.157259664989528 23.16292966197102, -23.266666910573118 23.013971340280758, -23.376074156145723 22.86501301859397 C -23.485481401718328 22.716054696907182, -26.70933413317535 25.08391735463822, -26.599926887602745 25.23287567632501 C -26.49051964203014 25.381833998011796, -26.381112396436553 25.530792319715673, -26.27170515086376 25.679750641401398 C -26.162297905290966 25.828708963087124, -22.93844517384394 23.46084630534247, -23.047852419416735 23.311887983656746" stroke="#e28343" fill="none">
		<title>.id(nerve_feature_11_outline)</title>
	</path>
	<path d="M 3.94168837088647 245.1858370308293 C 3.551330543658135 245.1100056269481, 3.160972716501386 245.03417422307322, 2.7706148892810085 244.9583428191894" stroke="#01136e" fill="none">
		<title>.id(nerve_feature_12)</title>
	</path>
	<path d="M 4.323081142285538 243.22253889913242 C 3.9327233150572027 243.1467074952512, 3.5423654879206183 243.07087609138023, 3.152007660700241 242.9950446874964 C 2.7616498334798636 242.91921328361258, 1.9988642906413987 246.84580954699857, 2.389222117861776 246.9216409508824 C 2.7795799450821534 246.99747235476622, 3.1699377722590674 247.07330375864498, 3.5602955994874024 247.1491351625262 C 3.9506534267157374 247.2249665664074, 4.713438969513874 243.29837030301363, 4.323081142285538 243.22253889913242" stroke="#e28343" fill="none">
		<title>.id(nerve_feature_12_outline)</title>
	</path>
	<path d="M 14.574156096321044 217.18712643332492 C 14.11961569632502 217.10788621489374, 13.665075296338614 217.02864599648993, 13.210534896337965 216.94940577809592" stroke="#01136e" fill="none">
		<title>.id(nerve_feature_13)</title>
	</path>
	<path d="M 14.9176366240971 215.21684190386256 C 14.463096224101076 215.13760168543138, 14.008555823954886 215.0583614669997, 13.554015423954237 214.9791212486057 C 13.099475023953588 214.8998810302117, 12.412513968721044 218.84045008919213, 12.867054368721693 218.91969030758614 C 13.321594768722342 218.99893052598014, 13.776135168548965 219.0781707443561, 14.230675568544989 219.15741096278728 C 14.685215968541012 219.23665118121846, 15.372177024093123 215.29608212229374, 14.9176366240971 215.21684190386256" stroke="#e28343" fill="none">
		<title>.id(nerve_feature_13_outline)</title>
	</path>
	<path d="M 19.480854686723397 208.0503309561231 C 19.59556728381602 208.12604094144584, 19.710279880931864 208.20175092671485, 19.82499247802526 208.2774609120456" stroke="#01136e" fill="none">
		<title>.id(nerve_feature_14)</title>
	</path>
	<path d="M 18.37917360237981 209.71955196857158 C 18.493886199472435 209.7952619538943, 18.608598796512197 209.87097193911313, 18.72331139360559 209.94668192444388 C 18.838023990698986 210.02239190977463, 21.04138615953832 206.68394988497806, 20.926673562444925 206.60823989964732 C 20.81196096535153 206.53252991431657, 20.697248368159606 206.45681992899736, 20.582535771066983 206.38110994367463 C 20.46782317397436 206.3053999583519, 18.26446100528719 209.64384198324885, 18.37917360237981 209.71955196857158" stroke="#e28343" fill="none">
		<title>.id(nerve_feature_14_outline)</title>
	</path>
	<path d="M -1.233971805314781 260.5961820352329 C -1.167735510188273 260.69292360087564, -1.1014992150152103 260.78966516672637, -1.0352629198772196 260.8864067323561" stroke="#01136e" fill="none">
		<title>.id(nerve_feature_15)</title>
	</path>
	<path d="M -2.8842309060835376 261.7260691536345 C -2.8179946109570295 261.82281071927724, -2.751758315621789 261.91955228536483, -2.6855220204837984 262.01629385099454 C -2.619285725345808 262.11303541662426, 0.6812324758673496 259.8532611793473, 0.6149961807293589 259.7565196137176 C 0.5487598855913682 259.6597780480879, 0.48252359058048344 259.56303648247405, 0.41628729545397536 259.4662949168313 C 0.3500510003274673 259.3695533511886, -2.9504672012100457 261.6293275879918, -2.8842309060835376 261.7260691536345" stroke="#e28343" fill="none">
		<title>.id(nerve_feature_15_outline)</title>
	</path>
	<path d="M -25.9163253378647 25.11318141605 C -26.44458143434565 25.170010462204583, -26.97283753084858 25.226839508337907, -27.50109362732629 25.28366855449179" stroke="#01136e" fill="none">
		<title>.id(nerve_feature_16)</title>
	</path>
	<path d="M -26.130248198344955 23.12465507482041 C -26.658504294825907 23.181484120974993, -27.186760391327528 23.238313167108174, -27.71501648780524 23.295142213262057 C -28.243272584282952 23.35197125941594, -27.815426863325055 27.329023941875406, -27.287170766847343 27.272194895721523 C -26.75891467036963 27.21536584956764, -26.230658573865394 27.158536803434174, -25.702402477384442 27.10170775727959 C -25.17414638090349 27.04487871112501, -25.601992101864003 23.067826028665827, -26.130248198344955 23.12465507482041" stroke="#e28343" fill="none">
		<title>.id(nerve_feature_16_outline)</title>
	</path>
	<path d="M 2.216592752450598 249.4575346004973 C 1.5833184011918164 249.2860615199593, 0.9500440500221271 249.11458843940915, 0.31676969878204664 248.943115358882" stroke="#01136e" fill="none">
		<title>.id(nerve_feature_17)</title>
	</path>
	<path d="M 2.739313726399696 247.5270520744449 C 2.1060393751409143 247.3555789939069, 1.472765023954771 247.18410591335228, 0.8394906727146905 247.01263283282515 C 0.20621632147461 246.841159752298, -0.8392256263906777 250.70212480441174, -0.2059512751505972 250.87359788493887 C 0.4273230760894833 251.045070965466, 1.0605974272427185 251.2165440460117, 1.6938717785015003 251.3880171265497 C 2.327146129760282 251.5594902070877, 3.372588077658478 247.6985251549829, 2.739313726399696 247.5270520744449" stroke="#e28343" fill="none">
		<title>.id(nerve_feature_17_outline)</title>
	</path>
	<path d="M 16.52754440356395 219.4800396580202 C 16.855625806831128 219.69502491129572, 17.183707210101257 219.91001016455692, 17.51178861336533 220.12499541783538" stroke="#01136e" fill="none">
		<title>.id(nerve_feature_18)</title>
	</path>
	<path d="M 15.431365715310353 221.15287924489593 C 15.75944711857753 221.36786449817146, 16.08752852182996 221.58284975142107, 16.41560992509403 221.79783500469952 C 16.743691328358103 222.01282025797798, 18.9360487049007 218.6671410842497, 18.607967301636627 218.45215583097124 C 18.279885898372555 218.23717057769278, 17.951804495084726 218.02218532441998, 17.62372309181755 217.80720007114445 C 17.295641688550372 217.59221481786892, 15.103284312043176 220.9378939916204, 15.431365715310353 221.15287924489593" stroke="#e28343" fill="none">
		<title>.id(nerve_feature_18_outline)</title>
	</path>
	<path d="M 15.602279589668964 220.607463377535 C 15.80924019238582 220.64975353048357, 16.016200795083122 220.69204368339982, 16.223161397800762 220.7343338363447" stroke="#01136e" fill="none">
		<title>.id(nerve_feature_19)</title>
	</path>
	<path d="M 15.201875152829997 222.56697257296116 C 15.408835755546853 222.60926272590973, 15.615796358279193 222.65155287883314, 15.822756960996832 222.69384303177802 C 16.02971756371447 222.7361331847229, 16.830526437322334 218.81711479385623, 16.623565834604694 218.77482464091136 C 16.416605231887054 218.7325344879665, 16.209644629224787 218.6902443350574, 16.00268402650793 218.64795418210883 C 15.79572342379107 218.60566402916027, 14.99491455011314 222.5246824200126, 15.201875152829997 222.56697257296116" stroke="#e28343" fill="none">
		<title>.id(nerve_feature_19_outline)</title>
	</path>
	<path d="M -2.2638458638003436 261.07303886516274 C -2.290952760639235 261.0444093060643, -2.3180596574600276 261.0157797470054, -2.345166554300473 260.9871501879192" stroke="#01136e" fill="none">
		<title>.id(nerve_feature_20)</title>
	</path>
	<path d="M -0.8115392972263447 259.697973180664 C -0.8386461940652361 259.6693436215656, -0.8657530912184372 259.64071406215555, -0.8928599880588826 259.61208450306935 C -0.9199668848993279 259.58345494398316, -3.824580017382509 262.3335863136829, -3.7974731205420635 262.36221587276907 C -3.7703662237016182 262.39084543185527, -3.743259327213234 262.41947499056306, -3.7161524303743425 262.4481045496615 C -3.689045533535451 262.4767341087599, -0.7844324003874532 259.7266027397624, -0.8115392972263447 259.697973180664" stroke="#e28343" fill="none">
		<title>.id(nerve_feature_20_outline)</title>
	</path>
	<path d="M 2.4352003188801383 250.51450528232928 C 2.113511771372315 250.26400120869803, 1.7918232239017957 250.0134971351415, 1.470134676391907 249.762993061486" stroke="#01136e" fill="none">
		<title>.id(nerve_feature_21)</title>
	</path>
	<path d="M 3.6640039699776494 248.93651872121748 C 3.3423154224698264 248.68601464758623, 3.0206268750685137 248.4355105740836, 2.698938327558625 248.18500650042807 C 2.3772497800487367 247.93450242677255, -0.08035752228469994 251.09047554888838, 0.2413310252251888 251.3409796225439 C 0.5630195727350775 251.59148369619942, 0.8847081202748035 251.84198776980983, 1.206396667782627 252.09249184344108 C 1.5280852152904505 252.34299591707233, 3.9856925174854725 249.18702279484873, 3.6640039699776494 248.93651872121748" stroke="#e28343" fill="none">
		<title>.id(nerve_feature_21_outline)</title>
	</path>
	<path d="M 10.628387411767587 231.8312102842775 C 11.08140271005282 232.02739764005875, 11.534418008393526 232.22358499579656, 11.987433306673223 232.41977235157754" stroke="#01136e" fill="none">
		<title>.id(nerve_feature_22)</title>
	</path>
	<path d="M 9.833579373810174 233.66649777750527 C 10.286594672095408 233.86268513328653, 10.739609970428903 234.0588724890212, 11.1926252687086 234.2550598448022 C 11.645640566988297 234.45124720058317, 13.235256642917543 230.78067221413386, 12.782241344637846 230.58448485835288 C 12.32922604635815 230.3882975025719, 11.876210748010234 230.19211014683097, 11.423195449725 229.9959227910497 C 10.970180151439767 229.79973543526845, 9.38056407552494 233.470310421724, 9.833579373810174 233.66649777750527" stroke="#e28343" fill="none">
		<title>.id(nerve_feature_22_outline)</title>
	</path>
	<path d="M 14.517580705850197 225.24787888892644 C 15.228717188553537 225.54031508434102, 15.939853671269695 225.8327512797972, 16.650990153983006 226.12518747516214" stroke="#01136e" fill="none">
		<title>.id(nerve_feature_23)</title>
	</path>
	<path d="M 13.756936763549994 227.09758718837313 C 14.468073246253336 227.3900233837877, 15.179209729089084 227.6824595792931, 15.890346211802395 227.97489577465802 C 16.601482694515706 228.26733197002295, 18.122770578876928 224.56791537103118, 17.411634096163617 224.27547917566625 C 16.700497613450306 223.98304298030132, 15.989361130853737 223.69060678489433, 15.278224648150399 223.39817058947975 C 14.56708816544706 223.10573439406517, 13.045800280846652 226.80515099295854, 13.756936763549994 227.09758718837313" stroke="#e28343" fill="none">
		<title>.id(nerve_feature_23_outline)</title>
	</path>
	<path d="M -9.444299985000063 262.7415695503272 C -9.429956150806351 262.92830080288076, -9.41561231650342 263.1150320554985, -9.401268482298283 263.30176330805307" stroke="#01136e" fill="none">
		<title>.id(nerve_feature_24)</title>
	</path>
	<path d="M -11.438425365798203 262.8947490713366 C -11.424081531604491 263.08148032389016, -11.409737697292307 263.26821157662835, -11.39539386308717 263.4549428291829 C -11.381050028882033 263.6416740817375, -7.392799267304259 263.3353150394778, -7.407143101509396 263.1485837869232 C -7.421486935714533 262.96185253436863, -7.435830770008211 262.77512128187135, -7.450174604201923 262.5883900293178 C -7.4645184383956344 262.40165877676424, -11.452769199991915 262.70801781878305, -11.438425365798203 262.8947490713366" stroke="#e28343" fill="none">
		<title>.id(nerve_feature_24_outline)</title>
	</path>
	<path d="M -0.9302892227937236 260.81871833033927 C -0.7213260722221186 260.8986124029358, -0.5123629215744266 260.9785064757067, -0.3033997709962909 261.05840054830287" stroke="#01136e" fill="none">
		<title>.id(nerve_feature_25)</title>
	</path>
	<path d="M -1.644536056015995 262.6868327436534 C -1.4355729054443898 262.7667268162499, -1.2266097547745622 262.8466208890293, -1.0176466041964263 262.92651496162546 C -0.8086834536182903 263.00640903422163, 0.6198102127819803 259.27018020757646, 0.4108470622038446 259.1902861349803 C 0.20188391162570885 259.1103920623841, -0.007079238999847415 259.03049798962167, -0.2160423895714524 258.95060391702515 C -0.42500554014305736 258.87070984442863, -1.8534992065876001 262.60693867105687, -1.644536056015995 262.6868327436534" stroke="#e28343" fill="none">
		<title>.id(nerve_feature_25_outline)</title>
	</path>
	<path d="M 6.7489914445912955 235.18511550577438 C 6.605584331879898 235.03185740914648, 6.462177219179602 234.8785993125536, 6.318770106473668 234.72534121591454" stroke="#01136e" fill="none">
		<title>.id(nerve_feature_26)</title>
	</path>
	<path d="M 8.209360102018492 233.81861509069788 C 8.065952989307094 233.66535699406998, 7.922545876682458 233.51209889755793, 7.779138763976523 233.35884080091887 C 7.6357316512705875 233.2055827042798, 4.71499433626488 235.93858353427115, 4.858401448970813 236.0918416309102 C 5.0018085616767465 236.24509972754927, 5.145215674452702 236.39835782422298, 5.288622787164099 236.55161592085088 C 5.432029899875497 236.70487401747877, 8.352767214729889 233.97187318732577, 8.209360102018492 233.81861509069788" stroke="#e28343" fill="none">
		<title>.id(nerve_feature_26_outline)</title>
	</path>
	<path d="M -14.898022606577886 264.56372424178653 C -14.8056872143959 264.65767030938304, -14.713351822169653 264.75161637703644, -14.621016429987906 264.8455624446407" stroke="#01136e" fill="none">
		<title>.id(nerve_feature_27)</title>
	</path>
	<path d="M -16.32441079333372 265.9656574572727 C -16.232075401151732 266.0596035248692, -16.139740008984965 266.1535495924621, -16.047404616803217 266.24749566006636 C -15.955069224621468 266.3414417276706, -13.102292850990848 263.5375752968192, -13.194628243172595 263.443629229215 C -13.286963635354342 263.34968316161076, -13.37929902764007 263.25573709389687, -13.471634419822054 263.16179102630036 C -13.56396981200404 263.06784495870386, -16.416746185515706 265.8717113896762, -16.32441079333372 265.9656574572727" stroke="#e28343" fill="none">
		<title>.id(nerve_feature_27_outline)</title>
	</path>
	<path d="M -26.859421929025785 284.5934836548433 C -26.718473547151323 284.68027177809574, -26.57752516520872 284.76705990126146, -26.436576783334043 284.8538480245031" stroke="#01136e" fill="none">
		<title>.id(nerve_feature_28)</title>
	</path>
	<path d="M -27.90806070083196 286.29652702665294 C -27.767112318957498 286.3833151499054, -27.626163936919124 286.4701032731301, -27.485215555044448 286.5568913963718 C -27.344267173169772 286.64367951961344, -25.246989629748963 283.2375927758761, -25.38793801162364 283.15080465263446 C -25.528886393498315 283.0640165293928, -25.669834775345148 282.9772284062861, -25.81078315721961 282.8904402830336 C -25.951731539094073 282.80365215978117, -28.049009082706423 286.2097389034005, -27.90806070083196 286.29652702665294" stroke="#e28343" fill="none">
		<title>.id(nerve_feature_28_outline)</title>
	</path>
	<path d="M -13.875731934740216 267.76491768163805 C -13.676356162691292 267.8621179409829, -13.476980390598207 267.9593182004982, -13.277604618533486 268.0565184598378" stroke="#01136e" fill="none">
		<title>.id(nerve_feature_29)</title>
	</path>
	<path d="M -14.752169726699053 269.56265425767646 C -14.552793954650129 269.6598545170213, -14.353418182462423 269.7570547765828, -14.154042410397704 269.85425503592234 C -13.954666638332984 269.9514552952619, -12.201791054604545 266.3559821430928, -12.401166826669268 266.2587818837532 C -12.600542598733991 266.16158162441366, -12.799918370732454 266.0643813649445, -12.999294142781379 265.96718110559965 C -13.198669914830303 265.8699808462548, -14.951545498747977 269.4654539983316, -14.752169726699053 269.56265425767646" stroke="#e28343" fill="none">
		<title>.id(nerve_feature_29_outline)</title>
	</path>
	<path d="M -14.382485805279533 266.2967091468406 C -14.607298288751366 266.17987819590553, -14.832110772310747 266.06304724506475, -15.056923255803397 265.946216294075" stroke="#01136e" fill="none">
		<title>.id(nerve_feature_30)</title>
	</path>
	<path d="M -13.460224897214099 264.5220444411978 C -13.685037380685932 264.4052134902627, -13.909849863972674 264.2883825395636, -14.134662347465325 264.17155158857383 C -14.359474830957975 264.05472063758407, -16.20399664763412 267.6040500485864, -15.97918416414147 267.72088099957614 C -15.75437168064882 267.8377119505659, -15.5295591968168 267.95454290154834, -15.304746713344967 268.0713738524834 C -15.079934229873134 268.1882048034185, -13.235412413742266 264.6388753921329, -13.460224897214099 264.5220444411978" stroke="#e28343" fill="none">
		<title>.id(nerve_feature_30_outline)</title>
	</path>
	<path d="M -23.517862603729764 279.77707612250805 C -23.858507305339142 279.60979705918334, -24.199152007087903 279.4425179957111, -24.539796708705303 279.27523893243324" stroke="#01136e" fill="none">
		<title>.id(nerve_feature_31)</title>
	</path>
	<path d="M -22.636289107071864 277.9818524122172 C -22.976933808681242 277.8145733488925, -23.317578510645617 277.6472942853144, -23.658223212263017 277.4800152220365 C -23.998867913880417 277.31273615875864, -25.76201490676499 280.9031835795521, -25.42137020514759 281.07046264282997 C -25.08072550353019 281.23774170610784, -24.740080801997042 281.40502076947416, -24.399436100387664 281.5722998327989 C -24.058791398778286 281.7395788961236, -22.295644405462486 278.14913147554194, -22.636289107071864 277.9818524122172" stroke="#e28343" fill="none">
		<title>.id(nerve_feature_31_outline)</title>
	</path>
	<path d="M -27.258347637027114 285.621669830177 C -27.5697336055313 285.41892899092585, -27.88111957408529 285.21618815135054, -28.19250554258612 285.01344731209093" stroke="#01136e" fill="none">
		<title>.id(nerve_feature_32)</title>
	</path>
	<path d="M -26.167084894310538 283.94561922641867 C -26.478470862814724 283.74287838716754, -26.789856831328432 283.54013754761843, -27.10124279982926 283.3373967083588 C -27.41262876833009 283.1346558690992, -29.595154253843805 286.48675707656344, -29.283768285342976 286.68949791582304 C -28.972382316842147 286.89223875508264, -28.660996348247878 287.09497959468416, -28.34961037974369 287.2977204339353 C -28.038224411239504 287.50046127318643, -25.85569892580635 284.1483600656698, -26.167084894310538 283.94561922641867" stroke="#e28343" fill="none">
		<title>.id(nerve_feature_32_outline)</title>
	</path>
	<path d="M -13.0364553081264 40.016022757231895 C -13.119684103854292 40.08533596353477, -13.202912899588396 40.15464916984422, -13.286141695317971 40.223962376145586" stroke="#01136e" fill="none">
		<title>.id(nerve_feature_33)</title>
	</path>
	<path d="M -14.316343207319065 38.47917957541399 C -14.399572003046957 38.54849278171686, -14.482800798749363 38.617805987999915, -14.566029594478938 38.68711919430128 C -14.649258390208512 38.75643240060265, -12.08948259188658 41.83011876429126, -12.006253796157004 41.76080555798989 C -11.92302500042743 41.691492351688524, -11.839796204661626 41.622179145352675, -11.756567408933734 41.5528659390498 C -11.673338613205841 41.48355273274693, -14.233114411591172 38.409866369111114, -14.316343207319065 38.47917957541399" stroke="#e28343" fill="none">
		<title>.id(nerve_feature_33_outline)</title>
	</path>
	<path d="M 10.909105152265981 227.89172317525103 C 10.763766059006269 227.85626678962447, 10.618426965754434 227.82081040401286, 10.473087872492208 227.78535401839102 M -1.233971805314781 260.5961820352329 C -1.167735510188273 260.69292360087564, -1.1014992150152103 260.78966516672637, -1.0352629198772196 260.8864067323561 M -2.2638458638003436 261.07303886516274 C -2.290952760639235 261.0444093060643, -2.3180596574600276 261.0157797470054, -2.345166554300473 260.9871501879192 M -9.444299985000063 262.7415695503272 C -9.429956150806351 262.92830080288076, -9.41561231650342 263.1150320554985, -9.401268482298283 263.30176330805307 M -14.898022606577886 264.56372424178653 C -14.8056872143959 264.65767030938304, -14.713351822169653 264.75161637703644, -14.621016429987906 264.8455624446407 M -26.859421929025785 284.5934836548433 C -26.718473547151323 284.68027177809574, -26.57752516520872 284.76705990126146, -26.436576783334043 284.8538480245031 M -13.875731934740216 267.76491768163805 C -13.676356162691292 267.8621179409829, -13.476980390598207 267.9593182004982, -13.277604618533486 268.0565184598378 M -14.382485805279533 266.2967091468406 C -14.607298288751366 266.17987819590553, -14.832110772310747 266.06304724506475, -15.056923255803397 265.946216294075 M -23.517862603729764 279.77707612250805 C -23.858507305339142 279.60979705918334, -24.199152007087903 279.4425179957111, -24.539796708705303 279.27523893243324 M -27.258347637027114 285.621669830177 C -27.5697336055313 285.41892899092585, -27.88111957408529 285.21618815135054, -28.19250554258612 285.01344731209093" stroke="#01136e" fill="none">
		<title>.id(nerve_feature_34)</title>
	</path>
	<path d="M 11.383116265892669 225.94870658650086 C 11.237777172632956 225.9132502008743, 11.092438079313853 225.87779381524626, 10.947098986051627 225.84233742962442 C 10.8017598927894 225.80688104400258, 9.853737665670563 229.69291422153577, 9.99907675893279 229.72837060715761 C 10.144415852195015 229.76382699277946, 10.289754945379581 229.79928337837464, 10.435094038639294 229.8347397640012 C 10.580433131899007 229.87019614962776, 11.528455359152382 225.98416297212742, 11.383116265892669 225.94870658650086 M -2.8842309060835376 261.7260691536345 C -2.8179946109570295 261.82281071927724, -2.751758315621789 261.91955228536483, -2.6855220204837984 262.01629385099454 C -2.619285725345808 262.11303541662426, 0.6812324758673496 259.8532611793473, 0.6149961807293589 259.7565196137176 C 0.5487598855913682 259.6597780480879, 0.48252359058048344 259.56303648247405, 0.41628729545397536 259.4662949168313 C 0.3500510003274673 259.3695533511886, -2.9504672012100457 261.6293275879918, -2.8842309060835376 261.7260691536345 M -0.8115392972263447 259.697973180664 C -0.8386461940652361 259.6693436215656, -0.8657530912184372 259.64071406215555, -0.8928599880588826 259.61208450306935 C -0.9199668848993279 259.58345494398316, -3.824580017382509 262.3335863136829, -3.7974731205420635 262.36221587276907 C -3.7703662237016182 262.39084543185527, -3.743259327213234 262.41947499056306, -3.7161524303743425 262.4481045496615 C -3.689045533535451 262.4767341087599, -0.7844324003874532 259.7266027397624, -0.8115392972263447 259.697973180664 M -11.438425365798203 262.8947490713366 C -11.424081531604491 263.08148032389016, -11.409737697292307 263.26821157662835, -11.39539386308717 263.4549428291829 C -11.381050028882033 263.6416740817375, -7.392799267304259 263.3353150394778, -7.407143101509396 263.1485837869232 C -7.421486935714533 262.96185253436863, -7.435830770008211 262.77512128187135, -7.450174604201923 262.5883900293178 C -7.4645184383956344 262.40165877676424, -11.452769199991915 262.70801781878305, -11.438425365798203 262.8947490713366 M -16.32441079333372 265.9656574572727 C -16.232075401151732 266.0596035248692, -16.139740008984965 266.1535495924621, -16.047404616803217 266.24749566006636 C -15.955069224621468 266.3414417276706, -13.102292850990848 263.5375752968192, -13.194628243172595 263.443629229215 C -13.286963635354342 263.34968316161076, -13.37929902764007 263.25573709389687, -13.471634419822054 263.16179102630036 C -13.56396981200404 263.06784495870386, -16.416746185515706 265.8717113896762, -16.32441079333372 265.9656574572727 M -27.90806070083196 286.29652702665294 C -27.767112318957498 286.3833151499054, -27.626163936919124 286.4701032731301, -27.485215555044448 286.5568913963718 C -27.344267173169772 286.64367951961344, -25.246989629748963 283.2375927758761, -25.38793801162364 283.15080465263446 C -25.528886393498315 283.0640165293928, -25.669834775345148 282.9772284062861, -25.81078315721961 282.8904402830336 C -25.951731539094073 282.80365215978117, -28.049009082706423 286.2097389034005, -27.90806070083196 286.29652702665294 M -14.752169726699053 269.56265425767646 C -14.552793954650129 269.6598545170213, -14.353418182462423 269.7570547765828, -14.154042410397704 269.85425503592234 C -13.954666638332984 269.9514552952619, -12.201791054604545 266.3559821430928, -12.401166826669268 266.2587818837532 C -12.600542598733991 266.16158162441366, -12.799918370732454 266.0643813649445, -12.999294142781379 265.96718110559965 C -13.198669914830303 265.8699808462548, -14.951545498747977 269.4654539983316, -14.752169726699053 269.56265425767646 M -13.460224897214099 264.5220444411978 C -13.685037380685932 264.4052134902627, -13.909849863972674 264.2883825395636, -14.134662347465325 264.17155158857383 C -14.359474830957975 264.05472063758407, -16.20399664763412 267.6040500485864, -15.97918416414147 267.72088099957614 C -15.75437168064882 267.8377119505659, -15.5295591968168 267.95454290154834, -15.304746713344967 268.0713738524834 C -15.079934229873134 268.1882048034185, -13.235412413742266 264.6388753921329, -13.460224897214099 264.5220444411978 M -22.636289107071864 277.9818524122172 C -22.976933808681242 277.8145733488925, -23.317578510645617 277.6472942853144, -23.658223212263017 277.4800152220365 C -23.998867913880417 277.31273615875864, -25.76201490676499 280.9031835795521, -25.42137020514759 281.07046264282997 C -25.08072550353019 281.23774170610784, -24.740080801997042 281.40502076947416, -24.399436100387664 281.5722998327989 C -24.058791398778286 281.7395788961236, -22.295644405462486 278.14913147554194, -22.636289107071864 277.9818524122172 M -26.167084894310538 283.94561922641867 C -26.478470862814724 283.74287838716754, -26.789856831328432 283.54013754761843, -27.10124279982926 283.3373967083588 C -27.41262876833009 283.1346558690992, -29.595154253843805 286.48675707656344, -29.283768285342976 286.68949791582304 C -28.972382316842147 286.89223875508264, -28.660996348247878 287.09497959468416, -28.34961037974369 287.2977204339353 C -28.038224411239504 287.50046127318643, -25.85569892580635 284.1483600656698, -26.167084894310538 283.94561922641867" stroke="#e28343" fill="none">
		<title>.id(nerve_feature_34_outline)</title>
	</path>
	<path d="M 12.067017559521254 73.2840230388972 C 12.410078103508964 72.4135686797469, 13.221780868898334 71.76705783286927, 14.171155208677755 71.689807110561" stroke="#01136e" fill="none">
		<title>.id(nerve_feature_35)</title>
	</path>
	<path d="M 13.927721857248498 74.01735755766703 C 14.270782401236207 73.14690319851672, 13.383985048481987 73.76046943214465, 14.333359388261409 73.68321870983638 C 15.28273372804083 73.60596798752812, 14.958325368873522 69.61914478897737, 14.008951029094101 69.69639551128563 C 13.05957668931468 69.7736462335939, 10.54937380578172 71.68023416097708, 10.20631326179401 72.55068852012738 C 9.8632527178063 73.42114287927768, 13.584661313260789 74.88781191681733, 13.927721857248498 74.01735755766703" stroke="#e28343" fill="none">
		<title>.id(nerve_feature_35_outline)</title>
	</path>
	<path d="M 28.666971252976353 118.84694369617563 C 28.481641212897284 118.85385116292807, 28.29631117281938 118.8607586296056, 28.110981132738715 118.8676660963586" stroke="#01136e" fill="none">
		<title>.id(nerve_feature_36)</title>
	</path>
	<path d="M 28.592480641269717 116.84833139040755 C 28.407150601190647 116.85523885715999, 28.22182056110726 116.86214632383773, 28.036490521026597 116.86905379059074 C 27.851160480945932 116.87596125734375, 28.00014170437017 120.87318586887947, 28.185471744450833 120.86627840212647 C 28.370801784531498 120.85937093537346, 28.55613182460392 120.85246346869614, 28.74146186468299 120.8455560019437 C 28.92679190476206 120.83864853519127, 28.777810681348786 116.84142392365511, 28.592480641269717 116.84833139040755" stroke="#e28343" fill="none">
		<title>.id(nerve_feature_36_outline)</title>
	</path>
	<path d="M -24.659778785140247 24.495819312529072 C -24.76918603071304 24.346860990843346, -24.87859327630163 24.197902669146277, -24.988000521874234 24.04894434745949 M -25.9163253378647 25.11318141605 C -26.44458143434565 25.170010462204583, -26.97283753084858 25.226839508337907, -27.50109362732629 25.28366855449179" stroke="#01136e" fill="none">
		<title>.id(nerve_feature_37)</title>
	</path>
	<path d="M -23.047852419416735 23.311887983656746 C -23.157259664989528 23.16292966197102, -23.266666910573118 23.013971340280758, -23.376074156145723 22.86501301859397 C -23.485481401718328 22.716054696907182, -26.70933413317535 25.08391735463822, -26.599926887602745 25.23287567632501 C -26.49051964203014 25.381833998011796, -26.381112396436553 25.530792319715673, -26.27170515086376 25.679750641401398 C -26.162297905290966 25.828708963087124, -22.93844517384394 23.46084630534247, -23.047852419416735 23.311887983656746 M -26.130248198344955 23.12465507482041 C -26.658504294825907 23.181484120974993, -27.186760391327528 23.238313167108174, -27.71501648780524 23.295142213262057 C -28.243272584282952 23.35197125941594, -27.815426863325055 27.329023941875406, -27.287170766847343 27.272194895721523 C -26.75891467036963 27.21536584956764, -26.230658573865394 27.158536803434174, -25.702402477384442 27.10170775727959 C -25.17414638090349 27.04487871112501, -25.601992101864003 23.067826028665827, -26.130248198344955 23.12465507482041" stroke="#e28343" fill="none">
		<title>.id(nerve_feature_37_outline)</title>
	</path>
	<path d="M -34.14707770403029 10.40087745014549 C -32.03360030986349 13.548125422024711, -29.919242500924625 16.69666354887304, -27.808638052291247 19.839327883275615 C -25.698033603657873 22.981992217678194, -23.4597834032704 26.103679756276033, -21.63632925165367 29.312944676352885 C -19.81287510003694 32.52220959642973, -16.63893439452393 34.54250105190948, -14.515361557096597 37.33097416188707 C -12.391788719669268 40.119447271864665, -11.550043460594248 43.728746320595626, -8.44581538919309 46.161402543588956 C -5.341587317791927 48.59405876658231, -2.8838612187092183 51.81436921496203, 0.114431974839595 54.05224606277364 C 3.1127251683884127 56.29012291058525, 3.9104932471519533 59.081499142650195, 6.560152466400536 61.569825520224704 C 9.209811685649125 64.05815189779919, 11.76536870918853 67.38149812153483, 13.547780891348781 70.13063009143538 C 15.330193073509031 72.87976206133592, 15.771294652963402 72.69213035202594, 18.0514704212138 76.9959599758663 C 20.331646189464188 81.29978959970663, 22.1548529562619 86.11129584153892, 23.24787538990642 89.98945338288236 C 24.34089782355094 93.86761092422581, 25.052151629946728 95.65250601486545, 25.305722150283735 97.02127101472543 C 25.559292670620735 98.39003601458538, 25.612317257243426 98.48983351405032, 25.75655796441695 99.32886227290386 C 25.900798671590486 100.16789103175745, 26.59053204418451 102.80248525884339, 27.155523630814987 107.41900871566321 C 27.72051521744547 112.03553217248302, 30.019141261865908 117.22784682721066, 29.053413979802706 122.7366340610239 C 28.087686697739528 128.24542129483717, 28.430473732272375 133.93081576020015, 28.58842638621502 138.7134755144306 C 28.746379040157645 143.49613526866105, 29.84288453507113 148.06048674095393, 28.96297695081862 152.766789838445 C 28.083069366566125 157.47309293593602, 26.738476384012234 162.92507261935344, 26.214296507550895 167.65906872110108 C 25.69011663108956 172.39306482284877, 23.071500074354045 176.4822006782968, 23.127748254750546 180.41942770708263" stroke="#01136e" fill="none">
		<title>.id(nerve_feature_38)</title>
	</path>
	<path d="M -35.807440567317826 11.515864069892828 C -33.693963173151026 14.663112041772049, -31.579555209379915 17.811724852184145, -29.468950760746537 20.95438918658672 C -27.358346312113163 24.0970535209893, -25.198694615636512 27.09170191974577, -23.375240464019782 30.30096683982262 C -21.551786312403053 33.51023175989947, -18.230066844276468 35.754234325920095, -16.106494006849136 38.54270743589768 C -13.982921169421807 41.33118054587528, -12.783685086417679 45.30295353028428, -9.67945701501652 47.73560975327761 C -6.575228943615357 50.16826597627096, -4.080148363508936 53.417147136942155, -1.0818551699601227 55.65502398475377 C 1.916438023588698 57.892900832565374, 2.5413608059011477 60.5394004967598, 5.191020025149731 63.027726874334306 C 7.840679244398324 65.5160532519088, 10.087220831451027 68.46953290978617, 11.869633013611278 71.21866487968671 C 13.652045195771528 73.96779684958726, 14.004003784358689 73.62844386028394, 16.28417955260909 77.9322734841243 C 18.564355320859477 82.23610310796462, 20.22984770456116 86.65384056865786, 21.322870138205676 90.5319981100013 C 22.415892571850197 94.41015565134475, 23.0856121959815 96.01681722064936, 23.339182716318508 97.38558222050933 C 23.592753236655508 98.75434722036928, 23.641232277947452 98.82869042248484, 23.785472985120975 99.66771918133838 C 23.929713692294513 100.50674794019197, 24.605343863189592 103.04544181059306, 25.17033544982007 107.66196526741288 C 25.735327036450553 112.27848872423269, 28.049183003762778 116.88249995617912, 27.083455721699572 122.39128718999237 C 26.117728439636394 127.90007442380563, 26.431563564859157 133.99683199011417, 26.5895162188018 138.77949174434463 C 26.747468872744427 143.56215149857508, 27.87694943257855 147.69292834724283, 26.99704184832604 152.39923144473389 C 26.117134264073545 157.10553454222492, 24.75062519270023 162.7049643705315, 24.22644531623889 167.43896047227915 C 23.702265439777555 172.17295657402687, 21.071704139844595 176.51077024811283, 21.127952320241096 180.44799727689866 C 21.184200500637598 184.3852243056845, 25.183792369656498 184.32808516605243, 25.127544189259996 180.3908581372666 C 25.071296008863495 176.45363110848078, 27.677967822401563 172.61317307167067, 28.202147698862902 167.879176969923 C 28.726327575324238 163.14518086817537, 30.049004469058705 157.84065132964713, 30.92891205331121 153.1343482321561 C 31.80881963756371 148.42804513466504, 30.745289207570863 143.43011903874702, 30.587336553628226 138.64745928451657 C 30.429383899685593 133.86479953028612, 30.05764495584266 128.5907681658687, 31.023372237905853 123.08198093205544 C 31.989099519969038 117.57319369824219, 29.705703398440388 111.79257562073334, 29.140711811809908 107.17605216391352 C 28.575720225179428 102.55952870709372, 27.87188365088646 99.82903412332293, 27.72764294371293 98.99000536446937 C 27.5834022365394 98.1509766056158, 27.525832104585962 98.02572480880147, 27.27226158424896 96.65695980894151 C 27.018691063911955 95.28819480908155, 26.265903075251682 93.32506619710688, 25.17288064160716 89.44690865576344 C 24.079858207962644 85.56875111441998, 22.0989370580689 80.36347609144863, 19.8187612898185 76.05964646760829 C 17.538585521568116 71.75581684376795, 17.008340951246534 71.79172727308459, 15.225928769086284 69.04259530318404 C 13.443516586926034 66.2934633332835, 10.578944126899927 62.60025054368958, 7.929284907651341 60.11192416611509 C 5.279625688402759 57.62359778854059, 4.309012313188127 54.68734498860512, 1.3107191196393124 52.44946814079351 C -1.6875740739095006 50.2115912929819, -4.107945691968497 47.019851556893656, -7.212173763369658 44.587195333900326 C -10.316401834770817 42.154539110906974, -10.800656269916729 38.90771399785405, -12.924229107344061 36.119240887876465 C -15.04780194477139 33.33076777789887, -18.07396388767083 31.534187432959996, -19.897418039287558 28.324922512883145 C -21.720872190904288 25.115657592806297, -24.037720895202582 21.86693091436709, -26.14832534383596 18.724266579964514 C -28.258929792469335 15.581602245561934, -30.373237446575946 12.433138802277373, -32.48671484074275 9.285890830398152 C -34.60019223490956 6.138642858518931, -37.920917961484626 8.368616098013607, -35.807440567317826 11.515864069892828" stroke="#e28343" fill="none">
		<title>.id(nerve_feature_38_outline)</title>
	</path>
	<path d="M -21.68614414109691 27.93112980980846 C -21.538226570020836 27.814429087403017, -21.39030899894528 27.697728364999143, -21.242391427871663 27.581027642593938" stroke="#01136e" fill="none">
		<title>.id(nerve_feature_39)</title>
	</path>
	<path d="M -20.44735462612143 29.501289208591533 C -20.299437055045356 29.38458848618609, -20.15151948395867 29.267887763773434, -20.003601912885053 29.151187041368228 C -19.855684341811436 29.034486318963022, -22.333263371784657 25.894167521414442, -22.481180942858273 26.010868243819647 C -22.62909851393189 26.127568966224853, -22.777016084996315 26.244269688619944, -22.92493365607239 26.360970411025388 C -23.072851227148465 26.47767113343083, -20.595272197197506 29.617989930996977, -20.44735462612143 29.501289208591533" stroke="#e28343" fill="none">
		<title>.id(nerve_feature_39_outline)</title>
	</path>
	<path d="M 3.94168837088647 245.1858370308293 C 3.551330543658135 245.1100056269481, 3.160972716501386 245.03417422307322, 2.7706148892810085 244.9583428191894 M 2.216592752450598 249.4575346004973 C 1.5833184011918164 249.2860615199593, 0.9500440500221271 249.11458843940915, 0.31676969878204664 248.943115358882 M 2.4352003188801383 250.51450528232928 C 2.113511771372315 250.26400120869803, 1.7918232239017957 250.0134971351415, 1.470134676391907 249.762993061486 M -0.9302892227937236 260.81871833033927 C -0.7213260722221186 260.8986124029358, -0.5123629215744266 260.9785064757067, -0.3033997709962909 261.05840054830287" stroke="#01136e" fill="none">
		<title>.id(nerve_feature_40)</title>
	</path>
	<path d="M 4.323081142285538 243.22253889913242 C 3.9327233150572027 243.1467074952512, 3.5423654879206183 243.07087609138023, 3.152007660700241 242.9950446874964 C 2.7616498334798636 242.91921328361258, 1.9988642906413987 246.84580954699857, 2.389222117861776 246.9216409508824 C 2.7795799450821534 246.99747235476622, 3.1699377722590674 247.07330375864498, 3.5602955994874024 247.1491351625262 C 3.9506534267157374 247.2249665664074, 4.713438969513874 243.29837030301363, 4.323081142285538 243.22253889913242 M 2.739313726399696 247.5270520744449 C 2.1060393751409143 247.3555789939069, 1.472765023954771 247.18410591335228, 0.8394906727146905 247.01263283282515 C 0.20621632147461 246.841159752298, -0.8392256263906777 250.70212480441174, -0.2059512751505972 250.87359788493887 C 0.4273230760894833 251.045070965466, 1.0605974272427185 251.2165440460117, 1.6938717785015003 251.3880171265497 C 2.327146129760282 251.5594902070877, 3.372588077658478 247.6985251549829, 2.739313726399696 247.5270520744449 M 3.6640039699776494 248.93651872121748 C 3.3423154224698264 248.68601464758623, 3.0206268750685137 248.4355105740836, 2.698938327558625 248.18500650042807 C 2.3772497800487367 247.93450242677255, -0.08035752228469994 251.09047554888838, 0.2413310252251888 251.3409796225439 C 0.5630195727350775 251.59148369619942, 0.8847081202748035 251.84198776980983, 1.206396667782627 252.09249184344108 C 1.5280852152904505 252.34299591707233, 3.9856925174854725 249.18702279484873, 3.6640039699776494 248.93651872121748 M -1.644536056015995 262.6868327436534 C -1.4355729054443898 262.7667268162499, -1.2266097547745622 262.8466208890293, -1.0176466041964263 262.92651496162546 C -0.8086834536182903 263.00640903422163, 0.6198102127819803 259.27018020757646, 0.4108470622038446 259.1902861349803 C 0.20188391162570885 259.1103920623841, -0.007079238999847415 259.03049798962167, -0.2160423895714524 258.95060391702515 C -0.42500554014305736 258.87070984442863, -1.8534992065876001 262.60693867105687, -1.644536056015995 262.6868327436534" stroke="#e28343" fill="none">
		<title>.id(nerve_feature_40_outline)</title>
	</path>
	<path d="M 14.574156096321044 217.18712643332492 C 14.11961569632502 217.10788621489374, 13.665075296338614 217.02864599648993, 13.210534896337965 216.94940577809592 M 16.52754440356395 219.4800396580202 C 16.855625806831128 219.69502491129572, 17.183707210101257 219.91001016455692, 17.51178861336533 220.12499541783538 M 10.628387411767587 231.8312102842775 C 11.08140271005282 232.02739764005875, 11.534418008393526 232.22358499579656, 11.987433306673223 232.41977235157754 M 6.7489914445912955 235.18511550577438 C 6.605584331879898 235.03185740914648, 6.462177219179602 234.8785993125536, 6.318770106473668 234.72534121591454" stroke="#01136e" fill="none">
		<title>.id(nerve_feature_41)</title>
	</path>
	<path d="M 14.9176366240971 215.21684190386256 C 14.463096224101076 215.13760168543138, 14.008555823954886 215.0583614669997, 13.554015423954237 214.9791212486057 C 13.099475023953588 214.8998810302117, 12.412513968721044 218.84045008919213, 12.867054368721693 218.91969030758614 C 13.321594768722342 218.99893052598014, 13.776135168548965 219.0781707443561, 14.230675568544989 219.15741096278728 C 14.685215968541012 219.23665118121846, 15.372177024093123 215.29608212229374, 14.9176366240971 215.21684190386256 M 15.431365715310353 221.15287924489593 C 15.75944711857753 221.36786449817146, 16.08752852182996 221.58284975142107, 16.41560992509403 221.79783500469952 C 16.743691328358103 222.01282025797798, 18.9360487049007 218.6671410842497, 18.607967301636627 218.45215583097124 C 18.279885898372555 218.23717057769278, 17.951804495084726 218.02218532441998, 17.62372309181755 217.80720007114445 C 17.295641688550372 217.59221481786892, 15.103284312043176 220.9378939916204, 15.431365715310353 221.15287924489593 M 9.833579373810174 233.66649777750527 C 10.286594672095408 233.86268513328653, 10.739609970428903 234.0588724890212, 11.1926252687086 234.2550598448022 C 11.645640566988297 234.45124720058317, 13.235256642917543 230.78067221413386, 12.782241344637846 230.58448485835288 C 12.32922604635815 230.3882975025719, 11.876210748010234 230.19211014683097, 11.423195449725 229.9959227910497 C 10.970180151439767 229.79973543526845, 9.38056407552494 233.470310421724, 9.833579373810174 233.66649777750527 M 8.209360102018492 233.81861509069788 C 8.065952989307094 233.66535699406998, 7.922545876682458 233.51209889755793, 7.779138763976523 233.35884080091887 C 7.6357316512705875 233.2055827042798, 4.71499433626488 235.93858353427115, 4.858401448970813 236.0918416309102 C 5.0018085616767465 236.24509972754927, 5.145215674452702 236.39835782422298, 5.288622787164099 236.55161592085088 C 5.432029899875497 236.70487401747877, 8.352767214729889 233.97187318732577, 8.209360102018492 233.81861509069788" stroke="#e28343" fill="none">
		<title>.id(nerve_feature_41_outline)</title>
	</path>
	<path d="M -9.000455091566867 44.70746348037658 C -8.858922684405501 44.543989668538856, -8.71739027724528 44.38051585669571, -8.57585787008444 44.21704204485696" stroke="#01136e" fill="none">
		<title>.id(nerve_feature_42)</title>
	</path>
	<path d="M -7.488413817420813 46.0165590404022 C -7.3468814102594475 45.853085228564474, -7.205349003092764 45.68961141671386, -7.063816595931924 45.52613760487511 C -6.922284188771084 45.36266379303636, -9.946366737076115 42.74447267300006, -10.087899144236955 42.90794648483881 C -10.229431551397795 43.07142029667756, -10.370963958551554 43.23489410851324, -10.51249636571292 43.398367920350964 C -10.654028772874286 43.56184173218869, -7.629946224582179 46.180032852239925, -7.488413817420813 46.0165590404022" stroke="#e28343" fill="none">
		<title>.id(nerve_feature_42_outline)</title>
	</path>
	<path d="M 22.680325213877413 178.53727335013554 C 22.36166283775267 178.3856995266529, 22.043000461654383 178.234125703284, 21.72433808553501 178.0825518798286" stroke="#01136e" fill="none">
		<title>.id(nerve_feature_43)</title>
	</path>
	<path d="M 23.539406113514865 176.73117811237034 C 23.220743737390123 176.5796042888877, 22.902081361177785 176.42803046546456, 22.58341898505841 176.27645664200915 C 22.264756608939038 176.12488281855374, 20.546594809892234 179.73707329419264, 20.865257186011608 179.88864711764805 C 21.18391956213098 180.04022094110346, 21.50258193811522 180.1917947644181, 21.821244314239962 180.34336858790073 C 22.139906690364704 180.49494241138336, 23.858068489639606 176.88275193585298, 23.539406113514865 176.73117811237034" stroke="#e28343" fill="none">
		<title>.id(nerve_feature_43_outline)</title>
	</path>
	<path d="M -19.427719190438374 33.20032825764733 C -19.598862441310377 33.372439393564235, -19.77000569217595 33.54455052947302, -19.94114894304864 33.7166616653903" stroke="#01136e" fill="none">
		<title>.id(nerve_feature_44)</title>
	</path>
	<path d="M -20.845914816730833 31.790108003373213 C -21.017058067602836 31.96221913929012, -21.188201318467094 32.13433027519759, -21.359344569339783 32.30644141111487 C -21.53048782021247 32.478552547032145, -18.694096567630183 35.298993055583004, -18.522953316757494 35.12688191966573 C -18.351810065884806 34.95477078374845, -18.18066681501792 34.78265964783835, -18.009523564145915 34.61054851192144 C -17.838380313273912 34.438437376004536, -20.67477156585883 31.617996867456306, -20.845914816730833 31.790108003373213" stroke="#e28343" fill="none">
		<title>.id(nerve_feature_44_outline)</title>
	</path>
	<path d="M 19.480854686723397 208.0503309561231 C 19.59556728381602 208.12604094144584, 19.710279880931864 208.20175092671485, 19.82499247802526 208.2774609120456 M 15.602279589668964 220.607463377535 C 15.80924019238582 220.64975353048357, 16.016200795083122 220.69204368339982, 16.223161397800762 220.7343338363447 M 14.517580705850197 225.24787888892644 C 15.228717188553537 225.54031508434102, 15.939853671269695 225.8327512797972, 16.650990153983006 226.12518747516214" stroke="#01136e" fill="none">
		<title>.id(nerve_feature_45)</title>
	</path>
	<path d="M 18.37917360237981 209.71955196857158 C 18.493886199472435 209.7952619538943, 18.608598796512197 209.87097193911313, 18.72331139360559 209.94668192444388 C 18.838023990698986 210.02239190977463, 21.04138615953832 206.68394988497806, 20.926673562444925 206.60823989964732 C 20.81196096535153 206.53252991431657, 20.697248368159606 206.45681992899736, 20.582535771066983 206.38110994367463 C 20.46782317397436 206.3053999583519, 18.26446100528719 209.64384198324885, 18.37917360237981 209.71955196857158 M 15.201875152829997 222.56697257296116 C 15.408835755546853 222.60926272590973, 15.615796358279193 222.65155287883314, 15.822756960996832 222.69384303177802 C 16.02971756371447 222.7361331847229, 16.830526437322334 218.81711479385623, 16.623565834604694 218.77482464091136 C 16.416605231887054 218.7325344879665, 16.209644629224787 218.6902443350574, 16.00268402650793 218.64795418210883 C 15.79572342379107 218.60566402916027, 14.99491455011314 222.5246824200126, 15.201875152829997 222.56697257296116 M 13.756936763549994 227.09758718837313 C 14.468073246253336 227.3900233837877, 15.179209729089084 227.6824595792931, 15.890346211802395 227.97489577465802 C 16.601482694515706 228.26733197002295, 18.122770578876928 224.56791537103118, 17.411634096163617 224.27547917566625 C 16.700497613450306 223.98304298030132, 15.989361130853737 223.69060678489433, 15.278224648150399 223.39817058947975 C 14.56708816544706 223.10573439406517, 13.045800280846652 226.80515099295854, 13.756936763549994 227.09758718837313" stroke="#e28343" fill="none">
		<title>.id(nerve_feature_45_outline)</title>
	</path>
	<path d="M 23.12774825475054 180.4194277070827 C 23.183996435147037 184.35665473586855, 22.701393328373854 189.06525962167797, 22.011256439358082 193.01939222550212 C 21.321119550342306 196.97352482932624, 20.781767440423458 200.03701906166333, 20.358432816972133 203.41267255089795 C 19.935098193520805 206.7883260401325, 17.982430465938055 210.1167894683438, 16.96281269426309 214.15904257131774 C 15.943194922588118 218.20129567429163, 13.713758066399112 222.2818288154437, 12.290282413684865 226.6168943676587 C 10.86680676097061 230.9519599198737, 7.440690722052433 234.48411480482562, 5.252000263907659 237.7750088006653 C 3.0633098057628874 241.065902796505, 6.312892549720142 243.98152866926412, 4.723552967636594 248.65276651893004 C 3.1342133855530454 253.32400436859604, 0.2867316230258199 258.1013835322902, -3.0141128928096377 261.1244946700175 C -6.314957408645094 264.14760580774464, -12.25323938857309 261.4317211793231, -15.698369959697796 264.5583811062722 C -19.143500530822504 267.68504103322135, -21.369791448231133 272.4459164928102, -23.544554222438602 276.9625603369462 C -25.719316996646082 281.47920418108214, -27.8971330972021 286.8489205787019, -29.509857255825313 289.0608444950364 C -31.12258141444851 291.2727684113707, -31.82184680103413 289.20035202386373, -30.201745000594233 285.57336013688837 C -28.581643200154332 281.9463682499132, -25.796115157081516 276.3632102449818, -23.346893226978697 271.3083309189856 C -20.897671296875867 266.25345159298934, -18.7593816287482 261.5663083509604, -14.358710873635125 257.92756093462515 C -9.958040118522053 254.2888135182898, -7.753219774272964 251.91847198231216, -4.952682298082506 252.66078988995224 C -2.1521448218920463 253.4031077975924, -5.006159730859714 255.95407050072438, -7.966518005655251 258.4343868427002 C -10.926876280450788 260.914703184676, -12.531942728940008 265.0327522801206, -14.999752224475465 268.4428661229616 C -17.467561720010913 271.8529799658027, -19.77567519538214 275.4336755201037, -21.660841380479432 278.8541905044212 C -23.546007565576726 282.27470548873873, -25.58463730424172 285.16899497758976, -27.780728766148428 288.330125352968 C -29.976820228055143 291.49125572834635, -32.09491931319458 294.76669803097445, -34.250945552074626 298.0040351041823 C -36.406971790954685 301.24137217739025, -38.564431506985876 304.48077558490314, -40.72165114064817 307.7197548010292 C -42.87887077431047 310.9587340171553, -45.0361719161129 314.19777007546304, -47.19345587305325 317.4367252353398 C -49.35073982999362 320.67568039521655, -51.50802494342498 323.9145820256689, -53.66530635925567 327.1534310309114 C -55.82258777508637 330.3922800361542, -57.979866677037265 333.63107816010785, -60.13714617347122 336.86983717211893 C -62.29442566990518 340.1085961841299, -64.4517059370057 343.34731633860315, -66.60899143492767 346.5860106089467 C -68.76627693284962 349.82470487929027, -70.92356774136843 353.06337337933365, -73.08086809410489 356.30202802013935 C -75.23816844684136 359.5406826609449, -77.39547838557174 362.7793234999338, -79.5528011192188 366.01796026479633 C -81.71012385286588 369.2565970296588, -83.86745939804541 372.49522973943874, -86.02480956069917 375.73386545082144 C -88.18215972335291 378.9725011622044, -90.33952450329394 382.21113986976525, -92.4969042088756 385.4497859046701 C -94.65428391445727 388.68843193957485, -96.8116785342483 391.92708527793053, -98.96908696640722 395.16574774232714 C -101.12649539856612 398.40441020672387, -103.28391762515534 401.64308176553936, -105.44135133289596 404.881762115776 C -107.59878504063664 408.1204424660126, -109.75623020808766 411.3591315686888, -111.9136835747266 414.59782747568624 C -114.07113694136555 417.8365233826834, -116.22859848426354 421.07522605225887, -118.38606429681138 424.31393241690307 C -120.54353010935925 427.5526387815473, -122.70100016725127 430.7913487994726, -124.85847023754542 434.0300588384948" stroke="#01136e" fill="none">
		<title>.id(nerve_feature_46)</title>
	</path>
	<path d="M 21.12795232024109 180.44799727689872 C 21.184200500637587 184.38522430568457, 20.731177231104976 188.72138678171734, 20.041040342089204 192.6755193855415 C 19.35090345307343 196.6296519893656, 18.79731154601285 199.78815202258625, 18.373976922561525 203.16380551182087 C 17.9506422991102 206.5394590010554, 16.04317185920996 209.6276309498337, 15.023554087534992 213.66988405280765 C 14.003936315860022 217.71213715578153, 11.813577218454268 221.65787950251547, 10.390101565740022 225.99294505473046 C 8.966625913025766 230.32801060694547, 5.775367571201398 233.37655044857377, 3.5866771130566244 236.66744444441343 C 1.3979866549118483 239.95833844025313, 4.419485301537068 243.3373167534105, 2.83014571945352 248.00855460307642 C 1.2408061373699704 252.67979245274242, -1.0640709187303998 256.62648269047577, -4.364915434565857 259.6495938282031 C -7.6657599504013 262.67270496593017, -13.59734248302382 259.950712444883, -17.042473054148523 263.07737237183204 C -20.48760362527323 266.2040322987812, -23.171781937052938 271.5782585658622, -25.346544711260407 276.09490240999816 C -27.521307485467887 280.6115462541341, -29.513195817239783 285.67064162832366, -31.125919975862995 287.8825655446582 C -29.94430246407029 289.656705691333, -29.995741434936534 290.0160352907692, -28.375639634496636 286.38904340379383 C -26.755537834056742 282.76205151681864, -23.99625935433071 277.23528770100523, -21.54703742422789 272.180408375009 C -19.09781549412506 267.12552904901275, -17.48490882041461 263.1076451281828, -13.084238065301532 259.46889771184755 C -8.683567310188455 255.83015029551217, -8.265649435160435 253.8517117094652, -5.4651119589699775 254.5940296171053 C -4.0853845490450835 252.89067813670493, -6.290604374803328 254.42103365946957, -9.250962649598865 256.90135000144534 C -12.21132092439441 259.38166634342116, -14.152184251846911 263.8602262004753, -16.61999374738237 267.27034004331637 C -19.08780324291783 270.68045388615747, -21.527266718877232 274.46831178822845, -23.412432903974526 277.88882677254594 C -25.297599089071824 281.3093417568635, -27.227167356941482 284.02790119267195, -29.42325881884819 287.1890315680502 C -31.619350280754905 290.35016194342853, -33.75954146187496 293.6580803772621, -35.915567700755005 296.89541745046995 C -38.071593939635065 300.1327545236779, -40.22903000463788 303.3721224192942, -42.38624963830017 306.61110163542025 C -44.54346927196248 309.85008085154635, -46.70075136309548 313.0890883065667, -48.85803532003583 316.32804346644343 C -51.0153192769762 319.5669986263202, -53.17258822781384 322.8058759905701, -55.329869643644535 326.0447249958126 C -57.48715105947525 329.2835740010554, -59.64441620294106 332.52235146889245, -61.80169569937502 335.76111048090354 C -63.95897519580897 338.9998694929145, -66.11624381390558 342.23857215874665, -68.27352931182756 345.4772664290902 C -70.4308148097495 348.71596069943377, -72.58809583601702 351.95461451369806, -74.74539618875347 355.19326915450375 C -76.90269654148995 358.43192379530933, -79.05999834924218 361.6705524277361, -81.21732108288924 364.9091891925986 C -83.37464381653632 368.14782595746107, -85.53197269089368 371.3864486528705, -87.68932285354744 374.6250843642532 C -89.8466730162012 377.86372007563625, -92.00403242119295 381.1023507143116, -94.16141212677461 384.34099674921646 C -96.31879183235627 387.57964278412123, -98.47618223534731 390.818289792267, -100.63359066750623 394.05695225666364 C -102.79099909966513 397.2956147210604, -104.9484181578949 400.5342815236068, -107.10585186563553 403.7729618738434 C -109.26328557337621 407.01164222408005, -111.42072853648479 410.2503280176649, -113.57818190312373 413.4890239246624 C -115.73563526976267 416.7277198316595, -117.89309551328267 419.96642055065524, -120.05056132583051 423.20512691529945 C -122.20802713837838 426.44383327994365, -124.3654967670486 429.6825426535376, -126.52296683734275 432.92125269255985 C -128.6804369076369 436.1599627315821, -125.35144370804224 438.37757502345204, -123.19397363774809 435.1388649844298 C -121.03650356745393 431.90015494540756, -118.87903308034012 428.6614442831509, -116.72156726779227 425.42273791850664 C -114.56410145524441 422.1840315538625, -112.40663861296844 418.94532693370735, -110.24918524632949 415.70663102671 C -108.09173187969053 412.46793511971265, -105.93428450789708 409.22924270794516, -103.77685080015644 405.99056235770854 C -101.61941709241577 402.7518820074719, -99.46199169746711 399.5132056923873, -97.3045832653082 396.27454322799065 C -95.1471748331493 393.03588076359404, -92.98977599655827 389.7972210950285, -90.83239629097662 386.5585750601237 C -88.67501658539494 383.31992902521887, -86.51764643050463 380.0812822487726, -84.36029626785087 376.8426465373898 C -82.20294610519714 373.60401082600697, -80.04560388919543 370.3653681018565, -77.88828115554837 367.126731336994 C -75.73095842190129 363.88809457213154, -73.57364035219277 360.6494415265805, -71.41633999945631 357.4107868857749 C -69.25903964671984 354.17213224496925, -67.10173905594974 350.93344905914677, -64.94445355802776 347.6947547888032 C -62.78716806010581 344.45606051845965, -60.62987614400139 341.2173228753453, -58.472596647567435 337.9785638633343 C -56.31531715113347 334.73980485132324, -54.158024490697485 331.500986071253, -52.00074307486679 328.2621370660104 C -49.843461659036116 325.0232880607677, -47.68616038301104 321.7843621641129, -45.52887642607068 318.54540700423615 C -43.37159246913032 315.3064518443594, -41.21427227665846 312.0673871827642, -39.05705264299617 308.8284079666381 C -36.899833009333875 305.58942875051207, -34.742349642274306 302.3499898311026, -32.58632340339425 299.11265275789475 C -30.4302971645142 295.8753156846868, -28.33429017535538 292.63234951326416, -26.13819871344867 289.4712191378859 C -23.94210725154196 286.3100887625076, -21.79441604208163 283.240069220614, -19.90924985698433 279.8195542362964 C -18.024083671887045 276.39903925197893, -15.847320197103999 273.02550604544797, -13.379510701568545 269.61539220260687 C -10.911701206033104 266.2052783597658, -9.642431636507165 262.44774002593084, -6.682073361711627 259.967423683955 C -3.7217150869161 257.4871073419792, -0.21890509473900877 253.9155374584799, -3.019442570929468 253.17321955083978 C -7.240790113385492 249.9852322551591, -11.232512926855652 252.74747674106743, -15.633183681968728 256.3862241574027 C -20.033854437081793 260.024971573738, -22.697527099626672 265.3813741369659, -25.146749029729495 270.43625346296216 C -27.59597095983232 275.4911327889584, -30.40774856625192 281.1306849830077, -32.02785036669182 284.757676869983 C -33.64795216713173 288.38466875695826, -32.30086036482673 292.8888311314084, -30.688136206203524 290.676907215074 C -26.28107037716442 288.0271995290801, -23.917326507824278 282.34686210803017, -21.742563733616805 277.8302182638942 C -19.56780095940933 273.31357441975825, -17.799397436371777 269.1660497676615, -14.354266865247071 266.03938984071243 C -10.909136294122362 262.91272991376326, -4.964154866888888 265.6225066495591, -1.663310351053431 262.59939551183186 C 1.6375341647820396 259.5762843741046, 5.02762063373612 253.96821628444965, 6.616960215819669 249.2969784347837 C 8.206299797903217 244.62574058511774, 4.728632956613927 242.17346715275684, 6.9173234147587 238.88257315691715 C 9.106013872903468 235.59167916107748, 12.766987608915453 231.57590923280193, 14.190463261629704 227.24084368058692 C 15.613938914343956 222.90577812837194, 17.882453529316216 218.69045419280172, 18.90207130099118 214.6482010898278 C 19.92168907266615 210.6059479868539, 21.91955408793141 207.03719307920957, 22.342888711382734 203.66153958997498 C 22.766223334834066 200.2858861007404, 23.291335647611184 197.31739766928686, 23.981472536626956 193.3632650654627 C 24.671609425642732 189.4091324616386, 25.183792369656487 184.32808516605252, 25.12754418925999 180.39085813726666 C 25.07129600886349 176.4536311084808, 21.07170413984459 176.51077024811286, 21.12795232024109 180.44799727689872" stroke="#e28343" fill="none">
		<title>.id(nerve_feature_46_outline)</title>
	</path>
	<path d="M 16.326526159682903 73.81335766526021 C 16.873058071652125 73.99292373927163, 16.816868679752307 74.57520279184446, 16.21367250970539 74.70901769059499" stroke="#01136e" fill="none">
		<title>.id(nerve_feature_47)</title>
	</path>
	<path d="M 15.702246871807448 75.71343012985984 C 16.24877878377667 75.89299620387126, 16.383713234414145 72.62267203403964, 15.780517064367226 72.75648693279017 C 15.177320894320307 72.8903018315407, 16.043631784996634 76.79536334715034, 16.646827955043552 76.66154844839981 C 17.25002412509047 76.52773354964928, 17.497337359527577 72.092851274672, 16.950805447558356 71.91328520066058 C 16.404273535589134 71.73371912664916, 15.155714959838225 75.53386405584843, 15.702246871807448 75.71343012985984" stroke="#e28343" fill="none">
		<title>.id(nerve_feature_47_outline)</title>
	</path>
	<path d="M -34.14707770403029 10.40087745014549 C -32.03360030986349 13.548125422024711, -29.919242500924625 16.69666354887304, -27.808638052291247 19.839327883275615 C -25.698033603657873 22.981992217678194, -23.4597834032704 26.103679756276033, -21.63632925165367 29.312944676352885 C -19.81287510003694 32.52220959642973, -16.63893439452393 34.54250105190948, -14.515361557096597 37.33097416188707 C -12.391788719669268 40.119447271864665, -11.550043460594248 43.728746320595626, -8.44581538919309 46.161402543588956 C -5.341587317791927 48.59405876658231, -2.8838612187092183 51.81436921496203, 0.114431974839595 54.05224606277364 C 3.1127251683884127 56.29012291058525, 3.9104932471519533 59.081499142650195, 6.560152466400536 61.569825520224704 C 9.209811685649125 64.05815189779919, 11.76536870918853 67.38149812153483, 13.547780891348781 70.13063009143538 C 15.330193073509031 72.87976206133592, 15.771294652963402 72.69213035202594, 18.0514704212138 76.9959599758663 C 20.331646189464188 81.29978959970663, 22.1548529562619 86.11129584153892, 23.24787538990642 89.98945338288236 C 24.34089782355094 93.86761092422581, 25.052151629946728 95.65250601486545, 25.305722150283735 97.02127101472543 C 25.559292670620735 98.39003601458538, 25.612317257243426 98.48983351405032, 25.75655796441695 99.32886227290386 C 25.900798671590486 100.16789103175745, 26.59053204418451 102.80248525884339, 27.155523630814987 107.41900871566321 C 27.72051521744547 112.03553217248302, 30.019141261865908 117.22784682721066, 29.053413979802706 122.7366340610239 C 28.087686697739528 128.24542129483717, 28.430473732272375 133.93081576020015, 28.58842638621502 138.7134755144306 C 28.746379040157645 143.49613526866105, 29.84288453507113 148.06048674095393, 28.96297695081862 152.766789838445 C 28.083069366566125 157.47309293593602, 26.738476384012234 162.92507261935344, 26.214296507550895 167.65906872110108 C 25.69011663108956 172.39306482284877, 23.071500074354045 176.4822006782968, 23.127748254750546 180.41942770708263 C 23.183996435147037 184.35665473586855, 22.701393328373854 189.06525962167797, 22.011256439358082 193.01939222550212 C 21.321119550342306 196.97352482932624, 20.781767440423458 200.03701906166333, 20.358432816972133 203.41267255089795 C 19.935098193520805 206.7883260401325, 17.982430465938055 210.1167894683438, 16.96281269426309 214.15904257131774 C 15.943194922588118 218.20129567429163, 13.713758066399112 222.2818288154437, 12.290282413684865 226.6168943676587 C 10.86680676097061 230.9519599198737, 7.440690722052433 234.48411480482562, 5.252000263907659 237.7750088006653 C 3.0633098057628874 241.065902796505, 6.312892549720142 243.98152866926412, 4.723552967636594 248.65276651893004 C 3.1342133855530454 253.32400436859604, 0.2867316230258199 258.1013835322902, -3.0141128928096377 261.1244946700175 C -6.314957408645094 264.14760580774464, -12.25323938857309 261.4317211793231, -15.698369959697796 264.5583811062722 C -19.143500530822504 267.68504103322135, -21.369791448231133 272.4459164928102, -23.544554222438602 276.9625603369462 C -25.719316996646082 281.47920418108214, -27.8971330972021 286.8489205787019, -29.509857255825313 289.0608444950364 C -31.12258141444851 291.2727684113707, -31.82184680103413 289.20035202386373, -30.201745000594233 285.57336013688837 C -28.581643200154332 281.9463682499132, -25.796115157081516 276.3632102449818, -23.346893226978697 271.3083309189856 C -20.897671296875867 266.25345159298934, -18.7593816287482 261.5663083509604, -14.358710873635125 257.92756093462515 C -9.958040118522053 254.2888135182898, -7.753219774272964 251.91847198231216, -4.952682298082506 252.66078988995224 C -2.1521448218920463 253.4031077975924, -5.006159730859714 255.95407050072438, -7.966518005655251 258.4343868427002 C -10.926876280450788 260.914703184676, -12.531942728940008 265.0327522801206, -14.999752224475465 268.4428661229616 C -17.467561720010913 271.8529799658027, -19.77567519538214 275.4336755201037, -21.660841380479432 278.8541905044212 C -23.546007565576726 282.27470548873873, -25.58463730424172 285.16899497758976, -27.780728766148428 288.330125352968 C -29.976820228055143 291.49125572834635, -32.09491931319458 294.76669803097445, -34.250945552074626 298.0040351041823 C -36.406971790954685 301.24137217739025, -38.564431506985876 304.48077558490314, -40.72165114064817 307.7197548010292 C -42.87887077431047 310.9587340171553, -45.0361719161129 314.19777007546304, -47.19345587305325 317.4367252353398 C -49.35073982999362 320.67568039521655, -51.50802494342498 323.9145820256689, -53.66530635925567 327.1534310309114 C -55.82258777508637 330.3922800361542, -57.979866677037265 333.63107816010785, -60.13714617347122 336.86983717211893 C -62.29442566990518 340.1085961841299, -64.4517059370057 343.34731633860315, -66.60899143492767 346.5860106089467 C -68.76627693284962 349.82470487929027, -70.92356774136843 353.06337337933365, -73.08086809410489 356.30202802013935 C -75.23816844684136 359.5406826609449, -77.39547838557174 362.7793234999338, -79.5528011192188 366.01796026479633 C -81.71012385286588 369.2565970296588, -83.86745939804541 372.49522973943874, -86.02480956069917 375.73386545082144 C -88.18215972335291 378.9725011622044, -90.33952450329394 382.21113986976525, -92.4969042088756 385.4497859046701 C -94.65428391445727 388.68843193957485, -96.8116785342483 391.92708527793053, -98.96908696640722 395.16574774232714 C -101.12649539856612 398.40441020672387, -103.28391762515534 401.64308176553936, -105.44135133289596 404.881762115776 C -107.59878504063664 408.1204424660126, -109.75623020808766 411.3591315686888, -111.9136835747266 414.59782747568624 C -114.07113694136555 417.8365233826834, -116.22859848426354 421.07522605225887, -118.38606429681138 424.31393241690307 C -120.54353010935925 427.5526387815473, -122.70100016725127 430.7913487994726, -124.85847023754542 434.0300588384948" stroke="#01136e" fill="none">
		<title>.id(nerve_feature_48)</title>
	</path>
	<path d="M -35.807440567317826 11.515864069892828 C -33.693963173151026 14.663112041772049, -31.579555209379915 17.811724852184145, -29.468950760746537 20.95438918658672 C -27.358346312113163 24.0970535209893, -25.198694615636512 27.09170191974577, -23.375240464019782 30.30096683982262 C -21.551786312403053 33.51023175989947, -18.230066844276468 35.754234325920095, -16.106494006849136 38.54270743589768 C -13.982921169421807 41.33118054587528, -12.783685086417679 45.30295353028428, -9.67945701501652 47.73560975327761 C -6.575228943615357 50.16826597627096, -4.080148363508936 53.417147136942155, -1.0818551699601227 55.65502398475377 C 1.916438023588698 57.892900832565374, 2.5413608059011477 60.5394004967598, 5.191020025149731 63.027726874334306 C 7.840679244398324 65.5160532519088, 10.087220831451027 68.46953290978617, 11.869633013611278 71.21866487968671 C 13.652045195771528 73.96779684958726, 14.004003784358689 73.62844386028394, 16.28417955260909 77.9322734841243 C 18.564355320859477 82.23610310796462, 20.22984770456116 86.65384056865786, 21.322870138205676 90.5319981100013 C 22.415892571850197 94.41015565134475, 23.0856121959815 96.01681722064936, 23.339182716318508 97.38558222050933 C 23.592753236655508 98.75434722036928, 23.641232277947452 98.82869042248484, 23.785472985120975 99.66771918133838 C 23.929713692294513 100.50674794019197, 24.605343863189592 103.04544181059306, 25.17033544982007 107.66196526741288 C 25.735327036450553 112.27848872423269, 28.049183003762778 116.88249995617912, 27.083455721699572 122.39128718999237 C 26.117728439636394 127.90007442380563, 26.431563564859157 133.99683199011417, 26.5895162188018 138.77949174434463 C 26.747468872744427 143.56215149857508, 27.87694943257855 147.69292834724283, 26.99704184832604 152.39923144473389 C 26.117134264073545 157.10553454222492, 24.75062519270023 162.7049643705315, 24.22644531623889 167.43896047227915 C 23.702265439777555 172.17295657402687, 21.071704139844595 176.51077024811283, 21.127952320241096 180.44799727689866 C 21.184200500637587 184.38522430568457, 20.731177231104976 188.72138678171734, 20.041040342089204 192.6755193855415 C 19.35090345307343 196.6296519893656, 18.79731154601285 199.78815202258625, 18.373976922561525 203.16380551182087 C 17.9506422991102 206.5394590010554, 16.04317185920996 209.6276309498337, 15.023554087534992 213.66988405280765 C 14.003936315860022 217.71213715578153, 11.813577218454268 221.65787950251547, 10.390101565740022 225.99294505473046 C 8.966625913025766 230.32801060694547, 5.775367571201398 233.37655044857377, 3.5866771130566244 236.66744444441343 C 1.3979866549118483 239.95833844025313, 4.419485301537068 243.3373167534105, 2.83014571945352 248.00855460307642 C 1.2408061373699704 252.67979245274242, -1.0640709187303998 256.62648269047577, -4.364915434565857 259.6495938282031 C -7.6657599504013 262.67270496593017, -13.59734248302382 259.950712444883, -17.042473054148523 263.07737237183204 C -20.48760362527323 266.2040322987812, -23.171781937052938 271.5782585658622, -25.346544711260407 276.09490240999816 C -27.521307485467887 280.6115462541341, -29.513195817239783 285.67064162832366, -31.125919975862995 287.8825655446582 C -29.94430246407029 289.656705691333, -29.995741434936534 290.0160352907692, -28.375639634496636 286.38904340379383 C -26.755537834056742 282.76205151681864, -23.99625935433071 277.23528770100523, -21.54703742422789 272.180408375009 C -19.09781549412506 267.12552904901275, -17.48490882041461 263.1076451281828, -13.084238065301532 259.46889771184755 C -8.683567310188455 255.83015029551217, -8.265649435160435 253.8517117094652, -5.4651119589699775 254.5940296171053 C -4.0853845490450835 252.89067813670493, -6.290604374803328 254.42103365946957, -9.250962649598865 256.90135000144534 C -12.21132092439441 259.38166634342116, -14.152184251846911 263.8602262004753, -16.61999374738237 267.27034004331637 C -19.08780324291783 270.68045388615747, -21.527266718877232 274.46831178822845, -23.412432903974526 277.88882677254594 C -25.297599089071824 281.3093417568635, -27.227167356941482 284.02790119267195, -29.42325881884819 287.1890315680502 C -31.619350280754905 290.35016194342853, -33.75954146187496 293.6580803772621, -35.915567700755005 296.89541745046995 C -38.071593939635065 300.1327545236779, -40.22903000463788 303.3721224192942, -42.38624963830017 306.61110163542025 C -44.54346927196248 309.85008085154635, -46.70075136309548 313.0890883065667, -48.85803532003583 316.32804346644343 C -51.0153192769762 319.5669986263202, -53.17258822781384 322.8058759905701, -55.329869643644535 326.0447249958126 C -57.48715105947525 329.2835740010554, -59.64441620294106 332.52235146889245, -61.80169569937502 335.76111048090354 C -63.95897519580897 338.9998694929145, -66.11624381390558 342.23857215874665, -68.27352931182756 345.4772664290902 C -70.4308148097495 348.71596069943377, -72.58809583601702 351.95461451369806, -74.74539618875347 355.19326915450375 C -76.90269654148995 358.43192379530933, -79.05999834924218 361.6705524277361, -81.21732108288924 364.9091891925986 C -83.37464381653632 368.14782595746107, -85.53197269089368 371.3864486528705, -87.68932285354744 374.6250843642532 C -89.8466730162012 377.86372007563625, -92.00403242119295 381.1023507143116, -94.16141212677461 384.34099674921646 C -96.31879183235627 387.57964278412123, -98.47618223534731 390.818289792267, -100.63359066750623 394.05695225666364 C -102.79099909966513 397.2956147210604, -104.9484181578949 400.5342815236068, -107.10585186563553 403.7729618738434 C -109.26328557337621 407.01164222408005, -111.42072853648479 410.2503280176649, -113.57818190312373 413.4890239246624 C -115.73563526976267 416.7277198316595, -117.89309551328267 419.96642055065524, -120.05056132583051 423.20512691529945 C -122.20802713837838 426.44383327994365, -124.3654967670486 429.6825426535376, -126.52296683734275 432.92125269255985 C -128.6804369076369 436.1599627315821, -125.35144370804224 438.37757502345204, -123.19397363774809 435.1388649844298 C -121.03650356745393 431.90015494540756, -118.87903308034012 428.6614442831509, -116.72156726779227 425.42273791850664 C -114.56410145524441 422.1840315538625, -112.40663861296844 418.94532693370735, -110.24918524632949 415.70663102671 C -108.09173187969053 412.46793511971265, -105.93428450789708 409.22924270794516, -103.77685080015644 405.99056235770854 C -101.61941709241577 402.7518820074719, -99.46199169746711 399.5132056923873, -97.3045832653082 396.27454322799065 C -95.1471748331493 393.03588076359404, -92.98977599655827 389.7972210950285, -90.83239629097662 386.5585750601237 C -88.67501658539494 383.31992902521887, -86.51764643050463 380.0812822487726, -84.36029626785087 376.8426465373898 C -82.20294610519714 373.60401082600697, -80.04560388919543 370.3653681018565, -77.88828115554837 367.126731336994 C -75.73095842190129 363.88809457213154, -73.57364035219277 360.6494415265805, -71.41633999945631 357.4107868857749 C -69.25903964671984 354.17213224496925, -67.10173905594974 350.93344905914677, -64.94445355802776 347.6947547888032 C -62.78716806010581 344.45606051845965, -60.62987614400139 341.2173228753453, -58.472596647567435 337.9785638633343 C -56.31531715113347 334.73980485132324, -54.158024490697485 331.500986071253, -52.00074307486679 328.2621370660104 C -49.843461659036116 325.0232880607677, -47.68616038301104 321.7843621641129, -45.52887642607068 318.54540700423615 C -43.37159246913032 315.3064518443594, -41.21427227665846 312.0673871827642, -39.05705264299617 308.8284079666381 C -36.899833009333875 305.58942875051207, -34.742349642274306 302.3499898311026, -32.58632340339425 299.11265275789475 C -30.4302971645142 295.8753156846868, -28.33429017535538 292.63234951326416, -26.13819871344867 289.4712191378859 C -23.94210725154196 286.3100887625076, -21.79441604208163 283.240069220614, -19.90924985698433 279.8195542362964 C -18.024083671887045 276.39903925197893, -15.847320197103999 273.02550604544797, -13.379510701568545 269.61539220260687 C -10.911701206033104 266.2052783597658, -9.642431636507165 262.44774002593084, -6.682073361711627 259.967423683955 C -3.7217150869161 257.4871073419792, -0.21890509473900877 253.9155374584799, -3.019442570929468 253.17321955083978 C -7.240790113385492 249.9852322551591, -11.232512926855652 252.74747674106743, -15.633183681968728 256.3862241574027 C -20.033854437081793 260.024971573738, -22.697527099626672 265.3813741369659, -25.146749029729495 270.43625346296216 C -27.59597095983232 275.4911327889584, -30.40774856625192 281.1306849830077, -32.02785036669182 284.757676869983 C -33.64795216713173 288.38466875695826, -32.30086036482673 292.8888311314084, -30.688136206203524 290.676907215074 C -26.28107037716442 288.0271995290801, -23.917326507824278 282.34686210803017, -21.742563733616805 277.8302182638942 C -19.56780095940933 273.31357441975825, -17.799397436371777 269.1660497676615, -14.354266865247071 266.03938984071243 C -10.909136294122362 262.91272991376326, -4.964154866888888 265.6225066495591, -1.663310351053431 262.59939551183186 C 1.6375341647820396 259.5762843741046, 5.02762063373612 253.96821628444965, 6.616960215819669 249.2969784347837 C 8.206299797903217 244.62574058511774, 4.728632956613927 242.17346715275684, 6.9173234147587 238.88257315691715 C 9.106013872903468 235.59167916107748, 12.766987608915453 231.57590923280193, 14.190463261629704 227.24084368058692 C 15.613938914343956 222.90577812837194, 17.882453529316216 218.69045419280172, 18.90207130099118 214.6482010898278 C 19.92168907266615 210.6059479868539, 21.91955408793141 207.03719307920957, 22.342888711382734 203.66153958997498 C 22.766223334834066 200.2858861007404, 23.291335647611184 197.31739766928686, 23.981472536626956 193.3632650654627 C 24.671609425642732 189.4091324616386, 25.183792369656487 184.32808516605252, 25.12754418925999 180.39085813726666 C 25.071296008863495 176.45363110848078, 27.677967822401563 172.61317307167067, 28.202147698862902 167.879176969923 C 28.726327575324238 163.14518086817537, 30.049004469058705 157.84065132964713, 30.92891205331121 153.1343482321561 C 31.80881963756371 148.42804513466504, 30.745289207570863 143.43011903874702, 30.587336553628226 138.64745928451657 C 30.429383899685593 133.86479953028612, 30.05764495584266 128.5907681658687, 31.023372237905853 123.08198093205544 C 31.989099519969038 117.57319369824219, 29.705703398440388 111.79257562073334, 29.140711811809908 107.17605216391352 C 28.575720225179428 102.55952870709372, 27.87188365088646 99.82903412332293, 27.72764294371293 98.99000536446937 C 27.5834022365394 98.1509766056158, 27.525832104585962 98.02572480880147, 27.27226158424896 96.65695980894151 C 27.018691063911955 95.28819480908155, 26.265903075251682 93.32506619710688, 25.17288064160716 89.44690865576344 C 24.079858207962644 85.56875111441998, 22.0989370580689 80.36347609144863, 19.8187612898185 76.05964646760829 C 17.538585521568116 71.75581684376795, 17.008340951246534 71.79172727308459, 15.225928769086284 69.04259530318404 C 13.443516586926034 66.2934633332835, 10.578944126899927 62.60025054368958, 7.929284907651341 60.11192416611509 C 5.279625688402759 57.62359778854059, 4.309012313188127 54.68734498860512, 1.3107191196393124 52.44946814079351 C -1.6875740739095006 50.2115912929819, -4.107945691968497 47.019851556893656, -7.212173763369658 44.587195333900326 C -10.316401834770817 42.154539110906974, -10.800656269916729 38.90771399785405, -12.924229107344061 36.119240887876465 C -15.04780194477139 33.33076777789887, -18.07396388767083 31.534187432959996, -19.897418039287558 28.324922512883145 C -21.720872190904288 25.115657592806297, -24.037720895202582 21.86693091436709, -26.14832534383596 18.724266579964514 C -28.258929792469335 15.581602245561934, -30.373237446575946 12.433138802277373, -32.48671484074275 9.285890830398152 C -34.60019223490956 6.138642858518931, -37.920917961484626 8.368616098013607, -35.807440567317826 11.515864069892828" stroke="#e28343" fill="none">
		<title>.id(nerve_feature_48_outline)</title>
	</path>
	<circle cx="-25.367615289827878" cy="23.432711619504236" r="1" fill="orange">
		<title>.id(marker_10001)</title>
	</circle>
	<circle cx="-20.279734114920455" cy="31.258189295995923" r="1" fill="orange">
		<title>.id(marker_10002)</title>
	</circle>
	<circle cx="9.084279632336065" cy="64.20510932076922" r="1" fill="orange">
		<title>.id(marker_10003)</title>
	</circle>
	<circle cx="22.89564622538286" cy="88.79063578375326" r="1" fill="orange">
		<title>.id(marker_10004)</title>
	</circle>
	<circle cx="26.414751671669624" cy="102.56961991248915" r="1" fill="orange">
		<title>.id(marker_10005)</title>
	</circle>
	<circle cx="23.128593903926365" cy="180.1174282213941" r="1" fill="orange">
		<title>.id(marker_10006)</title>
	</circle>
	<circle cx="19.00846302878604" cy="208.2074031137841" r="1" fill="orange">
		<title>.id(marker_10007)</title>
	</circle>
	<circle cx="-7.668956193972285" cy="262.7224474145499" r="1" fill="orange">
		<title>.id(marker_10008)</title>
	</circle>
</svg>
