<?xml version="1.0" ?>
<svg xmlns="http://www.w3.org/2000/svg" width="1000" height="1000" viewBox="-129 -5 172 446">
	<rect x="-129" y="-5" width="172" height="25" fill="red">
		<title>.id(brain_region)</title>
	</rect>
	<rect x="-129" y="20" width="172" height="139" fill="green">
		<title>.id(cervical_region)</title>
	</rect>
	<rect x="-129" y="159" width="172" height="319" fill="grey">
		<title>.id(thoracic_region)</title>
	</rect>
	<rect x="-129" y="478" width="172" height="155" fill="blue">
		<title>.id(lumbar_region)</title>
	</rect>
	<circle style="fill: rgb(216, 216, 216);" cx="-23.617716098436816" cy="28.522264038490434" r="0.9054">
		<title>.id(point_01)</title>
	</circle>
	<circle style="fill: rgb(216, 216, 216);" cx="-23.730688798436518" cy="28.33403557134839" r="0.9054">
		<title>.id(point_02)</title>
	</circle>
	<circle style="fill: rgb(216, 216, 216);" cx="0.6149444041547117" cy="58.80960139257708" r="0.9054">
		<title>.id(point_03)</title>
	</circle>
	<circle style="fill: rgb(216, 216, 216);" cx="0.06523349575973103" cy="59.45073057480209" r="0.9054">
		<title>.id(point_04)</title>
	</circle>
	<circle style="fill: rgb(216, 216, 216);" cx="27.175129968230962" cy="168.8487778674606" r="0.9054">
		<title>.id(point_05)</title>
	</circle>
	<circle style="fill: rgb(216, 216, 216);" cx="27.854797155077843" cy="169.07947474684764" r="0.9054">
		<title>.id(point_06)</title>
	</circle>
	<circle style="fill: rgb(216, 216, 216);" cx="22.536334995647046" cy="189.35110147542554" r="0.9054">
		<title>.id(point_07)</title>
	</circle>
	<circle style="fill: rgb(216, 216, 216);" cx="22.24380740924527" cy="189.30461517645503" r="0.9054">
		<title>.id(point_08)</title>
	</circle>
	<circle style="fill: rgb(216, 216, 216);" cx="11.707980738579987" cy="76.02955779592338" r="0.9054">
		<title>.id(point_09)</title>
	</circle>
	<circle style="fill: rgb(216, 216, 216);" cx="13.880360840910976" cy="74.42700399734423" r="0.9054">
		<title>.id(point_10)</title>
	</circle>
	<circle style="fill: rgb(216, 216, 216);" cx="10.915033301620799" cy="231.24237542772283" r="0.9054">
		<title>.id(point_11)</title>
	</circle>
	<circle style="fill: rgb(216, 216, 216);" cx="10.462003710598903" cy="231.1360354898202" r="0.9054">
		<title>.id(point_12)</title>
	</circle>
	<circle style="fill: rgb(216, 216, 216);" cx="-0.9568377537239036" cy="264.08416589438275" r="0.9054">
		<title>.id(point_13)</title>
	</circle>
	<circle style="fill: rgb(216, 216, 216);" cx="-2.0212486554901092" cy="264.5639198483648" r="0.9054">
		<title>.id(point_14)</title>
	</circle>
	<circle style="fill: rgb(216, 216, 216);" cx="-9.1683036683158" cy="266.2449787674374" r="0.9054">
		<title>.id(point_15)</title>
	</circle>
	<circle style="fill: rgb(216, 216, 216);" cx="-14.591357530454683" cy="268.0787998661539" r="0.9054">
		<title>.id(point_16)</title>
	</circle>
	<circle style="fill: rgb(216, 216, 216);" cx="-26.306920985917955" cy="288.19618975920054" r="0.9054">
		<title>.id(point_17)</title>
	</circle>
	<circle style="fill: rgb(216, 216, 216);" cx="-13.758391372341388" cy="271.2992232029818" r="0.9054">
		<title>.id(point_18)</title>
	</circle>
	<circle style="fill: rgb(216, 216, 216);" cx="-14.19796130490725" cy="269.81035043156646" r="0.9054">
		<title>.id(point_19)</title>
	</circle>
	<circle style="fill: rgb(216, 216, 216);" cx="-23.442024159263482" cy="283.360113631159" r="0.9054">
		<title>.id(point_20)</title>
	</circle>
	<circle style="fill: rgb(216, 216, 216);" cx="-27.231305850356968" cy="289.23101114395274" r="0.9054">
		<title>.id(point_21)</title>
	</circle>
	<circle style="fill: rgb(216, 216, 216);" cx="28.42715384252566" cy="121.75628055550771" r="0.9054">
		<title>.id(point_22)</title>
	</circle>
	<circle style="fill: rgb(216, 216, 216);" cx="27.86649417813965" cy="121.77757935868541" r="0.9054">
		<title>.id(point_23)</title>
	</circle>
	<circle style="fill: rgb(216, 216, 216);" cx="-24.496896441504827" cy="27.079349119541767" r="0.9054">
		<title>.id(point_24)</title>
	</circle>
	<circle style="fill: rgb(216, 216, 216);" cx="-24.86455640457772" cy="26.631173995140603" r="0.9054">
		<title>.id(point_25)</title>
	</circle>
	<circle style="fill: rgb(216, 216, 216);" cx="-25.76664548265005" cy="27.700260474386003" r="0.9054">
		<title>.id(point_26)</title>
	</circle>
	<circle style="fill: rgb(216, 216, 216);" cx="4.122840818335436" cy="248.60943970462574" r="0.9054">
		<title>.id(point_27)</title>
	</circle>
	<circle style="fill: rgb(216, 216, 216);" cx="2.9485655910985273" cy="248.38206870827784" r="0.9054">
		<title>.id(point_28)</title>
	</circle>
	<circle style="fill: rgb(216, 216, 216);" cx="2.472116995813363" cy="252.9251950157673" r="0.9054">
		<title>.id(point_29)</title>
	</circle>
	<circle style="fill: rgb(216, 216, 216);" cx="2.679837873353381" cy="253.95999738061138" r="0.9054">
		<title>.id(point_30)</title>
	</circle>
	<circle style="fill: rgb(216, 216, 216);" cx="-0.675057583561544" cy="264.3074089864882" r="0.9054">
		<title>.id(point_31)</title>
	</circle>
	<circle style="fill: rgb(216, 216, 216);" cx="14.480430820132629" cy="220.489019268589" r="0.9054">
		<title>.id(point_32)</title>
	</circle>
	<circle style="fill: rgb(216, 216, 216);" cx="13.102529067090828" cy="220.25571449565578" r="0.9054">
		<title>.id(point_33)</title>
	</circle>
	<circle style="fill: rgb(216, 216, 216);" cx="16.501380274329534" cy="222.7930752887304" r="0.9054">
		<title>.id(point_34)</title>
	</circle>
	<circle style="fill: rgb(216, 216, 216);" cx="10.641369746227108" cy="235.19543068738534" r="0.9054">
		<title>.id(point_35)</title>
	</circle>
	<circle style="fill: rgb(216, 216, 216);" cx="6.784918301572953" cy="238.56776620785345" r="0.9054">
		<title>.id(point_36)</title>
	</circle>
	<circle style="fill: rgb(216, 216, 216);" cx="19.462243020906232" cy="211.31603264080147" r="0.9054">
		<title>.id(point_37)</title>
	</circle>
	<circle style="fill: rgb(216, 216, 216);" cx="19.798006166426756" cy="211.5437944783702" r="0.9054">
		<title>.id(point_38)</title>
	</circle>
	<circle style="fill: rgb(216, 216, 216);" cx="15.615853917314173" cy="223.92553511311067" r="0.9054">
		<title>.id(point_39)</title>
	</circle>
	<circle style="fill: rgb(216, 216, 216);" cx="14.50529688168763" cy="228.5789924910239" r="0.9054">
		<title>.id(point_40)</title>
	</circle>
	<circle style="fill: rgb(216, 216, 216);" cx="-0.717956662305157" cy="264.3751845465505" r="0.9054">
		<title>.id(point_41)</title>
	</circle>
	<circle style="fill: rgb(216, 216, 216);" cx="-27.404054486898772" cy="27.872996704804667" r="0.9054">
		<title>.id(point_42)</title>
	</circle>
	<circle style="fill: rgb(216, 216, 216);" cx="0.39631457460792596" cy="252.3849734407902" r="0.9054">
		<title>.id(point_43)</title>
	</circle>
	<circle style="fill: rgb(216, 216, 216);" cx="17.474142163302794" cy="223.43976628209086" r="0.9054">
		<title>.id(point_44)</title>
	</circle>
	<circle style="fill: rgb(216, 216, 216);" cx="16.253046460686633" cy="224.05230173397513" r="0.9054">
		<title>.id(point_45)</title>
	</circle>
	<circle style="fill: rgb(216, 216, 216);" cx="-2.092394199467789" cy="264.4777202899193" r="0.9054">
		<title>.id(point_46)</title>
	</circle>
	<circle style="fill: rgb(216, 216, 216);" cx="1.7226403441388587" cy="253.20633167312567" r="0.9054">
		<title>.id(point_47)</title>
	</circle>
	<circle style="fill: rgb(216, 216, 216);" cx="11.988173939640438" cy="235.78726497961424" r="0.9054">
		<title>.id(point_48)</title>
	</circle>
	<circle style="fill: rgb(216, 216, 216);" cx="16.648474495186566" cy="229.4640491359032" r="0.9054">
		<title>.id(point_49)</title>
	</circle>
	<circle style="fill: rgb(216, 216, 216);" cx="-9.109782252591462" cy="266.80726360460966" r="0.9054">
		<title>.id(point_50)</title>
	</circle>
	<circle style="fill: rgb(216, 216, 216);" cx="-0.026851633712246914" cy="264.5474026030591" r="0.9054">
		<title>.id(point_51)</title>
	</circle>
	<circle style="fill: rgb(216, 216, 216);" cx="6.354770290357773" cy="238.1065579711023" r="0.9054">
		<title>.id(point_52)</title>
	</circle>
	<circle style="fill: rgb(216, 216, 216);" cx="-14.305461027509182" cy="268.3614671804543" r="0.9054">
		<title>.id(point_53)</title>
	</circle>
	<circle style="fill: rgb(216, 216, 216);" cx="-25.89084354475158" cy="288.45724202826983" r="0.9054">
		<title>.id(point_54)</title>
	</circle>
	<circle style="fill: rgb(216, 216, 216);" cx="-13.229702928758016" cy="271.585009110424" r="0.9054">
		<title>.id(point_55)</title>
	</circle>
	<circle style="fill: rgb(216, 216, 216);" cx="-14.811329832537233" cy="269.4671072392193" r="0.9054">
		<title>.id(point_56)</title>
	</circle>
	<circle style="fill: rgb(216, 216, 216);" cx="-24.446541890160645" cy="282.8571085113655" r="0.9054">
		<title>.id(point_57)</title>
	</circle>
	<circle style="fill: rgb(216, 216, 216);" cx="-28.136580738804625" cy="288.62107945659517" r="0.9054">
		<title>.id(point_58)</title>
	</circle>
	<circle style="fill: rgb(216, 216, 216);" cx="-13.002356934848553" cy="42.65097919745908" r="0.9054">
		<title>.id(point_59)</title>
	</circle>
	<circle style="fill: rgb(216, 216, 216);" cx="-13.231894801940994" cy="42.85985990832641" r="0.9054">
		<title>.id(point_60)</title>
	</circle>
	<circle style="fill: rgb(216, 216, 216);" cx="-36.64159479721608" cy="7.957722451254925" r="0.9054">
		<title>.id(point_61)</title>
	</circle>
	<circle style="fill: rgb(216, 216, 216);" cx="23.202835307102635" cy="182.8430044011591" r="0.9054">
		<title>.id(point_62)</title>
	</circle>
	<circle style="fill: rgb(216, 216, 216);" cx="-118.04493663615371" cy="429.03423401717043" r="0.9054">
		<title>.id(point_63)</title>
	</circle>
	<circle style="fill: rgb(216, 216, 216);" cx="-21.530690255461945" cy="30.52560917252621" r="0.9054">
		<title>.id(point_64)</title>
	</circle>
	<circle style="fill: rgb(216, 216, 216);" cx="-21.09560601860427" cy="30.17379363018256" r="0.9054">
		<title>.id(point_65)</title>
	</circle>
	<circle style="fill: rgb(216, 216, 216);" cx="-9.009077945486208" cy="47.35753502910519" r="0.9054">
		<title>.id(point_66)</title>
	</circle>
	<circle style="fill: rgb(216, 216, 216);" cx="-8.58244955729152" cy="46.86482071534488" r="0.9054">
		<title>.id(point_67)</title>
	</circle>
	<circle style="fill: rgb(216, 216, 216);" cx="22.667810361261978" cy="181.68459241280226" r="0.9054">
		<title>.id(point_68)</title>
	</circle>
	<circle style="fill: rgb(216, 216, 216);" cx="21.708807492001117" cy="181.2289193678518" r="0.9054">
		<title>.id(point_69)</title>
	</circle>
	<circle style="fill: rgb(216, 216, 216);" cx="-19.3369938821288" cy="35.81380000393763" r="0.9054">
		<title>.id(point_70)</title>
	</circle>
	<circle style="fill: rgb(216, 216, 216);" cx="-19.866879723567603" cy="36.33266592285131" r="0.9054">
		<title>.id(point_71)</title>
	</circle>
	<circle style="fill: rgb(216, 216, 216);" cx="15.951026708465525" cy="76.55739753491835" r="0.9054">
		<title>.id(point_72)</title>
	</circle>
	<circle style="fill: rgb(216, 216, 216);" cx="15.876473229886523" cy="77.45649770854045" r="0.9054">
		<title>.id(point_73)</title>
	</circle>
	<path d="M -23.617716098436816 28.522264038490434 C -23.65537366510463 28.45952121611562, -23.693031231769723 28.396778393730912, -23.730688798436518 28.33403557134839" stroke="#01136e" fill="none">
		<title>.id(nerve_feature_01)</title>
	</path>
	<path d="M -21.90287343028177 27.493033926477146 C -21.940530996949583 27.43029110410233, -21.978188563546606 27.36754828183104, -22.0158461302134 27.30480545944852 C -22.053503696880195 27.242062637066, -25.48318903332643 29.30052286086574, -25.445531466659634 29.36326568324826 C -25.40787389999284 29.426008505630783, -25.370216333259677 29.488751328128906, -25.332558766591863 29.55149415050372 C -25.29490119992405 29.614236972878537, -21.865215863613955 27.55577674885196, -21.90287343028177 27.493033926477146" stroke="#e28343" fill="none">
		<title>.id(nerve_feature_01_outline)</title>
	</path>
	<path d="M 0.6149444041547117 58.80960139257708 C 0.43170743469302053 59.02331111999213, 0.2484704652216001 59.23702084738578, 0.06523349575973103 59.45073057480209" stroke="#01136e" fill="none">
		<title>.id(nerve_feature_02)</title>
	</path>
	<path d="M -0.9033679718188788 57.50778438202397 C -1.08660494128057 57.72149410943902, -1.2698419107551517 57.93520383683636, -1.4530788802170207 58.148913564252666 C -1.6363158496788897 58.362623291668974, 1.400308902274614 60.966257312767816, 1.583545871736483 60.75254758535151 C 1.766782841198352 60.5388378579352, 1.9500198106666111 60.32512813054524, 2.133256780128302 60.11141840313019 C 2.316493749589993 59.89770867571514, -0.7201310023571876 57.29407465460892, -0.9033679718188788 57.50778438202397" stroke="#e28343" fill="none">
		<title>.id(nerve_feature_02_outline)</title>
	</path>
	<path d="M 27.175129968230962 168.8487778674606 C 27.40168569718155 168.9256768272014, 27.628241426122667 169.0025757871054, 27.854797155077843 169.07947474684764" stroke="#01136e" fill="none">
		<title>.id(nerve_feature_03)</title>
	</path>
	<path d="M 26.53229861547262 170.74265427628745 C 26.758854344423206 170.81955323602827, 26.98541007336535 170.8964521959326, 27.211965802320528 170.97335115567483 C 27.438521531275704 171.05025011541707, 28.724184236790336 167.26249729776268, 28.49762850783516 167.18559833802044 C 28.271072778879983 167.1086993782782, 28.04451704993989 167.03180041837456, 27.817961320989305 166.95490145863374 C 27.59140559203872 166.87800249889293, 26.305742886522033 170.66575531654664, 26.53229861547262 170.74265427628745" stroke="#e28343" fill="none">
		<title>.id(nerve_feature_03_outline)</title>
	</path>
	<path d="M 22.536334995647046 189.35110147542554 C 22.43882580018485 189.33560604246406, 22.34131660470705 189.32011060941502, 22.24380740924527 189.30461517645503" stroke="#01136e" fill="none">
		<title>.id(nerve_feature_04)</title>
	</path>
	<path d="M 22.85022144899381 187.37588622274916 C 22.752712253531616 187.3603907897877, 22.65520305802592 187.3448953567342, 22.55769386256414 187.32939992377422 C 22.46018466710236 187.31390449081422, 21.832411760464623 191.26433499617585, 21.929920955926402 191.27983042913584 C 22.02743015138818 191.29532586209584, 22.124939346838087 191.31082129514044, 22.22244854230028 191.32631672810192 C 22.319957737762476 191.3418121610634, 22.947730644456005 187.39138165571063, 22.85022144899381 187.37588622274916" stroke="#e28343" fill="none">
		<title>.id(nerve_feature_04_outline)</title>
	</path>
	<path d="M 11.707980738579987 76.02955779592338 C 12.078412710924136 75.15528209616157, 12.902458748831492 74.5054916168753, 13.880360840910976 74.42700399734423" stroke="#01136e" fill="none">
		<title>.id(nerve_feature_08)</title>
	</path>
	<path d="M 13.54950221267069 76.8098133056526 C 13.919934185014839 75.93553760589079, 13.062466650942394 76.4990807097583, 14.040368743021878 76.42059309022723 C 15.018270835101362 76.34210547069615, 14.698255030879558 72.35492728493016, 13.720352938800074 72.43341490446123 C 12.74245084672059 72.5119025239923, 10.236891236833433 74.37502658643236, 9.866459264489285 75.24930228619417 C 9.496027292145136 76.12357798595598, 13.179070240326542 77.6840890054144, 13.54950221267069 76.8098133056526" stroke="#e28343" fill="none">
		<title>.id(nerve_feature_08_outline)</title>
	</path>
	<path d="M 10.915033301620799 231.24237542772283 C 10.764023437960711 231.20692878174495, 10.613013574259178 231.1714821357902, 10.462003710598903 231.1360354898202" stroke="#01136e" fill="none">
		<title>.id(nerve_feature_09)</title>
	</path>
	<path d="M 11.3720723724019 229.29529677297373 C 11.221062508741813 229.25985012699584, 11.070052644943535 229.22440348101838, 10.919042781283261 229.18895683504837 C 10.768032917622987 229.15351018907836, 9.853954776254271 233.047667498622, 10.004964639914546 233.083114144592 C 10.15597450357482 233.11856079056201, 10.30698436717961 233.15400743649406, 10.457994230839697 233.18945408247194 C 10.609004094499785 233.22490072844982, 11.523082236061988 229.3307434189516, 11.3720723724019 229.29529677297373" stroke="#e28343" fill="none">
		<title>.id(nerve_feature_09_outline)</title>
	</path>
	<path d="M 28.42715384252566 121.75628055550771 C 28.24026728773315 121.76338015656664, 28.053380732930922 121.7704797576223, 27.86649417813965 121.77757935868541" stroke="#01136e" fill="none">
		<title>.id(nerve_feature_10)</title>
	</path>
	<path d="M 28.351230952226885 119.7577221463716 C 28.164344397434377 119.76482174743053, 27.97745784258688 119.77192134848791, 27.790571287795608 119.77902094955103 C 27.603684733004336 119.78612055061414, 27.75553051369242 123.78323736888292, 27.942417068483692 123.7761377678198 C 28.129303623274964 123.76903816675669, 28.316190178031924 123.76193856570275, 28.503076732824432 123.75483896464382 C 28.68996328761694 123.7477393635849, 28.538117507019393 119.75062254531268, 28.351230952226885 119.7577221463716" stroke="#e28343" fill="none">
		<title>.id(nerve_feature_10_outline)</title>
	</path>
	<path d="M -24.496896441504827 27.079349119541767 C -24.61944976252804 26.929957411420677, -24.74200308355437 26.78056570326931, -24.86455640457772 26.631173995140603" stroke="#01136e" fill="none">
		<title>.id(nerve_feature_11)</title>
	</path>
	<path d="M -22.950625403035627 25.810867398904303 C -23.073178724058838 25.661475690783213, -23.195732045054157 25.512083982669647, -23.318285366077507 25.36269227454094 C -23.440838687100857 25.213300566412233, -26.53338076410128 27.75026400761156, -26.41082744307793 27.899655715740266 C -26.28827412205458 28.049047423868974, -26.16572080099724 28.19843913205814, -26.043167479974027 28.34783084017923 C -25.920614158950816 28.49722254830032, -22.828072082012415 25.960259107025394, -22.950625403035627 25.810867398904303" stroke="#e28343" fill="none">
		<title>.id(nerve_feature_11_outline)</title>
	</path>
	<path d="M 4.122840818335436 248.60943970462574 C 3.7314157425833505 248.53364937254807, 3.3399906668577852 248.457859040378, 2.9485655910985273 248.38206870827784" stroke="#01136e" fill="none">
		<title>.id(nerve_feature_12)</title>
	</path>
	<path d="M 4.5030327818895435 246.6459086835189 C 4.111607706137458 246.57011835144124, 3.7201826305138783 246.4943280192909, 3.3287575547546204 246.41853768719074 C 2.9373324789953625 246.34274735509058, 2.1769485516831764 250.2698093972648, 2.5683736274424342 250.34559972936495 C 2.959798703201692 250.4213900614651, 3.351223779029243 250.4971803936549, 3.7426488547813284 250.57297072573257 C 4.134073930533414 250.64876105781025, 4.894457857641629 246.72169901559658, 4.5030327818895435 246.6459086835189" stroke="#e28343" fill="none">
		<title>.id(nerve_feature_12_outline)</title>
	</path>
	<path d="M 14.480430820132629 220.489019268589 C 14.021130235795766 220.41125101092763, 13.561829651434266 220.3334827533461, 13.102529067090828 220.25571449565578" stroke="#01136e" fill="none">
		<title>.id(nerve_feature_13)</title>
	</path>
	<path d="M 14.814316325444981 218.51708608783912 C 14.355015741108119 218.43931783017774, 13.89571515686273 218.36154957261587, 13.436414572519292 218.28378131492556 C 12.977113988175853 218.20601305723525, 12.309342977318925 222.1498794186957, 12.768643561662364 222.227647676386 C 13.227944146005802 222.3054159340763, 13.687244730483414 222.38318419167751, 14.146545314820276 222.4609524493389 C 14.605845899157138 222.53872070700027, 15.273616909781843 218.5948543455005, 14.814316325444981 218.51708608783912" stroke="#e28343" fill="none">
		<title>.id(nerve_feature_13_outline)</title>
	</path>
	<path d="M 19.462243020906232 211.31603264080147 C 19.574164069415392 211.39195325341515, 19.686085117914377 211.46787386575122, 19.798006166426756 211.5437944783702" stroke="#01136e" fill="none">
		<title>.id(nerve_feature_14)</title>
	</path>
	<path d="M 18.339501577908308 212.97116153372036 C 18.451422626417468 213.04708214633405, 18.563343674885026 213.1230027586488, 18.675264723397405 213.19892337126777 C 18.787185771909783 213.27484398388674, 21.032668657968486 209.96458619809158, 20.920747609456107 209.8886655854726 C 20.80882656094373 209.81274497285364, 20.696905512413316 209.73682436049626, 20.584984463904156 209.66090374788257 C 20.473063415394996 209.58498313526889, 18.227580529399148 212.89524092110668, 18.339501577908308 212.97116153372036" stroke="#e28343" fill="none">
		<title>.id(nerve_feature_14_outline)</title>
	</path>
	<path d="M -0.9568377537239039 264.08416589438275 C -0.877210723266138 264.18117211175706, -0.7975836927658548 264.27817832914786, -0.717956662305157 264.3751845465505" stroke="#01136e" fill="none">
		<title>.id(nerve_feature_15)</title>
	</path>
	<path d="M -2.502732947717644 265.353105628644 C -2.423105917259878 265.45011184601833, -2.343478886918279 265.5471180632158, -2.263851856457581 265.6441242806184 C -2.1842248259968833 265.74113049802105, 0.907565562307965 263.20325102988517, 0.8279385318472672 263.10624481248254 C 0.7483115013865693 263.0092385950799, 0.668684470727602 262.9122323774958, 0.5890574402698361 262.8152261601215 C 0.5094304098120702 262.71821994274717, -2.58235997817541 265.2560994112697, -2.502732947717644 265.353105628644" stroke="#e28343" fill="none">
		<title>.id(nerve_feature_15_outline)</title>
	</path>
	<path d="M -25.76664548265005 27.700260474386006 C -26.312448484055007 27.757839217879646, -26.858251485487664 27.81541796132078, -27.404054486898772 27.872996704804667" stroke="#01136e" fill="none">
		<title>.id(nerve_feature_16)</title>
	</path>
	<path d="M -25.97646843621196 25.711297345477238 C -26.52227143761692 25.768876088970877, -27.06807443901209 25.826454832408057, -27.6138774404232 25.884033575891944 C -28.159680441834308 25.94161231937583, -27.740034534785455 29.919538577201276, -27.194231533374346 29.86195983371739 C -26.648428531963237 29.804381090233502, -26.102625530493096 29.746802346788414, -25.556822529088137 29.689223603294774 C -25.011019527683178 29.631644859801135, -25.430665434807 25.6537186019836, -25.97646843621196 25.711297345477238" stroke="#e28343" fill="none">
		<title>.id(nerve_feature_16_outline)</title>
	</path>
	<path d="M 2.472116995813363 252.9251950157673 C 1.7801828553909873 252.7451211573817, 1.0882487150197826 252.56504729917475, 0.39631457460792596 252.3849734407902" stroke="#01136e" fill="none">
		<title>.id(nerve_feature_17)</title>
	</path>
	<path d="M 2.9758326841155753 250.98966653358 C 2.2838985436931996 250.8095926751944, 1.5919644033264864 250.62951881698862, 0.9000302629146297 250.44944495860406 C 0.2080961225027731 250.2693711002195, -0.7993352541106344 254.14042806459176, -0.1074011136987778 254.32050192297632 C 0.5845330267130788 254.50057578136088, 1.276467167088775 254.680649639569, 1.9684013075111508 254.86072349795458 C 2.6603354479335266 255.04079735634016, 3.667766824537951 251.16974039196558, 2.9758326841155753 250.98966653358" stroke="#e28343" fill="none">
		<title>.id(nerve_feature_17_outline)</title>
	</path>
	<path d="M 16.501380274329538 222.7930752887304 C 16.82563423731475 223.00863895315405, 17.149888200316795 223.22420261764952, 17.474142163302794 223.43976628209086" stroke="#01136e" fill="none">
		<title>.id(nerve_feature_18)</title>
	</path>
	<path d="M 15.394134511019065 224.4586102837488 C 15.718388474004275 224.67417394817247, 16.04264243694522 224.88973761262733, 16.366896399931218 225.10530127706866 C 16.691150362917217 225.32086494151, 18.90564188966037 221.9897949515544, 18.58138792667437 221.77423128711305 C 18.25713396368837 221.55866762267172, 17.93288000062522 221.34310395813563, 17.60862603764001 221.12754029371197 C 17.2843720746548 220.91197662928832, 15.069880548033854 224.24304661932516, 15.394134511019065 224.4586102837488" stroke="#e28343" fill="none">
		<title>.id(nerve_feature_18_outline)</title>
	</path>
	<path d="M 15.615853917314176 223.92553511311064 C 15.828251431759307 223.96779065336406, 16.04064894624025 224.01004619371176, 16.253046460686633 224.05230173397513" stroke="#01136e" fill="none">
		<title>.id(nerve_feature_19)</title>
	</path>
	<path d="M 15.225610661849215 225.88709321869 C 15.438008176294346 225.92934875894343, 15.65040569068913 225.971604299274, 15.862803205135513 226.01385983953736 C 16.075200719581897 226.05611537980073, 16.855687230684136 222.13299916867626, 16.643289716237753 222.0907436284129 C 16.43089220179137 222.04848808814953, 16.21849468722427 222.0062325477847, 16.00609717277914 221.96397700753127 C 15.79369965833401 221.92172146727785, 15.013213147404084 225.8448376784366, 15.225610661849215 225.88709321869" stroke="#e28343" fill="none">
		<title>.id(nerve_feature_19_outline)</title>
	</path>
	<path d="M -2.0212486554901092 264.5639198483648 C -2.044963836823553 264.5351866622044, -2.0686790181348895 264.5064534760779, -2.092394199467789 264.4777202899193" stroke="#01136e" fill="none">
		<title>.id(nerve_feature_20)</title>
	</path>
	<path d="M -0.47877363404652984 263.29082487617194 C -0.5024888153799738 263.2620916900116, -0.5262039967152914 263.23335850385604, -0.5499191780481909 263.20462531769743 C -0.5736343593810904 263.17589213153883, -3.6585844022202867 265.7220820759826, -3.634869220887387 265.7508152621412 C -3.6111540395544877 265.7795484482998, -3.5874388582671326 265.80828163439725, -3.5637236769336886 265.8370148205576 C -3.5400084956002447 265.865748006718, -0.45505845271308587 263.3195580623323, -0.47877363404652984 263.29082487617194" stroke="#e28343" fill="none">
		<title>.id(nerve_feature_20_outline)</title>
	</path>
	<path d="M 2.6798378733534087 253.95999738061136 C 2.360772030269362 253.70877547812552, 2.0417061872221147 253.45755357560162, 1.7226403441388587 253.20633167312567" stroke="#01136e" fill="none">
		<title>.id(nerve_feature_21)</title>
	</path>
	<path d="M 3.9170860292739738 252.38862314107732 C 3.5980201861899266 252.13740123859148, 3.2789543431145027 251.88617933604542, 2.9598885000312465 251.63495743356947 C 2.6408226569479902 251.38373553109352, 0.16632634516321487 254.52648401020593, 0.4853921882464709 254.77770591268188 C 0.8044580313297269 255.02892781515783, 1.1235238743487972 255.28014971765955, 1.442589717432844 255.5313716201454 C 1.7616555605168907 255.78259352263123, 4.236151872358021 252.63984504356316, 3.9170860292739738 252.38862314107732" stroke="#e28343" fill="none">
		<title>.id(nerve_feature_21_outline)</title>
	</path>
	<path d="M 10.641369746227102 235.19543068738534 C 11.09030447738096 235.39270878474932, 11.539239208488704 235.58998688224105, 11.988173939640438 235.78726497961424" stroke="#01136e" fill="none">
		<title>.id(nerve_feature_22)</title>
	</path>
	<path d="M 9.83675774620677 237.02644120877054 C 10.285692477360627 237.2237193061345, 10.734627208433704 237.420997403611, 11.183561939585438 237.6182755009842 C 11.632496670737172 237.81555359835738, 13.241720670847172 234.15353255561746, 12.792785939695438 233.95625445824427 C 12.343851208543704 233.7589763608711, 11.894916477401292 233.56169826336412, 11.445981746247435 233.36442016600014 C 10.997047015093578 233.16714206863617, 9.387823015052913 236.82916311140656, 9.83675774620677 237.02644120877054" stroke="#e28343" fill="none">
		<title>.id(nerve_feature_22_outline)</title>
	</path>
	<path d="M 14.50529688168763 228.5789924910239 C 15.219689419512656 228.8740113726056, 15.934081957345324 229.16903025425623, 16.648474495186566 229.4640491359032" stroke="#01136e" fill="none">
		<title>.id(nerve_feature_23)</title>
	</path>
	<path d="M 13.741901019034902 230.42756674078632 C 14.456293556859928 230.722585622368, 15.170686094563079 231.01760450396517, 15.885078632404321 231.31262338561214 C 16.599471170245565 231.6076422672591, 18.12626289581005 227.91049376784122, 17.41187035796881 227.61547488619425 C 16.697477820127567 227.32045600454728, 15.983085282165385 227.0254371228432, 15.26869274434036 226.7304182412615 C 14.554300206515334 226.43539935967982, 13.027508481209876 230.13254785920464, 13.741901019034902 230.42756674078632" stroke="#e28343" fill="none">
		<title>.id(nerve_feature_23_outline)</title>
	</path>
	<path d="M -9.168303668315803 266.2449787674374 C -9.148796529739318 266.43240704648247, -9.129289391158553 266.61983532556627, -9.109782252591462 266.80726360460966" stroke="#01136e" fill="none">
		<title>.id(nerve_feature_24)</title>
	</path>
	<path d="M -11.15755867808251 266.452016218441 C -11.138051539506025 266.63944449748607, -11.11854440093533 266.82687277647307, -11.099037262368238 267.01430105551646 C -11.079530123801147 267.20172933455984, -7.101020104247594 266.78765443274625, -7.120527242814685 266.60022615370286 C -7.140034381381776 266.4127978746595, -7.159541519972612 266.22536959547887, -7.179048658549096 266.0379413164338 C -7.1985557971255805 265.8505130373887, -11.177065816658994 266.2645879393959, -11.15755867808251 266.452016218441" stroke="#e28343" fill="none">
		<title>.id(nerve_feature_24_outline)</title>
	</path>
	<path d="M -0.6750575835615689 264.30740898648827 C -0.45898893362695437 264.38740685866617, -0.24292028364982815 264.46740473091626, -0.026851633712246914 264.5474026030591" stroke="#01136e" fill="none">
		<title>.id(nerve_feature_25)</title>
	</path>
	<path d="M -1.3694759633356814 266.18298439521806 C -1.153407313401067 266.26298226739596, -0.9373386631478129 266.34298013974825, -0.7212700132102317 266.4229780118911 C -0.5052013632726504 266.5029758840339, 0.8836353957233192 262.7518250663699, 0.6675667457857379 262.6718271942271 C 0.45149809584815664 262.59182932208427, 0.2354294461471581 262.5118314499364, 0.019360796212543607 262.4318335777585 C -0.1967078537220709 262.3518357055806, -1.585544613270296 266.10298652304016, -1.3694759633356814 266.18298439521806" stroke="#e28343" fill="none">
		<title>.id(nerve_feature_25_outline)</title>
	</path>
	<path d="M 6.784918301572952 238.56776620785345 C 6.64153563116728 238.41403012891334, 6.498152960764333 238.26029405004863, 6.354770290357773 238.1065579711023" stroke="#01136e" fill="none">
		<title>.id(nerve_feature_26)</title>
	</path>
	<path d="M 8.247523878752897 237.20366030082053 C 8.104141208347226 237.04992422188042, 7.960758537967607 236.89618814304072, 7.817375867561046 236.74245206409438 C 7.673993197154486 236.58871598514804, 4.748782042747939 239.31692779916386, 4.892164713154499 239.4706638781102 C 5.03554738356106 239.62439995705654, 5.178930053987335 239.77813603594626, 5.322312724393006 239.93187211488637 C 5.4656953947986775 240.0856081938265, 8.390906549158569 237.35739637976064, 8.247523878752897 237.20366030082053" stroke="#e28343" fill="none">
		<title>.id(nerve_feature_26_outline)</title>
	</path>
	<path d="M -14.591357530454705 268.07879986615393 C -14.496058696129127 268.1730223042217, -14.400759861832379 268.2672447423966, -14.305461027509182 268.3614671804543" stroke="#01136e" fill="none">
		<title>.id(nerve_feature_27)</title>
	</path>
	<path d="M -15.99751631157125 269.50102259213213 C -15.902217477245673 269.5952450301999, -15.806918642890755 269.6894674684323, -15.711619808567558 269.78368990649005 C -15.616320974244362 269.8779123445478, -12.804003412127608 267.0334668924763, -12.899302246450805 266.9392444544186 C -12.994601080774002 266.8450220163609, -13.089899915012582 266.7507995782435, -13.18519874933816 266.6565771401757 C -13.280497583663736 266.56235470210794, -16.09281514589683 269.40680015406434, -15.99751631157125 269.50102259213213" stroke="#e28343" fill="none">
		<title>.id(nerve_feature_27_outline)</title>
	</path>
	<path d="M -26.30692098591795 288.1961897592005 C -26.168228505549237 288.28320718219436, -26.02953602511844 288.3702246052763, -25.89084354475158 288.45724202826983" stroke="#01136e" fill="none">
		<title>.id(nerve_feature_28)</title>
	</path>
	<path d="M -27.369856589385357 289.89034674805407 C -27.231164109016643 289.97736417104795, -27.092471628593053 290.06438159412534, -26.953779148226193 290.1513990171189 C -26.815086667859333 290.2384164401124, -24.689215460910106 286.8501024624143, -24.827907941276965 286.7630850394208 C -24.966600421643825 286.67606761642725, -25.105292902081832 286.58905019334077, -25.243985382450546 286.5020327703469 C -25.38267786281926 286.415015347353, -27.50854906975407 289.8033293250602, -27.369856589385357 289.89034674805407" stroke="#e28343" fill="none">
		<title>.id(nerve_feature_28_outline)</title>
	</path>
	<path d="M -13.758391372341395 271.2992232029818 C -13.582161891142189 271.3944851720712, -13.405932409953964 271.48974714129906, -13.229702928758016 271.585009110424" stroke="#01136e" fill="none">
		<title>.id(nerve_feature_29)</title>
	</path>
	<path d="M -14.709446997387245 273.0586245779013 C -14.533217516188039 273.1538865469907, -14.356988035287904 273.24914851606286, -14.180758554091955 273.3444104851878 C -14.004529072896007 273.4396724543127, -12.102417822228128 269.9208697047851, -12.278647303424076 269.8256077356602 C -12.454876784620025 269.73034576653527, -12.631106266096339 269.6350837971517, -12.807335747295545 269.5398218280623 C -12.98356522849475 269.4445598589729, -14.88567647858645 272.9633626088119, -14.709446997387245 273.0586245779013" stroke="#e28343" fill="none">
		<title>.id(nerve_feature_29_outline)</title>
	</path>
	<path d="M -14.197961304907253 269.81035043156646 C -14.40241748076825 269.6959360341874, -14.606873656668212 269.5815216366249, -14.811329832537233 269.4671072392193" stroke="#01136e" fill="none">
		<title>.id(nerve_feature_30)</title>
	</path>
	<path d="M -13.221281381470225 268.0650434880304 C -13.425737557331223 267.9506290906514, -13.630193733087438 267.8362146931693, -13.83464990895646 267.72180029576367 C -14.03910608482548 267.607385898358, -15.992465931987027 271.0979997852692, -15.788009756118006 271.2124141826749 C -15.583553580248985 271.32682858008053, -15.379097404205277 271.44124297772345, -15.17464122834428 271.5556573751025 C -14.970185052483282 271.67007177248155, -13.016825205609228 268.1794578854095, -13.221281381470225 268.0650434880304" stroke="#e28343" fill="none">
		<title>.id(nerve_feature_30_outline)</title>
	</path>
	<path d="M -23.442024159263482 283.360113631159 C -23.77686340288033 283.19244525794875, -24.111702646541183 283.02477688458845, -24.446541890160645 282.8571085113655" stroke="#01136e" fill="none">
		<title>.id(nerve_feature_31)</title>
	</path>
	<path d="M -22.54653429308716 281.5717909814183 C -22.881373536704007 281.40412260820807, -23.216212780316077 281.2364542348722, -23.55105202393554 281.06878586164925 C -23.885891267555003 280.9011174884263, -25.676871000005214 284.47776278785875, -25.34203175638575 284.6454311610817 C -25.007192512766288 284.8130995343047, -24.672353269056654 284.9807679076894, -24.337514025439805 285.14843628089966 C -24.002674781822957 285.3161046541099, -22.21169504947031 281.73945935462854, -22.54653429308716 281.5717909814183" stroke="#e28343" fill="none">
		<title>.id(nerve_feature_31_outline)</title>
	</path>
	<path d="M -27.231305850356968 289.23101114395274 C -27.533064146481944 289.0277005815699, -27.834822442686324 288.8243900189333, -28.136580738804625 288.62107945659517" stroke="#01136e" fill="none">
		<title>.id(nerve_feature_32)</title>
	</path>
	<path d="M -26.11378146397832 287.572355288795 C -26.415539760103297 287.36904472641214, -26.717298056459796 287.16573416367305, -27.019056352578097 286.96242360133493 C -27.3208146486964 286.7591130389968, -29.555863421149454 290.0764247495173, -29.254105125031153 290.2797353118554 C -28.95234682891285 290.4830458741935, -28.650588532860592 290.68635643672764, -28.348830236735616 290.8896669991105 C -28.04707194061064 291.09297756149334, -25.812023167853344 287.77566585117785, -26.11378146397832 287.572355288795" stroke="#e28343" fill="none">
		<title>.id(nerve_feature_32_outline)</title>
	</path>
	<path d="M -13.002356934848553 42.65097919745908 C -13.078869557214645 42.7206061010843, -13.155382179575112 42.79023300470057, -13.231894801940994 42.85985990832641" stroke="#01136e" fill="none">
		<title>.id(nerve_feature_33)</title>
	</path>
	<path d="M -14.348443027833548 41.171772575559224 C -14.42495565019964 41.241399479184444, -14.501468272568736 41.31102638280856, -14.577980894934619 41.38065328643441 C -14.654493517300502 41.450280190060255, -11.962321331313252 44.40869343384426, -11.88580870894737 44.33906653021842 C -11.809296086581487 44.26943962659257, -11.73278346422965 44.199812722984156, -11.656270841863558 44.130185819358935 C -11.579758219497466 44.060558915733715, -14.271930405467456 41.102145671934004, -14.348443027833548 41.171772575559224" stroke="#e28343" fill="none">
		<title>.id(nerve_feature_33_outline)</title>
	</path>
	<path d="M 10.915033301620799 231.24237542772283 C 10.764023437960711 231.20692878174495, 10.613013574259178 231.1714821357902, 10.462003710598903 231.1360354898202 M -0.9568377537239039 264.08416589438275 C -0.877210723266138 264.18117211175706, -0.7975836927658548 264.27817832914786, -0.717956662305157 264.3751845465505 M -2.0212486554901092 264.5639198483648 C -2.044963836823553 264.5351866622044, -2.0686790181348895 264.5064534760779, -2.092394199467789 264.4777202899193 M -9.168303668315803 266.2449787674374 C -9.148796529739318 266.43240704648247, -9.129289391158553 266.61983532556627, -9.109782252591462 266.80726360460966 M -14.591357530454705 268.07879986615393 C -14.496058696129127 268.1730223042217, -14.400759861832379 268.2672447423966, -14.305461027509182 268.3614671804543 M -26.30692098591795 288.1961897592005 C -26.168228505549237 288.28320718219436, -26.02953602511844 288.3702246052763, -25.89084354475158 288.45724202826983 M -13.758391372341395 271.2992232029818 C -13.582161891142189 271.3944851720712, -13.405932409953964 271.48974714129906, -13.229702928758016 271.585009110424 M -14.197961304907253 269.81035043156646 C -14.40241748076825 269.6959360341874, -14.606873656668212 269.5815216366249, -14.811329832537233 269.4671072392193 M -23.442024159263482 283.360113631159 C -23.77686340288033 283.19244525794875, -24.111702646541183 283.02477688458845, -24.446541890160645 282.8571085113655 M -27.231305850356968 289.23101114395274 C -27.533064146481944 289.0277005815699, -27.834822442686324 288.8243900189333, -28.136580738804625 288.62107945659517" stroke="#01136e" fill="none">
		<title>.id(nerve_feature_34)</title>
	</path>
	<path d="M 11.3720723724019 229.29529677297373 C 11.221062508741813 229.25985012699584, 11.070052644943535 229.22440348101838, 10.919042781283261 229.18895683504837 C 10.768032917622987 229.15351018907836, 9.853954776254271 233.047667498622, 10.004964639914546 233.083114144592 C 10.15597450357482 233.11856079056201, 10.30698436717961 233.15400743649406, 10.457994230839697 233.18945408247194 C 10.609004094499785 233.22490072844982, 11.523082236061988 229.3307434189516, 11.3720723724019 229.29529677297373 M -2.502732947717644 265.353105628644 C -2.423105917259878 265.45011184601833, -2.343478886918279 265.5471180632158, -2.263851856457581 265.6441242806184 C -2.1842248259968833 265.74113049802105, 0.907565562307965 263.20325102988517, 0.8279385318472672 263.10624481248254 C 0.7483115013865693 263.0092385950799, 0.668684470727602 262.9122323774958, 0.5890574402698361 262.8152261601215 C 0.5094304098120702 262.71821994274717, -2.58235997817541 265.2560994112697, -2.502732947717644 265.353105628644 M -0.47877363404652984 263.29082487617194 C -0.5024888153799738 263.2620916900116, -0.5262039967152914 263.23335850385604, -0.5499191780481909 263.20462531769743 C -0.5736343593810904 263.17589213153883, -3.6585844022202867 265.7220820759826, -3.634869220887387 265.7508152621412 C -3.6111540395544877 265.7795484482998, -3.5874388582671326 265.80828163439725, -3.5637236769336886 265.8370148205576 C -3.5400084956002447 265.865748006718, -0.45505845271308587 263.3195580623323, -0.47877363404652984 263.29082487617194 M -11.15755867808251 266.452016218441 C -11.138051539506025 266.63944449748607, -11.11854440093533 266.82687277647307, -11.099037262368238 267.01430105551646 C -11.079530123801147 267.20172933455984, -7.101020104247594 266.78765443274625, -7.120527242814685 266.60022615370286 C -7.140034381381776 266.4127978746595, -7.159541519972612 266.22536959547887, -7.179048658549096 266.0379413164338 C -7.1985557971255805 265.8505130373887, -11.177065816658994 266.2645879393959, -11.15755867808251 266.452016218441 M -15.99751631157125 269.50102259213213 C -15.902217477245673 269.5952450301999, -15.806918642890755 269.6894674684323, -15.711619808567558 269.78368990649005 C -15.616320974244362 269.8779123445478, -12.804003412127608 267.0334668924763, -12.899302246450805 266.9392444544186 C -12.994601080774002 266.8450220163609, -13.089899915012582 266.7507995782435, -13.18519874933816 266.6565771401757 C -13.280497583663736 266.56235470210794, -16.09281514589683 269.40680015406434, -15.99751631157125 269.50102259213213 M -27.369856589385357 289.89034674805407 C -27.231164109016643 289.97736417104795, -27.092471628593053 290.06438159412534, -26.953779148226193 290.1513990171189 C -26.815086667859333 290.2384164401124, -24.689215460910106 286.8501024624143, -24.827907941276965 286.7630850394208 C -24.966600421643825 286.67606761642725, -25.105292902081832 286.58905019334077, -25.243985382450546 286.5020327703469 C -25.38267786281926 286.415015347353, -27.50854906975407 289.8033293250602, -27.369856589385357 289.89034674805407 M -14.709446997387245 273.0586245779013 C -14.533217516188039 273.1538865469907, -14.356988035287904 273.24914851606286, -14.180758554091955 273.3444104851878 C -14.004529072896007 273.4396724543127, -12.102417822228128 269.9208697047851, -12.278647303424076 269.8256077356602 C -12.454876784620025 269.73034576653527, -12.631106266096339 269.6350837971517, -12.807335747295545 269.5398218280623 C -12.98356522849475 269.4445598589729, -14.88567647858645 272.9633626088119, -14.709446997387245 273.0586245779013 M -13.221281381470225 268.0650434880304 C -13.425737557331223 267.9506290906514, -13.630193733087438 267.8362146931693, -13.83464990895646 267.72180029576367 C -14.03910608482548 267.607385898358, -15.992465931987027 271.0979997852692, -15.788009756118006 271.2124141826749 C -15.583553580248985 271.32682858008053, -15.379097404205277 271.44124297772345, -15.17464122834428 271.5556573751025 C -14.970185052483282 271.67007177248155, -13.016825205609228 268.1794578854095, -13.221281381470225 268.0650434880304 M -22.54653429308716 281.5717909814183 C -22.881373536704007 281.40412260820807, -23.216212780316077 281.2364542348722, -23.55105202393554 281.06878586164925 C -23.885891267555003 280.9011174884263, -25.676871000005214 284.47776278785875, -25.34203175638575 284.6454311610817 C -25.007192512766288 284.8130995343047, -24.672353269056654 284.9807679076894, -24.337514025439805 285.14843628089966 C -24.002674781822957 285.3161046541099, -22.21169504947031 281.73945935462854, -22.54653429308716 281.5717909814183 M -26.11378146397832 287.572355288795 C -26.415539760103297 287.36904472641214, -26.717298056459796 287.16573416367305, -27.019056352578097 286.96242360133493 C -27.3208146486964 286.7591130389968, -29.555863421149454 290.0764247495173, -29.254105125031153 290.2797353118554 C -28.95234682891285 290.4830458741935, -28.650588532860592 290.68635643672764, -28.348830236735616 290.8896669991105 C -28.04707194061064 291.09297756149334, -25.812023167853344 287.77566585117785, -26.11378146397832 287.572355288795" stroke="#e28343" fill="none">
		<title>.id(nerve_feature_34_outline)</title>
	</path>
	<path d="M 11.707980738579987 76.02955779592338 C 12.078412710924136 75.15528209616157, 12.902458748831492 74.5054916168753, 13.880360840910976 74.42700399734423" stroke="#01136e" fill="none">
		<title>.id(nerve_feature_35)</title>
	</path>
	<path d="M 13.54950221267069 76.8098133056526 C 13.919934185014839 75.93553760589079, 13.062466650942394 76.4990807097583, 14.040368743021878 76.42059309022723 C 15.018270835101362 76.34210547069615, 14.698255030879558 72.35492728493016, 13.720352938800074 72.43341490446123 C 12.74245084672059 72.5119025239923, 10.236891236833433 74.37502658643236, 9.866459264489285 75.24930228619417 C 9.496027292145136 76.12357798595598, 13.179070240326542 77.6840890054144, 13.54950221267069 76.8098133056526" stroke="#e28343" fill="none">
		<title>.id(nerve_feature_35_outline)</title>
	</path>
	<path d="M 28.42715384252566 121.75628055550771 C 28.24026728773315 121.76338015656664, 28.053380732930922 121.7704797576223, 27.86649417813965 121.77757935868541" stroke="#01136e" fill="none">
		<title>.id(nerve_feature_36)</title>
	</path>
	<path d="M 28.351230952226885 119.7577221463716 C 28.164344397434377 119.76482174743053, 27.97745784258688 119.77192134848791, 27.790571287795608 119.77902094955103 C 27.603684733004336 119.78612055061414, 27.75553051369242 123.78323736888292, 27.942417068483692 123.7761377678198 C 28.129303623274964 123.76903816675669, 28.316190178031924 123.76193856570275, 28.503076732824432 123.75483896464382 C 28.68996328761694 123.7477393635849, 28.538117507019393 119.75062254531268, 28.351230952226885 119.7577221463716" stroke="#e28343" fill="none">
		<title>.id(nerve_feature_36_outline)</title>
	</path>
	<path d="M -24.496896441504827 27.079349119541767 C -24.61944976252804 26.929957411420677, -24.74200308355437 26.78056570326931, -24.86455640457772 26.631173995140603 M -25.76664548265005 27.700260474386006 C -26.312448484055007 27.757839217879646, -26.858251485487664 27.81541796132078, -27.404054486898772 27.872996704804667" stroke="#01136e" fill="none">
		<title>.id(nerve_feature_37)</title>
	</path>
	<path d="M -22.950625403035627 25.810867398904303 C -23.073178724058838 25.661475690783213, -23.195732045054157 25.512083982669647, -23.318285366077507 25.36269227454094 C -23.440838687100857 25.213300566412233, -26.53338076410128 27.75026400761156, -26.41082744307793 27.899655715740266 C -26.28827412205458 28.049047423868974, -26.16572080099724 28.19843913205814, -26.043167479974027 28.34783084017923 C -25.920614158950816 28.49722254830032, -22.828072082012415 25.960259107025394, -22.950625403035627 25.810867398904303 M -25.97646843621196 25.711297345477238 C -26.52227143761692 25.768876088970877, -27.06807443901209 25.826454832408057, -27.6138774404232 25.884033575891944 C -28.159680441834308 25.94161231937583, -27.740034534785455 29.919538577201276, -27.194231533374346 29.86195983371739 C -26.648428531963237 29.804381090233502, -26.102625530493096 29.746802346788414, -25.556822529088137 29.689223603294774 C -25.011019527683178 29.631644859801135, -25.430665434807 25.6537186019836, -25.97646843621196 25.711297345477238" stroke="#e28343" fill="none">
		<title>.id(nerve_feature_37_outline)</title>
	</path>
	<path d="M -36.64159479721608 7.957722451254925 C -34.589085763315104 11.168161006832916, -32.536512242498105 14.37870619327788, -30.483875667672752 17.588941592086826 C -28.431239092847395 20.799176990895763, -26.37726391945833 24.011143022728124, -24.325362006095755 27.218977532632298 C -22.27346009273319 30.426812042536476, -20.63419008265932 33.97224455338077, -17.765478749163645 36.37084080452253 C -14.896767415667963 38.7694370556643, -13.1966194228849 42.161309353147644, -11.226326935755555 45.49882840186427 C -9.256034448626218 48.8363474505809, -5.739417551216264 50.96929029886436, -3.122566796214448 53.788063942787254 C -0.5057160412126347 56.606837586710135, 2.534597460315801 58.73953929264759, 4.582114220268144 62.00237838248507 C 6.629630980220491 65.26521747232253, 10.070895338048093 67.67217631167651, 12.25174840414018 71.283091768425 C 14.432601470232267 74.8940072251735, 15.76664362328897 75.974279776954, 17.588189779158704 79.69214544260377 C 19.40973593502843 83.41001110825358, 21.278944135072855 87.45414810273566, 22.13559576906509 90.82804170358196 C 22.992247403057323 94.20193530442828, 23.94139628912693 96.09394250240673, 24.589090125680357 98.70722359634335 C 25.23678396223379 101.32050469027996, 25.481914849990503 103.98598683871815, 26.137747650711866 105.41832789651188 C 26.79358045143324 106.85066895430563, 26.26350053684458 110.50459003561183, 28.004670758635513 115.53885656051759 C 29.745840980426436 120.57312308542336, 28.545257359480892 125.21683416570228, 28.47330654503911 129.75749387459626 C 28.401355730597345 134.29815358349026, 28.17586881360658 138.4715512987472, 28.72203299906332 142.94625455541401 C 29.26819718452006 147.42095781208081, 29.863310864368675 151.99437211386825, 29.06808789026668 156.55445752076943 C 28.272864916164682 161.11454292767056, 26.839275671705774 165.60869378101734, 26.436337507354427 170.0032165585584 C 26.033399343003087 174.39773933609945, 23.32879140855422 178.69576450731597, 23.202835307102635 182.8430044011591" stroke="#01136e" fill="none">
		<title>.id(nerve_feature_38)</title>
	</path>
	<path d="M -38.326654919873654 9.035021102061306 C -36.27414588597268 12.245459657639296, -34.22151104230567 15.456100756400906, -32.16887446748032 18.66633615520985 C -30.11623789265496 21.87657155401879, -28.062071882850297 25.088835987579902, -26.01016996948772 28.296670497484076 C -23.958268056125156 31.504505007388254, -21.917083449167777 35.50657978733996, -19.0483721156721 37.90517603848172 C -16.179660782176416 40.30377228962349, -14.918896749036527 43.17804964045016, -12.948604261907182 46.51556868916679 C -10.978311774777847 49.85308773788342, -7.205155406163755 52.33003000232492, -4.588304651161938 55.14880364624781 C -1.9714538961601231 57.967577290170695, 0.8405269827415409 59.80261276941734, 2.888043742693884 63.065451859254814 C 4.935560502646233 66.32829094909228, 8.358908632721747 68.70614996742691, 10.539761698813834 72.3170654241754 C 12.720614764905921 75.9279808809239, 13.970623315367849 76.8542292377385, 15.792169471237582 80.57209490338826 C 17.613715627107304 84.28996056903807, 19.34045378173986 87.94634232256652, 20.197105415732096 91.32023592341282 C 21.053757049724325 94.69412952425914, 22.00013184723435 96.57507903879062, 22.647825683787776 99.18836013272724 C 23.29551952034121 101.80164122666385, 23.663469476956024 104.81860705543733, 24.319302277677387 106.25094811323106 C 24.975135078398765 107.68328917102482, 24.373358949698005 111.15832146405857, 26.114529171488936 116.19258798896433 C 27.85569939327986 121.22685451387011, 26.5455084045759 125.18514635485342, 26.47355759013412 129.7258060637474 C 26.401606775692354 134.2664657726414, 26.190602054876397 138.71386493163016, 26.736766240333136 143.18856818829698 C 27.282930425789875 147.66327144496378, 27.893045444631685 151.6507819862618, 27.09782247052969 156.21086739316297 C 26.302599496427693 160.7709528000641, 24.847630267642646 165.42607783298917, 24.4446921032913 169.82060061053022 C 24.04175393893996 174.2151233880713, 21.32971317264763 178.63505036790355, 21.203757071196044 182.78229026174668 C 21.07780096974446 186.92953015558982, 25.07595744155764 187.05095843441467, 25.201913543009226 182.90371854057153 C 25.32786964446081 178.7564786467284, 28.025044747066215 174.5803552841276, 28.42798291141756 170.18583250658654 C 28.830921075768902 165.7913097290455, 30.24313033590167 161.45813305527702, 31.038353310003668 156.89804764837587 C 31.833576284105664 152.3379622414747, 31.253463943250242 147.17864417919785, 30.707299757793503 142.70394092253102 C 30.161135572336764 138.22923766586422, 30.401104685502336 134.32984139433913, 30.47305549994411 129.78918168544516 C 30.545006314385883 125.24852197655115, 31.635982567573013 119.91939165697661, 29.894812345782086 114.88512513207085 C 28.15364212399116 109.85085860716508, 28.612025824467715 106.01804873758644, 27.956193023746344 104.5857076797927 C 27.30036022302498 103.15336662199897, 27.178048404126372 100.83936815389607, 26.530354567572942 98.22608705995945 C 25.882660731019513 95.61280596602285, 24.93073775639032 93.70974108459741, 24.07408612239809 90.33584748375111 C 23.21743448840585 86.9619538829048, 21.205756242949555 82.5300616474691, 19.384210087079822 78.8121959818193 C 17.562663931210093 75.09433031616952, 16.144588175558614 73.8600335694231, 13.963735109466526 70.24911811267461 C 11.782882043374439 66.63820265592611, 8.32370145779475 64.20214399555279, 6.276184697842404 60.93930490571531 C 4.2286679378900605 57.67646581587785, 0.9600218137348537 55.246097883249575, -1.6568289412669615 52.42732423932669 C -4.273679696268774 49.6085505954038, -7.533757122474591 47.819607163278384, -9.504049609603932 44.482088114561755 C -11.474342096733274 41.144569065845126, -13.613874049159508 37.23510182170511, -16.482585382655188 34.83650557056335 C -19.351296716150863 32.43790931942158, -20.58865212934122 29.349119077684698, -22.64055404270379 26.141284567780524 C -24.69245595606636 22.933450057876346, -26.74624029303983 19.721782427772737, -28.798876867865182 16.511547028963793 C -30.85151344269054 13.301311630154855, -32.90402564065753 10.090862356026536, -34.956534674558505 6.880423800448545 C -37.00904370845948 3.6699852448705546, -40.37916395377463 5.824582546483315, -38.326654919873654 9.035021102061306" stroke="#e28343" fill="none">
		<title>.id(nerve_feature_38_outline)</title>
	</path>
	<path d="M -21.530690255461945 30.52560917252621 C -21.38566217650772 30.40833732507763, -21.240634097559912 30.29106547763382, -21.09560601860427 30.17379363018256" stroke="#01136e" fill="none">
		<title>.id(nerve_feature_39)</title>
	</path>
	<path d="M -20.273148025579186 32.080790043055906 C -20.12811994662496 31.963518195607325, -19.98309186766722 31.84624634815548, -19.838063788711576 31.72897450070422 C -19.693035709755932 31.61170265325296, -22.208120169541317 28.50134091220964, -22.35314824849696 28.6186127596609 C -22.498176327452605 28.73588460711216, -22.643204406390478 28.853156454547932, -22.788232485344704 28.970428301996513 C -22.93326056429893 29.087700149445094, -20.418176104533412 32.19806189050449, -20.273148025579186 32.080790043055906" stroke="#e28343" fill="none">
		<title>.id(nerve_feature_39_outline)</title>
	</path>
	<path d="M 4.122840818335436 248.60943970462574 C 3.7314157425833505 248.53364937254807, 3.3399906668577852 248.457859040378, 2.9485655910985273 248.38206870827784 M 2.472116995813363 252.9251950157673 C 1.7801828553909873 252.7451211573817, 1.0882487150197826 252.56504729917475, 0.39631457460792596 252.3849734407902 M 2.6798378733534087 253.95999738061136 C 2.360772030269362 253.70877547812552, 2.0417061872221147 253.45755357560162, 1.7226403441388587 253.20633167312567 M -0.6750575835615689 264.30740898648827 C -0.45898893362695437 264.38740685866617, -0.24292028364982815 264.46740473091626, -0.026851633712246914 264.5474026030591" stroke="#01136e" fill="none">
		<title>.id(nerve_feature_40)</title>
	</path>
	<path d="M 4.5030327818895435 246.6459086835189 C 4.111607706137458 246.57011835144124, 3.7201826305138783 246.4943280192909, 3.3287575547546204 246.41853768719074 C 2.9373324789953625 246.34274735509058, 2.1769485516831764 250.2698093972648, 2.5683736274424342 250.34559972936495 C 2.959798703201692 250.4213900614651, 3.351223779029243 250.4971803936549, 3.7426488547813284 250.57297072573257 C 4.134073930533414 250.64876105781025, 4.894457857641629 246.72169901559658, 4.5030327818895435 246.6459086835189 M 2.9758326841155753 250.98966653358 C 2.2838985436931996 250.8095926751944, 1.5919644033264864 250.62951881698862, 0.9000302629146297 250.44944495860406 C 0.2080961225027731 250.2693711002195, -0.7993352541106344 254.14042806459176, -0.1074011136987778 254.32050192297632 C 0.5845330267130788 254.50057578136088, 1.276467167088775 254.680649639569, 1.9684013075111508 254.86072349795458 C 2.6603354479335266 255.04079735634016, 3.667766824537951 251.16974039196558, 2.9758326841155753 250.98966653358 M 3.9170860292739738 252.38862314107732 C 3.5980201861899266 252.13740123859148, 3.2789543431145027 251.88617933604542, 2.9598885000312465 251.63495743356947 C 2.6408226569479902 251.38373553109352, 0.16632634516321487 254.52648401020593, 0.4853921882464709 254.77770591268188 C 0.8044580313297269 255.02892781515783, 1.1235238743487972 255.28014971765955, 1.442589717432844 255.5313716201454 C 1.7616555605168907 255.78259352263123, 4.236151872358021 252.63984504356316, 3.9170860292739738 252.38862314107732 M -1.3694759633356814 266.18298439521806 C -1.153407313401067 266.26298226739596, -0.9373386631478129 266.34298013974825, -0.7212700132102317 266.4229780118911 C -0.5052013632726504 266.5029758840339, 0.8836353957233192 262.7518250663699, 0.6675667457857379 262.6718271942271 C 0.45149809584815664 262.59182932208427, 0.2354294461471581 262.5118314499364, 0.019360796212543607 262.4318335777585 C -0.1967078537220709 262.3518357055806, -1.585544613270296 266.10298652304016, -1.3694759633356814 266.18298439521806" stroke="#e28343" fill="none">
		<title>.id(nerve_feature_40_outline)</title>
	</path>
	<path d="M 14.480430820132629 220.489019268589 C 14.021130235795766 220.41125101092763, 13.561829651434266 220.3334827533461, 13.102529067090828 220.25571449565578 M 16.501380274329538 222.7930752887304 C 16.82563423731475 223.00863895315405, 17.149888200316795 223.22420261764952, 17.474142163302794 223.43976628209086 M 10.641369746227102 235.19543068738534 C 11.09030447738096 235.39270878474932, 11.539239208488704 235.58998688224105, 11.988173939640438 235.78726497961424 M 6.784918301572952 238.56776620785345 C 6.64153563116728 238.41403012891334, 6.498152960764333 238.26029405004863, 6.354770290357773 238.1065579711023" stroke="#01136e" fill="none">
		<title>.id(nerve_feature_41)</title>
	</path>
	<path d="M 14.814316325444981 218.51708608783912 C 14.355015741108119 218.43931783017774, 13.89571515686273 218.36154957261587, 13.436414572519292 218.28378131492556 C 12.977113988175853 218.20601305723525, 12.309342977318925 222.1498794186957, 12.768643561662364 222.227647676386 C 13.227944146005802 222.3054159340763, 13.687244730483414 222.38318419167751, 14.146545314820276 222.4609524493389 C 14.605845899157138 222.53872070700027, 15.273616909781843 218.5948543455005, 14.814316325444981 218.51708608783912 M 15.394134511019065 224.4586102837488 C 15.718388474004275 224.67417394817247, 16.04264243694522 224.88973761262733, 16.366896399931218 225.10530127706866 C 16.691150362917217 225.32086494151, 18.90564188966037 221.9897949515544, 18.58138792667437 221.77423128711305 C 18.25713396368837 221.55866762267172, 17.93288000062522 221.34310395813563, 17.60862603764001 221.12754029371197 C 17.2843720746548 220.91197662928832, 15.069880548033854 224.24304661932516, 15.394134511019065 224.4586102837488 M 9.83675774620677 237.02644120877054 C 10.285692477360627 237.2237193061345, 10.734627208433704 237.420997403611, 11.183561939585438 237.6182755009842 C 11.632496670737172 237.81555359835738, 13.241720670847172 234.15353255561746, 12.792785939695438 233.95625445824427 C 12.343851208543704 233.7589763608711, 11.894916477401292 233.56169826336412, 11.445981746247435 233.36442016600014 C 10.997047015093578 233.16714206863617, 9.387823015052913 236.82916311140656, 9.83675774620677 237.02644120877054 M 8.247523878752897 237.20366030082053 C 8.104141208347226 237.04992422188042, 7.960758537967607 236.89618814304072, 7.817375867561046 236.74245206409438 C 7.673993197154486 236.58871598514804, 4.748782042747939 239.31692779916386, 4.892164713154499 239.4706638781102 C 5.03554738356106 239.62439995705654, 5.178930053987335 239.77813603594626, 5.322312724393006 239.93187211488637 C 5.4656953947986775 240.0856081938265, 8.390906549158569 237.35739637976064, 8.247523878752897 237.20366030082053" stroke="#e28343" fill="none">
		<title>.id(nerve_feature_41_outline)</title>
	</path>
	<path d="M -9.009077945486208 47.35753502910519 C -8.866868482753581 47.19329692451879, -8.724659020022134 47.029058819933034, -8.58244955729152 46.86482071534488" stroke="#01136e" fill="none">
		<title>.id(nerve_feature_42)</title>
	</path>
	<path d="M -7.497106583400179 48.66671133512044 C -7.354897120667553 48.50247323053404, -7.212687657920013 48.33823512592969, -7.070478195189399 48.173997021341535 C -6.928268732458785 48.00975891675338, -9.95221145666303 45.39140630476006, -10.094420919393642 45.55564440934822 C -10.236630382124254 45.719882513936376, -10.37883984483961 45.884120618503545, -10.521049307572238 46.04835872308995 C -10.663258770304864 46.21259682767635, -7.639316046132806 48.83094943970684, -7.497106583400179 48.66671133512044" stroke="#e28343" fill="none">
		<title>.id(nerve_feature_42_outline)</title>
	</path>
	<path d="M 22.667810361261978 181.68459241280226 C 22.348142738158078 181.53270139776762, 22.028475115096622 181.38081038289226, 21.708807492001117 181.2289193678518" stroke="#01136e" fill="none">
		<title>.id(nerve_feature_43)</title>
	</path>
	<path d="M 23.52614942076279 179.8781445007563 C 23.20648179765889 179.72625348572166, 22.886814174642684 179.57436247086778, 22.56714655154718 179.42247145582732 C 22.247478928451674 179.27058044078686, 20.53080080935955 182.88347626483582, 20.850468432455056 183.03536727987628 C 21.17013605555056 183.18725829491675, 21.489803678657267 183.3391493098136, 21.809471301761167 183.49104032484823 C 22.129138924865067 183.64293133988286, 23.84581704386669 180.03003551579093, 23.52614942076279 179.8781445007563" stroke="#e28343" fill="none">
		<title>.id(nerve_feature_43_outline)</title>
	</path>
	<path d="M -19.3369938821288 35.81380000393763 C -19.513622495873584 35.98675531019444, -19.69025110982499 36.159710616588335, -19.866879723567603 36.33266592285131" stroke="#01136e" fill="none">
		<title>.id(nerve_feature_44)</title>
	</path>
	<path d="M -20.73627012973461 34.38480525836079 C -20.912898743479392 34.5577605646176, -21.08952735746505 34.730715871045035, -21.266155971207663 34.90367117730801 C -21.442784584950275 35.07662648357099, -18.644232089670155 37.93461597465759, -18.467603475927543 37.76166066839461 C -18.29097486218493 37.588705362131634, -18.114346248267776 37.41575005577128, -17.937717634522993 37.242794749514466 C -17.76108902077821 37.069839443257656, -20.559641515989828 34.21184995210398, -20.73627012973461 34.38480525836079" stroke="#e28343" fill="none">
		<title>.id(nerve_feature_44_outline)</title>
	</path>
	<path d="M 19.462243020906232 211.31603264080147 C 19.574164069415392 211.39195325341515, 19.686085117914377 211.46787386575122, 19.798006166426756 211.5437944783702 M 15.615853917314176 223.92553511311064 C 15.828251431759307 223.96779065336406, 16.04064894624025 224.01004619371176, 16.253046460686633 224.05230173397513 M 14.50529688168763 228.5789924910239 C 15.219689419512656 228.8740113726056, 15.934081957345324 229.16903025425623, 16.648474495186566 229.4640491359032" stroke="#01136e" fill="none">
		<title>.id(nerve_feature_45)</title>
	</path>
	<path d="M 18.339501577908308 212.97116153372036 C 18.451422626417468 213.04708214633405, 18.563343674885026 213.1230027586488, 18.675264723397405 213.19892337126777 C 18.787185771909783 213.27484398388674, 21.032668657968486 209.96458619809158, 20.920747609456107 209.8886655854726 C 20.80882656094373 209.81274497285364, 20.696905512413316 209.73682436049626, 20.584984463904156 209.66090374788257 C 20.473063415394996 209.58498313526889, 18.227580529399148 212.89524092110668, 18.339501577908308 212.97116153372036 M 15.225610661849215 225.88709321869 C 15.438008176294346 225.92934875894343, 15.65040569068913 225.971604299274, 15.862803205135513 226.01385983953736 C 16.075200719581897 226.05611537980073, 16.855687230684136 222.13299916867626, 16.643289716237753 222.0907436284129 C 16.43089220179137 222.04848808814953, 16.21849468722427 222.0062325477847, 16.00609717277914 221.96397700753127 C 15.79369965833401 221.92172146727785, 15.013213147404084 225.8448376784366, 15.225610661849215 225.88709321869 M 13.741901019034902 230.42756674078632 C 14.456293556859928 230.722585622368, 15.170686094563079 231.01760450396517, 15.885078632404321 231.31262338561214 C 16.599471170245565 231.6076422672591, 18.12626289581005 227.91049376784122, 17.41187035796881 227.61547488619425 C 16.697477820127567 227.32045600454728, 15.983085282165385 227.0254371228432, 15.26869274434036 226.7304182412615 C 14.554300206515334 226.43539935967982, 13.027508481209876 230.13254785920464, 13.741901019034902 230.42756674078632" stroke="#e28343" fill="none">
		<title>.id(nerve_feature_45_outline)</title>
	</path>
	<path d="M 23.20283530710264 182.8430044011591 C 23.076879205651053 186.99024429500224, 22.850206384144183 191.2019595705049, 22.13332582826053 195.33200705926822 C 21.41644527237688 199.46205454803152, 20.711692794969743 203.2021001172114, 20.221312983264745 206.93745774531186 C 19.73093317155974 210.6728153734124, 17.667857828336345 214.40945517852913, 16.639933278235294 218.1882577887264 C 15.612008728134237 221.96706039892368, 14.076239848013126 225.80480209216387, 12.306743970572015 229.39582691952216 C 10.537248093130897 232.9868517468805, 9.155112691576216 237.29942920851812, 6.210720896799103 239.79440461409888 C 3.266329102021984 242.28938001967967, 6.40365245895174 247.0512792213153, 4.951667452600178 251.1168246091181 C 3.4996824462486202 255.18236999692093, 1.3320667367649635 258.83517631094855, -0.6716460099405834 262.7692381126665 C -2.6753587566461343 266.7032999143846, -7.735445140748077 265.23382728366823, -11.70152834097741 266.2102768825322 C -15.667611541206742 267.1867264813961, -17.849289150152785 270.9886724441053, -19.960224477935842 274.37919251099544 C -22.071159805718892 277.7697125778855, -23.568031228786403 281.8415662188634, -25.289134118574637 285.5198686245312 C -27.01023700836288 289.19817103019915, -29.563544348187126 294.87602240675193, -30.219536546494396 293.1871512645804 C -30.875528744801656 291.4982801224087, -28.219644689247517 287.00441623284445, -26.57754018964779 283.2443205332797 C -24.935435690048077 279.4842248337149, -22.902653299262433 275.6086778890756, -21.365720486259015 272.1930696734078 C -19.82878767325559 268.7774614577401, -17.978583139787748 265.088322746597, -15.33924038216443 262.69509726474365 C -12.69989762454113 260.3018717828904, -9.316574014575487 256.1864596642817, -5.627067094522302 256.0327785878367 C -1.9375601744691138 255.87909751139162, -4.72624489389476 259.97500991612253, -8.05709346483579 262.5928542170469 C -11.387942035776826 265.2106985179714, -12.58765453112465 268.95660133592827, -14.95463966364583 272.1448213934898 C -17.321624796167008 275.3330414510513, -19.41100115231 278.6854724017807, -21.35300801979347 282.04038119099494 C -23.295014887276942 285.39528998020904, -25.467010336145254 288.5999998832227, -27.695657085855196 291.8394033362505 C -29.924303835565112 295.07880678927825, -32.03313951460116 298.3491829980955, -34.183872035885884 301.6173546673028 C -36.33460455717059 304.88552633651005, -38.4838979040259 308.1513936216317, -40.633951755815936 311.41834795275173 C -42.78400560760598 314.6853022838718, -44.93394709456009 317.95201495239945, -47.08400769520423 321.2188675706653 C -49.23406829584837 324.48572018893105, -51.38415431046522 327.7525699658902, -53.53428629718134 331.01946616306293 C -55.68441828389745 334.2863623602358, -57.83458620128501 337.55328946153975, -59.98478786641509 340.82025434553304 C -62.13498953154521 344.0872192295262, -64.28522383495402 347.3542200335844, -66.43548604941344 350.621255173348 C -68.58574826387286 353.88829031311184, -70.73603822675929 357.15535943827757, -72.88635108495369 360.42245826928905 C -75.03666394314811 363.68955710030025, -77.18699964581394 366.956685505287, -79.33735368605211 370.2238384113967 C -81.48770772629025 373.49099131750637, -83.63808007969692 376.75816865978504, -85.78846672890047 380.02536541689733 C -87.93885337810404 383.2925621740095, -90.08925431267016 386.5597783160326, -92.23966601281734 389.82700921075826 C -94.39007771296453 393.0942401054841, -96.540500176884 396.3614857429204, -98.6909303179208 399.6287419511132 C -100.8413604589576 402.8959981593063, -102.9917982797663 406.1632649397025, -105.14224102914547 409.4305385219357 C -107.29268377852468 412.697812104169, -109.44313146073085 415.96509249518107, -111.593581549409 419.2323762102484 C -113.74403163808714 422.4996599253159, -115.89448413849388 425.76694697309074, -118.04493663615371 429.03423401717043" stroke="#01136e" fill="none">
		<title>.id(nerve_feature_46)</title>
	</path>
	<path d="M 21.203757071196048 182.78229026174668 C 21.077800969744462 186.92953015558982, 20.879671141522 190.8599203072851, 20.162790585638348 194.98996779604843 C 19.445910029754696 199.12001528481173, 18.72870775717096 202.94177274664472, 18.23832794546596 206.6771303747452 C 17.747948133760957 210.41248800284572, 15.737986014391556 213.88448395861184, 14.710061464290504 217.6632865688091 C 13.682136914189446 221.4420891790064, 12.282216694737988 224.9207879941356, 10.512720817296877 228.5118128214939 C 8.743224939855759 232.10283764885222, 7.862151304514743 235.77356851646002, 4.91775950973763 238.26854392204078 C 1.9733677149605113 240.76351932762157, 4.5201692976644985 246.37860457399506, 3.0681842913129365 250.44414996179788 C 1.6161992849613784 254.5096953496007, -0.45009139364480877 257.92748010724694, -2.4538041403503557 261.8615419089649 C -4.457516887055911 265.795603710683, -8.213567705826886 263.2918183205678, -12.179650906056219 264.26826791943176 C -16.145734106285552 265.24471751829566, -19.54711514321808 269.9316072156204, -21.658050471001136 273.3221272825105 C -23.768985798784186 276.7126473494006, -25.37953564781678 280.99395089347496, -27.100638537605015 284.67225329914277 C -28.82174142739326 288.3505557048107, -31.427848502595616 295.600156385968, -32.08384070090288 293.91128524379644 C -31.59966272401769 289.6339759680002, -26.386804635623072 287.8048519503321, -24.744700136023347 284.0447562507673 C -23.102595636423633 280.28466055120253, -21.0787921283982 276.42936688584217, -19.54185931539478 273.0137586701744 C -18.00492650239136 269.5981504545067, -16.63513715208226 266.5699275785674, -13.995794394458944 264.17670209671405 C -11.35645163683564 261.7834766148608, -9.233339081970849 258.1847269001624, -5.543832161917664 258.03104582371736 C -3.935827410349816 255.96233244399625, -5.962106611865161 258.4025450312824, -9.292955182806189 261.0203893322068 C -12.623803753747243 263.63823363313134, -14.193481377908546 267.76441001816585, -16.560466510429727 270.95263007572737 C -18.927451642950903 274.1408501332889, -21.141922790700754 277.6835191684656, -23.083929658184225 281.0384279576798 C -25.02593652566769 284.3933367468939, -27.114724403090957 287.46640456143047, -29.3433711528009 290.7058080144582 C -31.57201790251083 293.94521146748605, -33.70382823517184 297.2497289522355, -35.854560756456564 300.5179006214428 C -38.00529327774127 303.78607229065005, -40.154557870793674 307.05189588382615, -42.30461172258371 310.31885021494617 C -44.45466557437375 313.58580454606624, -46.60458975598641 316.8524909200007, -48.75465035663055 320.11934353826655 C -50.90471095727468 323.3861961565323, -53.05478694296976 326.65303069546326, -55.20491892968588 329.919926892636 C -57.355050916402 333.1868230898089, -59.50521308690993 336.45374145939195, -61.65541475204001 339.72070634338525 C -63.805616417170114 342.9876712273784, -65.95584736024614 346.25466692584445, -68.10610957470556 349.52170206560805 C -70.25637178916499 352.78873720537194, -72.4066597033795 356.0558032178617, -74.5569725615739 359.3229020488732 C -76.70728541976831 362.5900008798843, -78.85761980945058 365.8571272899793, -81.00797384968875 369.124280196089 C -83.1583278899269 372.3914331021987, -85.30869936336472 375.65860910749274, -87.45908601256828 378.925805864605 C -89.60947266177185 382.1930026217172, -91.75987298993431 385.4602178423995, -93.91028469008148 388.7274487371252 C -96.06069639022869 391.99467963185106, -98.2111184361299 395.261924634171, -100.3615485771667 398.5291808423638 C -102.51197871820351 401.79643705055696, -104.6624162635343 405.06370341240586, -106.81285901291346 408.33097699463906 C -108.96330176229269 411.5982505768723, -111.11374928714761 414.8655307288129, -113.26419937582575 418.13281444388025 C -115.4146494645039 421.4000981589478, -117.5651019137436 424.66738512898206, -119.71555441140343 427.93467217306176 C -121.86600690906326 431.20195921714145, -118.52477135856381 433.4010829053588, -116.37431886090398 430.1337958612791 C -114.22386636324416 426.8665088171994, -112.07341381167038 423.59922169168397, -109.92296372299224 420.3319379766166 C -107.7725136343141 417.0646542615492, -105.62206579475667 413.79737363146563, -103.47162304537748 410.5301000492324 C -101.3211802959983 407.2628264669992, -99.17074219971168 403.9955592680557, -97.02031205867488 400.72830305986275 C -94.8698819176381 397.46104685166983, -92.71945903570037 394.1938005791172, -90.5690473355532 390.92656968439144 C -88.41863563540602 387.65933878966564, -86.26823409443624 384.3921217263018, -84.11784744523268 381.1249249691896 C -81.96746079602912 377.85772821207735, -79.81708756265361 374.59054953281407, -77.66673352241546 371.3233966267044 C -75.5163794821773 368.0562437205947, -73.36604246652792 364.7891133207162, -71.21572960833352 361.5220144897048 C -69.06541675013908 358.25491565869345, -66.91512473858073 354.98784342085173, -64.76486252412131 351.720808281088 C -62.61460030966191 348.45377314132435, -60.4643626459203 345.186767231674, -58.314160980790206 341.9198023476808 C -56.163959315660094 338.65283746368755, -54.0137856513929 335.38590163066266, -51.86365366467678 332.11900543348986 C -49.71352167796068 328.8521092363171, -47.56342563442205 325.5852442213298, -45.413365033777914 322.318391603064 C -43.26330443313377 319.0515389847982, -41.113345640838205 315.78480002167737, -38.96329178904817 312.51784569055735 C -36.81323793725813 309.2508913594373, -34.66391583659991 305.98498038237005, -32.513183315315196 302.7168087131628 C -30.36245079403048 299.4486370439555, -28.276589768619395 296.21240211107045, -26.047943018909464 292.9729986580426 C -23.81929626919955 289.733595205015, -21.564093248886195 286.3972432135242, -19.622086381402724 283.04233442431 C -17.680079513919246 279.68742563509585, -15.715797949383113 276.52523276881374, -13.348812816861933 273.3370127112522 C -10.981827684340756 270.1487926536907, -10.152080317806409 266.7831634028115, -6.8212317468653785 264.16531910188706 C -3.49038317592436 261.5474748009627, 0.060707061411588326 255.795862578787, -3.6287998586415986 255.94954365523205 C -9.399808947180125 254.188192428401, -14.04334361224662 258.82026695092, -16.68268636986993 261.2134924327733 C -19.322029127493234 263.6067179146266, -21.65264884411982 267.9567724609735, -23.18958165712324 271.3723806766412 C -24.726514470126666 274.787988892309, -26.768275743672522 278.6837891162273, -28.410380243272243 282.44388481579205 C -30.05248474287196 286.2039805153568, -30.15139476558562 293.3625842768172, -29.495402567278354 295.0514554189888 C -27.699240193778635 294.1518884275359, -25.198732589332497 290.0457863555876, -23.47762969954426 286.36748394991974 C -21.756526809756025 282.6891815442519, -20.3733338126536 278.82677780637044, -18.262398484870545 275.4362577394803 C -16.15146315708749 272.04573767259023, -15.189488976127933 269.1287354444965, -11.2234057758986 268.15228584563255 C -7.257322575669266 267.17583624676865, -0.8932006262363574 267.61099611808623, 1.110512120469193 263.6769343163682 C 3.1142248671747357 259.7428725146502, 5.383165607535862 255.85504464424116, 6.835150613887421 251.78949925643835 C 8.287135620238981 247.72395386863553, 4.559290489083457 243.81524071173777, 7.503682283860572 241.320265306157 C 10.448074078637688 238.82528990057622, 12.331271246406034 233.87086584490876, 14.100767123847147 230.27984101755047 C 15.870263001288263 226.68881619019214, 17.541880542079028 222.49203161884097, 18.56980509218008 218.71322900864368 C 19.597729642281134 214.93442639844642, 21.713918209358525 210.93314274397906, 22.204298021063522 207.19778511587856 C 22.694677832768527 203.46242748777806, 23.386980514999063 199.8040938112513, 24.103861070882715 195.67404632248798 C 24.820741626766367 191.5439988337247, 25.075957441557645 187.05095843441467, 25.20191354300923 182.90371854057153 C 25.327869644460815 178.7564786467284, 21.329713172647633 178.63505036790355, 21.203757071196048 182.78229026174668" stroke="#e28343" fill="none">
		<title>.id(nerve_feature_46_outline)</title>
	</path>
	<path d="M 15.951026708465525 76.55739753491835 C 16.510187193651102 76.73714562587395, 16.477879517104654 77.32165086992822, 15.876473229886523 77.45649770854045" stroke="#01136e" fill="none">
		<title>.id(nerve_feature_47)</title>
	</path>
	<path d="M 15.338952994937491 78.46143686466131 C 15.898113480123069 78.64118495561691, 16.040305584866164 75.37010557098552, 15.438899297648032 75.50495240959775 C 14.837493010429899 75.63979924820998, 15.712640874906885 79.54288984609539, 16.314047162125014 79.40804300748316 C 16.915453449343143 79.27319616887092, 17.122260907179136 74.83310629613099, 16.56310042199356 74.6533582051754 C 16.003939936807985 74.4736101142198, 14.779792509751914 78.28168877370571, 15.338952994937491 78.46143686466131" stroke="#e28343" fill="none">
		<title>.id(nerve_feature_47_outline)</title>
	</path>
	<path d="M -36.64159479721608 7.957722451254925 C -34.589085763315104 11.168161006832916, -32.536512242498105 14.37870619327788, -30.483875667672752 17.588941592086826 C -28.431239092847395 20.799176990895763, -26.37726391945833 24.011143022728124, -24.325362006095755 27.218977532632298 C -22.27346009273319 30.426812042536476, -20.63419008265932 33.97224455338077, -17.765478749163645 36.37084080452253 C -14.896767415667963 38.7694370556643, -13.1966194228849 42.161309353147644, -11.226326935755555 45.49882840186427 C -9.256034448626218 48.8363474505809, -5.739417551216264 50.96929029886436, -3.122566796214448 53.788063942787254 C -0.5057160412126347 56.606837586710135, 2.534597460315801 58.73953929264759, 4.582114220268144 62.00237838248507 C 6.629630980220491 65.26521747232253, 10.070895338048093 67.67217631167651, 12.25174840414018 71.283091768425 C 14.432601470232267 74.8940072251735, 15.76664362328897 75.974279776954, 17.588189779158704 79.69214544260377 C 19.40973593502843 83.41001110825358, 21.278944135072855 87.45414810273566, 22.13559576906509 90.82804170358196 C 22.992247403057323 94.20193530442828, 23.94139628912693 96.09394250240673, 24.589090125680357 98.70722359634335 C 25.23678396223379 101.32050469027996, 25.481914849990503 103.98598683871815, 26.137747650711866 105.41832789651188 C 26.79358045143324 106.85066895430563, 26.26350053684458 110.50459003561183, 28.004670758635513 115.53885656051759 C 29.745840980426436 120.57312308542336, 28.545257359480892 125.21683416570228, 28.47330654503911 129.75749387459626 C 28.401355730597345 134.29815358349026, 28.17586881360658 138.4715512987472, 28.72203299906332 142.94625455541401 C 29.26819718452006 147.42095781208081, 29.863310864368675 151.99437211386825, 29.06808789026668 156.55445752076943 C 28.272864916164682 161.11454292767056, 26.839275671705774 165.60869378101734, 26.436337507354427 170.0032165585584 C 26.033399343003087 174.39773933609945, 23.32879140855422 178.69576450731597, 23.202835307102635 182.8430044011591 C 23.076879205651053 186.99024429500224, 22.850206384144183 191.2019595705049, 22.13332582826053 195.33200705926822 C 21.41644527237688 199.46205454803152, 20.711692794969743 203.2021001172114, 20.221312983264745 206.93745774531186 C 19.73093317155974 210.6728153734124, 17.667857828336345 214.40945517852913, 16.639933278235294 218.1882577887264 C 15.612008728134237 221.96706039892368, 14.076239848013126 225.80480209216387, 12.306743970572015 229.39582691952216 C 10.537248093130897 232.9868517468805, 9.155112691576216 237.29942920851812, 6.210720896799103 239.79440461409888 C 3.266329102021984 242.28938001967967, 6.40365245895174 247.0512792213153, 4.951667452600178 251.1168246091181 C 3.4996824462486202 255.18236999692093, 1.3320667367649635 258.83517631094855, -0.6716460099405834 262.7692381126665 C -2.6753587566461343 266.7032999143846, -7.735445140748077 265.23382728366823, -11.70152834097741 266.2102768825322 C -15.667611541206742 267.1867264813961, -17.849289150152785 270.9886724441053, -19.960224477935842 274.37919251099544 C -22.071159805718892 277.7697125778855, -23.568031228786403 281.8415662188634, -25.289134118574637 285.5198686245312 C -27.01023700836288 289.19817103019915, -29.563544348187126 294.87602240675193, -30.219536546494396 293.1871512645804 C -30.875528744801656 291.4982801224087, -28.219644689247517 287.00441623284445, -26.57754018964779 283.2443205332797 C -24.935435690048077 279.4842248337149, -22.902653299262433 275.6086778890756, -21.365720486259015 272.1930696734078 C -19.82878767325559 268.7774614577401, -17.978583139787748 265.088322746597, -15.33924038216443 262.69509726474365 C -12.69989762454113 260.3018717828904, -9.316574014575487 256.1864596642817, -5.627067094522302 256.0327785878367 C -1.9375601744691138 255.87909751139162, -4.72624489389476 259.97500991612253, -8.05709346483579 262.5928542170469 C -11.387942035776826 265.2106985179714, -12.58765453112465 268.95660133592827, -14.95463966364583 272.1448213934898 C -17.321624796167008 275.3330414510513, -19.41100115231 278.6854724017807, -21.35300801979347 282.04038119099494 C -23.295014887276942 285.39528998020904, -25.467010336145254 288.5999998832227, -27.695657085855196 291.8394033362505 C -29.924303835565112 295.07880678927825, -32.03313951460116 298.3491829980955, -34.183872035885884 301.6173546673028 C -36.33460455717059 304.88552633651005, -38.4838979040259 308.1513936216317, -40.633951755815936 311.41834795275173 C -42.78400560760598 314.6853022838718, -44.93394709456009 317.95201495239945, -47.08400769520423 321.2188675706653 C -49.23406829584837 324.48572018893105, -51.38415431046522 327.7525699658902, -53.53428629718134 331.01946616306293 C -55.68441828389745 334.2863623602358, -57.83458620128501 337.55328946153975, -59.98478786641509 340.82025434553304 C -62.13498953154521 344.0872192295262, -64.28522383495402 347.3542200335844, -66.43548604941344 350.621255173348 C -68.58574826387286 353.88829031311184, -70.73603822675929 357.15535943827757, -72.88635108495369 360.42245826928905 C -75.03666394314811 363.68955710030025, -77.18699964581394 366.956685505287, -79.33735368605211 370.2238384113967 C -81.48770772629025 373.49099131750637, -83.63808007969692 376.75816865978504, -85.78846672890047 380.02536541689733 C -87.93885337810404 383.2925621740095, -90.08925431267016 386.5597783160326, -92.23966601281734 389.82700921075826 C -94.39007771296453 393.0942401054841, -96.540500176884 396.3614857429204, -98.6909303179208 399.6287419511132 C -100.8413604589576 402.8959981593063, -102.9917982797663 406.1632649397025, -105.14224102914547 409.4305385219357 C -107.29268377852468 412.697812104169, -109.44313146073085 415.96509249518107, -111.593581549409 419.2323762102484 C -113.74403163808714 422.4996599253159, -115.89448413849388 425.76694697309074, -118.04493663615371 429.03423401717043" stroke="#01136e" fill="none">
		<title>.id(nerve_feature_48)</title>
	</path>
	<path d="M -38.326654919873654 9.035021102061306 C -36.27414588597268 12.245459657639296, -34.22151104230567 15.456100756400906, -32.16887446748032 18.66633615520985 C -30.11623789265496 21.87657155401879, -28.062071882850297 25.088835987579902, -26.01016996948772 28.296670497484076 C -23.958268056125156 31.504505007388254, -21.917083449167777 35.50657978733996, -19.0483721156721 37.90517603848172 C -16.179660782176416 40.30377228962349, -14.918896749036527 43.17804964045016, -12.948604261907182 46.51556868916679 C -10.978311774777847 49.85308773788342, -7.205155406163755 52.33003000232492, -4.588304651161938 55.14880364624781 C -1.9714538961601231 57.967577290170695, 0.8405269827415409 59.80261276941734, 2.888043742693884 63.065451859254814 C 4.935560502646233 66.32829094909228, 8.358908632721747 68.70614996742691, 10.539761698813834 72.3170654241754 C 12.720614764905921 75.9279808809239, 13.970623315367849 76.8542292377385, 15.792169471237582 80.57209490338826 C 17.613715627107304 84.28996056903807, 19.34045378173986 87.94634232256652, 20.197105415732096 91.32023592341282 C 21.053757049724325 94.69412952425914, 22.00013184723435 96.57507903879062, 22.647825683787776 99.18836013272724 C 23.29551952034121 101.80164122666385, 23.663469476956024 104.81860705543733, 24.319302277677387 106.25094811323106 C 24.975135078398765 107.68328917102482, 24.373358949698005 111.15832146405857, 26.114529171488936 116.19258798896433 C 27.85569939327986 121.22685451387011, 26.5455084045759 125.18514635485342, 26.47355759013412 129.7258060637474 C 26.401606775692354 134.2664657726414, 26.190602054876397 138.71386493163016, 26.736766240333136 143.18856818829698 C 27.282930425789875 147.66327144496378, 27.893045444631685 151.6507819862618, 27.09782247052969 156.21086739316297 C 26.302599496427693 160.7709528000641, 24.847630267642646 165.42607783298917, 24.4446921032913 169.82060061053022 C 24.04175393893996 174.2151233880713, 21.32971317264763 178.63505036790355, 21.203757071196044 182.78229026174668 C 21.077800969744462 186.92953015558982, 20.879671141522 190.8599203072851, 20.162790585638348 194.98996779604843 C 19.445910029754696 199.12001528481173, 18.72870775717096 202.94177274664472, 18.23832794546596 206.6771303747452 C 17.747948133760957 210.41248800284572, 15.737986014391556 213.88448395861184, 14.710061464290504 217.6632865688091 C 13.682136914189446 221.4420891790064, 12.282216694737988 224.9207879941356, 10.512720817296877 228.5118128214939 C 8.743224939855759 232.10283764885222, 7.862151304514743 235.77356851646002, 4.91775950973763 238.26854392204078 C 1.9733677149605113 240.76351932762157, 4.5201692976644985 246.37860457399506, 3.0681842913129365 250.44414996179788 C 1.6161992849613784 254.5096953496007, -0.45009139364480877 257.92748010724694, -2.4538041403503557 261.8615419089649 C -4.457516887055911 265.795603710683, -8.213567705826886 263.2918183205678, -12.179650906056219 264.26826791943176 C -16.145734106285552 265.24471751829566, -19.54711514321808 269.9316072156204, -21.658050471001136 273.3221272825105 C -23.768985798784186 276.7126473494006, -25.37953564781678 280.99395089347496, -27.100638537605015 284.67225329914277 C -28.82174142739326 288.3505557048107, -31.427848502595616 295.600156385968, -32.08384070090288 293.91128524379644 C -31.59966272401769 289.6339759680002, -26.386804635623072 287.8048519503321, -24.744700136023347 284.0447562507673 C -23.102595636423633 280.28466055120253, -21.0787921283982 276.42936688584217, -19.54185931539478 273.0137586701744 C -18.00492650239136 269.5981504545067, -16.63513715208226 266.5699275785674, -13.995794394458944 264.17670209671405 C -11.35645163683564 261.7834766148608, -9.233339081970849 258.1847269001624, -5.543832161917664 258.03104582371736 C -3.935827410349816 255.96233244399625, -5.962106611865161 258.4025450312824, -9.292955182806189 261.0203893322068 C -12.623803753747243 263.63823363313134, -14.193481377908546 267.76441001816585, -16.560466510429727 270.95263007572737 C -18.927451642950903 274.1408501332889, -21.141922790700754 277.6835191684656, -23.083929658184225 281.0384279576798 C -25.02593652566769 284.3933367468939, -27.114724403090957 287.46640456143047, -29.3433711528009 290.7058080144582 C -31.57201790251083 293.94521146748605, -33.70382823517184 297.2497289522355, -35.854560756456564 300.5179006214428 C -38.00529327774127 303.78607229065005, -40.154557870793674 307.05189588382615, -42.30461172258371 310.31885021494617 C -44.45466557437375 313.58580454606624, -46.60458975598641 316.8524909200007, -48.75465035663055 320.11934353826655 C -50.90471095727468 323.3861961565323, -53.05478694296976 326.65303069546326, -55.20491892968588 329.919926892636 C -57.355050916402 333.1868230898089, -59.50521308690993 336.45374145939195, -61.65541475204001 339.72070634338525 C -63.805616417170114 342.9876712273784, -65.95584736024614 346.25466692584445, -68.10610957470556 349.52170206560805 C -70.25637178916499 352.78873720537194, -72.4066597033795 356.0558032178617, -74.5569725615739 359.3229020488732 C -76.70728541976831 362.5900008798843, -78.85761980945058 365.8571272899793, -81.00797384968875 369.124280196089 C -83.1583278899269 372.3914331021987, -85.30869936336472 375.65860910749274, -87.45908601256828 378.925805864605 C -89.60947266177185 382.1930026217172, -91.75987298993431 385.4602178423995, -93.91028469008148 388.7274487371252 C -96.06069639022869 391.99467963185106, -98.2111184361299 395.261924634171, -100.3615485771667 398.5291808423638 C -102.51197871820351 401.79643705055696, -104.6624162635343 405.06370341240586, -106.81285901291346 408.33097699463906 C -108.96330176229269 411.5982505768723, -111.11374928714761 414.8655307288129, -113.26419937582575 418.13281444388025 C -115.4146494645039 421.4000981589478, -117.5651019137436 424.66738512898206, -119.71555441140343 427.93467217306176 C -121.86600690906326 431.20195921714145, -118.52477135856381 433.4010829053588, -116.37431886090398 430.1337958612791 C -114.22386636324416 426.8665088171994, -112.07341381167038 423.59922169168397, -109.92296372299224 420.3319379766166 C -107.7725136343141 417.0646542615492, -105.62206579475667 413.79737363146563, -103.47162304537748 410.5301000492324 C -101.3211802959983 407.2628264669992, -99.17074219971168 403.9955592680557, -97.02031205867488 400.72830305986275 C -94.8698819176381 397.46104685166983, -92.71945903570037 394.1938005791172, -90.5690473355532 390.92656968439144 C -88.41863563540602 387.65933878966564, -86.26823409443624 384.3921217263018, -84.11784744523268 381.1249249691896 C -81.96746079602912 377.85772821207735, -79.81708756265361 374.59054953281407, -77.66673352241546 371.3233966267044 C -75.5163794821773 368.0562437205947, -73.36604246652792 364.7891133207162, -71.21572960833352 361.5220144897048 C -69.06541675013908 358.25491565869345, -66.91512473858073 354.98784342085173, -64.76486252412131 351.720808281088 C -62.61460030966191 348.45377314132435, -60.4643626459203 345.186767231674, -58.314160980790206 341.9198023476808 C -56.163959315660094 338.65283746368755, -54.0137856513929 335.38590163066266, -51.86365366467678 332.11900543348986 C -49.71352167796068 328.8521092363171, -47.56342563442205 325.5852442213298, -45.413365033777914 322.318391603064 C -43.26330443313377 319.0515389847982, -41.113345640838205 315.78480002167737, -38.96329178904817 312.51784569055735 C -36.81323793725813 309.2508913594373, -34.66391583659991 305.98498038237005, -32.513183315315196 302.7168087131628 C -30.36245079403048 299.4486370439555, -28.276589768619395 296.21240211107045, -26.047943018909464 292.9729986580426 C -23.81929626919955 289.733595205015, -21.564093248886195 286.3972432135242, -19.622086381402724 283.04233442431 C -17.680079513919246 279.68742563509585, -15.715797949383113 276.52523276881374, -13.348812816861933 273.3370127112522 C -10.981827684340756 270.1487926536907, -10.152080317806409 266.7831634028115, -6.8212317468653785 264.16531910188706 C -3.49038317592436 261.5474748009627, 0.060707061411588326 255.795862578787, -3.6287998586415986 255.94954365523205 C -9.399808947180125 254.188192428401, -14.04334361224662 258.82026695092, -16.68268636986993 261.2134924327733 C -19.322029127493234 263.6067179146266, -21.65264884411982 267.9567724609735, -23.18958165712324 271.3723806766412 C -24.726514470126666 274.787988892309, -26.768275743672522 278.6837891162273, -28.410380243272243 282.44388481579205 C -30.05248474287196 286.2039805153568, -30.15139476558562 293.3625842768172, -29.495402567278354 295.0514554189888 C -27.699240193778635 294.1518884275359, -25.198732589332497 290.0457863555876, -23.47762969954426 286.36748394991974 C -21.756526809756025 282.6891815442519, -20.3733338126536 278.82677780637044, -18.262398484870545 275.4362577394803 C -16.15146315708749 272.04573767259023, -15.189488976127933 269.1287354444965, -11.2234057758986 268.15228584563255 C -7.257322575669266 267.17583624676865, -0.8932006262363574 267.61099611808623, 1.110512120469193 263.6769343163682 C 3.1142248671747357 259.7428725146502, 5.383165607535862 255.85504464424116, 6.835150613887421 251.78949925643835 C 8.287135620238981 247.72395386863553, 4.559290489083457 243.81524071173777, 7.503682283860572 241.320265306157 C 10.448074078637688 238.82528990057622, 12.331271246406034 233.87086584490876, 14.100767123847147 230.27984101755047 C 15.870263001288263 226.68881619019214, 17.541880542079028 222.49203161884097, 18.56980509218008 218.71322900864368 C 19.597729642281134 214.93442639844642, 21.713918209358525 210.93314274397906, 22.204298021063522 207.19778511587856 C 22.694677832768527 203.46242748777806, 23.386980514999063 199.8040938112513, 24.103861070882715 195.67404632248798 C 24.820741626766367 191.5439988337247, 25.075957441557645 187.05095843441467, 25.20191354300923 182.90371854057153 C 25.32786964446081 178.7564786467284, 28.025044747066215 174.5803552841276, 28.42798291141756 170.18583250658654 C 28.830921075768902 165.7913097290455, 30.24313033590167 161.45813305527702, 31.038353310003668 156.89804764837587 C 31.833576284105664 152.3379622414747, 31.253463943250242 147.17864417919785, 30.707299757793503 142.70394092253102 C 30.161135572336764 138.22923766586422, 30.401104685502336 134.32984139433913, 30.47305549994411 129.78918168544516 C 30.545006314385883 125.24852197655115, 31.635982567573013 119.91939165697661, 29.894812345782086 114.88512513207085 C 28.15364212399116 109.85085860716508, 28.612025824467715 106.01804873758644, 27.956193023746344 104.5857076797927 C 27.30036022302498 103.15336662199897, 27.178048404126372 100.83936815389607, 26.530354567572942 98.22608705995945 C 25.882660731019513 95.61280596602285, 24.93073775639032 93.70974108459741, 24.07408612239809 90.33584748375111 C 23.21743448840585 86.9619538829048, 21.205756242949555 82.5300616474691, 19.384210087079822 78.8121959818193 C 17.562663931210093 75.09433031616952, 16.144588175558614 73.8600335694231, 13.963735109466526 70.24911811267461 C 11.782882043374439 66.63820265592611, 8.32370145779475 64.20214399555279, 6.276184697842404 60.93930490571531 C 4.2286679378900605 57.67646581587785, 0.9600218137348537 55.246097883249575, -1.6568289412669615 52.42732423932669 C -4.273679696268774 49.6085505954038, -7.533757122474591 47.819607163278384, -9.504049609603932 44.482088114561755 C -11.474342096733274 41.144569065845126, -13.613874049159508 37.23510182170511, -16.482585382655188 34.83650557056335 C -19.351296716150863 32.43790931942158, -20.58865212934122 29.349119077684698, -22.64055404270379 26.141284567780524 C -24.69245595606636 22.933450057876346, -26.74624029303983 19.721782427772737, -28.798876867865182 16.511547028963793 C -30.85151344269054 13.301311630154855, -32.90402564065753 10.090862356026536, -34.956534674558505 6.880423800448545 C -37.00904370845948 3.6699852448705546, -40.37916395377463 5.824582546483315, -38.326654919873654 9.035021102061306" stroke="#e28343" fill="none">
		<title>.id(nerve_feature_48_outline)</title>
	</path>
	<circle cx="-28.134410546691715" cy="21.26321645521875" r="1" fill="orange">
		<title>.id(marker_10001)</title>
	</circle>
	<circle cx="-23.02830114690611" cy="29.34449104860164" r="1" fill="orange">
		<title>.id(marker_10002)</title>
	</circle>
	<circle cx="6.922431829266241" cy="64.97599123919616" r="1" fill="orange">
		<title>.id(marker_10003)</title>
	</circle>
	<circle cx="21.847001751752796" cy="89.7891538366062" r="1" fill="orange">
		<title>.id(marker_10004)</title>
	</circle>
	<circle cx="26.74666133205345" cy="109.90397404160359" r="1" fill="orange">
		<title>.id(marker_10005)</title>
	</circle>
	<circle cx="23.217452385504956" cy="182.52492378754891" r="1" fill="orange">
		<title>.id(marker_10006)</title>
	</circle>
	<circle cx="18.763449866222402" cy="212.19583772656057" r="1" fill="orange">
		<title>.id(marker_10007)</title>
	</circle>
	<circle cx="-4.077380633788868" cy="265.35043178653126" r="1" fill="orange">
		<title>.id(marker_10008)</title>
	</circle>
</svg>
