<?xml version="1.0" ?>
<svg xmlns="http://www.w3.org/2000/svg" width="1000" height="1000" viewBox="-130 -6 173 446">
	<rect x="-130" y="-6" width="173" height="22" fill="red">
		<title>.id(brain_region)</title>
	</rect>
	<rect x="-130" y="16" width="173" height="142" fill="green">
		<title>.id(cervical_region)</title>
	</rect>
	<rect x="-130" y="158" width="173" height="326" fill="grey">
		<title>.id(thoracic_region)</title>
	</rect>
	<rect x="-130" y="484" width="173" height="162" fill="blue">
		<title>.id(lumbar_region)</title>
	</rect>
	<circle style="fill: rgb(216, 216, 216);" cx="-25.10410495381756" cy="25.868105077308485" r="0.9054">
		<title>.id(point_01)</title>
	</circle>
	<circle style="fill: rgb(216, 216, 216);" cx="-25.135559305845558" cy="25.676523333366717" r="0.9054">
		<title>.id(point_02)</title>
	</circle>
	<circle style="fill: rgb(216, 216, 216);" cx="0.6085883680610851" cy="56.63746329637879" r="0.9054">
		<title>.id(point_03)</title>
	</circle>
	<circle style="fill: rgb(216, 216, 216);" cx="0.11660521983482348" cy="57.29108324516201" r="0.9054">
		<title>.id(point_04)</title>
	</circle>
	<circle style="fill: rgb(216, 216, 216);" cx="27.635764909601026" cy="168.57966602107535" r="0.9054">
		<title>.id(point_05)</title>
	</circle>
	<circle style="fill: rgb(216, 216, 216);" cx="28.30915622210111" cy="168.81298467244852" r="0.9054">
		<title>.id(point_06)</title>
	</circle>
	<circle style="fill: rgb(216, 216, 216);" cx="23.386923020306373" cy="189.45699840005727" r="0.9054">
		<title>.id(point_07)</title>
	</circle>
	<circle style="fill: rgb(216, 216, 216);" cx="23.158022755730002" cy="189.4101420737851" r="0.9054">
		<title>.id(point_08)</title>
	</circle>
	<circle style="fill: rgb(216, 216, 216);" cx="12.614171733977729" cy="74.13723888087917" r="0.9054">
		<title>.id(point_09)</title>
	</circle>
	<circle style="fill: rgb(216, 216, 216);" cx="14.651411079960447" cy="72.50165762638969" r="0.9054">
		<title>.id(point_10)</title>
	</circle>
	<circle style="fill: rgb(216, 216, 216);" cx="11.54869408849402" cy="232.1223404385574" r="0.9054">
		<title>.id(point_11)</title>
	</circle>
	<circle style="fill: rgb(216, 216, 216);" cx="11.12915546050909" cy="232.01501087159932" r="0.9054">
		<title>.id(point_12)</title>
	</circle>
	<circle style="fill: rgb(216, 216, 216);" cx="-1.1688027934339407" cy="265.5791712938081" r="0.9054">
		<title>.id(point_13)</title>
	</circle>
	<circle style="fill: rgb(216, 216, 216);" cx="-2.165495691954976" cy="266.0696526044466" r="0.9054">
		<title>.id(point_14)</title>
	</circle>
	<circle style="fill: rgb(216, 216, 216);" cx="-9.56242808292775" cy="267.7973822655674" r="0.9054">
		<title>.id(point_15)</title>
	</circle>
	<circle style="fill: rgb(216, 216, 216);" cx="-15.186549614789296" cy="269.6766128235737" r="0.9054">
		<title>.id(point_16)</title>
	</circle>
	<circle style="fill: rgb(216, 216, 216);" cx="-27.73519227033674" cy="290.18159651741615" r="0.9054">
		<title>.id(point_17)</title>
	</circle>
	<circle style="fill: rgb(216, 216, 216);" cx="-13.781929362154482" cy="272.9523760589867" r="0.9054">
		<title>.id(point_18)</title>
	</circle>
	<circle style="fill: rgb(216, 216, 216);" cx="-14.502749636578763" cy="271.43433605504384" r="0.9054">
		<title>.id(point_19)</title>
	</circle>
	<circle style="fill: rgb(216, 216, 216);" cx="-23.570942788098826" cy="285.24891989835805" r="0.9054">
		<title>.id(point_20)</title>
	</circle>
	<circle style="fill: rgb(216, 216, 216);" cx="-27.29519377010522" cy="291.2328243225128" r="0.9054">
		<title>.id(point_21)</title>
	</circle>
	<circle style="fill: rgb(216, 216, 216);" cx="29.62483457822499" cy="120.64181321096717" r="0.9054">
		<title>.id(point_22)</title>
	</circle>
	<circle style="fill: rgb(216, 216, 216);" cx="29.06323706138584" cy="120.66474368468948" r="0.9054">
		<title>.id(point_23)</title>
	</circle>
	<circle style="fill: rgb(216, 216, 216);" cx="-26.045327509663093" cy="24.401587558929684" r="0.9054">
		<title>.id(point_24)</title>
	</circle>
	<circle style="fill: rgb(216, 216, 216);" cx="-26.32005813280558" cy="23.945953367899442" r="0.9054">
		<title>.id(point_25)</title>
	</circle>
	<circle style="fill: rgb(216, 216, 216);" cx="-27.30768812744831" cy="25.036384612549256" r="0.9054">
		<title>.id(point_26)</title>
	</circle>
	<circle style="fill: rgb(216, 216, 216);" cx="4.213481293982744" cy="249.81607883190463" r="0.9054">
		<title>.id(point_27)</title>
	</circle>
	<circle style="fill: rgb(216, 216, 216);" cx="3.0187077539826745" cy="249.5873278836283" r="0.9054">
		<title>.id(point_28)</title>
	</circle>
	<circle style="fill: rgb(216, 216, 216);" cx="2.561214085716736" cy="254.20205132141922" r="0.9054">
		<title>.id(point_29)</title>
	</circle>
	<circle style="fill: rgb(216, 216, 216);" cx="2.593623892997249" cy="255.26586240685944" r="0.9054">
		<title>.id(point_30)</title>
	</circle>
	<circle style="fill: rgb(216, 216, 216);" cx="-0.8217269845769045" cy="265.8055733370631" r="0.9054">
		<title>.id(point_31)</title>
	</circle>
	<circle style="fill: rgb(216, 216, 216);" cx="15.357147149826606" cy="221.1695077600135" r="0.9054">
		<title>.id(point_32)</title>
	</circle>
	<circle style="fill: rgb(216, 216, 216);" cx="14.03773710599653" cy="220.9338455499886" r="0.9054">
		<title>.id(point_33)</title>
	</circle>
	<circle style="fill: rgb(216, 216, 216);" cx="17.313641071380534" cy="223.50928503453423" r="0.9054">
		<title>.id(point_34)</title>
	</circle>
	<circle style="fill: rgb(216, 216, 216);" cx="11.28213941091747" cy="236.15779070451487" r="0.9054">
		<title>.id(point_35)</title>
	</circle>
	<circle style="fill: rgb(216, 216, 216);" cx="7.2749499238122155" cy="239.58808181827135" r="0.9054">
		<title>.id(point_36)</title>
	</circle>
	<circle style="fill: rgb(216, 216, 216);" cx="20.27275139806771" cy="211.8208507736312" r="0.9054">
		<title>.id(point_37)</title>
	</circle>
	<circle style="fill: rgb(216, 216, 216);" cx="20.639543049763" cy="212.05183539407594" r="0.9054">
		<title>.id(point_38)</title>
	</circle>
	<circle style="fill: rgb(216, 216, 216);" cx="16.30775167076359" cy="224.66428870915536" r="0.9054">
		<title>.id(point_39)</title>
	</circle>
	<circle style="fill: rgb(216, 216, 216);" cx="15.226223019485598" cy="229.4053143410675" r="0.9054">
		<title>.id(point_40)</title>
	</circle>
	<circle style="fill: rgb(216, 216, 216);" cx="-1.028553522513317" cy="265.87514867956014" r="0.9054">
		<title>.id(point_41)</title>
	</circle>
	<circle style="fill: rgb(216, 216, 216);" cx="-28.84477936840811" cy="25.215547475148306" r="0.9054">
		<title>.id(point_42)</title>
	</circle>
	<circle style="fill: rgb(216, 216, 216);" cx="0.6828052982997963" cy="253.6666941079012" r="0.9054">
		<title>.id(point_43)</title>
	</circle>
	<circle style="fill: rgb(216, 216, 216);" cx="18.342633352458087" cy="224.1651795151649" r="0.9054">
		<title>.id(point_44)</title>
	</circle>
	<circle style="fill: rgb(216, 216, 216);" cx="16.91776374433501" cy="224.79198022346588" r="0.9054">
		<title>.id(point_45)</title>
	</circle>
	<circle style="fill: rgb(216, 216, 216);" cx="-2.2654768249469615" cy="265.9821603620745" r="0.9054">
		<title>.id(point_46)</title>
	</circle>
	<circle style="fill: rgb(216, 216, 216);" cx="1.5895820947948738" cy="254.50102130299587" r="0.9054">
		<title>.id(point_47)</title>
	</circle>
	<circle style="fill: rgb(216, 216, 216);" cx="12.68162666805655" cy="236.74576055586527" r="0.9054">
		<title>.id(point_48)</title>
	</circle>
	<circle style="fill: rgb(216, 216, 216);" cx="17.432387791310987" cy="230.2990570143901" r="0.9054">
		<title>.id(point_49)</title>
	</circle>
	<circle style="fill: rgb(216, 216, 216);" cx="-9.54068845918609" cy="268.36968147311444" r="0.9054">
		<title>.id(point_50)</title>
	</circle>
	<circle style="fill: rgb(216, 216, 216);" cx="-0.21308702398397894" cy="266.048525181416" r="0.9054">
		<title>.id(point_51)</title>
	</circle>
	<circle style="fill: rgb(216, 216, 216);" cx="6.83229775980167" cy="239.1196393752855" r="0.9054">
		<title>.id(point_52)</title>
	</circle>
	<circle style="fill: rgb(216, 216, 216);" cx="-14.915954941101814" cy="269.9637335977412" r="0.9054">
		<title>.id(point_53)</title>
	</circle>
	<circle style="fill: rgb(216, 216, 216);" cx="-27.290253119797818" cy="290.44629327434603" r="0.9054">
		<title>.id(point_54)</title>
	</circle>
	<circle style="fill: rgb(216, 216, 216);" cx="-13.09623187415647" cy="273.24015631556796" r="0.9054">
		<title>.id(point_55)</title>
	</circle>
	<circle style="fill: rgb(216, 216, 216);" cx="-15.24485098576085" cy="271.0896957985382" r="0.9054">
		<title>.id(point_56)</title>
	</circle>
	<circle style="fill: rgb(216, 216, 216);" cx="-24.647394259336554" cy="284.7393934244368" r="0.9054">
		<title>.id(point_57)</title>
	</circle>
	<circle style="fill: rgb(216, 216, 216);" cx="-28.300682262550456" cy="290.61432754595575" r="0.9054">
		<title>.id(point_58)</title>
	</circle>
	<circle style="fill: rgb(216, 216, 216);" cx="-13.868411832183359" cy="40.22342374437888" r="0.9054">
		<title>.id(point_59)</title>
	</circle>
	<circle style="fill: rgb(216, 216, 216);" cx="-14.155427882991487" cy="40.43671657976079" r="0.9054">
		<title>.id(point_60)</title>
	</circle>
	<circle style="fill: rgb(216, 216, 216);" cx="-37.53158374270715" cy="7.077172070416667" r="0.9054">
		<title>.id(point_61)</title>
	</circle>
	<circle style="fill: rgb(216, 216, 216);" cx="24.07886334806503" cy="182.85781822555958" r="0.9054">
		<title>.id(point_62)</title>
	</circle>
	<circle style="fill: rgb(216, 216, 216);" cx="-119.0477576067437" cy="428.04692487473346" r="0.9054">
		<title>.id(point_63)</title>
	</circle>
	<circle style="fill: rgb(216, 216, 216);" cx="-22.973483600920115" cy="27.902418820417296" r="0.9054">
		<title>.id(point_64)</title>
	</circle>
	<circle style="fill: rgb(216, 216, 216);" cx="-22.50687590688434" cy="27.54326107740579" r="0.9054">
		<title>.id(point_65)</title>
	</circle>
	<circle style="fill: rgb(216, 216, 216);" cx="-9.646577930449148" cy="45.00438148193987" r="0.9054">
		<title>.id(point_66)</title>
	</circle>
	<circle style="fill: rgb(216, 216, 216);" cx="-9.217401001454624" cy="44.50191699340137" r="0.9054">
		<title>.id(point_67)</title>
	</circle>
	<circle style="fill: rgb(216, 216, 216);" cx="23.403635907206358" cy="181.6537378845499" r="0.9054">
		<title>.id(point_68)</title>
	</circle>
	<circle style="fill: rgb(216, 216, 216);" cx="22.42771887684411" cy="181.1921206508566" r="0.9054">
		<title>.id(point_69)</title>
	</circle>
	<circle style="fill: rgb(216, 216, 216);" cx="-20.533452015164112" cy="33.279345135358554" r="0.9054">
		<title>.id(point_70)</title>
	</circle>
	<circle style="fill: rgb(216, 216, 216);" cx="-21.03029082608349" cy="33.80855043513074" r="0.9054">
		<title>.id(point_71)</title>
	</circle>
	<circle style="fill: rgb(216, 216, 216);" cx="17.00365442568964" cy="74.66460498454725" r="0.9054">
		<title>.id(point_72)</title>
	</circle>
	<circle style="fill: rgb(216, 216, 216);" cx="16.83071462157877" cy="75.5802121831238" r="0.9054">
		<title>.id(point_73)</title>
	</circle>
	<path d="M -25.10410495381756 25.868105077308485 C -25.114589737822502 25.80424449600282, -25.12507452183954 25.740383914675952, -25.135559305845558 25.676523333366717" stroke="#01136e" fill="none">
		<title>.id(nerve_feature_01)</title>
	</path>
	<path d="M -23.130527812691685 25.54407843021691 C -23.141012596696626 25.480217848911245, -23.151497380716087 25.416357267569623, -23.161982164722104 25.352496686260388 C -23.172466948728122 25.288636104951152, -27.119621230975028 25.93668939916381, -27.10913644696901 26.000549980473046 C -27.098651662962993 26.06441056178228, -27.08816687894838 26.128271143094395, -27.077682094943437 26.19213172440006 C -27.067197310938496 26.255992305705725, -23.120043028686744 25.607939011522575, -23.130527812691685 25.54407843021691" stroke="#e28343" fill="none">
		<title>.id(nerve_feature_01_outline)</title>
	</path>
	<path d="M 0.6085883680610851 56.63746329637879 C 0.44459398531673777 56.855336612637174, 0.28059960257882105 57.07320992890299, 0.11660521983482348 57.29108324516201" stroke="#01136e" fill="none">
		<title>.id(nerve_feature_02)</title>
	</path>
	<path d="M -0.9893343275072284 55.43469854008282 C -1.1533287102515757 55.65257185634121, -1.317323092992402 55.87044517261089, -1.4813174757363996 56.08831848886991 C -1.6453118584803972 56.306191805128925, 1.550533532662049 58.71172131771312, 1.7145279154060467 58.493848001454104 C 1.8785222981500442 58.27597468519509, 2.0425166808850514 58.05810136893314, 2.2065110636293985 57.84022805267476 C 2.3705054463737456 57.62235473641638, -0.8253399447628811 55.21682522382443, -0.9893343275072284 55.43469854008282" stroke="#e28343" fill="none">
		<title>.id(nerve_feature_02_outline)</title>
	</path>
	<path d="M 27.635764909601026 168.57966602107535 C 27.860228680432805 168.657438904894, 28.08469245126674 168.7352117886297, 28.30915622210111 168.81298467244852" stroke="#01136e" fill="none">
		<title>.id(nerve_feature_03)</title>
	</path>
	<path d="M 26.980988316279777 170.46944580000164 C 27.205452087111556 170.5472186838203, 27.429915857950956 170.62499156755786, 27.654379628785325 170.70276445137668 C 27.878843399619694 170.7805373351955, 29.18839658625126 167.0009777773392, 28.963932815416893 166.92320489352036 C 28.739469044582524 166.84543200970154, 28.515005273754053 166.76765912596773, 28.290541502922274 166.68988624214907 C 28.066077732090495 166.61211335833042, 26.756524545448 170.39167291618298, 26.980988316279777 170.46944580000164" stroke="#e28343" fill="none">
		<title>.id(nerve_feature_03_outline)</title>
	</path>
	<path d="M 23.386923020306373 189.45699840005727 C 23.310622932108174 189.4413796246397, 23.234322843931345 189.42576084920572, 23.158022755730002 189.4101420737851" stroke="#01136e" fill="none">
		<title>.id(nerve_feature_04)</title>
	</path>
	<path d="M 23.788009771537432 187.49762875193395 C 23.711709683339233 187.48200997651637, 23.635409595221496 187.4663912010945, 23.559109507020153 187.45077242567388 C 23.48280941881881 187.43515365025326, 22.680635916238508 191.3538929464757, 22.75693600443985 191.36951172189632 C 22.833236092641194 191.38513049731694, 22.909536180877115 191.40074927276302, 22.985836269075314 191.4163680481806 C 23.062136357273513 191.43198682359818, 23.86430985973563 187.51324752735152, 23.788009771537432 187.49762875193395" stroke="#e28343" fill="none">
		<title>.id(nerve_feature_04_outline)</title>
	</path>
	<path d="M 12.614171733977729 74.13723888087917 C 12.917453595067796 73.24673978566376, 13.725655990389022 72.58356652265455, 14.651411079960447 72.50165762638969" stroke="#01136e" fill="none">
		<title>.id(nerve_feature_08)</title>
	</path>
	<path d="M 14.50738511616099 74.78202030859109 C 14.810666977251056 73.89152121337568, 13.901923259811998 74.57578384255973, 14.827678349383422 74.49387494629487 C 15.753433438954847 74.41196605003, 15.400898900108896 70.42753141021964, 14.475143810537471 70.5094403064845 C 13.549388720966046 70.59134920274937, 11.024240212884536 72.60195835795184, 10.720958351794469 73.49245745316725 C 10.417676490704402 74.38295654838265, 14.204103255070923 75.67251940380649, 14.50738511616099 74.78202030859109" stroke="#e28343" fill="none">
		<title>.id(nerve_feature_08_outline)</title>
	</path>
	<path d="M 11.54869408849402 232.1223404385574 C 11.408847879160865 232.08656391620107, 11.26900166984188 232.0507873939463, 11.12915546050909 232.01501087159932" stroke="#01136e" fill="none">
		<title>.id(nerve_feature_09)</title>
	</path>
	<path d="M 12.044385435121864 230.18474138589497 C 11.904539225788708 230.14896486353865, 11.764693016349712 230.1131883412532, 11.624846807016922 230.0774118189062 C 11.485000597684133 230.0416352965592, 10.493617904668467 233.91683340194544, 10.633464114001256 233.95260992429243 C 10.773310323334046 233.98838644663942, 10.913156532533021 234.0241629688635, 11.053002741866177 234.0599394912198 C 11.192848951199332 234.09571601357612, 12.18423164445502 230.22051790825128, 12.044385435121864 230.18474138589497" stroke="#e28343" fill="none">
		<title>.id(nerve_feature_09_outline)</title>
	</path>
	<path d="M 29.62483457822499 120.64181321096717 C 29.437635405945663 120.6494567021788, 29.25043623366589 120.6571001934791, 29.06323706138584 120.66474368468948" stroke="#01136e" fill="none">
		<title>.id(nerve_feature_10)</title>
	</path>
	<path d="M 29.543240972482884 118.64347828320807 C 29.356041800203556 118.65112177441969, 29.168842627937273 118.65876526571944, 28.981643455657224 118.66640875692983 C 28.794444283377175 118.67405224814021, 28.95763149483441 122.67072210365953, 29.14483066711446 122.66307861244914 C 29.332029839394508 122.65543512123875, 29.51922901168777 122.6477916299379, 29.7064281839671 122.64014813872627 C 29.893627356246427 122.63250464751465, 29.730440144762213 118.63583479199644, 29.543240972482884 118.64347828320807" stroke="#e28343" fill="none">
		<title>.id(nerve_feature_10_outline)</title>
	</path>
	<path d="M -26.045327509663093 24.401587558929684 C -26.136904384038868 24.2497094952583, -26.22848125842835 24.097831431575816, -26.32005813280558 23.945953367899442" stroke="#01136e" fill="none">
		<title>.id(nerve_feature_11)</title>
	</path>
	<path d="M -24.332584732444783 23.36886679362741 C -24.424161606820558 23.21698872995603, -24.515738481202295 23.06511066628639, -24.607315355579527 22.913232602610016 C -24.69889222995676 22.76135453893364, -28.124377784408868 24.826796069512493, -28.032800910031636 24.978674133188868 C -27.941224035654404 25.130552196865242, -27.849647161257177 25.282430260560574, -27.758070286881402 25.434308324231957 C -27.666493412505627 25.58618638790334, -24.241007858069008 23.520744857298794, -24.332584732444783 23.36886679362741" stroke="#e28343" fill="none">
		<title>.id(nerve_feature_11_outline)</title>
	</path>
	<path d="M 4.213481293982744 249.81607883190463 C 3.8152234473294317 249.73982851587354, 3.416965600644659 249.66357819963142, 3.0187077539826745 249.5873278836283" stroke="#01136e" fill="none">
		<title>.id(nerve_feature_12)</title>
	</path>
	<path d="M 4.589569575002312 247.85175767565758 C 4.1913117283490005 247.7755073596265, 3.793053881523264 247.6992570433574, 3.3947960348612796 247.62300672735427 C 2.996538188199295 247.54675641135114, 2.244361626442085 251.4753987238992, 2.6426194731040695 251.55164903990232 C 3.040877319766054 251.62789935590544, 3.439135166309863 251.7041496721206, 3.837393012963175 251.7803999881517 C 4.235650859616487 251.85665030418278, 4.987827421655624 247.92800799168867, 4.589569575002312 247.85175767565758" stroke="#e28343" fill="none">
		<title>.id(nerve_feature_12_outline)</title>
	</path>
	<path d="M 15.357147149826606 221.1695077600135 C 14.91734380186816 221.09095369000204, 14.477540453954422 221.0123996199607, 14.03773710599653 220.9338455499886" stroke="#01136e" fill="none">
		<title>.id(nerve_feature_13)</title>
	</path>
	<path d="M 15.70880546554675 219.20066636747197 C 15.269002117588304 219.12211229746052, 14.829198769504224 219.04355822738873, 14.389395421546332 218.96500415741664 C 13.949592073588441 218.88645008744456, 13.246275442488837 222.82413287258848, 13.686078790446729 222.90268694256056 C 14.12588213840462 222.98124101253265, 14.565685486148016 223.05979508254356, 15.005488834106462 223.138349152555 C 15.445292182064907 223.21690322256646, 16.148608813505195 219.27922043748342, 15.70880546554675 219.20066636747197" stroke="#e28343" fill="none">
		<title>.id(nerve_feature_13_outline)</title>
	</path>
	<path d="M 20.27275139806771 211.8208507736312 C 20.395015281962802 211.89784564712252, 20.517279165867564 211.9748405205931, 20.639543049763 212.05183539407594" stroke="#01136e" fill="none">
		<title>.id(nerve_feature_14)</title>
	</path>
	<path d="M 19.2069869850283 213.5132296366222 C 19.329250868923392 213.59022451011353, 19.45151475291425 213.66721938363833, 19.573778636809685 213.74421425712117 C 19.69604252070512 213.82120913060402, 21.827571346611748 210.43645140451355, 21.705307462716313 210.3594565310307 C 21.583043578820877 210.28246165754786, 21.460779695002213 210.20546678413152, 21.338515811107122 210.1284719106402 C 21.21625192721203 210.05147703714889, 19.08472310113321 213.4362347631309, 19.2069869850283 213.5132296366222" stroke="#e28343" fill="none">
		<title>.id(nerve_feature_14_outline)</title>
	</path>
	<path d="M -1.1688027934339411 265.5791712938081 C -1.122053036440257 265.6778304223684, -1.0753032795028032 265.77648955099994, -1.028553522513317 265.87514867956014" stroke="#01136e" fill="none">
		<title>.id(nerve_feature_15)</title>
	</path>
	<path d="M -2.97616161617211 266.4355906337757 C -2.929411859178426 266.534249762336, -2.8826621022703494 266.6329088909055, -2.8359123452808634 266.7315680194657 C -2.7891625882913775 266.8302271480259, 0.8255550572437154 265.11738846821476, 0.7788053002542292 265.01872933965456 C 0.7320555432647431 264.92007021109436, 0.6853057862979122 264.8214110824008, 0.6385560293042281 264.7227519538405 C 0.591806272310544 264.6240928252802, -3.022911373165794 266.3369315052154, -2.97616161617211 266.4355906337757" stroke="#e28343" fill="none">
		<title>.id(nerve_feature_15_outline)</title>
	</path>
	<path d="M -27.30768812744831 25.036384612549256 C -27.820051874419157 25.09610556675105, -28.332415621429732 25.15582652094672, -28.84477936840811 25.215547475148306" stroke="#01136e" fill="none">
		<title>.id(nerve_feature_16)</title>
	</path>
	<path d="M -27.539239844098937 23.04983388263669 C -28.051603591069785 23.109554836838484, -28.5639673380762 23.16927579103367, -29.076331085054576 23.228996745235257 C -29.588694832032953 23.288717699436845, -29.125591398740017 27.261819159262934, -28.61322765176164 27.202098205061354 C -28.100863904783264 27.142377250859774, -27.58850015776853 27.082656296663615, -27.07613641079768 27.02293534246182 C -26.563772663826832 26.963214388260027, -27.02687609712809 22.990112928434897, -27.539239844098937 23.04983388263669" stroke="#e28343" fill="none">
		<title>.id(nerve_feature_16_outline)</title>
	</path>
	<path d="M 2.561214085716736 254.20205132141922 C 1.9350778232438253 254.02359891685623, 1.3089415607595911 253.8451465123292, 0.6828052982997963 253.6666941079012" stroke="#01136e" fill="none">
		<title>.id(nerve_feature_17)</title>
	</path>
	<path d="M 3.1093961870214857 252.27864382850225 C 2.483259924548575 252.10019142393926, 1.8571236616914053 251.92173901930593, 1.2309873992316103 251.74328661487795 C 0.6048511367718152 251.56483421044996, -0.4915130650918126 255.41164919649648, 0.13462319736798223 255.59010160092447 C 0.760759459827777 255.76855400535246, 1.3868957219390754 255.9470064097732, 2.0130319844119864 256.1254588143362 C 2.639168246884897 256.3039112188992, 3.7355324494943964 252.45709623306524, 3.1093961870214857 252.27864382850225" stroke="#e28343" fill="none">
		<title>.id(nerve_feature_17_outline)</title>
	</path>
	<path d="M 17.313641071380534 223.50928503453423 C 17.656638498412452 223.7279165281291, 17.999635925438195 223.946548021568, 18.342633352458087 224.1651795151649" stroke="#01136e" fill="none">
		<title>.id(nerve_feature_18)</title>
	</path>
	<path d="M 16.238629064213473 225.19580487860563 C 16.58162649124539 225.4144363722005, 16.924623918237177 225.63306786561776, 17.26762134525707 225.85169935921468 C 17.61061877227696 226.0703308528116, 19.760642786678996 222.69729116471206, 19.417645359659105 222.47865967111514 C 19.074647932639213 222.26002817751822, 18.731650505579513 222.0413966840577, 18.388653078547595 221.82276519046283 C 18.045655651515677 221.60413369686796, 15.895631637181555 224.97717338501076, 16.238629064213473 225.19580487860563" stroke="#e28343" fill="none">
		<title>.id(nerve_feature_18_outline)</title>
	</path>
	<path d="M 16.30775167076359 224.66428870915536 C 16.511089028623477 224.70685254730552, 16.71442638647463 224.74941638531692, 16.91776374433501 224.79198022346588" stroke="#01136e" fill="none">
		<title>.id(nerve_feature_19)</title>
	</path>
	<path d="M 15.897980572405835 226.62186058445155 C 16.101317930265722 226.6644244226017, 16.30465528812883 226.70698826061562, 16.50799264598921 226.74955209876458 C 16.711330003849586 226.79211593691355, 17.530872200541186 222.87697218631615, 17.32753484268081 222.8344083481672 C 17.12419748482043 222.79184451001822, 16.920860126981232 222.74928067200932, 16.717522769121345 222.70671683385916 C 16.514185411261458 222.664152995709, 15.694643214545948 226.5792967463014, 15.897980572405835 226.62186058445155" stroke="#e28343" fill="none">
		<title>.id(nerve_feature_19_outline)</title>
	</path>
	<path d="M -2.165495691954948 266.06965260444656 C -2.198822736278031 266.0404885236132, -2.2321497806209054 266.0113244429083, -2.2654768249469615 265.9821603620745" stroke="#01136e" fill="none">
		<title>.id(nerve_feature_20)</title>
	</path>
	<path d="M -0.8484118655018238 264.56456450267456 C -0.8817389098249067 264.5354004218412, -0.9150659542241473 264.506236341087, -0.9483929985502033 264.47707226025324 C -0.9817200428762594 264.44790817941947, -3.615887695669775 267.45808438306204, -3.5825606513437194 267.4872484638958 C -3.5492336070176638 267.5164125447296, -3.515906562731155 267.5455766253852, -3.4825795184080723 267.57474070621856 C -3.4492524740849895 267.60390478705193, -0.8150848211787409 264.5937285835079, -0.8484118655018238 264.56456450267456" stroke="#e28343" fill="none">
		<title>.id(nerve_feature_20_outline)</title>
	</path>
	<path d="M 2.5936238929972495 255.26586240685947 C 2.2589432936038 255.01091537220057, 1.9242626941861745 254.75596833764294, 1.5895820947948738 254.50102130299587" stroke="#01136e" fill="none">
		<title>.id(nerve_feature_21)</title>
	</path>
	<path d="M 3.805566826877654 253.67488964624496 C 3.470886227484204 253.41994261158607, 3.1362056280359365 253.1649955770051, 2.801525028644636 252.91004854235803 C 2.466844429253335 252.65510150771095, 0.04295856155381084 255.8370470289866, 0.3776391609451115 256.0919940636337 C 0.7123197603364122 256.3469410982808, 1.0470003597233954 256.6018881328151, 1.381680959116845 256.856835167474 C 1.7163615585102947 257.11178220213293, 4.140247426271104 253.92983668090386, 3.805566826877654 253.67488964624496" stroke="#e28343" fill="none">
		<title>.id(nerve_feature_21_outline)</title>
	</path>
	<path d="M 11.282139410917466 236.15779070451487 C 11.748635163304261 236.35378065495135, 12.215130915664306 236.5497706054536, 12.68162666805655 236.74576055586527" stroke="#01136e" fill="none">
		<title>.id(nerve_feature_22)</title>
	</path>
	<path d="M 10.507467024194714 238.00166778644015 C 10.973962776581509 238.19765773687664, 11.440458529032606 238.39364768741714, 11.90695428142485 238.58963763782882 C 12.373450033817095 238.7856275882405, 13.922794807080495 235.0978734243134, 13.45629905468825 234.90188347390173 C 12.989803302296005 234.70589352349006, 12.523307550027013 234.50990357302607, 12.056811797640218 234.31391362258958 C 11.590316045253424 234.1179236721531, 10.04097127180792 237.80567783600367, 10.507467024194714 238.00166778644015" stroke="#e28343" fill="none">
		<title>.id(nerve_feature_22_outline)</title>
	</path>
	<path d="M 15.226223019485596 229.40531434106748 C 15.961611276765842 229.7032285655543, 16.696999534031427 230.00114278992825, 17.432387791310987 230.2990570143901" stroke="#01136e" fill="none">
		<title>.id(nerve_feature_23)</title>
	</path>
	<path d="M 14.475280761296833 231.2589825219635 C 15.210669018577079 231.55689674645032, 15.946057275896157 231.85481097084593, 16.68144553317572 232.15272519530777 C 17.41683379045528 232.4506394197696, 18.918718306725815 228.74330305793424, 18.183330049446255 228.4453888334724 C 17.447941792166695 228.14747460901057, 16.712553534954605 227.84956038465828, 15.97716527767436 227.55164616017146 C 15.241777020394114 227.25373193568464, 13.739892504016588 230.9610682974767, 14.475280761296833 231.2589825219635" stroke="#e28343" fill="none">
		<title>.id(nerve_feature_23_outline)</title>
	</path>
	<path d="M -9.562428082927752 267.7973822655674 C -9.555181541693957 267.98814866808317, -9.547935000428138 268.1789150705833, -9.54068845918609 268.36968147311444" stroke="#01136e" fill="none">
		<title>.id(nerve_feature_24)</title>
	</path>
	<path d="M -11.560986671169537 267.8733004410263 C -11.55374012993574 268.06406684354204, -11.546493588666875 268.25483324612236, -11.539247047424826 268.4455996486535 C -11.532000506182777 268.63636605118467, -7.534883329705304 268.4845297001065, -7.5421298709473525 268.29376329757537 C -7.549376412189401 268.1029968950442, -7.556622953452172 267.9122304926243, -7.563869494685968 267.72146409010855 C -7.571116035919764 267.5306976875928, -11.568233212403335 267.68253403851054, -11.560986671169537 267.8733004410263" stroke="#e28343" fill="none">
		<title>.id(nerve_feature_24_outline)</title>
	</path>
	<path d="M -0.8217269845769046 265.8055733370631 C -0.618846997687346 265.8865572851537, -0.41596701087354027 265.96754123331635, -0.21308702398397894 266.048525181416" stroke="#01136e" fill="none">
		<title>.id(nerve_feature_25)</title>
	</path>
	<path d="M -1.5631817993041508 267.6630567845581 C -1.3603018124145922 267.74404073264867, -1.157421825672154 267.8250246807828, -0.9545418387825928 267.90600862888243 C -0.7516618518930316 267.98699257698206, 0.7312477777041962 264.27202568204916, 0.5283677908146349 264.19104173394953 C 0.3254878039250736 264.1100577858499, 0.1226078170399002 264.0290738376587, -0.08027216984965846 263.9480898895681 C -0.2831521567392171 263.8671059414775, -1.7660617861937093 267.5820728364675, -1.5631817993041508 267.6630567845581" stroke="#e28343" fill="none">
		<title>.id(nerve_feature_25_outline)</title>
	</path>
	<path d="M 7.2749499238122155 239.58808181827135 C 7.127399202473505 239.43193433726069, 6.9798484811416595 239.27578685629572, 6.83229775980167 239.1196393752855" stroke="#01136e" fill="none">
		<title>.id(nerve_feature_26)</title>
	</path>
	<path d="M 8.728613231330405 238.21445050369846 C 8.581062509991694 238.0583030226878, 8.433511788652032 237.90215554171456, 8.285961067312043 237.74600806070433 C 8.138410345972053 237.5898605796941, 5.231083730951307 240.3371232088564, 5.378634452291297 240.49327068986665 C 5.526185173631286 240.64941817087688, 5.673735894955316 240.80556565183358, 5.821286616294026 240.96171313284424 C 5.968837337632737 241.1178606138549, 8.876163952669115 238.37059798470912, 8.728613231330405 238.21445050369846" stroke="#e28343" fill="none">
		<title>.id(nerve_feature_26_outline)</title>
	</path>
	<path d="M -15.1865496147893 269.6766128235737 C -15.096351390219668 269.77231974823775, -15.006153165675885 269.8680266730701, -14.915954941101814 269.9637335977412" stroke="#01136e" fill="none">
		<title>.id(nerve_feature_27)</title>
	</path>
	<path d="M -16.642029992920943 271.04831864803964 C -16.55183176835131 271.1440255727037, -16.461633543824256 271.23973249751833, -16.371435319250185 271.33543942218944 C -16.281237094676115 271.43114634686054, -13.370276338379375 268.6877346979641, -13.460474562953445 268.592027773293 C -13.550672787527516 268.4963208486219, -13.640871012088027 268.4006139237718, -13.731069236657659 268.30490699910774 C -13.82126746122729 268.2092000744437, -16.732228217490576 270.9526117233756, -16.642029992920943 271.04831864803964" stroke="#e28343" fill="none">
		<title>.id(nerve_feature_27_outline)</title>
	</path>
	<path d="M -27.73519227033674 290.18159651741615 C -27.5868792201505 290.2698287697215, -27.438566169983346 290.3580610220456, -27.290253119797818 290.44629327434603" stroke="#01136e" fill="none">
		<title>.id(nerve_feature_28)</title>
	</path>
	<path d="M -28.757737867637783 291.90043347927156 C -28.609424817451544 291.98866573157693, -28.461111767245676 292.076897983924, -28.312798717060147 292.16513023622446 C -28.16448566687462 292.2533624885249, -26.11939447234996 288.81568856476804, -26.26770752253549 288.7274563124676 C -26.416020572721017 288.6392240601672, -26.564333622849457 288.5509918078661, -26.712646673035696 288.46275955556075 C -26.860959723221935 288.3745273032554, -28.90605091782402 291.8122012269662, -28.757737867637783 291.90043347927156" stroke="#e28343" fill="none">
		<title>.id(nerve_feature_28_outline)</title>
	</path>
	<path d="M -13.781929362154482 272.9523760589867 C -13.553363532797903 273.0483028111757, -13.324797703516783 273.1442295633801, -13.09623187415647 273.24015631556796" stroke="#01136e" fill="none">
		<title>.id(nerve_feature_29)</title>
	</path>
	<path d="M -14.555908057039073 274.79654442978824 C -14.327342227682493 274.8924711819772, -14.098776398382824 274.98839793418944, -13.870210569022511 275.0843246863773 C -13.641644739662198 275.1802514385651, -12.093687349930114 271.4919146969465, -12.322253179290428 271.39598794475864 C -12.550819008650741 271.3000611925708, -12.779384837913312 271.20413444037416, -13.007950667269892 271.1082076881852 C -13.236516496626471 271.0122809359962, -14.784473886395652 274.70061767759927, -14.555908057039073 274.79654442978824" stroke="#e28343" fill="none">
		<title>.id(nerve_feature_29_outline)</title>
	</path>
	<path d="M -14.50274963657876 271.4343360550439 C -14.750116752986829 271.31945596959423, -14.997483869365391 271.2045758839868, -15.24485098576085 271.0896957985382" stroke="#01136e" fill="none">
		<title>.id(nerve_feature_30)</title>
	</path>
	<path d="M -13.660339613790944 269.6204051430446 C -13.907706730199013 269.5055250575949, -14.155073846548422 269.39064497200104, -14.402440962943881 269.2757648865524 C -14.64980807933934 269.16088480110375, -16.33462812497328 272.7887466250753, -16.08726100857782 272.90362671052395 C -15.83989389218236 273.0185067959726, -15.592526775774644 273.13338688159354, -15.345159659366574 273.2482669670432 C -15.097792542958505 273.3631470524929, -13.412972497382874 269.73528522849426, -13.660339613790944 269.6204051430446" stroke="#e28343" fill="none">
		<title>.id(nerve_feature_30_outline)</title>
	</path>
	<path d="M -23.570942788098826 285.24891989835805 C -23.929759945214695 285.0790777404692, -24.288577102224505 284.9092355823757, -24.647394259336554 284.7393934244368" stroke="#01136e" fill="none">
		<title>.id(nerve_feature_31)</title>
	</path>
	<path d="M -22.715279800158154 283.44120287098116 C -23.074096957274023 283.2713607130923, -23.43291411407051 283.10151855509974, -23.79173127118256 282.93167639716086 C -24.15054842829461 282.76183423922197, -25.8618744046026 286.37726829377385, -25.50305724749055 286.54711045171274 C -25.1442400903785 286.7169526096516, -24.785422933155367 286.8867947678461, -24.426605776039498 287.05663692573495 C -24.06778861892363 287.2264790836238, -22.356462643042285 283.61104502887, -22.715279800158154 283.44120287098116" stroke="#e28343" fill="none">
		<title>.id(nerve_feature_31_outline)</title>
	</path>
	<path d="M -27.29519377010522 291.23282432251284 C -27.63035660093433 291.02665873030844, -27.965519431731487 290.8204931381978, -28.300682262550456 290.61432754595575" stroke="#01136e" fill="none">
		<title>.id(nerve_feature_32)</title>
	</path>
	<path d="M -26.247325042131216 289.529307040847 C -26.582487872960325 289.3231414486426, -26.917650703595722 289.1169758566314, -27.252813534414692 288.9108102643894 C -27.58797636523366 288.70464467214737, -29.68371382150519 292.11167923528006, -29.34855099068622 292.3178448275221 C -29.01338815986725 292.5240104197641, -28.678225328908336 292.73017601197427, -28.343062498079227 292.93634160417866 C -28.00789966725012 293.14250719638306, -25.912162211302107 289.7354726330514, -26.247325042131216 289.529307040847" stroke="#e28343" fill="none">
		<title>.id(nerve_feature_32_outline)</title>
	</path>
	<path d="M -13.868411832183359 40.22342374437888 C -13.964083849121797 40.29452135618272, -14.059755866053093 40.3656189679576, -14.155427882991487 40.43671657976079" stroke="#01136e" fill="none">
		<title>.id(nerve_feature_33)</title>
	</path>
	<path d="M -15.061351429486777 38.61815270272094 C -15.157023446425216 38.689250314524784, -15.252695463349802 38.76034792629468, -15.348367480288196 38.83144553809787 C -15.44403949722659 38.90254314990106, -13.058160302633173 42.113085233226904, -12.962488285694779 42.041987621423715 C -12.866816268756384 41.970890009620526, -12.771144251818379 41.899792397840656, -12.67547223487994 41.82869478603681 C -12.579800217941502 41.75759717423297, -14.965679412548338 38.5470550909171, -15.061351429486777 38.61815270272094" stroke="#e28343" fill="none">
		<title>.id(nerve_feature_33_outline)</title>
	</path>
	<path d="M 11.54869408849402 232.1223404385574 C 11.408847879160865 232.08656391620107, 11.26900166984188 232.0507873939463, 11.12915546050909 232.01501087159932 M -1.1688027934339411 265.5791712938081 C -1.122053036440257 265.6778304223684, -1.0753032795028032 265.77648955099994, -1.028553522513317 265.87514867956014 M -2.165495691954948 266.06965260444656 C -2.198822736278031 266.0404885236132, -2.2321497806209054 266.0113244429083, -2.2654768249469615 265.9821603620745 M -9.562428082927752 267.7973822655674 C -9.555181541693957 267.98814866808317, -9.547935000428138 268.1789150705833, -9.54068845918609 268.36968147311444 M -15.1865496147893 269.6766128235737 C -15.096351390219668 269.77231974823775, -15.006153165675885 269.8680266730701, -14.915954941101814 269.9637335977412 M -27.73519227033674 290.18159651741615 C -27.5868792201505 290.2698287697215, -27.438566169983346 290.3580610220456, -27.290253119797818 290.44629327434603 M -13.781929362154482 272.9523760589867 C -13.553363532797903 273.0483028111757, -13.324797703516783 273.1442295633801, -13.09623187415647 273.24015631556796 M -14.50274963657876 271.4343360550439 C -14.750116752986829 271.31945596959423, -14.997483869365391 271.2045758839868, -15.24485098576085 271.0896957985382 M -23.570942788098826 285.24891989835805 C -23.929759945214695 285.0790777404692, -24.288577102224505 284.9092355823757, -24.647394259336554 284.7393934244368 M -27.29519377010522 291.23282432251284 C -27.63035660093433 291.02665873030844, -27.965519431731487 290.8204931381978, -28.300682262550456 290.61432754595575" stroke="#01136e" fill="none">
		<title>.id(nerve_feature_34)</title>
	</path>
	<path d="M 12.044385435121864 230.18474138589497 C 11.904539225788708 230.14896486353865, 11.764693016349712 230.1131883412532, 11.624846807016922 230.0774118189062 C 11.485000597684133 230.0416352965592, 10.493617904668467 233.91683340194544, 10.633464114001256 233.95260992429243 C 10.773310323334046 233.98838644663942, 10.913156532533021 234.0241629688635, 11.053002741866177 234.0599394912198 C 11.192848951199332 234.09571601357612, 12.18423164445502 230.22051790825128, 12.044385435121864 230.18474138589497 M -2.97616161617211 266.4355906337757 C -2.929411859178426 266.534249762336, -2.8826621022703494 266.6329088909055, -2.8359123452808634 266.7315680194657 C -2.7891625882913775 266.8302271480259, 0.8255550572437154 265.11738846821476, 0.7788053002542292 265.01872933965456 C 0.7320555432647431 264.92007021109436, 0.6853057862979122 264.8214110824008, 0.6385560293042281 264.7227519538405 C 0.591806272310544 264.6240928252802, -3.022911373165794 266.3369315052154, -2.97616161617211 266.4355906337757 M -0.8484118655018238 264.56456450267456 C -0.8817389098249067 264.5354004218412, -0.9150659542241473 264.506236341087, -0.9483929985502033 264.47707226025324 C -0.9817200428762594 264.44790817941947, -3.615887695669775 267.45808438306204, -3.5825606513437194 267.4872484638958 C -3.5492336070176638 267.5164125447296, -3.515906562731155 267.5455766253852, -3.4825795184080723 267.57474070621856 C -3.4492524740849895 267.60390478705193, -0.8150848211787409 264.5937285835079, -0.8484118655018238 264.56456450267456 M -11.560986671169537 267.8733004410263 C -11.55374012993574 268.06406684354204, -11.546493588666875 268.25483324612236, -11.539247047424826 268.4455996486535 C -11.532000506182777 268.63636605118467, -7.534883329705304 268.4845297001065, -7.5421298709473525 268.29376329757537 C -7.549376412189401 268.1029968950442, -7.556622953452172 267.9122304926243, -7.563869494685968 267.72146409010855 C -7.571116035919764 267.5306976875928, -11.568233212403335 267.68253403851054, -11.560986671169537 267.8733004410263 M -16.642029992920943 271.04831864803964 C -16.55183176835131 271.1440255727037, -16.461633543824256 271.23973249751833, -16.371435319250185 271.33543942218944 C -16.281237094676115 271.43114634686054, -13.370276338379375 268.6877346979641, -13.460474562953445 268.592027773293 C -13.550672787527516 268.4963208486219, -13.640871012088027 268.4006139237718, -13.731069236657659 268.30490699910774 C -13.82126746122729 268.2092000744437, -16.732228217490576 270.9526117233756, -16.642029992920943 271.04831864803964 M -28.757737867637783 291.90043347927156 C -28.609424817451544 291.98866573157693, -28.461111767245676 292.076897983924, -28.312798717060147 292.16513023622446 C -28.16448566687462 292.2533624885249, -26.11939447234996 288.81568856476804, -26.26770752253549 288.7274563124676 C -26.416020572721017 288.6392240601672, -26.564333622849457 288.5509918078661, -26.712646673035696 288.46275955556075 C -26.860959723221935 288.3745273032554, -28.90605091782402 291.8122012269662, -28.757737867637783 291.90043347927156 M -14.555908057039073 274.79654442978824 C -14.327342227682493 274.8924711819772, -14.098776398382824 274.98839793418944, -13.870210569022511 275.0843246863773 C -13.641644739662198 275.1802514385651, -12.093687349930114 271.4919146969465, -12.322253179290428 271.39598794475864 C -12.550819008650741 271.3000611925708, -12.779384837913312 271.20413444037416, -13.007950667269892 271.1082076881852 C -13.236516496626471 271.0122809359962, -14.784473886395652 274.70061767759927, -14.555908057039073 274.79654442978824 M -13.660339613790944 269.6204051430446 C -13.907706730199013 269.5055250575949, -14.155073846548422 269.39064497200104, -14.402440962943881 269.2757648865524 C -14.64980807933934 269.16088480110375, -16.33462812497328 272.7887466250753, -16.08726100857782 272.90362671052395 C -15.83989389218236 273.0185067959726, -15.592526775774644 273.13338688159354, -15.345159659366574 273.2482669670432 C -15.097792542958505 273.3631470524929, -13.412972497382874 269.73528522849426, -13.660339613790944 269.6204051430446 M -22.715279800158154 283.44120287098116 C -23.074096957274023 283.2713607130923, -23.43291411407051 283.10151855509974, -23.79173127118256 282.93167639716086 C -24.15054842829461 282.76183423922197, -25.8618744046026 286.37726829377385, -25.50305724749055 286.54711045171274 C -25.1442400903785 286.7169526096516, -24.785422933155367 286.8867947678461, -24.426605776039498 287.05663692573495 C -24.06778861892363 287.2264790836238, -22.356462643042285 283.61104502887, -22.715279800158154 283.44120287098116 M -26.247325042131216 289.529307040847 C -26.582487872960325 289.3231414486426, -26.917650703595722 289.1169758566314, -27.252813534414692 288.9108102643894 C -27.58797636523366 288.70464467214737, -29.68371382150519 292.11167923528006, -29.34855099068622 292.3178448275221 C -29.01338815986725 292.5240104197641, -28.678225328908336 292.73017601197427, -28.343062498079227 292.93634160417866 C -28.00789966725012 293.14250719638306, -25.912162211302107 289.7354726330514, -26.247325042131216 289.529307040847" stroke="#e28343" fill="none">
		<title>.id(nerve_feature_34_outline)</title>
	</path>
	<path d="M 12.614171733977729 74.13723888087917 C 12.917453595067796 73.24673978566376, 13.725655990389022 72.58356652265455, 14.651411079960447 72.50165762638969" stroke="#01136e" fill="none">
		<title>.id(nerve_feature_35)</title>
	</path>
	<path d="M 14.50738511616099 74.78202030859109 C 14.810666977251056 73.89152121337568, 13.901923259811998 74.57578384255973, 14.827678349383422 74.49387494629487 C 15.753433438954847 74.41196605003, 15.400898900108896 70.42753141021964, 14.475143810537471 70.5094403064845 C 13.549388720966046 70.59134920274937, 11.024240212884536 72.60195835795184, 10.720958351794469 73.49245745316725 C 10.417676490704402 74.38295654838265, 14.204103255070923 75.67251940380649, 14.50738511616099 74.78202030859109" stroke="#e28343" fill="none">
		<title>.id(nerve_feature_35_outline)</title>
	</path>
	<path d="M 29.62483457822499 120.64181321096717 C 29.437635405945663 120.6494567021788, 29.25043623366589 120.6571001934791, 29.06323706138584 120.66474368468948" stroke="#01136e" fill="none">
		<title>.id(nerve_feature_36)</title>
	</path>
	<path d="M 29.543240972482884 118.64347828320807 C 29.356041800203556 118.65112177441969, 29.168842627937273 118.65876526571944, 28.981643455657224 118.66640875692983 C 28.794444283377175 118.67405224814021, 28.95763149483441 122.67072210365953, 29.14483066711446 122.66307861244914 C 29.332029839394508 122.65543512123875, 29.51922901168777 122.6477916299379, 29.7064281839671 122.64014813872627 C 29.893627356246427 122.63250464751465, 29.730440144762213 118.63583479199644, 29.543240972482884 118.64347828320807" stroke="#e28343" fill="none">
		<title>.id(nerve_feature_36_outline)</title>
	</path>
	<path d="M -26.045327509663093 24.401587558929684 C -26.136904384038868 24.2497094952583, -26.22848125842835 24.097831431575816, -26.32005813280558 23.945953367899442 M -27.30768812744831 25.036384612549256 C -27.820051874419157 25.09610556675105, -28.332415621429732 25.15582652094672, -28.84477936840811 25.215547475148306" stroke="#01136e" fill="none">
		<title>.id(nerve_feature_37)</title>
	</path>
	<path d="M -24.332584732444783 23.36886679362741 C -24.424161606820558 23.21698872995603, -24.515738481202295 23.06511066628639, -24.607315355579527 22.913232602610016 C -24.69889222995676 22.76135453893364, -28.124377784408868 24.826796069512493, -28.032800910031636 24.978674133188868 C -27.941224035654404 25.130552196865242, -27.849647161257177 25.282430260560574, -27.758070286881402 25.434308324231957 C -27.666493412505627 25.58618638790334, -24.241007858069008 23.520744857298794, -24.332584732444783 23.36886679362741 M -27.539239844098937 23.04983388263669 C -28.051603591069785 23.109554836838484, -28.5639673380762 23.16927579103367, -29.076331085054576 23.228996745235257 C -29.588694832032953 23.288717699436845, -29.125591398740017 27.261819159262934, -28.61322765176164 27.202098205061354 C -28.100863904783264 27.142377250859774, -27.58850015776853 27.082656296663615, -27.07613641079768 27.02293534246182 C -26.563772663826832 26.963214388260027, -27.02687609712809 22.990112928434897, -27.539239844098937 23.04983388263669" stroke="#e28343" fill="none">
		<title>.id(nerve_feature_37_outline)</title>
	</path>
	<path d="M -37.53158374270715 7.077172070416667 C -35.37299128540086 10.367407524428618, -33.21428932868408 13.657810017281928, -31.056079391598605 16.94745926939192 C -28.897869454513128 20.237108521501913, -26.745986366816524 23.53345218794133, -24.58605001160952 26.80618778656619 C -22.426113656402503 30.078923385191054, -19.84483159727825 32.926912717967355, -17.194998966954724 35.700106566300654 C -14.545166336631207 38.473300414633954, -12.846080409851464 42.07126737342319, -10.300376403669226 45.02756100324531 C -7.75467239748698 47.98385463306742, -4.63947923721109 50.464854119483576, -1.7496633721990227 53.081465130204116 C 1.1401524928130458 55.69807614092467, 3.658096151753481 58.508453387397864, 6.194314982351044 61.44393182141654 C 8.730533812948606 64.37941025543522, 11.409782465834205 67.3601527805526, 13.489373560261088 70.29375597165858 C 15.568964654687973 73.22735916276454, 17.26362075533624 74.80930042598935, 19.083539124777484 78.2952479290745 C 20.90345749421872 81.78119543215962, 22.727343197477406 85.69940719239437, 23.626801470511534 88.87250509946335 C 24.52625974354566 92.04560300653236, 25.326006118071028 94.30610778067792, 25.937102655465605 96.55221317761364 C 26.54819919286018 98.79831857454936, 26.874599309520136 100.90570560106853, 27.353407632208224 103.22426462483656 C 27.83221595489631 105.54282364860465, 27.797496434583074 109.14214888328831, 29.16332719695568 113.87155196033719 C 30.52915795932829 118.60095503738606, 30.07181291380119 123.54158173743508, 29.614169166976055 128.18280903811734 C 29.156525420150913 132.82403633879957, 28.825673349227053 137.15531696665664, 29.155646086942628 141.79426398328246 C 29.485618824658193 146.4332109999082, 30.06995056372412 151.1613713493657, 29.236836285060377 155.80131671119267 C 28.40372200639664 160.44126207301966, 27.442613167893573 164.98133345225096, 26.984699682994023 169.5184417069933 C 26.526786198094467 174.05554996173564, 24.467134161529447 178.46491275040043, 24.07886334806503 182.85781822555958" stroke="#01136e" fill="none">
		<title>.id(nerve_feature_38)</title>
	</path>
	<path d="M -39.20382515502873 8.174263068883393 C -37.04523269772244 11.464498522895344, -34.88653025990474 14.754901749066596, -32.72832032281926 18.044551001176586 C -30.570110385733784 21.33420025328658, -28.41522139209948 24.635112040331627, -26.255285036892474 27.90784763895649 C -24.095348681685458 31.180583237581352, -21.29084114827369 34.308598781597574, -18.641008517950162 37.081792629930874 C -15.991175887626646 39.85498647826417, -14.36161631270421 43.37631562048699, -11.815912306521973 46.33260925030912 C -9.270208300339725 49.28890288013123, -5.98187441978152 51.94741109100666, -3.0920585547694532 54.5640221017272 C -0.2022426897573868 57.18063311244775, 2.1447135889308786 59.815998116477715, 4.680932419528442 62.75147655049639 C 7.217151250126003 65.68695498451507, 9.778159171713106 68.51678817084697, 11.85775026613999 71.45039136195295 C 13.937341360566876 74.38399455305893, 15.490693729074197 75.73489740067629, 17.310612098515442 79.22084490376145 C 19.130530467956678 82.70679240684656, 20.80315558312616 86.24484465423328, 21.702613856160287 89.41794256130225 C 22.60207212919441 92.59104046837126, 23.396156553303072 94.83116078501646, 24.00725309069765 97.07726618195218 C 24.618349628092226 99.3233715788879, 24.91592883974617 101.31019291957857, 25.394737162434257 103.6287519433466 C 25.873545485122342 105.94731096711467, 25.87602027684004 109.6970627281553, 27.241851039212648 114.42646580520417 C 28.607681801585258 119.15586888225305, 28.081465340454688 123.34532543238045, 27.623821593629554 127.98655273306271 C 27.166177846804413 132.62778003374493, 26.83071384301091 137.2972203441987, 27.160686580726484 141.93616736082453 C 27.49065931844205 146.57511437745026, 28.10143054877321 150.80791845188477, 27.268316270109466 155.44786381371173 C 26.43520199144573 160.08780917553872, 25.452722120089376 164.7805011394407, 24.994808635189827 169.31760939418302 C 24.53689515029027 173.85471764892537, 22.474900749900158 178.28882744837915, 22.08662993643574 182.6817329235383 C 21.698359122971326 187.07463839869746, 25.682825946229904 187.42680900274001, 26.07109675969432 183.03390352758086 C 26.459367573158737 178.6409980524217, 28.516677245898663 174.2563822745459, 28.974590730798216 169.71927401980355 C 29.43250421569777 165.18216576506123, 30.372242021347553 160.7947149705006, 31.205356300011292 156.15476960867363 C 32.03847057867503 151.51482424684664, 31.480578330874337 146.29130762236613, 31.150605593158765 141.65236060574034 C 30.820632855443197 137.01341358911458, 31.146872993497414 133.02029264385422, 31.604516740322552 128.37906534317196 C 32.062160487147686 123.73783804248971, 32.450634117071324 118.04604119251907, 31.084803354698714 113.31663811547021 C 29.718972592326107 108.58723503842133, 29.790886424670276 105.13833633009463, 29.312078101982188 102.81977730632657 C 28.833269779294103 100.5012182825585, 28.478048757628137 98.27326557021081, 27.866952220233564 96.02716017327509 C 27.255855682838984 93.78105477633937, 26.450447357896905 91.50016554469346, 25.550989084862778 88.32706763762447 C 24.651530811828653 85.15396973055547, 22.676384520480763 80.85559845747268, 20.856466151039523 77.36965095438754 C 19.036547781598287 73.88370345130241, 17.20058794880907 72.07072377247016, 15.120996854382184 69.13712058136419 C 13.041405759955303 66.20351739025823, 10.243916375771208 63.071865526355374, 7.707697545173646 60.1363870923367 C 5.171478714576083 57.20090865831801, 2.4825476753834783 54.21551916940159, -0.40726818962858946 51.59890815868104 C -3.297084054640659 48.982297147960494, -6.239136494634234 46.678806386003615, -8.784840500816475 43.722512756181494 C -11.330544506998717 40.76621912635939, -13.099156785635767 37.091614351003734, -15.748989415959292 34.31842050267043 C -18.398822046282813 31.545226654337135, -20.756878631119548 28.977263532800755, -22.916814986326557 25.704527934175893 C -25.07675134153357 22.43179233555103, -27.22562852329247 19.140016789717247, -29.383838460377945 15.850367537607255 C -31.54204839746343 12.560718285497261, -33.700749873079275 9.270316525961892, -35.859342330385566 5.980081071949942 C -38.01793478769186 2.6898456179379924, -41.36241761233502 4.884027614871442, -39.20382515502873 8.174263068883393" stroke="#e28343" fill="none">
		<title>.id(nerve_feature_38_outline)</title>
	</path>
	<path d="M -22.973483600920115 27.902418820417296 C -22.817947702910942 27.782699572747877, -22.662411804893605 27.66298032507489, -22.50687590688434 27.54326107740579" stroke="#01136e" fill="none">
		<title>.id(nerve_feature_39)</title>
	</path>
	<path d="M -21.753574009403735 29.48729124068536 C -21.598038111394562 29.367571993015936, -21.442502213379726 29.247852745344876, -21.28696631537046 29.128133497675776 C -21.131430417361194 29.008414250006677, -23.571249600388953 25.838669409466707, -23.72678549839822 25.958388657135806 C -23.882321396407484 26.078107904804906, -24.037857294427322 26.197827152479817, -24.193393192436496 26.317546400149233 C -24.34892909044567 26.43726564781865, -21.90910990741291 29.60701048835478, -21.753574009403735 29.48729124068536" stroke="#e28343" fill="none">
		<title>.id(nerve_feature_39_outline)</title>
	</path>
	<path d="M 4.213481293982744 249.81607883190463 C 3.8152234473294317 249.73982851587354, 3.416965600644659 249.66357819963142, 3.0187077539826745 249.5873278836283 M 2.561214085716736 254.20205132141922 C 1.9350778232438253 254.02359891685623, 1.3089415607595911 253.8451465123292, 0.6828052982997963 253.6666941079012 M 2.5936238929972495 255.26586240685947 C 2.2589432936038 255.01091537220057, 1.9242626941861745 254.75596833764294, 1.5895820947948738 254.50102130299587 M -0.8217269845769046 265.8055733370631 C -0.618846997687346 265.8865572851537, -0.41596701087354027 265.96754123331635, -0.21308702398397894 266.048525181416" stroke="#01136e" fill="none">
		<title>.id(nerve_feature_40)</title>
	</path>
	<path d="M 4.589569575002312 247.85175767565758 C 4.1913117283490005 247.7755073596265, 3.793053881523264 247.6992570433574, 3.3947960348612796 247.62300672735427 C 2.996538188199295 247.54675641135114, 2.244361626442085 251.4753987238992, 2.6426194731040695 251.55164903990232 C 3.040877319766054 251.62789935590544, 3.439135166309863 251.7041496721206, 3.837393012963175 251.7803999881517 C 4.235650859616487 251.85665030418278, 4.987827421655624 247.92800799168867, 4.589569575002312 247.85175767565758 M 3.1093961870214857 252.27864382850225 C 2.483259924548575 252.10019142393926, 1.8571236616914053 251.92173901930593, 1.2309873992316103 251.74328661487795 C 0.6048511367718152 251.56483421044996, -0.4915130650918126 255.41164919649648, 0.13462319736798223 255.59010160092447 C 0.760759459827777 255.76855400535246, 1.3868957219390754 255.9470064097732, 2.0130319844119864 256.1254588143362 C 2.639168246884897 256.3039112188992, 3.7355324494943964 252.45709623306524, 3.1093961870214857 252.27864382850225 M 3.805566826877654 253.67488964624496 C 3.470886227484204 253.41994261158607, 3.1362056280359365 253.1649955770051, 2.801525028644636 252.91004854235803 C 2.466844429253335 252.65510150771095, 0.04295856155381084 255.8370470289866, 0.3776391609451115 256.0919940636337 C 0.7123197603364122 256.3469410982808, 1.0470003597233954 256.6018881328151, 1.381680959116845 256.856835167474 C 1.7163615585102947 257.11178220213293, 4.140247426271104 253.92983668090386, 3.805566826877654 253.67488964624496 M -1.5631817993041508 267.6630567845581 C -1.3603018124145922 267.74404073264867, -1.157421825672154 267.8250246807828, -0.9545418387825928 267.90600862888243 C -0.7516618518930316 267.98699257698206, 0.7312477777041962 264.27202568204916, 0.5283677908146349 264.19104173394953 C 0.3254878039250736 264.1100577858499, 0.1226078170399002 264.0290738376587, -0.08027216984965846 263.9480898895681 C -0.2831521567392171 263.8671059414775, -1.7660617861937093 267.5820728364675, -1.5631817993041508 267.6630567845581" stroke="#e28343" fill="none">
		<title>.id(nerve_feature_40_outline)</title>
	</path>
	<path d="M 15.357147149826606 221.1695077600135 C 14.91734380186816 221.09095369000204, 14.477540453954422 221.0123996199607, 14.03773710599653 220.9338455499886 M 17.313641071380534 223.50928503453423 C 17.656638498412452 223.7279165281291, 17.999635925438195 223.946548021568, 18.342633352458087 224.1651795151649 M 11.282139410917466 236.15779070451487 C 11.748635163304261 236.35378065495135, 12.215130915664306 236.5497706054536, 12.68162666805655 236.74576055586527 M 7.2749499238122155 239.58808181827135 C 7.127399202473505 239.43193433726069, 6.9798484811416595 239.27578685629572, 6.83229775980167 239.1196393752855" stroke="#01136e" fill="none">
		<title>.id(nerve_feature_41)</title>
	</path>
	<path d="M 15.70880546554675 219.20066636747197 C 15.269002117588304 219.12211229746052, 14.829198769504224 219.04355822738873, 14.389395421546332 218.96500415741664 C 13.949592073588441 218.88645008744456, 13.246275442488837 222.82413287258848, 13.686078790446729 222.90268694256056 C 14.12588213840462 222.98124101253265, 14.565685486148016 223.05979508254356, 15.005488834106462 223.138349152555 C 15.445292182064907 223.21690322256646, 16.148608813505195 219.27922043748342, 15.70880546554675 219.20066636747197 M 16.238629064213473 225.19580487860563 C 16.58162649124539 225.4144363722005, 16.924623918237177 225.63306786561776, 17.26762134525707 225.85169935921468 C 17.61061877227696 226.0703308528116, 19.760642786678996 222.69729116471206, 19.417645359659105 222.47865967111514 C 19.074647932639213 222.26002817751822, 18.731650505579513 222.0413966840577, 18.388653078547595 221.82276519046283 C 18.045655651515677 221.60413369686796, 15.895631637181555 224.97717338501076, 16.238629064213473 225.19580487860563 M 10.507467024194714 238.00166778644015 C 10.973962776581509 238.19765773687664, 11.440458529032606 238.39364768741714, 11.90695428142485 238.58963763782882 C 12.373450033817095 238.7856275882405, 13.922794807080495 235.0978734243134, 13.45629905468825 234.90188347390173 C 12.989803302296005 234.70589352349006, 12.523307550027013 234.50990357302607, 12.056811797640218 234.31391362258958 C 11.590316045253424 234.1179236721531, 10.04097127180792 237.80567783600367, 10.507467024194714 238.00166778644015 M 8.728613231330405 238.21445050369846 C 8.581062509991694 238.0583030226878, 8.433511788652032 237.90215554171456, 8.285961067312043 237.74600806070433 C 8.138410345972053 237.5898605796941, 5.231083730951307 240.3371232088564, 5.378634452291297 240.49327068986665 C 5.526185173631286 240.64941817087688, 5.673735894955316 240.80556565183358, 5.821286616294026 240.96171313284424 C 5.968837337632737 241.1178606138549, 8.876163952669115 238.37059798470912, 8.728613231330405 238.21445050369846" stroke="#e28343" fill="none">
		<title>.id(nerve_feature_41_outline)</title>
	</path>
	<path d="M -9.646577930449148 45.00438148193987 C -9.503518954117167 44.83689331909278, -9.360459977787375 44.66940515624776, -9.217401001454624 44.50191699340137" stroke="#01136e" fill="none">
		<title>.id(nerve_feature_42)</title>
	</path>
	<path d="M -8.12581340265997 46.303333078812585 C -7.98275442632799 46.13584491596549, -7.839695450004349 45.96835675312767, -7.696636473671598 45.80086859028128 C -7.553577497338846 45.63338042743489, -10.595106552904898 43.035477233675074, -10.73816552923765 43.20296539652146 C -10.881224505570401 43.37045355936785, -11.024283481906345 43.53794172222007, -11.167342458238325 43.70542988506716 C -11.310401434570306 43.872918047914254, -8.26887237899195 46.47082124165968, -8.12581340265997 46.303333078812585" stroke="#e28343" fill="none">
		<title>.id(nerve_feature_42_outline)</title>
	</path>
	<path d="M 23.403635907206358 181.6537378845499 C 23.07833023043072 181.4998654733265, 22.75302455362563 181.34599306207846, 22.42771887684411 181.1921206508566" stroke="#01136e" fill="none">
		<title>.id(nerve_feature_43)</title>
	</path>
	<path d="M 24.258810970746875 179.84578998411183 C 23.933505293971237 179.69191757288843, 23.608199617146546 179.53804516163112, 23.282893940365028 179.38417275040925 C 22.95758826358351 179.23030033918738, 21.247238136541675 182.84619614008207, 21.572543813323193 183.00006855130394 C 21.89784949010471 183.1539409625258, 22.2231551668902 183.3078133737646, 22.54846084366584 183.461685784988 C 22.873766520441478 183.6155581962114, 24.584116647522514 179.99966239533524, 24.258810970746875 179.84578998411183" stroke="#e28343" fill="none">
		<title>.id(nerve_feature_43_outline)</title>
	</path>
	<path d="M -20.533452015164112 33.279345135358554 C -20.69906495213163 33.45574690194029, -20.8646778891151 33.6321486685533, -21.03029082608349 33.80855043513074" stroke="#01136e" fill="none">
		<title>.id(nerve_feature_44)</title>
	</path>
	<path d="M -21.99155155992954 31.91042376524453 C -22.157164496897053 32.086825531826264, -22.322777433860303 32.26322729841773, -22.488390370828693 32.439629064995174 C -22.654003307797083 32.616030831572616, -19.737804218306678 35.35387357184375, -19.572191281338288 35.17747180526631 C -19.406578344369898 35.001070038688866, -19.240965407366204 34.82466827205431, -19.075352470398684 34.64826650547258 C -18.909739533431164 34.471864738890844, -21.825938622962028 31.734021998662797, -21.99155155992954 31.91042376524453" stroke="#e28343" fill="none">
		<title>.id(nerve_feature_44_outline)</title>
	</path>
	<path d="M 20.27275139806771 211.8208507736312 C 20.395015281962802 211.89784564712252, 20.517279165867564 211.9748405205931, 20.639543049763 212.05183539407594 M 16.30775167076359 224.66428870915536 C 16.511089028623477 224.70685254730552, 16.71442638647463 224.74941638531692, 16.91776374433501 224.79198022346588 M 15.226223019485596 229.40531434106748 C 15.961611276765842 229.7032285655543, 16.696999534031427 230.00114278992825, 17.432387791310987 230.2990570143901" stroke="#01136e" fill="none">
		<title>.id(nerve_feature_45)</title>
	</path>
	<path d="M 19.2069869850283 213.5132296366222 C 19.329250868923392 213.59022451011353, 19.45151475291425 213.66721938363833, 19.573778636809685 213.74421425712117 C 19.69604252070512 213.82120913060402, 21.827571346611748 210.43645140451355, 21.705307462716313 210.3594565310307 C 21.583043578820877 210.28246165754786, 21.460779695002213 210.20546678413152, 21.338515811107122 210.1284719106402 C 21.21625192721203 210.05147703714889, 19.08472310113321 213.4362347631309, 19.2069869850283 213.5132296366222 M 15.897980572405835 226.62186058445155 C 16.101317930265722 226.6644244226017, 16.30465528812883 226.70698826061562, 16.50799264598921 226.74955209876458 C 16.711330003849586 226.79211593691355, 17.530872200541186 222.87697218631615, 17.32753484268081 222.8344083481672 C 17.12419748482043 222.79184451001822, 16.920860126981232 222.74928067200932, 16.717522769121345 222.70671683385916 C 16.514185411261458 222.664152995709, 15.694643214545948 226.5792967463014, 15.897980572405835 226.62186058445155 M 14.475280761296833 231.2589825219635 C 15.210669018577079 231.55689674645032, 15.946057275896157 231.85481097084593, 16.68144553317572 232.15272519530777 C 17.41683379045528 232.4506394197696, 18.918718306725815 228.74330305793424, 18.183330049446255 228.4453888334724 C 17.447941792166695 228.14747460901057, 16.712553534954605 227.84956038465828, 15.97716527767436 227.55164616017146 C 15.241777020394114 227.25373193568464, 13.739892504016588 230.9610682974767, 14.475280761296833 231.2589825219635" stroke="#e28343" fill="none">
		<title>.id(nerve_feature_45_outline)</title>
	</path>
	<path d="M 24.07886334806503 182.8578182255596 C 23.69059253460061 187.2507237007188, 23.624866520122808 191.577803974239, 22.921250931886714 195.6896447683991 C 22.21763534365063 199.8014855625592, 21.91644142610307 203.54491234074442, 21.142600890143807 207.23371381755638 C 20.368760354184534 210.9225152943682, 18.77063143367714 214.64644141388766, 17.538726113603335 218.61727587993119 C 16.30682079352954 222.58811034597477, 14.687842973131502 226.589914981943, 12.987947993166816 230.49149557171262 C 11.288053013202136 234.3930761614822, 8.469151975013107 237.79809290033265, 6.773397244627379 241.2928047591943 C 5.07764251424165 244.78751661805595, 5.547451331704562 249.17032619349283, 4.310679173534638 253.37664048807528 C 3.0739070153647123 257.5829547826578, 1.4832218266159027 262.1129412467459, -1.5000558401354116 264.7735703205614 C -4.48333350688673 267.43419939437695, -9.269815272958331 266.9409240234775, -13.12833220331106 268.505581728824 C -16.98684913366379 270.0702394341704, -19.57236681205041 273.5505272725549, -21.71037808304772 277.34479481476785 C -23.84838935404503 281.1390623569809, -25.584473694462126 285.35015623078834, -27.446232189497678 289.2107879915745 C -29.307990684533237 293.0714197523605, -31.366539015456798 296.12864122881894, -32.151153393024764 295.21510220118415 C -32.935767770592726 294.3015631735494, -31.910025839945938 291.5089006739842, -30.094603188205674 287.6870506505205 C -28.279180536465415 283.86520062705694, -26.190650601343062 279.9254595452657, -24.245018711874724 276.14583649312283 C -22.299386822406394 272.3662134409799, -20.336032907236497 268.7662038258434, -17.62521453630014 265.70429510757407 C -14.91439616536378 262.642386389305, -11.402313458456872 259.80674772627304, -8.042913995284973 258.28200959631505 C -4.683514532113071 256.75727146635694, -3.452013766836502 257.43085860341455, -4.856116554288405 259.7900345442219 C -6.260219341740314 262.1492104850294, -9.416960929875373 264.8938764315811, -11.569512029042713 268.1956817803817 C -13.72206312821005 271.4974871291823, -15.949422429448589 274.90898406997604, -18.113537637762445 278.2985332186509 C -20.277652846076297 281.68808236732553, -22.093269545940856 285.16958383683095, -24.14267380266245 288.4896059147939 C -26.192078059384063 291.80962799275704, -28.499127468521714 295.0681671298453, -30.755511291265897 298.3726630406551 C -33.01189511401007 301.6771589514649, -35.27435169336522 304.99150485388316, -37.53590193140943 308.3053632007774 C -39.79745216945363 311.6192215476716, -42.05944624078667 314.9346004191932, -44.3215518068533 318.2509977329952 C -46.58365737291993 321.5673950467972, -48.84595322812733 324.884927179471, -51.108470177427044 328.2036176807682 C -53.37098712672676 331.5223081820655, -55.633729761759845 334.842164001971, -57.89672620980122 338.16319036111827 C -60.1597226578426 341.4842167202656, -62.422972973340684 344.8064136181743, -64.68648364044091 348.12973968802993 C -66.94999430754113 351.45306575788567, -69.21376499617087 354.7775203854238, -71.47778397044992 358.10302248092495 C -73.74180294472899 361.42852457642596, -76.00606984148035 364.75507349986486, -78.27056001956498 368.0825580734091 C -80.53505019764958 371.41004264695323, -82.79976334322373 374.73846232276793, -85.0646668064195 378.06768443916803 C -87.3295702696153 381.39690655556825, -89.59466381532316 384.7269306827406, -91.85991060516726 388.057609496257 C -94.12515739501133 391.38828830977354, -96.39055727554621 394.71962149118644, -98.6560718080851 398.0514521319616 C -100.92158634062403 401.38328277273666, -103.18721544168812 404.7156106412643, -105.45292053080077 408.0482728814481 C -107.71862561991345 411.38093512163186, -109.98440666621768 414.71393156335466, -112.25022550530898 418.0470959630706 C -114.51604434440031 421.3802603627866, -116.78190097865979 424.713592589051, -119.0477576067437 428.04692487473346" stroke="#01136e" fill="none">
		<title>.id(nerve_feature_46)</title>
	</path>
	<path d="M 22.08662993643574 182.68173292353833 C 21.698359122971322 187.07463839869752, 21.65352058806514 191.2404685089234, 20.949904999829045 195.3523093030835 C 20.24628941159296 199.46415009724362, 19.959048265494527 203.13428840719584, 19.185207729535264 206.8230898840078 C 18.411367193575995 210.51189136081962, 16.860445618296144 214.05382842827458, 15.62854029822234 218.0246628943181 C 14.396634978148542 221.9954973603617, 12.854314392136622 225.79105770891175, 11.154419412171936 229.69263829868137 C 9.454524432207256 233.59421888845097, 6.669796509438951 236.9249835666817, 4.974041779053223 240.41969542554335 C 3.2782870486674955 243.914407284405, 3.628673521601287 248.60615271356374, 2.3919013634313626 252.8124670081462 C 1.1551292052614364 257.0187813027287, 0.152028941168048 260.6203175494487, -2.8312487255832663 263.28094662326424 C -5.814526392334585 265.94157569707977, -10.021388063633706 265.08751140338546, -13.879904993986436 266.6521691087319 C -17.73842192433914 268.21682681407833, -21.31478434173125 272.5687018541322, -23.452795612728558 276.36296939634514 C -25.59080688372587 280.1572369385582, -27.38594123378152 284.48141305540304, -29.24769972881707 288.3420448161892 C -31.109458223852627 292.2026765769752, -32.883754102080665 297.43173692020963, -33.66836847964863 296.51819789257485 C -34.2388634619834 292.78434808692555, -30.10347887181717 292.3670312304526, -28.288056220076907 288.5451812069889 C -26.472633568336654 284.7233311835253, -24.412424482707323 280.84083480765906, -22.466792593238985 277.0612117555162 C -20.521160703770654 273.28158870337325, -18.83857550613735 270.09195694460016, -16.12775713520099 267.03004822633085 C -13.416938764264657 263.9681395080618, -10.57572382576105 261.62794227357426, -7.216324362589152 260.10320414361627 C -3.8569248994172245 258.57846601365816, -1.7333740157461983 258.45373562729, -3.1374768031981013 260.8129115680973 C -7.283096365615744 263.8678502361197, -11.092367889799155 263.8016257650036, -13.244918988966495 267.1034311138042 C -15.397470088133831 270.4052364626048, -17.63513755216286 273.8327106265369, -19.799252760476715 277.22225977521174 C -21.96336796879055 280.6118089238863, -23.79513995335435 284.11904249239456, -25.844544210075945 287.4390645703575 C -27.89394846679756 290.75908664832065, -30.15080975869528 293.94036146736306, -32.407193581439465 297.24485737817287 C -34.66357740418364 300.5493532889827, -36.926318654615734 303.8641162079687, -39.18786889265994 307.17797455486294 C -41.44941913070414 310.49183290175716, -43.711686267636196 313.80761200147265, -45.973791833702826 317.12400931527463 C -48.235897399769456 320.4404066290766, -50.49846042351503 323.7583305483772, -52.76097737281474 327.07702104967444 C -55.023494322114466 330.3957115509717, -57.28649470911446 333.7159455379082, -59.549491157155835 337.0369718970555 C -61.81248760519721 340.3579982562028, -64.07598157181822 343.680552803793, -66.33949223891844 347.0038788736486 C -68.60300290601867 350.32720494350434, -70.86699879740972 353.6519902887843, -73.13101777168878 356.9774923842854 C -75.39503674596783 360.30299447978643, -77.65950668011493 363.6298416923487, -79.92399685819956 366.9573262658929 C -82.18848703628416 370.28481083943706, -84.45337786292102 373.6134916474851, -86.71828132611678 376.9427137638852 C -88.98318478931259 380.2719358802854, -91.24842788065773 383.6021798586875, -93.51367467050183 386.9328586722039 C -95.77892146034591 390.26353748572046, -98.0444403550652 393.5950456781437, -100.30995488760409 396.92687631891886 C -102.57546942014301 400.2587069596939, -104.84118502973195 403.5911620644827, -107.10689011884459 406.92382430466654 C -109.37259520795726 410.25648654485025, -111.63842877488733 413.5895602438912, -113.90424761397863 416.9227246436071 C -116.17006645306998 420.2558890433232, -118.43594069840627 423.5892471770441, -120.70179732649018 426.92257946272656 C -122.96765395457409 430.255911748409, -119.65957451508113 432.5046025724228, -117.39371788699722 429.17127028674037 C -115.12786125891331 425.8379380010579, -112.86202223573065 422.50463168225, -110.59620339663934 419.171467282534 C -108.33038455754803 415.83830288281814, -106.06465603186965 412.5053836984135, -103.79895094275699 409.1727214582297 C -101.5332458536443 405.84005921804584, -99.26770326110505 402.50785858577945, -97.00218872856615 399.17602794500436 C -94.73667419602722 395.84419730422917, -92.47139332967674 392.5130391338266, -90.20614653983266 389.1823603203102 C -87.94089974998859 385.8516815067937, -85.67595574991802 382.5218772308511, -83.41105228672224 379.19265511445093 C -81.14614882352645 375.86343299805077, -78.881613359015 372.5352744544694, -76.61712318093039 369.20778988092525 C -74.35263300284578 365.88030530738104, -72.08856914349015 362.5540546730655, -69.8245501692111 359.2285525775644 C -67.56053119493201 355.90305048206335, -65.29698570906359 352.578926572267, -63.03347504196336 349.2556005024113 C -60.76996437486315 345.93227443255563, -58.50695771048799 342.61043518432837, -56.24396126244661 339.2894088251811 C -53.98096481440523 335.9683824660338, -51.718479931339054 332.6489048131593, -49.455962982039345 329.33021431186205 C -47.19344603273963 326.01152381056477, -44.931417346070404 322.6943834645177, -42.669311780003774 319.37798615071574 C -40.407206213937144 316.06158883691376, -38.14548520820311 312.74661019358604, -35.883934970158904 309.4327518466918 C -33.6223847321147 306.1188934997976, -31.360212823836505 302.8049646139471, -29.103829001092322 299.5004687031373 C -26.847445178348146 296.1959727923275, -24.490207651970564 292.86016933719344, -22.440803395248963 289.5401472592304 C -20.391399138527362 286.22012518126735, -18.591937723362044 282.76435581076476, -16.427822515048188 279.37480666209 C -14.26370730673432 275.9852575134152, -12.046656168286267 272.58973779575973, -9.894105069118927 269.28793244695913 C -7.741553969951591 265.98612709815853, -5.237342317864883 260.43057073393913, -3.833239530412978 258.07139479313173 C -5.170653517926805 256.4079815795391, -5.510104164808917 254.9360769190557, -8.869503627980817 256.4608150490138 C -12.228903091152693 257.9855531789718, -16.411853566462902 261.31663327054815, -19.12267193739926 264.37854198881735 C -21.833490308335644 267.4404507070866, -24.077612941042133 271.45083817858654, -26.02324483051047 275.2304612307294 C -27.9688767199788 279.01008428287236, -30.085727504594175 283.00707007058855, -31.901150156334438 286.8289200940522 C -33.7165728080747 290.65077011751583, -31.632672079202052 295.8187782601733, -30.848057701634083 296.7323172878081 C -29.849323928832934 294.82554553742824, -27.506523145213848 293.9401629277458, -25.644764650178296 290.0795311669597 C -23.783006155142733 286.21889940617365, -22.105971824364186 282.1208877754036, -19.967960553366876 278.3266202331906 C -17.829949282369572 274.53235269097763, -16.23527634298844 271.92365205426245, -12.376759412635709 270.35899434891604 C -8.518242482282956 268.7943366435696, -3.152140621438875 268.9268230916741, -0.1688629546875604 266.2661940178586 C 2.8144147120637575 263.60556494404307, 4.992684825467988 258.1471282625869, 6.2294569836379114 253.9408139680044 C 7.466229141807837 249.7344996734219, 6.876997979815805 245.6606259517069, 8.572752710201534 242.16591409284524 C 10.268507440587262 238.6712022339836, 13.121581594197016 235.19193343451346, 14.8214765741617 231.29035284474384 C 16.521371554126382 227.38877225497424, 18.217006608910534 223.18072333158784, 19.448911928984334 219.2098888655443 C 20.680817249058133 215.23905439950073, 22.326153514793074 211.33313922791677, 23.09999405075234 207.64433775110487 C 23.873834586711613 203.955536274293, 24.1889812757083 200.1388210278748, 24.89259686394439 196.02698023371468 C 25.596212452180477 191.9151394395546, 25.6828259462299 187.42680900274007, 26.07109675969432 183.0339035275809 C 26.45936757315874 178.6409980524217, 22.47490074990016 178.28882744837915, 22.08662993643574 182.68173292353833" stroke="#e28343" fill="none">
		<title>.id(nerve_feature_46_outline)</title>
	</path>
	<path d="M 17.00365442568964 74.66460498454725 C 17.54370432472781 74.8463728412702, 17.450494064672128 75.4415640819932, 16.83071462157877 75.5802121831238" stroke="#01136e" fill="none">
		<title>.id(nerve_feature_47)</title>
	</path>
	<path d="M 16.365669642941857 76.56011953658378 C 16.905719541980027 76.74188739330673, 17.01387472384821 73.48980499050202, 16.394095280754854 73.62845309163262 C 15.774315837661497 73.76710119276322, 16.64755451930933 77.67061937574559, 17.267333962402688 77.53197127461499 C 17.887113405496045 77.39332317348439, 18.18168910747559 72.95085828923366, 17.64163920843742 72.76909043251072 C 17.10158930939925 72.58732257578778, 15.825619743903687 76.37835167986084, 16.365669642941857 76.56011953658378" stroke="#e28343" fill="none">
		<title>.id(nerve_feature_47_outline)</title>
	</path>
	<path d="M -37.53158374270715 7.077172070416667 C -35.37299128540086 10.367407524428618, -33.21428932868408 13.657810017281928, -31.056079391598605 16.94745926939192 C -28.897869454513128 20.237108521501913, -26.745986366816524 23.53345218794133, -24.58605001160952 26.80618778656619 C -22.426113656402503 30.078923385191054, -19.84483159727825 32.926912717967355, -17.194998966954724 35.700106566300654 C -14.545166336631207 38.473300414633954, -12.846080409851464 42.07126737342319, -10.300376403669226 45.02756100324531 C -7.75467239748698 47.98385463306742, -4.63947923721109 50.464854119483576, -1.7496633721990227 53.081465130204116 C 1.1401524928130458 55.69807614092467, 3.658096151753481 58.508453387397864, 6.194314982351044 61.44393182141654 C 8.730533812948606 64.37941025543522, 11.409782465834205 67.3601527805526, 13.489373560261088 70.29375597165858 C 15.568964654687973 73.22735916276454, 17.26362075533624 74.80930042598935, 19.083539124777484 78.2952479290745 C 20.90345749421872 81.78119543215962, 22.727343197477406 85.69940719239437, 23.626801470511534 88.87250509946335 C 24.52625974354566 92.04560300653236, 25.326006118071028 94.30610778067792, 25.937102655465605 96.55221317761364 C 26.54819919286018 98.79831857454936, 26.874599309520136 100.90570560106853, 27.353407632208224 103.22426462483656 C 27.83221595489631 105.54282364860465, 27.797496434583074 109.14214888328831, 29.16332719695568 113.87155196033719 C 30.52915795932829 118.60095503738606, 30.07181291380119 123.54158173743508, 29.614169166976055 128.18280903811734 C 29.156525420150913 132.82403633879957, 28.825673349227053 137.15531696665664, 29.155646086942628 141.79426398328246 C 29.485618824658193 146.4332109999082, 30.06995056372412 151.1613713493657, 29.236836285060377 155.80131671119267 C 28.40372200639664 160.44126207301966, 27.442613167893573 164.98133345225096, 26.984699682994023 169.5184417069933 C 26.526786198094467 174.05554996173564, 24.467134161529447 178.46491275040043, 24.07886334806503 182.85781822555958 C 23.69059253460061 187.2507237007188, 23.624866520122808 191.577803974239, 22.921250931886714 195.6896447683991 C 22.21763534365063 199.8014855625592, 21.91644142610307 203.54491234074442, 21.142600890143807 207.23371381755638 C 20.368760354184534 210.9225152943682, 18.77063143367714 214.64644141388766, 17.538726113603335 218.61727587993119 C 16.30682079352954 222.58811034597477, 14.687842973131502 226.589914981943, 12.987947993166816 230.49149557171262 C 11.288053013202136 234.3930761614822, 8.469151975013107 237.79809290033265, 6.773397244627379 241.2928047591943 C 5.07764251424165 244.78751661805595, 5.547451331704562 249.17032619349283, 4.310679173534638 253.37664048807528 C 3.0739070153647123 257.5829547826578, 1.4832218266159027 262.1129412467459, -1.5000558401354116 264.7735703205614 C -4.48333350688673 267.43419939437695, -9.269815272958331 266.9409240234775, -13.12833220331106 268.505581728824 C -16.98684913366379 270.0702394341704, -19.57236681205041 273.5505272725549, -21.71037808304772 277.34479481476785 C -23.84838935404503 281.1390623569809, -25.584473694462126 285.35015623078834, -27.446232189497678 289.2107879915745 C -29.307990684533237 293.0714197523605, -31.366539015456798 296.12864122881894, -32.151153393024764 295.21510220118415 C -32.935767770592726 294.3015631735494, -31.910025839945938 291.5089006739842, -30.094603188205674 287.6870506505205 C -28.279180536465415 283.86520062705694, -26.190650601343062 279.9254595452657, -24.245018711874724 276.14583649312283 C -22.299386822406394 272.3662134409799, -20.336032907236497 268.7662038258434, -17.62521453630014 265.70429510757407 C -14.91439616536378 262.642386389305, -11.402313458456872 259.80674772627304, -8.042913995284973 258.28200959631505 C -4.683514532113071 256.75727146635694, -3.452013766836502 257.43085860341455, -4.856116554288405 259.7900345442219 C -6.260219341740314 262.1492104850294, -9.416960929875373 264.8938764315811, -11.569512029042713 268.1956817803817 C -13.72206312821005 271.4974871291823, -15.949422429448589 274.90898406997604, -18.113537637762445 278.2985332186509 C -20.277652846076297 281.68808236732553, -22.093269545940856 285.16958383683095, -24.14267380266245 288.4896059147939 C -26.192078059384063 291.80962799275704, -28.499127468521714 295.0681671298453, -30.755511291265897 298.3726630406551 C -33.01189511401007 301.6771589514649, -35.27435169336522 304.99150485388316, -37.53590193140943 308.3053632007774 C -39.79745216945363 311.6192215476716, -42.05944624078667 314.9346004191932, -44.3215518068533 318.2509977329952 C -46.58365737291993 321.5673950467972, -48.84595322812733 324.884927179471, -51.108470177427044 328.2036176807682 C -53.37098712672676 331.5223081820655, -55.633729761759845 334.842164001971, -57.89672620980122 338.16319036111827 C -60.1597226578426 341.4842167202656, -62.422972973340684 344.8064136181743, -64.68648364044091 348.12973968802993 C -66.94999430754113 351.45306575788567, -69.21376499617087 354.7775203854238, -71.47778397044992 358.10302248092495 C -73.74180294472899 361.42852457642596, -76.00606984148035 364.75507349986486, -78.27056001956498 368.0825580734091 C -80.53505019764958 371.41004264695323, -82.79976334322373 374.73846232276793, -85.0646668064195 378.06768443916803 C -87.3295702696153 381.39690655556825, -89.59466381532316 384.7269306827406, -91.85991060516726 388.057609496257 C -94.12515739501133 391.38828830977354, -96.39055727554621 394.71962149118644, -98.6560718080851 398.0514521319616 C -100.92158634062403 401.38328277273666, -103.18721544168812 404.7156106412643, -105.45292053080077 408.0482728814481 C -107.71862561991345 411.38093512163186, -109.98440666621768 414.71393156335466, -112.25022550530898 418.0470959630706 C -114.51604434440031 421.3802603627866, -116.78190097865979 424.713592589051, -119.0477576067437 428.04692487473346" stroke="#01136e" fill="none">
		<title>.id(nerve_feature_48)</title>
	</path>
	<path d="M -39.20382515502873 8.174263068883393 C -37.04523269772244 11.464498522895344, -34.88653025990474 14.754901749066596, -32.72832032281926 18.044551001176586 C -30.570110385733784 21.33420025328658, -28.41522139209948 24.635112040331627, -26.255285036892474 27.90784763895649 C -24.095348681685458 31.180583237581352, -21.29084114827369 34.308598781597574, -18.641008517950162 37.081792629930874 C -15.991175887626646 39.85498647826417, -14.36161631270421 43.37631562048699, -11.815912306521973 46.33260925030912 C -9.270208300339725 49.28890288013123, -5.98187441978152 51.94741109100666, -3.0920585547694532 54.5640221017272 C -0.2022426897573868 57.18063311244775, 2.1447135889308786 59.815998116477715, 4.680932419528442 62.75147655049639 C 7.217151250126003 65.68695498451507, 9.778159171713106 68.51678817084697, 11.85775026613999 71.45039136195295 C 13.937341360566876 74.38399455305893, 15.490693729074197 75.73489740067629, 17.310612098515442 79.22084490376145 C 19.130530467956678 82.70679240684656, 20.80315558312616 86.24484465423328, 21.702613856160287 89.41794256130225 C 22.60207212919441 92.59104046837126, 23.396156553303072 94.83116078501646, 24.00725309069765 97.07726618195218 C 24.618349628092226 99.3233715788879, 24.91592883974617 101.31019291957857, 25.394737162434257 103.6287519433466 C 25.873545485122342 105.94731096711467, 25.87602027684004 109.6970627281553, 27.241851039212648 114.42646580520417 C 28.607681801585258 119.15586888225305, 28.081465340454688 123.34532543238045, 27.623821593629554 127.98655273306271 C 27.166177846804413 132.62778003374493, 26.83071384301091 137.2972203441987, 27.160686580726484 141.93616736082453 C 27.49065931844205 146.57511437745026, 28.10143054877321 150.80791845188477, 27.268316270109466 155.44786381371173 C 26.43520199144573 160.08780917553872, 25.452722120089376 164.7805011394407, 24.994808635189827 169.31760939418302 C 24.53689515029027 173.85471764892537, 22.474900749900158 178.28882744837915, 22.08662993643574 182.6817329235383 C 21.698359122971322 187.07463839869752, 21.65352058806514 191.2404685089234, 20.949904999829045 195.3523093030835 C 20.24628941159296 199.46415009724362, 19.959048265494527 203.13428840719584, 19.185207729535264 206.8230898840078 C 18.411367193575995 210.51189136081962, 16.860445618296144 214.05382842827458, 15.62854029822234 218.0246628943181 C 14.396634978148542 221.9954973603617, 12.854314392136622 225.79105770891175, 11.154419412171936 229.69263829868137 C 9.454524432207256 233.59421888845097, 6.669796509438951 236.9249835666817, 4.974041779053223 240.41969542554335 C 3.2782870486674955 243.914407284405, 3.628673521601287 248.60615271356374, 2.3919013634313626 252.8124670081462 C 1.1551292052614364 257.0187813027287, 0.152028941168048 260.6203175494487, -2.8312487255832663 263.28094662326424 C -5.814526392334585 265.94157569707977, -10.021388063633706 265.08751140338546, -13.879904993986436 266.6521691087319 C -17.73842192433914 268.21682681407833, -21.31478434173125 272.5687018541322, -23.452795612728558 276.36296939634514 C -25.59080688372587 280.1572369385582, -27.38594123378152 284.48141305540304, -29.24769972881707 288.3420448161892 C -31.109458223852627 292.2026765769752, -32.883754102080665 297.43173692020963, -33.66836847964863 296.51819789257485 C -34.2388634619834 292.78434808692555, -30.10347887181717 292.3670312304526, -28.288056220076907 288.5451812069889 C -26.472633568336654 284.7233311835253, -24.412424482707323 280.84083480765906, -22.466792593238985 277.0612117555162 C -20.521160703770654 273.28158870337325, -18.83857550613735 270.09195694460016, -16.12775713520099 267.03004822633085 C -13.416938764264657 263.9681395080618, -10.57572382576105 261.62794227357426, -7.216324362589152 260.10320414361627 C -3.8569248994172245 258.57846601365816, -1.7333740157461983 258.45373562729, -3.1374768031981013 260.8129115680973 C -7.283096365615744 263.8678502361197, -11.092367889799155 263.8016257650036, -13.244918988966495 267.1034311138042 C -15.397470088133831 270.4052364626048, -17.63513755216286 273.8327106265369, -19.799252760476715 277.22225977521174 C -21.96336796879055 280.6118089238863, -23.79513995335435 284.11904249239456, -25.844544210075945 287.4390645703575 C -27.89394846679756 290.75908664832065, -30.15080975869528 293.94036146736306, -32.407193581439465 297.24485737817287 C -34.66357740418364 300.5493532889827, -36.926318654615734 303.8641162079687, -39.18786889265994 307.17797455486294 C -41.44941913070414 310.49183290175716, -43.711686267636196 313.80761200147265, -45.973791833702826 317.12400931527463 C -48.235897399769456 320.4404066290766, -50.49846042351503 323.7583305483772, -52.76097737281474 327.07702104967444 C -55.023494322114466 330.3957115509717, -57.28649470911446 333.7159455379082, -59.549491157155835 337.0369718970555 C -61.81248760519721 340.3579982562028, -64.07598157181822 343.680552803793, -66.33949223891844 347.0038788736486 C -68.60300290601867 350.32720494350434, -70.86699879740972 353.6519902887843, -73.13101777168878 356.9774923842854 C -75.39503674596783 360.30299447978643, -77.65950668011493 363.6298416923487, -79.92399685819956 366.9573262658929 C -82.18848703628416 370.28481083943706, -84.45337786292102 373.6134916474851, -86.71828132611678 376.9427137638852 C -88.98318478931259 380.2719358802854, -91.24842788065773 383.6021798586875, -93.51367467050183 386.9328586722039 C -95.77892146034591 390.26353748572046, -98.0444403550652 393.5950456781437, -100.30995488760409 396.92687631891886 C -102.57546942014301 400.2587069596939, -104.84118502973195 403.5911620644827, -107.10689011884459 406.92382430466654 C -109.37259520795726 410.25648654485025, -111.63842877488733 413.5895602438912, -113.90424761397863 416.9227246436071 C -116.17006645306998 420.2558890433232, -118.43594069840627 423.5892471770441, -120.70179732649018 426.92257946272656 C -122.96765395457409 430.255911748409, -119.65957451508113 432.5046025724228, -117.39371788699722 429.17127028674037 C -115.12786125891331 425.8379380010579, -112.86202223573065 422.50463168225, -110.59620339663934 419.171467282534 C -108.33038455754803 415.83830288281814, -106.06465603186965 412.5053836984135, -103.79895094275699 409.1727214582297 C -101.5332458536443 405.84005921804584, -99.26770326110505 402.50785858577945, -97.00218872856615 399.17602794500436 C -94.73667419602722 395.84419730422917, -92.47139332967674 392.5130391338266, -90.20614653983266 389.1823603203102 C -87.94089974998859 385.8516815067937, -85.67595574991802 382.5218772308511, -83.41105228672224 379.19265511445093 C -81.14614882352645 375.86343299805077, -78.881613359015 372.5352744544694, -76.61712318093039 369.20778988092525 C -74.35263300284578 365.88030530738104, -72.08856914349015 362.5540546730655, -69.8245501692111 359.2285525775644 C -67.56053119493201 355.90305048206335, -65.29698570906359 352.578926572267, -63.03347504196336 349.2556005024113 C -60.76996437486315 345.93227443255563, -58.50695771048799 342.61043518432837, -56.24396126244661 339.2894088251811 C -53.98096481440523 335.9683824660338, -51.718479931339054 332.6489048131593, -49.455962982039345 329.33021431186205 C -47.19344603273963 326.01152381056477, -44.931417346070404 322.6943834645177, -42.669311780003774 319.37798615071574 C -40.407206213937144 316.06158883691376, -38.14548520820311 312.74661019358604, -35.883934970158904 309.4327518466918 C -33.6223847321147 306.1188934997976, -31.360212823836505 302.8049646139471, -29.103829001092322 299.5004687031373 C -26.847445178348146 296.1959727923275, -24.490207651970564 292.86016933719344, -22.440803395248963 289.5401472592304 C -20.391399138527362 286.22012518126735, -18.591937723362044 282.76435581076476, -16.427822515048188 279.37480666209 C -14.26370730673432 275.9852575134152, -12.046656168286267 272.58973779575973, -9.894105069118927 269.28793244695913 C -7.741553969951591 265.98612709815853, -5.237342317864883 260.43057073393913, -3.833239530412978 258.07139479313173 C -5.170653517926805 256.4079815795391, -5.510104164808917 254.9360769190557, -8.869503627980817 256.4608150490138 C -12.228903091152693 257.9855531789718, -16.411853566462902 261.31663327054815, -19.12267193739926 264.37854198881735 C -21.833490308335644 267.4404507070866, -24.077612941042133 271.45083817858654, -26.02324483051047 275.2304612307294 C -27.9688767199788 279.01008428287236, -30.085727504594175 283.00707007058855, -31.901150156334438 286.8289200940522 C -33.7165728080747 290.65077011751583, -31.632672079202052 295.8187782601733, -30.848057701634083 296.7323172878081 C -29.849323928832934 294.82554553742824, -27.506523145213848 293.9401629277458, -25.644764650178296 290.0795311669597 C -23.783006155142733 286.21889940617365, -22.105971824364186 282.1208877754036, -19.967960553366876 278.3266202331906 C -17.829949282369572 274.53235269097763, -16.23527634298844 271.92365205426245, -12.376759412635709 270.35899434891604 C -8.518242482282956 268.7943366435696, -3.152140621438875 268.9268230916741, -0.1688629546875604 266.2661940178586 C 2.8144147120637575 263.60556494404307, 4.992684825467988 258.1471282625869, 6.2294569836379114 253.9408139680044 C 7.466229141807837 249.7344996734219, 6.876997979815805 245.6606259517069, 8.572752710201534 242.16591409284524 C 10.268507440587262 238.6712022339836, 13.121581594197016 235.19193343451346, 14.8214765741617 231.29035284474384 C 16.521371554126382 227.38877225497424, 18.217006608910534 223.18072333158784, 19.448911928984334 219.2098888655443 C 20.680817249058133 215.23905439950073, 22.326153514793074 211.33313922791677, 23.09999405075234 207.64433775110487 C 23.873834586711613 203.955536274293, 24.1889812757083 200.1388210278748, 24.89259686394439 196.02698023371468 C 25.596212452180477 191.9151394395546, 25.6828259462299 187.42680900274007, 26.07109675969432 183.0339035275809 C 26.459367573158737 178.6409980524217, 28.516677245898663 174.2563822745459, 28.974590730798216 169.71927401980355 C 29.43250421569777 165.18216576506123, 30.372242021347553 160.7947149705006, 31.205356300011292 156.15476960867363 C 32.03847057867503 151.51482424684664, 31.480578330874337 146.29130762236613, 31.150605593158765 141.65236060574034 C 30.820632855443197 137.01341358911458, 31.146872993497414 133.02029264385422, 31.604516740322552 128.37906534317196 C 32.062160487147686 123.73783804248971, 32.450634117071324 118.04604119251907, 31.084803354698714 113.31663811547021 C 29.718972592326107 108.58723503842133, 29.790886424670276 105.13833633009463, 29.312078101982188 102.81977730632657 C 28.833269779294103 100.5012182825585, 28.478048757628137 98.27326557021081, 27.866952220233564 96.02716017327509 C 27.255855682838984 93.78105477633937, 26.450447357896905 91.50016554469346, 25.550989084862778 88.32706763762447 C 24.651530811828653 85.15396973055547, 22.676384520480763 80.85559845747268, 20.856466151039523 77.36965095438754 C 19.036547781598287 73.88370345130241, 17.20058794880907 72.07072377247016, 15.120996854382184 69.13712058136419 C 13.041405759955303 66.20351739025823, 10.243916375771208 63.071865526355374, 7.707697545173646 60.1363870923367 C 5.171478714576083 57.20090865831801, 2.4825476753834783 54.21551916940159, -0.40726818962858946 51.59890815868104 C -3.297084054640659 48.982297147960494, -6.239136494634234 46.678806386003615, -8.784840500816475 43.722512756181494 C -11.330544506998717 40.76621912635939, -13.099156785635767 37.091614351003734, -15.748989415959292 34.31842050267043 C -18.398822046282813 31.545226654337135, -20.756878631119548 28.977263532800755, -22.916814986326557 25.704527934175893 C -25.07675134153357 22.43179233555103, -27.22562852329247 19.140016789717247, -29.383838460377945 15.850367537607255 C -31.54204839746343 12.560718285497261, -33.700749873079275 9.270316525961892, -35.859342330385566 5.980081071949942 C -38.01793478769186 2.6898456179379924, -41.36241761233502 4.884027614871442, -39.20382515502873 8.174263068883393" stroke="#e28343" fill="none">
		<title>.id(nerve_feature_48_outline)</title>
	</path>
	<circle cx="-28.588153203323778" cy="20.713426883479837" r="1" fill="orange">
		<title>.id(marker_10001)</title>
	</circle>
	<circle cx="-23.1206921416583" cy="28.884745460955916" r="1" fill="orange">
		<title>.id(marker_10002)</title>
	</circle>
	<circle cx="8.68071143976005" cy="64.30996016492854" r="1" fill="orange">
		<title>.id(marker_10003)</title>
	</circle>
	<circle cx="23.327819994412238" cy="87.89219869651292" r="1" fill="orange">
		<title>.id(marker_10004)</title>
	</circle>
	<circle cx="28.029849080918705" cy="108.43648253199538" r="1" fill="orange">
		<title>.id(marker_10005)</title>
	</circle>
	<circle cx="24.111831642039263" cy="182.52117338623034" r="1" fill="orange">
		<title>.id(marker_10006)</title>
	</circle>
	<circle cx="19.633488590711625" cy="212.46653784921298" r="1" fill="orange">
		<title>.id(marker_10007)</title>
	</circle>
	<circle cx="-5.55905438699869" cy="266.7332525558758" r="1" fill="orange">
		<title>.id(marker_10008)</title>
	</circle>
</svg>
