<?xml version="1.0" ?>
<svg xmlns="http://www.w3.org/2000/svg" width="1000" height="1000" viewBox="-46 -11 162 423">
	<rect x="-46" y="-11" width="162" height="21" fill="red">
		<title>.id(brain_region)</title>
	</rect>
	<rect x="-46" y="10" width="162" height="140" fill="green">
		<title>.id(cervical_region)</title>
	</rect>
	<rect x="-46" y="150" width="162" height="320" fill="grey">
		<title>.id(thoracic_region)</title>
	</rect>
	<rect x="-46" y="470" width="162" height="159" fill="blue">
		<title>.id(lumbar_region)</title>
	</rect>
	<circle style="fill: rgb(216, 216, 216);" cx="6.627204157778433" cy="61.540861516198405" r="0.9054">
		<title>.id(point_01)</title>
	</circle>
	<circle style="fill: rgb(216, 216, 216);" cx="6.779560379635926" cy="61.334372018843354" r="0.9054">
		<title>.id(point_02)</title>
	</circle>
	<circle style="fill: rgb(216, 216, 216);" cx="10.051377534975803" cy="30.93793695745479" r="0.9054">
		<title>.id(point_03)</title>
	</circle>
	<circle style="fill: rgb(216, 216, 216);" cx="8.871164812062272" cy="31.0216244056368" r="0.9054">
		<title>.id(point_04)</title>
	</circle>
	<circle style="fill: rgb(216, 216, 216);" cx="6.254015659746072" cy="61.35697613059481" r="0.9054">
		<title>.id(point_05)</title>
	</circle>
	<circle style="fill: rgb(216, 216, 216);" cx="5.928261852177698" cy="61.290843124676705" r="0.9054">
		<title>.id(point_06)</title>
	</circle>
	<circle style="fill: rgb(216, 216, 216);" cx="8.43164069915732" cy="55.033149537276586" r="0.9054">
		<title>.id(point_07)</title>
	</circle>
	<circle style="fill: rgb(216, 216, 216);" cx="8.65620372904424" cy="55.71845842616628" r="0.9054">
		<title>.id(point_08)</title>
	</circle>
	<circle style="fill: rgb(216, 216, 216);" cx="-10.10691554549534" cy="298.36310332847705" r="0.9054">
		<title>.id(point_09)</title>
	</circle>
	<circle style="fill: rgb(216, 216, 216);" cx="-10.852134384144081" cy="298.53902081231803" r="0.9054">
		<title>.id(point_10)</title>
	</circle>
	<circle style="fill: rgb(216, 216, 216);" cx="-5.777271845758385" cy="314.7484992056221" r="0.9054">
		<title>.id(point_11)</title>
	</circle>
	<circle style="fill: rgb(216, 216, 216);" cx="11.633458175548295" cy="335.859618900019" r="0.9054">
		<title>.id(point_12)</title>
	</circle>
	<circle style="fill: rgb(216, 216, 216);" cx="12.744599556841273" cy="334.61285356683186" r="0.9054">
		<title>.id(point_13)</title>
	</circle>
	<circle style="fill: rgb(216, 216, 216);" cx="15.265497620505315" cy="334.81675417219134" r="0.9054">
		<title>.id(point_14)</title>
	</circle>
	<circle style="fill: rgb(216, 216, 216);" cx="19.52749895961496" cy="334.3097208629762" r="0.9054">
		<title>.id(point_15)</title>
	</circle>
	<circle style="fill: rgb(216, 216, 216);" cx="26.029808804042794" cy="337.34966763421585" r="0.9054">
		<title>.id(point_16)</title>
	</circle>
	<circle style="fill: rgb(216, 216, 216);" cx="0.3558321524414769" cy="79.15756915025355" r="0.9054">
		<title>.id(point_17)</title>
	</circle>
	<circle style="fill: rgb(216, 216, 216);" cx="-0.5967869131547604" cy="78.79768749534439" r="0.9054">
		<title>.id(point_18)</title>
	</circle>
	<circle style="fill: rgb(216, 216, 216);" cx="-1.3537158095949278" cy="89.65696370414416" r="0.9054">
		<title>.id(point_19)</title>
	</circle>
	<circle style="fill: rgb(216, 216, 216);" cx="-5.333805390898357" cy="97.8456551696777" r="0.9054">
		<title>.id(point_20)</title>
	</circle>
	<circle style="fill: rgb(216, 216, 216);" cx="-7.5835664646280465" cy="107.42190412057163" r="0.9054">
		<title>.id(point_21)</title>
	</circle>
	<circle style="fill: rgb(216, 216, 216);" cx="-23.9503479871331" cy="232.17453478941698" r="0.9054">
		<title>.id(point_22)</title>
	</circle>
	<circle style="fill: rgb(216, 216, 216);" cx="-26.682614874295165" cy="231.36930345844976" r="0.9054">
		<title>.id(point_23)</title>
	</circle>
	<circle style="fill: rgb(216, 216, 216);" cx="6.233025593153179" cy="335.1117904363074" r="0.9054">
		<title>.id(point_24)</title>
	</circle>
	<circle style="fill: rgb(216, 216, 216);" cx="7.450722808420869" cy="54.63157697151681" r="0.9054">
		<title>.id(point_25)</title>
	</circle>
	<circle style="fill: rgb(216, 216, 216);" cx="6.783292381379423" cy="54.12966690390163" r="0.9054">
		<title>.id(point_26)</title>
	</circle>
	<circle style="fill: rgb(216, 216, 216);" cx="6.414703597500775" cy="56.792085939304734" r="0.9054">
		<title>.id(point_27)</title>
	</circle>
	<circle style="fill: rgb(216, 216, 216);" cx="-21.552845024742467" cy="253.4028424454325" r="0.9054">
		<title>.id(point_28)</title>
	</circle>
	<circle style="fill: rgb(216, 216, 216);" cx="-23.755469653599086" cy="256.9375143762572" r="0.9054">
		<title>.id(point_29)</title>
	</circle>
	<circle style="fill: rgb(216, 216, 216);" cx="-20.014831022040486" cy="260.6029974986169" r="0.9054">
		<title>.id(point_30)</title>
	</circle>
	<circle style="fill: rgb(216, 216, 216);" cx="-5.433417453965359" cy="315.1139734790003" r="0.9054">
		<title>.id(point_31)</title>
	</circle>
	<circle style="fill: rgb(216, 216, 216);" cx="-1.3558664063614259" cy="89.65628294902243" r="0.9054">
		<title>.id(point_32)</title>
	</circle>
	<circle style="fill: rgb(216, 216, 216);" cx="7.304575447084693" cy="336.36358235079297" r="0.9054">
		<title>.id(point_33)</title>
	</circle>
	<circle style="fill: rgb(216, 216, 216);" cx="5.633465696497054" cy="56.43222961889146" r="0.9054">
		<title>.id(point_34)</title>
	</circle>
	<circle style="fill: rgb(216, 216, 216);" cx="-20.24415445613386" cy="260.64109472865755" r="0.9054">
		<title>.id(point_35)</title>
	</circle>
	<circle style="fill: rgb(216, 216, 216);" cx="11.376741143981729" cy="336.25027419948526" r="0.9054">
		<title>.id(point_36)</title>
	</circle>
	<circle style="fill: rgb(216, 216, 216);" cx="-5.999572747973412" cy="97.65927161574179" r="0.9054">
		<title>.id(point_37)</title>
	</circle>
	<circle style="fill: rgb(216, 216, 216);" cx="12.594992554482802" cy="333.95445177946857" r="0.9054">
		<title>.id(point_38)</title>
	</circle>
	<circle style="fill: rgb(216, 216, 216);" cx="-8.584929386247179" cy="107.24060320182801" r="0.9054">
		<title>.id(point_39)</title>
	</circle>
	<circle style="fill: rgb(216, 216, 216);" cx="14.94614936263372" cy="335.2236077389591" r="0.9054">
		<title>.id(point_40)</title>
	</circle>
	<circle style="fill: rgb(216, 216, 216);" cx="19.835662678397448" cy="333.70495750171733" r="0.9054">
		<title>.id(point_41)</title>
	</circle>
	<circle style="fill: rgb(216, 216, 216);" cx="26.25980778062423" cy="336.7418586452469" r="0.9054">
		<title>.id(point_42)</title>
	</circle>
	<circle style="fill: rgb(216, 216, 216);" cx="6.013136701606916" cy="1.155316806422904" r="0.9054">
		<title>.id(point_43)</title>
	</circle>
	<circle style="fill: rgb(216, 216, 216);" cx="-19.509926879036165" cy="179.7811838712381" r="0.9054">
		<title>.id(point_44)</title>
	</circle>
	<circle style="fill: rgb(216, 216, 216);" cx="103.13030140718729" cy="398.98118369723846" r="0.9054">
		<title>.id(point_45)</title>
	</circle>
	<circle style="fill: rgb(216, 216, 216);" cx="-11.133900700445661" cy="289.94441361507796" r="0.9054">
		<title>.id(point_46)</title>
	</circle>
	<circle style="fill: rgb(216, 216, 216);" cx="-11.27414047548688" cy="289.98287020929433" r="0.9054">
		<title>.id(point_47)</title>
	</circle>
	<circle style="fill: rgb(216, 216, 216);" cx="8.563366915674663" cy="54.01647024194277" r="0.9054">
		<title>.id(point_48)</title>
	</circle>
	<circle style="fill: rgb(216, 216, 216);" cx="8.93076624002871" cy="53.80669697350272" r="0.9054">
		<title>.id(point_49)</title>
	</circle>
	<circle style="fill: rgb(216, 216, 216);" cx="-23.49678537775676" cy="234.1085198115598" r="0.9054">
		<title>.id(point_50)</title>
	</circle>
	<circle style="fill: rgb(216, 216, 216);" cx="-35.023642110087636" cy="255.26586880244358" r="0.9054">
		<title>.id(point_51)</title>
	</circle>
	<circle style="fill: rgb(216, 216, 216);" cx="-21.588902146797288" cy="245.7907739059413" r="0.9054">
		<title>.id(point_52)</title>
	</circle>
	<circle style="fill: rgb(216, 216, 216);" cx="-29.976448873528113" cy="263.3437715491742" r="0.9054">
		<title>.id(point_53)</title>
	</circle>
	<path d="M 6.627204157778433 61.540861516198405 C 6.677989565063066 61.47203168375037, 6.728774972350639 61.40320185129229, 6.779560379635926 61.334372018843354" stroke="#01136e" fill="none">
		<title>.id(nerve_feature_01)</title>
	</path>
	<path d="M 8.236548516765213 62.728300244806086 C 8.287333924049847 62.659470412358054, 8.338119331337545 62.5906405798998, 8.388904738622832 62.521810747450864 C 8.43969014590812 62.45298091500193, 5.221001427934308 60.07810345778691, 5.17021602064902 60.14693329023584 C 5.119430613363733 60.21576312268478, 5.068645206076286 60.28459295514269, 5.017859798791653 60.35342278759072 C 4.96707439150702 60.422252620038755, 8.185763109480579 62.79713007725412, 8.236548516765213 62.728300244806086" stroke="#e28343" fill="none">
		<title>.id(nerve_feature_01_outline)</title>
	</path>
	<path d="M 10.051377534975803 30.93793695745479 C 9.657973294001412 30.96583277352533, 9.264569053036322 30.9937285895723, 8.871164812062272 31.0216244056368" stroke="#01136e" fill="none">
		<title>.id(nerve_feature_02)</title>
	</path>
	<path d="M 9.909915162794235 28.94294613109574 C 9.516510921819844 28.97084194716628, 9.123106680885106 28.998737763211096, 8.729702439911057 29.026633579275597 C 8.336298198937007 29.054529395340097, 8.619222943239437 33.0445110480625, 9.012627184213487 33.016615231998 C 9.406031425187537 32.9887194159335, 9.79943566618298 32.96082359988438, 10.19283990715737 32.93292778381384 C 10.586244148131762 32.9050319677433, 10.303319403768626 28.9150503150252, 9.909915162794235 28.94294613109574" stroke="#e28343" fill="none">
		<title>.id(nerve_feature_02_outline)</title>
	</path>
	<path d="M 6.254015659746072 61.35697613059481 C 6.145431057223019 61.33493179528602, 6.036846454700672 61.31288745998334, 5.928261852177698 61.290843124676705" stroke="#01136e" fill="none">
		<title>.id(nerve_feature_03)</title>
	</path>
	<path d="M 6.651929006160196 59.39695955700531 C 6.543344403637143 59.37491522169652, 6.434759801077628 59.35287088638629, 6.326175198554654 59.33082655107966 C 6.2175905960316795 59.30878221577303, 5.4217639032777685 63.22881536296712, 5.530348505800743 63.25085969827375 C 5.638933108323717 63.27290403358038, 5.747517710808895 63.29494836887552, 5.856102313331948 63.31699270418431 C 5.964686915855001 63.3390370394931, 6.760513608683249 59.4190038923141, 6.651929006160196 59.39695955700531" stroke="#e28343" fill="none">
		<title>.id(nerve_feature_03_outline)</title>
	</path>
	<path d="M 8.43164069915732 55.033149537276586 C 8.506495042453656 55.261585833565846, 8.58134938574854 55.490022129877445, 8.65620372904424 55.71845842616628" stroke="#01136e" fill="none">
		<title>.id(nerve_feature_04)</title>
	</path>
	<path d="M 6.5310762180538795 55.65592931630607 C 6.605930561350215 55.88436561259533, 6.680784904643878 56.1128019089032, 6.755639247939578 56.341238205192035 C 6.830493591235277 56.56967450148087, 10.631622553444604 55.32411494342936, 10.556768210148903 55.095678647140524 C 10.481913866853201 54.86724235085169, 10.407059523557097 54.63880605453636, 10.332205180260761 54.4103697582471 C 10.257350836964426 54.18193346195784, 6.456221874757544 55.42749302001681, 6.5310762180538795 55.65592931630607" stroke="#e28343" fill="none">
		<title>.id(nerve_feature_04_outline)</title>
	</path>
	<path d="M -10.10691554549534 298.36310332847705 C -10.355321825053402 298.421742489747, -10.603728104587825 298.4803816510486, -10.852134384144081 298.53902081231803" stroke="#01136e" fill="none">
		<title>.id(nerve_feature_05)</title>
	</path>
	<path d="M -10.566409460809075 296.4166025342852 C -10.814815740367136 296.4752416955551, -11.063222019900923 296.53388085685657, -11.31162829945718 296.592520018126 C -11.560034579013436 296.6511591793954, -10.64104674838724 300.5441607677795, -10.392640468830983 300.4855216065101 C -10.144234189274727 300.42688244524066, -9.895827909739667 300.36824328393885, -9.647421630181606 300.30960412266893 C -9.399015350623545 300.250964961399, -10.318003181251013 296.35796337301525, -10.566409460809075 296.4166025342852" stroke="#e28343" fill="none">
		<title>.id(nerve_feature_05_outline)</title>
	</path>
	<path d="M 0.3558321524414769 79.15756915025355 C 0.03829246390900637 79.03760859862349, -0.2792472246220309 78.9176480469777, -0.5967869131547604 78.79768749534439" stroke="#01136e" fill="none">
		<title>.id(nerve_feature_06)</title>
	</path>
	<path d="M 1.0626390324652961 77.28662713235161 C 0.7450993439328255 77.16666658072155, 0.4275596554180633 77.0467060290819, 0.11001996688533378 76.92674547744859 C -0.20751972164739574 76.80678492581528, -1.621133481727584 80.54866896160688, -1.3035937931948545 80.66862951324019 C -0.9860541046621251 80.7885900648735, -0.6685144161148127 80.90855061652543, -0.35097472758234216 81.02851116815549 C -0.03343503904987166 81.14847171978555, 1.3801787209977667 77.40658768398167, 1.0626390324652961 77.28662713235161" stroke="#e28343" fill="none">
		<title>.id(nerve_feature_06_outline)</title>
	</path>
	<path d="M -23.9503479871331 232.17453478941698 C -24.830793662291725 232.65184594641073, -26.492681808203404 232.23560391372263, -26.682614874295165 231.36930345844976" stroke="#01136e" fill="none">
		<title>.id(nerve_feature_07)</title>
	</path>
	<path d="M -24.903536579141868 230.4162880751973 C -25.783982254300494 230.89359923219104, -24.539084351713726 231.8072851329097, -24.729017417805487 230.94098467763683 C -24.918950483897248 230.07468422236397, -28.826145396876605 230.93132178398983, -28.636212330784844 231.7976222392627 C -28.446279264693082 232.66392269453556, -23.877605070282957 234.41009266063043, -22.99715939512433 233.93278150363668 C -22.116713719965706 233.45547034664293, -24.023090903983242 229.93897691820354, -24.903536579141868 230.4162880751973" stroke="#e28343" fill="none">
		<title>.id(nerve_feature_07_outline)</title>
	</path>
	<path d="M 7.450722808420869 54.63157697151681 C 7.22824599940553 54.464273615643926, 7.005769190394327 54.29697025977266, 6.783292381379423 54.12966690390163" stroke="#01136e" fill="none">
		<title>.id(nerve_feature_08)</title>
	</path>
	<path d="M 8.652771512295084 53.033115550801774 C 8.430294703279746 52.86581219492889, 8.207817894261531 52.69850883905235, 7.985341085246626 52.531205483181324 C 7.762864276231721 52.3639021273103, 5.358766868497316 55.56082496875091, 5.581243677512219 55.728128324621935 C 5.803720486527123 55.89543168049296, 6.026197295531315 56.06273503635896, 6.248674104546653 56.23003839223184 C 6.471150913561992 56.39734174810472, 8.875248321310423 53.200418906674656, 8.652771512295084 53.033115550801774" stroke="#e28343" fill="none">
		<title>.id(nerve_feature_08_outline)</title>
	</path>
	<path d="M -21.552845024742467 253.4028424454325 C -22.629891735213523 253.82134447825538, -22.831486496128235 255.74591435136986, -23.755469653599086 256.9375143762572" stroke="#01136e" fill="none">
		<title>.id(nerve_feature_09)</title>
	</path>
	<path d="M -22.277212103990585 251.53862884863048 C -23.35425881446164 251.95713088145337, -24.411999847413693 254.5203624159512, -25.335983004884543 255.71196244083853 C -26.259966162355393 256.9035624657258, -23.09893945978448 259.3546663365631, -22.17495630231363 258.16306631167583 C -21.250973144842778 256.97146628678854, -21.905524655965404 255.6855580750574, -20.82847794549435 255.26705604223451 C -19.751431235023293 254.84855400941163, -21.20016539351953 251.1201268158076, -22.277212103990585 251.53862884863048" stroke="#e28343" fill="none">
		<title>.id(nerve_feature_09_outline)</title>
	</path>
	<path d="M -5.777271845758413 314.7484992056221 C -5.662653715163456 314.87032396344233, -5.548035584557703 314.992148721174, -5.433417453965359 315.1139734790003" stroke="#01136e" fill="none">
		<title>.id(nerve_feature_10)</title>
	</path>
	<path d="M -7.2339132818107945 316.118972017018 C -7.119295151215837 316.2407967748382, -7.004677020660144 316.36262153251664, -6.8900588900678 316.484446290343 C -6.7754407594754555 316.60627104816933, -3.862157887270574 313.865325425484, -3.9767760178629183 313.74350066765766 C -4.0913941484552625 313.6216759098313, -4.206012279111075 313.49985115204646, -4.320630409706032 313.37802639422625 C -4.435248540300989 313.25620163640605, -7.348531412405752 315.9971472591978, -7.2339132818107945 316.118972017018" stroke="#e28343" fill="none">
		<title>.id(nerve_feature_10_outline)</title>
	</path>
	<path d="M -1.353715809594927 89.65696370414416 C -1.3544326751839604 89.65673678577265, -1.3551495407724086 89.65650986739399, -1.3558664063614259 89.65628294902243" stroke="#01136e" fill="none">
		<title>.id(nerve_feature_11)</title>
	</path>
	<path d="M -0.7501477126831088 87.75021108453399 C -0.750864578272142 87.74998416616248, -0.7515814437109307 87.7497572478312, -0.752298309299948 87.74953032945963 C -0.7530151748889653 87.74930341108806, -1.960151369011921 91.56280865021365, -1.9594345034229037 91.56303556858522 C -1.9587176378338864 91.56326248695679, -1.9580007720957786 91.56348940538282, -1.9572839065067456 91.56371632375433 C -1.9565670409177125 91.56394324212584, -0.7494308470940755 87.7504380029055, -0.7501477126831088 87.75021108453399" stroke="#e28343" fill="none">
		<title>.id(nerve_feature_11_outline)</title>
	</path>
	<path d="M 6.233025593153177 335.1117904363074 C 7.305567440405248 336.2115636026964, 6.232033599829142 335.26380918432284, 7.304575447084693 336.36358235079297" stroke="#01136e" fill="none">
		<title>.id(nerve_feature_12)</title>
	</path>
	<path d="M 4.801196480306208 336.50816624231516 C 5.8737383275582795 337.60793940870417, 4.800204486932959 336.66018499028013, 5.872746334188509 337.75995815675026 C 6.9452881814440595 338.8597313232204, 9.808946407236427 336.0669797113058, 8.736404559980876 334.9672065448357 C 7.663862712725326 333.86743337836555, 8.737396553252216 334.81518779668863, 7.6648547060001455 333.7154146302996 C 6.592312858748075 332.6156414639106, 3.728654633054137 335.40839307592614, 4.801196480306208 336.50816624231516" stroke="#e28343" fill="none">
		<title>.id(nerve_feature_12_outline)</title>
	</path>
	<path d="M 6.414703597500775 56.792085939304734 C 6.154290963832182 56.67213383249384, 5.893878330164745 56.55218172570198, 5.633465696497054 56.43222961889146" stroke="#01136e" fill="none">
		<title>.id(nerve_feature_13)</title>
	</path>
	<path d="M 7.2514491021940595 54.975535097633745 C 6.991036468525466 54.85558299082285, 6.730623834858254 54.73563088403109, 6.470211201190563 54.61567877722057 C 6.2097985675228715 54.49572667041006, 4.536307558135854 58.128828353751835, 4.796720191803545 58.24878046056235 C 5.057132825471236 58.36873256737287, 5.3175454591388975 58.48868467416483, 5.577958092807491 58.60863678097572 C 5.838370726476085 58.728588887786614, 7.511861735862653 55.09548720444464, 7.2514491021940595 54.975535097633745" stroke="#e28343" fill="none">
		<title>.id(nerve_feature_13_outline)</title>
	</path>
	<path d="M -20.014831022040482 260.6029974986169 C -20.09127216673632 260.6156965752798, -20.167713311437744 260.6283956519986, -20.24415445613386 260.64109472865755" stroke="#01136e" fill="none">
		<title>.id(nerve_feature_14)</title>
	</path>
	<path d="M -20.342596468890527 258.6300378406788 C -20.419037613586365 258.6427369173417, -20.49547875818812 258.6554359940439, -20.571919902884236 258.6681350707029 C -20.64836104758035 258.68083414736185, -19.9928301540796 262.6267534632712, -19.916389009383483 262.6140543866122 C -19.839947864687367 262.60135530995325, -19.763506719886276 262.5886562332179, -19.687065575190438 262.575957156555 C -19.6106244304946 262.5632580798921, -20.26615532419469 258.6173387640159, -20.342596468890527 258.6300378406788" stroke="#e28343" fill="none">
		<title>.id(nerve_feature_14_outline)</title>
	</path>
	<path d="M 11.633458175548322 335.859618900019 C 11.547885831694039 335.98983733326565, 11.462313487836516 336.1200557662457, 11.376741143981729 336.25027419948526" stroke="#01136e" fill="none">
		<title>.id(nerve_feature_15)</title>
	</path>
	<path d="M 9.962048574442926 334.76126105972617 C 9.876476230588644 334.89147949297285, 9.7909038867616 335.0216979259065, 9.705331542906812 335.15191635914607 C 9.619759199052025 335.28213479238565, 12.962578401201858 337.478850473064, 13.048150745056645 337.34863203982445 C 13.133723088911433 337.2184136065849, 13.219295432799434 337.08819517355846, 13.304867776653717 336.9579767403118 C 13.390440120508 336.8277583070651, 10.04762091829721 334.6310426264795, 9.962048574442926 334.76126105972617" stroke="#e28343" fill="none">
		<title>.id(nerve_feature_15_outline)</title>
	</path>
	<path d="M -5.333805390898357 97.8456551696777 C -5.555727843239714 97.78352731828491, -5.777650295632552 97.72139946713575, -5.999572747973412 97.65927161574179" stroke="#01136e" fill="none">
		<title>.id(nerve_feature_16)</title>
	</path>
	<path d="M -4.794629518776935 95.91970361812659 C -5.016551971118291 95.8575757667338, -5.238474423500518 95.79544791558762, -5.460396875841378 95.73332006419365 C -5.682319328182238 95.67119221279968, -6.760671072446305 99.52309531589596, -6.538748620105445 99.58522316728993 C -6.316826167764585 99.64735101868389, -6.094903715361136 99.70947886983602, -5.8729812630197795 99.7716067212288 C -5.651058810678423 99.8337345726216, -4.572707066435578 95.98183146951938, -4.794629518776935 95.91970361812659" stroke="#e28343" fill="none">
		<title>.id(nerve_feature_16_outline)</title>
	</path>
	<path d="M 12.744599556841273 334.61285356683186 C 12.694730556059495 334.39338630433224, 12.644861555264143 334.1739190419601, 12.594992554482802 333.95445177946857" stroke="#01136e" fill="none">
		<title>.id(nerve_feature_17)</title>
	</path>
	<path d="M 14.694884322320998 334.1696952051397 C 14.645015321539221 333.9502279426401, 14.595146320741186 333.73076068025614, 14.545277319959846 333.5112934177646 C 14.495408319178505 333.29182615527304, 10.594838788224418 334.178142878681, 10.644707789005759 334.39761014117255 C 10.6945767897871 334.6170774036641, 10.74444579057977 334.8365446660244, 10.794314791361547 335.056011928524 C 10.844183792143324 335.27547919102363, 14.744753323102776 334.3891624676393, 14.694884322320998 334.1696952051397" stroke="#e28343" fill="none">
		<title>.id(nerve_feature_17_outline)</title>
	</path>
	<path d="M -7.583566464628046 107.42190412057163 C -7.917354105167017 107.36147048100005, -8.251141745709244 107.30103684139641, -8.584929386247179 107.24060320182801" stroke="#01136e" fill="none">
		<title>.id(nerve_feature_18)</title>
	</path>
	<path d="M -7.227251176342455 105.45390020407807 C -7.561038816881426 105.3934665645065, -7.894826457440674 105.33303292489978, -8.228614097978609 105.27259928533138 C -8.562401738516543 105.21216564576298, -9.275032315053684 109.14817347875623, -8.94124467451575 109.20860711832464 C -8.607457033977814 109.26904075789304, -8.273669393452607 109.32947439749361, -7.939881752913636 109.38990803706518 C -7.606094112374665 109.45034167663675, -6.893463535803484 105.51433384364964, -7.227251176342455 105.45390020407807" stroke="#e28343" fill="none">
		<title>.id(nerve_feature_18_outline)</title>
	</path>
	<path d="M 15.265497620505316 334.81675417219134 C 15.159048201214732 334.95237202777116, 15.052598781929866 335.0879898833943, 14.94614936263372 335.2236077389591" stroke="#01136e" fill="none">
		<title>.id(nerve_feature_19)</title>
	</path>
	<path d="M 13.69225548941764 333.5818820342877 C 13.585806070127056 333.7174998898675, 13.479356650939893 333.8531177453662, 13.372907231643747 333.988735600931 C 13.266457812347602 334.12435345649584, 16.412942074327546 336.59409773255203, 16.519391493623694 336.4584798769872 C 16.62584091291984 336.3228620214224, 16.73229033230241 336.1872441656748, 16.838739751592993 336.051626310095 C 16.945189170883577 335.9160084545152, 13.798704908708224 333.44626417870785, 13.69225548941764 333.5818820342877" stroke="#e28343" fill="none">
		<title>.id(nerve_feature_19_outline)</title>
	</path>
	<path d="M 19.52749895961496 334.3097208629762 C 19.6302201992096 334.1081330758402, 19.732941438802584 333.9065452888672, 19.835662678397448 333.70495750171733" stroke="#01136e" fill="none">
		<title>.id(nerve_feature_20)</title>
	</path>
	<path d="M 21.309486505908126 335.2177519113749 C 21.412207745502766 335.0161641242389, 21.514928985120328 334.8145763372177, 21.61765022471519 334.6129885500678 C 21.720371464310055 334.41140076291794, 18.156396371674568 332.59533866621695, 18.053675132079704 332.79692645336684 C 17.95095389248484 332.9985142405167, 17.848232652916433 333.2001020274415, 17.745511413321793 333.4016898145775 C 17.642790173727153 333.60327760171344, 21.206765266313486 335.41933969851084, 21.309486505908126 335.2177519113749" stroke="#e28343" fill="none">
		<title>.id(nerve_feature_20_outline)</title>
	</path>
	<path d="M 26.029808804042794 337.34966763421585 C 26.10647512958468 337.147064637797, 26.18314145508002 336.9444616416515, 26.25980778062423 336.7418586452469" stroke="#01136e" fill="none">
		<title>.id(nerve_feature_21)</title>
	</path>
	<path d="M 27.90036380100365 338.05749812476057 C 27.977030126545536 337.8548951283417, 28.05369645201727 337.6522921322586, 28.13036277756148 337.449689135854 C 28.20702910310569 337.2470861394494, 24.465919109231187 335.8314251582352, 24.389252783686977 336.0340281546398 C 24.312586458142768 336.23663115104443, 24.235920132623825 336.43923414725225, 24.15925380708194 336.6418371436711 C 24.082587481540052 336.84444014009, 27.823697475461763 338.26010112117945, 27.90036380100365 338.05749812476057" stroke="#e28343" fill="none">
		<title>.id(nerve_feature_21_outline)</title>
	</path>
	<path d="M 8.43164069915732 55.033149537276586 C 8.506495042453656 55.261585833565846, 8.58134938574854 55.490022129877445, 8.65620372904424 55.71845842616628" stroke="#01136e" fill="none">
		<title>.id(nerve_feature_22)</title>
	</path>
	<path d="M 6.5310762180538795 55.65592931630607 C 6.605930561350215 55.88436561259533, 6.680784904643878 56.1128019089032, 6.755639247939578 56.341238205192035 C 6.830493591235277 56.56967450148087, 10.631622553444604 55.32411494342936, 10.556768210148903 55.095678647140524 C 10.481913866853201 54.86724235085169, 10.407059523557097 54.63880605453636, 10.332205180260761 54.4103697582471 C 10.257350836964426 54.18193346195784, 6.456221874757544 55.42749302001681, 6.5310762180538795 55.65592931630607" stroke="#e28343" fill="none">
		<title>.id(nerve_feature_22_outline)</title>
	</path>
	<path d="M -10.10691554549534 298.36310332847705 C -10.355321825053402 298.421742489747, -10.603728104587825 298.4803816510486, -10.852134384144081 298.53902081231803 M -5.777271845758413 314.7484992056221 C -5.662653715163456 314.87032396344233, -5.548035584557703 314.992148721174, -5.433417453965359 315.1139734790003 M 11.633458175548322 335.859618900019 C 11.547885831694039 335.98983733326565, 11.462313487836516 336.1200557662457, 11.376741143981729 336.25027419948526 M 12.744599556841273 334.61285356683186 C 12.694730556059495 334.39338630433224, 12.644861555264143 334.1739190419601, 12.594992554482802 333.95445177946857 M 15.265497620505316 334.81675417219134 C 15.159048201214732 334.95237202777116, 15.052598781929866 335.0879898833943, 14.94614936263372 335.2236077389591 M 19.52749895961496 334.3097208629762 C 19.6302201992096 334.1081330758402, 19.732941438802584 333.9065452888672, 19.835662678397448 333.70495750171733 M 26.029808804042794 337.34966763421585 C 26.10647512958468 337.147064637797, 26.18314145508002 336.9444616416515, 26.25980778062423 336.7418586452469" stroke="#01136e" fill="none">
		<title>.id(nerve_feature_23)</title>
	</path>
	<path d="M -10.566409460809075 296.4166025342852 C -10.814815740367136 296.4752416955551, -11.063222019900923 296.53388085685657, -11.31162829945718 296.592520018126 C -11.560034579013436 296.6511591793954, -10.64104674838724 300.5441607677795, -10.392640468830983 300.4855216065101 C -10.144234189274727 300.42688244524066, -9.895827909739667 300.36824328393885, -9.647421630181606 300.30960412266893 C -9.399015350623545 300.250964961399, -10.318003181251013 296.35796337301525, -10.566409460809075 296.4166025342852 M -7.2339132818107945 316.118972017018 C -7.119295151215837 316.2407967748382, -7.004677020660144 316.36262153251664, -6.8900588900678 316.484446290343 C -6.7754407594754555 316.60627104816933, -3.862157887270574 313.865325425484, -3.9767760178629183 313.74350066765766 C -4.0913941484552625 313.6216759098313, -4.206012279111075 313.49985115204646, -4.320630409706032 313.37802639422625 C -4.435248540300989 313.25620163640605, -7.348531412405752 315.9971472591978, -7.2339132818107945 316.118972017018 M 9.962048574442926 334.76126105972617 C 9.876476230588644 334.89147949297285, 9.7909038867616 335.0216979259065, 9.705331542906812 335.15191635914607 C 9.619759199052025 335.28213479238565, 12.962578401201858 337.478850473064, 13.048150745056645 337.34863203982445 C 13.133723088911433 337.2184136065849, 13.219295432799434 337.08819517355846, 13.304867776653717 336.9579767403118 C 13.390440120508 336.8277583070651, 10.04762091829721 334.6310426264795, 9.962048574442926 334.76126105972617 M 14.694884322320998 334.1696952051397 C 14.645015321539221 333.9502279426401, 14.595146320741186 333.73076068025614, 14.545277319959846 333.5112934177646 C 14.495408319178505 333.29182615527304, 10.594838788224418 334.178142878681, 10.644707789005759 334.39761014117255 C 10.6945767897871 334.6170774036641, 10.74444579057977 334.8365446660244, 10.794314791361547 335.056011928524 C 10.844183792143324 335.27547919102363, 14.744753323102776 334.3891624676393, 14.694884322320998 334.1696952051397 M 13.69225548941764 333.5818820342877 C 13.585806070127056 333.7174998898675, 13.479356650939893 333.8531177453662, 13.372907231643747 333.988735600931 C 13.266457812347602 334.12435345649584, 16.412942074327546 336.59409773255203, 16.519391493623694 336.4584798769872 C 16.62584091291984 336.3228620214224, 16.73229033230241 336.1872441656748, 16.838739751592993 336.051626310095 C 16.945189170883577 335.9160084545152, 13.798704908708224 333.44626417870785, 13.69225548941764 333.5818820342877 M 21.309486505908126 335.2177519113749 C 21.412207745502766 335.0161641242389, 21.514928985120328 334.8145763372177, 21.61765022471519 334.6129885500678 C 21.720371464310055 334.41140076291794, 18.156396371674568 332.59533866621695, 18.053675132079704 332.79692645336684 C 17.95095389248484 332.9985142405167, 17.848232652916433 333.2001020274415, 17.745511413321793 333.4016898145775 C 17.642790173727153 333.60327760171344, 21.206765266313486 335.41933969851084, 21.309486505908126 335.2177519113749 M 27.90036380100365 338.05749812476057 C 27.977030126545536 337.8548951283417, 28.05369645201727 337.6522921322586, 28.13036277756148 337.449689135854 C 28.20702910310569 337.2470861394494, 24.465919109231187 335.8314251582352, 24.389252783686977 336.0340281546398 C 24.312586458142768 336.23663115104443, 24.235920132623825 336.43923414725225, 24.15925380708194 336.6418371436711 C 24.082587481540052 336.84444014009, 27.823697475461763 338.26010112117945, 27.90036380100365 338.05749812476057" stroke="#e28343" fill="none">
		<title>.id(nerve_feature_23_outline)</title>
	</path>
	<path d="M 0.3558321524414769 79.15756915025355 C 0.03829246390900637 79.03760859862349, -0.2792472246220309 78.9176480469777, -0.5967869131547604 78.79768749534439 M -1.353715809594927 89.65696370414416 C -1.3544326751839604 89.65673678577265, -1.3551495407724086 89.65650986739399, -1.3558664063614259 89.65628294902243 M -5.333805390898357 97.8456551696777 C -5.555727843239714 97.78352731828491, -5.777650295632552 97.72139946713575, -5.999572747973412 97.65927161574179 M -7.583566464628046 107.42190412057163 C -7.917354105167017 107.36147048100005, -8.251141745709244 107.30103684139641, -8.584929386247179 107.24060320182801" stroke="#01136e" fill="none">
		<title>.id(nerve_feature_24)</title>
	</path>
	<path d="M 1.0626390324652961 77.28662713235161 C 0.7450993439328255 77.16666658072155, 0.4275596554180633 77.0467060290819, 0.11001996688533378 76.92674547744859 C -0.20751972164739574 76.80678492581528, -1.621133481727584 80.54866896160688, -1.3035937931948545 80.66862951324019 C -0.9860541046621251 80.7885900648735, -0.6685144161148127 80.90855061652543, -0.35097472758234216 81.02851116815549 C -0.03343503904987166 81.14847171978555, 1.3801787209977667 77.40658768398167, 1.0626390324652961 77.28662713235161 M -0.7501477126831088 87.75021108453399 C -0.750864578272142 87.74998416616248, -0.7515814437109307 87.7497572478312, -0.752298309299948 87.74953032945963 C -0.7530151748889653 87.74930341108806, -1.960151369011921 91.56280865021365, -1.9594345034229037 91.56303556858522 C -1.9587176378338864 91.56326248695679, -1.9580007720957786 91.56348940538282, -1.9572839065067456 91.56371632375433 C -1.9565670409177125 91.56394324212584, -0.7494308470940755 87.7504380029055, -0.7501477126831088 87.75021108453399 M -4.794629518776935 95.91970361812659 C -5.016551971118291 95.8575757667338, -5.238474423500518 95.79544791558762, -5.460396875841378 95.73332006419365 C -5.682319328182238 95.67119221279968, -6.760671072446305 99.52309531589596, -6.538748620105445 99.58522316728993 C -6.316826167764585 99.64735101868389, -6.094903715361136 99.70947886983602, -5.8729812630197795 99.7716067212288 C -5.651058810678423 99.8337345726216, -4.572707066435578 95.98183146951938, -4.794629518776935 95.91970361812659 M -7.227251176342455 105.45390020407807 C -7.561038816881426 105.3934665645065, -7.894826457440674 105.33303292489978, -8.228614097978609 105.27259928533138 C -8.562401738516543 105.21216564576298, -9.275032315053684 109.14817347875623, -8.94124467451575 109.20860711832464 C -8.607457033977814 109.26904075789304, -8.273669393452607 109.32947439749361, -7.939881752913636 109.38990803706518 C -7.606094112374665 109.45034167663675, -6.893463535803484 105.51433384364964, -7.227251176342455 105.45390020407807" stroke="#e28343" fill="none">
		<title>.id(nerve_feature_24_outline)</title>
	</path>
	<path d="M -23.9503479871331 232.17453478941698 C -24.830793662291725 232.65184594641073, -26.492681808203404 232.23560391372263, -26.682614874295165 231.36930345844976 M 6.233025593153177 335.1117904363074 C 7.305567440405248 336.2115636026964, 6.232033599829142 335.26380918432284, 7.304575447084693 336.36358235079297" stroke="#01136e" fill="none">
		<title>.id(nerve_feature_25)</title>
	</path>
	<path d="M -24.903536579141868 230.4162880751973 C -25.783982254300494 230.89359923219104, -24.539084351713726 231.8072851329097, -24.729017417805487 230.94098467763683 C -24.918950483897248 230.07468422236397, -28.826145396876605 230.93132178398983, -28.636212330784844 231.7976222392627 C -28.446279264693082 232.66392269453556, -23.877605070282957 234.41009266063043, -22.99715939512433 233.93278150363668 C -22.116713719965706 233.45547034664293, -24.023090903983242 229.93897691820354, -24.903536579141868 230.4162880751973 M 4.801196480306208 336.50816624231516 C 5.8737383275582795 337.60793940870417, 4.800204486932959 336.66018499028013, 5.872746334188509 337.75995815675026 C 6.9452881814440595 338.8597313232204, 9.808946407236427 336.0669797113058, 8.736404559980876 334.9672065448357 C 7.663862712725326 333.86743337836555, 8.737396553252216 334.81518779668863, 7.6648547060001455 333.7154146302996 C 6.592312858748075 332.6156414639106, 3.728654633054137 335.40839307592614, 4.801196480306208 336.50816624231516" stroke="#e28343" fill="none">
		<title>.id(nerve_feature_25_outline)</title>
	</path>
	<path d="M 6.013136701606916 1.155316806422904 C 6.4029331024624145 4.853765385571484, 6.79300543737752 8.55407155096194, 7.17071731883665 12.248723967501302 C 7.548429200295784 15.943376384040663, 7.541375456638613 19.74673368055511, 8.41255452304936 23.225292566852357 C 9.283733589460102 26.703851453149593, 11.547659402235803 29.762139402292714, 11.68357732636414 33.26490156567746 C 11.819495250492476 36.76766372906219, 10.727812512333065 40.03110754099847, 10.193128260091536 43.56211251671454 C 9.65844400785 47.093117492430615, 8.539764733142203 50.54071654375414, 8.201125886782613 53.846624903741755 C 7.862487040423028 57.15253326372941, 6.52459789016107 60.75890892234419, 5.511101137518171 64.46113299146485 C 4.497604384875271 68.16335706058553, 4.373787381495533 71.96161490706189, 2.9244947777927703 75.60372313647788 C 1.4752021740900056 79.24583136589386, -0.29878706389785026 83.4573357715474, -0.7996394492722212 87.14809280208326 C -1.300491834646591 90.83884983261909, -2.989222859370904 92.6909976389304, -3.771742205843693 96.04954200278718 C -4.5542615523164836 99.40808636664391, -7.454657287985001 101.74856406501112, -6.600930218129751 104.79624165647922 C -5.747203148274503 107.84391924794728, -8.386866937767254 111.77971821203552, -9.400050302509397 115.2937730082615 C -10.413233667251538 118.80782780448746, -11.72649907386799 122.084832261717, -12.224377354634221 125.75952175044945 C -12.72225563540045 129.43421123918182, -13.130147966609362 131.85408661486616, -12.963585928043939 135.53348672744403 C -12.797023889478515 139.21288684002184, -12.063312076632727 142.22824015218194, -12.412654081499946 145.762420219829 C -12.76199608636717 149.29660028747608, -13.279703315263749 153.0712289868388, -13.423633009210462 157.09786402133187 C -13.567562703157185 161.124499055825, -14.4086865235807 164.97609832947404, -15.648266401002186 168.87258906222007 C -16.88784627842368 172.7690797949661, -18.857126115736026 176.15498503002232, -19.509926879036165 179.7811838712381" stroke="#01136e" fill="none">
		<title>.id(nerve_feature_26)</title>
	</path>
	<path d="M 4.024153024545677 1.3649448875188126 C 4.413949425401175 5.063393466667392, 4.803375612280598 8.757475481810857, 5.181087493739728 12.45212789835022 C 5.558799375198862 16.146780314889583, 5.601292632289022 20.232612919320992, 6.472471698699769 23.71117180561824 C 7.343650765110511 27.189730691915475, 9.549163382279083 29.839687182513334, 9.685081306407419 33.34244934589808 C 9.820999230535755 36.84521150928281, 8.750355258198422 39.731670054917856, 8.215671005956892 43.26267503063393 C 7.680986753715357 46.793680006349994, 6.550175687200787 50.33691411916128, 6.211536840841197 53.6428224791489 C 5.872897994481613 56.94873083913655, 4.595573639836555 60.23083180519183, 3.582076887193656 63.933055874312494 C 2.5685801345507557 67.63527994343318, 2.5155085154744485 71.22215587770367, 1.0662159117716858 74.86426410711967 C -0.38307669193107863 78.50637233653565, -2.280621861417621 83.1883918455335, -2.781474246791992 86.87914887606935 C -3.2823266321663613 90.56990590660519, -4.937051611216139 92.23716600331534, -5.719570957688928 95.59571036717212 C -6.502090304161718 98.95425473102885, -9.380523402988718 102.28804502582484, -8.526796333133468 105.33572261729294 C -7.67306926327822 108.383400208761, -10.308584923468027 111.22564241989679, -11.321768288210171 114.73969721612276 C -12.334951652952311 118.25375201234873, -13.70839086512535 121.81630865428798, -14.206269145891582 125.49099814302043 C -14.704147426657808 129.1656876317528, -15.128101846336188 131.94453159529365, -14.961539807770764 135.62393170787152 C -14.794977769205339 139.30333182044933, -14.053612429754427 142.03150554830242, -14.402954434621646 145.5656856159495 C -14.75229643948887 149.09986568359656, -15.278426875425902 152.99978579225228, -15.422356569372615 157.02642082674535 C -15.566286263319338 161.05305586123848, -16.314568130761117 164.369785456931, -17.554148008182604 168.26627618967703 C -18.793727885604095 172.16276692242306, -20.82548472139337 175.80063435691068, -21.478285484693508 179.42683319812647 C -22.131086247993647 183.05303203934227, -18.19436903667896 183.76173338556555, -17.54156827337882 180.13553454434975 C -16.888767510078683 176.50933570313396, -14.981964671243265 173.37539266750915, -13.742384793821774 169.47890193476314 C -12.502804916400283 165.58241120201708, -11.568839142995031 161.19594225041152, -11.424909449048316 157.16930721591842 C -11.280979755101596 153.14267218142533, -10.771695733245469 149.4933348913556, -10.42235372837825 145.95915482370853 C -10.073011723511026 142.42497475606146, -10.799070009751691 139.12244185959435, -10.965632048317115 135.4430417470165 C -11.132194086882537 131.76364163443867, -10.74036384414309 129.70273484661084, -10.24248556337686 126.02804535787841 C -9.744607282610628 122.35335586914601, -8.491515681550764 119.36190359662619, -7.478332316808624 115.84784880040023 C -6.465148952066479 112.33379400417425, -3.821337033270786 107.30443828713356, -4.675064103126036 104.25676069566548 C -5.5287911729812835 101.2090831041974, -2.606432800471249 99.86191800225897, -1.82391345399846 96.50337363840221 C -1.0413941075256692 93.14482927454546, 0.6813429628731795 91.107793758633, 1.18219534824755 87.41703672809716 C 1.6830477336219205 83.72627969756131, 3.33348104011109 79.98529039525208, 4.7827736438138535 76.34318216583608 C 6.2320662475166175 72.7010739364201, 6.426628635199787 68.69143417773788, 7.440125387842684 64.98921010861721 C 8.453622140485585 61.28698603949655, 9.852076086364445 57.35633568832227, 10.190714932724031 54.050427328334635 C 10.529353779083618 50.744518968346995, 11.635901261984642 47.392554978511235, 12.170585514226172 43.86155000279516 C 12.705269766467708 40.33054502707908, 13.817991270449198 36.69011594884157, 13.682073346320859 33.18735378545683 C 13.546155422192523 29.684591622072094, 11.223816413809693 26.21797221438371, 10.352637347398947 22.739413328086467 C 9.481458280988203 19.260854441789228, 9.538059025392705 15.739972453191745, 9.160347143933574 12.045320036652383 C 8.782635262474443 8.350667620113022, 8.391916779523653 4.644137304475576, 8.002120378668154 0.9456887253269954 C 7.612323977812656 -2.752759853821585, 3.634356623690178 -2.333503691629767, 4.024153024545677 1.3649448875188126" stroke="#e28343" fill="none">
		<title>.id(nerve_feature_26_outline)</title>
	</path>
	<path d="M 7.450722808420869 54.63157697151681 C 7.22824599940553 54.464273615643926, 7.005769190394327 54.29697025977266, 6.783292381379423 54.12966690390163 M 6.414703597500775 56.792085939304734 C 6.154290963832182 56.67213383249384, 5.893878330164745 56.55218172570198, 5.633465696497054 56.43222961889146" stroke="#01136e" fill="none">
		<title>.id(nerve_feature_27)</title>
	</path>
	<path d="M 8.652771512295084 53.033115550801774 C 8.430294703279746 52.86581219492889, 8.207817894261531 52.69850883905235, 7.985341085246626 52.531205483181324 C 7.762864276231721 52.3639021273103, 5.358766868497316 55.56082496875091, 5.581243677512219 55.728128324621935 C 5.803720486527123 55.89543168049296, 6.026197295531315 56.06273503635896, 6.248674104546653 56.23003839223184 C 6.471150913561992 56.39734174810472, 8.875248321310423 53.200418906674656, 8.652771512295084 53.033115550801774 M 7.2514491021940595 54.975535097633745 C 6.991036468525466 54.85558299082285, 6.730623834858254 54.73563088403109, 6.470211201190563 54.61567877722057 C 6.2097985675228715 54.49572667041006, 4.536307558135854 58.128828353751835, 4.796720191803545 58.24878046056235 C 5.057132825471236 58.36873256737287, 5.3175454591388975 58.48868467416483, 5.577958092807491 58.60863678097572 C 5.838370726476085 58.728588887786614, 7.511861735862653 55.09548720444464, 7.2514491021940595 54.975535097633745" stroke="#e28343" fill="none">
		<title>.id(nerve_feature_27_outline)</title>
	</path>
	<path d="M -21.552845024742467 253.4028424454325 C -22.629891735213523 253.82134447825538, -22.831486496128235 255.74591435136986, -23.755469653599086 256.9375143762572 M -20.014831022040482 260.6029974986169 C -20.09127216673632 260.6156965752798, -20.167713311437744 260.6283956519986, -20.24415445613386 260.64109472865755" stroke="#01136e" fill="none">
		<title>.id(nerve_feature_28)</title>
	</path>
	<path d="M -22.277212103990585 251.53862884863048 C -23.35425881446164 251.95713088145337, -24.411999847413693 254.5203624159512, -25.335983004884543 255.71196244083853 C -26.259966162355393 256.9035624657258, -23.09893945978448 259.3546663365631, -22.17495630231363 258.16306631167583 C -21.250973144842778 256.97146628678854, -21.905524655965404 255.6855580750574, -20.82847794549435 255.26705604223451 C -19.751431235023293 254.84855400941163, -21.20016539351953 251.1201268158076, -22.277212103990585 251.53862884863048 M -20.342596468890527 258.6300378406788 C -20.419037613586365 258.6427369173417, -20.49547875818812 258.6554359940439, -20.571919902884236 258.6681350707029 C -20.64836104758035 258.68083414736185, -19.9928301540796 262.6267534632712, -19.916389009383483 262.6140543866122 C -19.839947864687367 262.60135530995325, -19.763506719886276 262.5886562332179, -19.687065575190438 262.575957156555 C -19.6106244304946 262.5632580798921, -20.26615532419469 258.6173387640159, -20.342596468890527 258.6300378406788" stroke="#e28343" fill="none">
		<title>.id(nerve_feature_28_outline)</title>
	</path>
	<path d="M -11.133900700445661 289.94441361507796 C -11.18064729213188 289.9572324798472, -11.2273938838005 289.9700513445242, -11.27414047548688 289.98287020929433" stroke="#01136e" fill="none">
		<title>.id(nerve_feature_29)</title>
	</path>
	<path d="M -11.662815394966605 288.0156188499669 C -11.709561986652824 288.0284377147362, -11.756308578352483 288.04125657942166, -11.803055170038862 288.05407544419177 C -11.84980176172524 288.0668943089619, -10.791972372621276 291.924483839167, -10.745225780934897 291.9116649743969 C -10.698479189248518 291.8988461096268, -10.651732597610936 291.88602724495826, -10.604986005924717 291.873208380189 C -10.558239414238498 291.86038951541974, -11.616068803280386 288.00279998519767, -11.662815394966605 288.0156188499669" stroke="#e28343" fill="none">
		<title>.id(nerve_feature_29_outline)</title>
	</path>
	<path d="M 8.563366915674663 54.01647024194277 C 8.685833357126462 53.94654581913051, 8.8082997985773 53.876621396315535, 8.93076624002871 53.80669697350272" stroke="#01136e" fill="none">
		<title>.id(nerve_feature_30)</title>
	</path>
	<path d="M 9.555041744159517 55.753300986301454 C 9.677508185611316 55.6833765634892, 9.799974627070533 55.61345214066943, 9.922441068521943 55.54352771785661 C 10.044907509973353 55.473603295043795, 8.061557852986887 51.999941806336004, 7.939091411535477 52.06986622914882 C 7.816624970084067 52.13979065196164, 7.6941585286416085 52.20971507477183, 7.57169208718981 52.279639497584085 C 7.449225645738011 52.34956392039634, 9.432575302707718 55.82322540911371, 9.555041744159517 55.753300986301454" stroke="#e28343" fill="none">
		<title>.id(nerve_feature_30_outline)</title>
	</path>
	<path d="M -23.49678537775676 234.1085198115598 C -25.79666176869186 235.6654668551173, -25.7590470097563 239.29730669233092, -26.791505392441152 241.70732341432426 C -27.82396377512599 244.11734013631752, -30.364590543879473 246.2549528795934, -31.505255102746034 248.44713063657483 C -32.6459196616126 250.6393083935562, -33.74574117190723 253.1438026032701, -35.023642110087636 255.26586880244358" stroke="#01136e" fill="none">
		<title>.id(nerve_feature_31)</title>
	</path>
	<path d="M -24.617971357310633 232.45233685087828 C -26.917847748245734 234.00928389443578, -27.597449165070483 238.50972970223015, -28.629907547755334 240.9197464242235 C -29.662365930440167 243.32976314621675, -32.1387815509313 245.3317810264174, -33.27944610979786 247.52395878339883 C -34.42011066866442 249.71613654038018, -35.45906446925234 252.11204522928412, -36.73696540743275 254.2341114284576 C -38.01486634561316 256.35617762763104, -34.58821975092293 258.41969237560306, -33.31031881274252 256.29762617642956 C -32.032417874562114 254.17555997725609, -30.871728654560783 251.56248024673224, -29.73106409569422 249.37030248975083 C -28.590399536827647 247.1781247327694, -25.98556161981181 244.9049171264183, -24.953103237126964 242.49490040442498 C -23.92064485444212 240.0848836824317, -24.675475789137984 237.32164981579882, -22.375599398202883 235.76470277224132 C -20.075723007267783 234.20775572868382, -22.318094966375533 230.89538980732078, -24.617971357310633 232.45233685087828" stroke="#e28343" fill="none">
		<title>.id(nerve_feature_31_outline)</title>
	</path>
	<path d="M -21.588902146797288 245.7907739059413 C -24.393857927933244 247.428123679792, -26.939882708097546 249.42662210576827, -28.31348073297923 252.7720039969985 C -29.687078757860913 256.11738588822857, -29.709860728423582 259.86686525418514, -29.976448873528113 263.3437715491742" stroke="#01136e" fill="none">
		<title>.id(nerve_feature_32)</title>
	</path>
	<path d="M -22.597161292179724 244.06351784624644 C -25.40211707331568 245.70086762009714, -28.78999970967963 248.6669727916391, -30.163597734561314 252.01235468286933 C -31.537195759442994 255.3577365740994, -31.704007628278205 259.71396613123085, -31.970595773382737 263.1908724262199 C -32.23718391848727 266.667778721209, -28.24889011877802 266.9735769671176, -27.98230197367349 263.4966706721285 C -27.71571382856896 260.01976437713944, -27.836961756278832 256.8770352023577, -26.46336373139715 253.53165331112757 C -25.08976570651546 250.18627141989745, -23.385598782550808 249.15537973948688, -20.580643001414852 247.51802996563617 C -17.775687220278897 245.88068019178547, -19.79220551104377 242.42616807239574, -22.597161292179724 244.06351784624644" stroke="#e28343" fill="none">
		<title>.id(nerve_feature_32_outline)</title>
	</path>
	<path d="M -19.50992687903616 179.781183871238 C -20.1627276423363 183.4073827124537, -19.03357310117851 187.70741096625417, -19.52062727204955 191.33059515366742 C -20.0076814429206 194.95377934108063, -21.23387598013115 198.46889088439252, -21.095690939042296 202.46282751728464 C -20.957505897953432 206.4567641501767, -21.847356156558764 210.43971811963556, -21.833870756920163 214.33594854127338 C -21.820385357281555 218.2321789629113, -22.432447509536214 221.59744148377334, -22.573815472312283 226.00096498921775 C -22.715183435088345 230.40448849466205, -24.738695132249923 231.57957648401018, -23.1183647183967 234.7173351346713 C -21.498034304543474 237.8550937853324, -21.78497379256936 242.3769424991958, -21.540379472777648 246.16543162056706 C -21.295785152985925 249.95392074193836, -21.67853987345665 252.37895851848194, -20.73287352144148 254.63855322054835 C -19.78720716942631 256.8981479226147, -20.15320980745413 260.93026759622154, -18.62545893631362 264.5528344734079 C -17.097708065173112 268.1754013505943, -15.263980831267574 271.6446762499055, -14.340262825230752 275.5376442099554 C -13.416544819193932 279.43061217000525, -13.110569377292638 283.52349464460366, -11.787021280297912 287.4507592190731 C -10.463473183303183 291.3780237935425, -10.101839108491394 295.5025552366428, -8.895907762526878 299.2694291384886 C -7.689976416562371 303.03630304033436, -6.018684269537171 306.6375061767413, -6.028597601707486 310.5468561471844 C -6.038510933877798 314.45620611762763, -6.476525546483456 318.43350988100565, -5.445179562638091 322.35698226905606 C -4.413833578792727 326.2804546571066, -2.7560908742980534 330.17484320775003, -2.61951931648136 334.15447207563955 C -2.4829477586646664 338.134100943529, -2.8660868230013756 342.02328441161757, -0.4749667309164385 343.76612140479943 C 1.9161533611684995 345.50895839798136, 4.1785198105620305 347.59470056465983, 5.895799186787093 346.33515254703235 C 7.613078563012154 345.0756045294046, 7.7356532334775805 340.9283171255162, 7.43914194379349 338.0677633354098 C 7.142630654109399 335.20720954530344, 10.092248616207938 335.988748835756, 13.019825177536939 335.11973338935644 C 15.947401738865944 334.2507179429568, 17.962385297757375 334.09555793853957, 20.163002654985053 335.2996825345588 C 22.363620012212742 336.50380713057814, 25.03678906229463 337.351918673384, 26.64487227417387 338.9831773621058 C 28.25295548605311 340.6144360508276, 29.898219530859848 342.51892376161425, 31.918512843113156 344.1135473408875 C 33.93880615536644 345.7081709201608, 35.91112041818379 347.1356193325937, 37.888089499330334 348.65741295660564 C 39.86505858047686 350.17920658061746, 41.842377933789095 351.7017023919806, 43.819599298278746 353.2245149347686 C 45.79682066276841 354.74732747755644, 47.774030966774994 356.2705230768484, 49.751208004209396 357.79404244917663 C 51.72838504164381 359.31756182150497, 53.70553377342355 360.8414087599285, 55.68265623062683 362.3655434759199 C 57.65977868783011 363.8896781919112, 59.63687515256652 365.4141009060367, 61.61394896709609 366.9387737205752 C 63.591022781625675 368.46344653511375, 65.56807396130404 369.98836946691824, 67.54510586031624 371.51350540855634 C 69.52213775932844 373.0386413501943, 71.49915037785578 374.5639903080996, 73.47614701732795 376.089515807693 C 75.45314365680011 377.61504130728633, 77.43012431653717 379.1407433536755, 79.40709224996289 380.66658599927314 C 81.3840601833886 382.1924286448707, 83.36101539057299 383.7184118955539, 85.33796108611743 385.244500223987 C 87.31490678166189 386.77058855242024, 89.29184296587263 388.2967819661428, 91.26877282501113 389.8230452544131 C 93.24570268414962 391.3493085426834, 95.22262621810609 392.8756417117444, 97.1995465942459 394.40200976456606 C 99.17646697038577 395.9283778173876, 101.15338418874614 397.4547807584228, 103.13030140718729 398.98118369723846" stroke="#01136e" fill="none">
		<title>.id(nerve_feature_33)</title>
	</path>
	<path d="M -21.4782854846935 179.42683319812633 C -22.131086247993643 183.05303203934204, -21.015743734417132 187.44095350111874, -21.50279790528817 191.06413768853199 C -21.98985207615922 194.6873218759452, -23.23267998330637 198.53804691732321, -23.094494942217516 202.53198355021533 C -22.95630990112865 206.5259201831074, -23.847344177175092 210.44664035852077, -23.83385877753649 214.3428707801586 C -23.820373377897884 218.2391012017965, -24.43141767886276 221.53326779646625, -24.57278564163883 225.93679130191066 C -24.714153604414893 230.34031480735496, -26.515742039345817 232.49723888924476, -24.895411625492592 235.63499753990587 C -23.275081211639367 238.77275619056698, -23.780818462517345 242.50579921590167, -23.536224142725633 246.29428833727295 C -23.29162982293391 250.08277745864424, -23.52348306320348 253.15108844706054, -22.57781671118831 255.41068314912695 C -21.63215035917314 257.6702778511933, -21.996032766536423 261.70744424376005, -20.468281895395915 265.33001112094644 C -18.940531024255407 268.9525779981328, -17.20995074830564 272.10641327677564, -16.28623274226882 275.9993812368255 C -15.362514736232 279.8923491968754, -15.005832112818808 284.1622271107629, -13.682284015824083 288.08949168523236 C -12.35873591882935 292.01675625970176, -12.006609343765483 296.11235057182824, -10.800677997800967 299.879224473674 C -9.594746651836461 303.6460983755198, -8.018677839283278 306.63243459176033, -8.028591171453595 310.5417845622035 C -8.038504503623905 314.4511345326467, -8.410813689880401 318.94196772420804, -7.379467706035036 322.86544011225845 C -6.348121722189674 326.7889125003089, -4.754914211599009 330.2434381511575, -4.618342653782316 334.223067019047 C -4.481771095965621 338.20269588693645, -4.044127469782886 343.6395208530241, -1.6530073776979488 345.382357846206 C 0.7381127143869897 347.1251948393879, 5.36137526272865 349.2074165902761, 7.078654638953712 347.94786857264864 C 8.795934015178844 346.6883205550209, 9.724994645561114 340.7221115335224, 9.428483355877024 337.86155774341603 C 9.131972066192931 335.0010039533097, 10.661379682129159 337.9060620156521, 13.58895624345816 337.03704656925254 C 16.516532804787197 336.1680311228529, 17.00235436041848 335.85007798668727, 19.202971717646157 337.0542025827065 C 21.403589074873846 338.25832717872584, 23.612494132234247 338.75597848414856, 25.220577344113487 340.38723717287036 C 26.828660555992727 342.01849586159216, 28.659096029323887 344.0888196014524, 30.679389341577195 345.6834431807257 C 32.69968265383048 347.278066759999, 34.6911710599402 348.720461142782, 36.668140141086745 350.24225476679396 C 38.645109222233295 351.76404839080584, 40.62201360417098 353.28622468686814, 42.59923496866063 354.80903722965616 C 44.576456333150325 356.331849772444, 46.553294012415115 357.8547583145136, 48.53047104984952 359.37827768684184 C 50.507648087283904 360.9017970591702, 52.48446638042298 362.4253893222306, 54.461588837626266 363.94952403822197 C 56.43871129482957 365.47365875421326, 58.41551856303127 366.99785848887535, 60.392592377560845 368.52253130341387 C 62.369666192090435 370.0472041179524, 64.34646853501185 371.57193512152605, 66.32350043402406 373.09707106316415 C 68.30053233303629 374.6222070048022, 70.2773357042193 376.147394521586, 72.25433234369146 377.6729200211794 C 74.23132898316362 379.19844552077274, 76.20813933244753 380.7240161345504, 78.18510726587324 382.2498587801481 C 80.16207519929898 383.77570142574564, 82.1388984981032 385.3015828595183, 84.11584419364766 386.8276711879514 C 86.09278988919208 388.3537595163846, 88.06963215027459 389.8798804224099, 90.04656200941308 391.40614371068017 C 92.02349186855157 392.93240699895046, 94.00035916743622 394.4586967508529, 95.97727954357603 395.98506480367456 C 97.95419991971595 397.5114328564961, 99.93109841306055 399.03782133988517, 101.9080156315017 400.5642242787008 C 103.88493284994284 402.09062721751644, 106.32950440131403 398.92454605459176, 104.35258718287288 397.3981431157761 C 102.37566996443174 395.8717401769605, 100.3987340210556 394.3453227782791, 98.42181364491576 392.8189547254575 C 96.44489326877596 391.2925866726359, 94.46791349974767 389.7662100864163, 92.49098364060917 388.23994679814604 C 90.51405378147068 386.71368350987575, 88.5370236741317 385.18741758845584, 86.56007797858726 383.6613292600227 C 84.58313228304277 382.1352409315895, 82.60604516747821 380.60915586399574, 80.6290772340525 379.08331321839813 C 78.65210930062682 377.5574705728005, 76.6749583304366 376.03163709379993, 74.69796169096443 374.5061115942066 C 72.72096505149227 372.9805860946132, 70.7437431856206 371.45507569558646, 68.7667112866084 369.9299397539484 C 66.78967938759622 368.40480381231043, 64.81237937116092 366.8796889522751, 62.83530555663134 365.3550161377366 C 60.858231742101765 363.83034332319806, 58.88084608083066 362.3056976296091, 56.90372362362738 360.7815629136178 C 54.92660116642411 359.25742819762644, 52.94912199600372 357.73332658383976, 50.97194495856931 356.2098072115115 C 48.99476792113487 354.6862878391832, 47.0171849923865 353.1628051826689, 45.03996362789684 351.6399926398809 C 43.06274226340721 350.117180097093, 41.08500793872043 348.5943647704291, 39.108038857573895 347.0725711464172 C 37.13106977642738 345.5507775224054, 35.17792965690241 344.1382750803226, 33.157636344649106 342.54365150104934 C 31.13734303239581 340.94902792177606, 29.677250416113495 339.210376240063, 28.069167204234255 337.5791175513412 C 26.461083992355015 335.9478588626194, 23.323650949551638 334.74928708243044, 21.123033592323956 333.5451624864112 C 18.92241623509627 332.3410378903919, 15.378270672944689 332.3334047630607, 12.450694111615686 333.2024202094603 C 9.523117550286717 334.0714356558599, 5.153289242025866 335.4134151372972, 5.449800531709957 338.27396892740353 C 5.7463118213940465 341.1345227175099, 6.430223110845464 343.4628885037883, 4.712943734620403 344.7224365214159 C 2.995664358395411 345.98198453904354, 3.0941940079500094 343.8927219565748, 0.7030739158650712 342.14988496339294 C -1.6880461762198653 340.407047970211, -0.48412442136371125 338.06550600012156, -0.6206959791804045 334.08587713223204 C -0.7572675369970983 330.1062482643426, -2.47954543539578 325.77199681390425, -3.5108914192411445 321.8485244258538 C -4.542237403086512 317.92505203780325, -4.03851736413169 314.4612777026086, -4.028604031961375 310.5519277321654 C -4.018690699791063 306.64257776172224, -5.785206181288282 302.42650770514894, -6.991137527252796 298.65963380330317 C -8.197068873217304 294.8927599014574, -8.568210447777016 290.7392913273833, -9.891758544771744 286.8120267529139 C -11.215306641766468 282.8847621784444, -11.470574902155864 278.9688751431351, -12.394292908192684 275.07590718308523 C -13.318010914229506 271.18293922303536, -15.254885106090816 267.3982247030558, -16.782635977231326 263.7756578258694 C -18.310386848371834 260.15309094868303, -17.94226397967948 256.12601799403615, -18.88793033169465 253.8664232919697 C -19.83359668370982 251.60682858990333, -19.29994048303794 249.82506402523248, -19.544534802829656 246.0365749038612 C -19.789129122621375 242.2480857824899, -19.72098739744758 236.93743138009782, -21.341317811300804 233.7996727294367 C -22.96164822515403 230.6619140787756, -20.716213265761798 230.46866218196914, -20.574845302985732 226.06513867652478 C -20.433477340209667 221.66161517108043, -19.820397336665227 218.22525672402608, -19.83388273630383 214.3290263023882 C -19.847368135942435 210.43279588075035, -18.958701894778212 206.387608117246, -19.09688693586707 202.39367148435392 C -19.23507197695593 198.39973485146183, -18.02551080968198 195.22023680621606, -17.53845663881094 191.59705261880282 C -17.05140246793989 187.9738684313896, -18.194369036678957 183.76173338556538, -17.54156827337882 180.13553454434967 C -16.888767510078686 176.50933570313396, -20.82548472139336 175.80063435691062, -21.4782854846935 179.42683319812633" stroke="#e28343" fill="none">
		<title>.id(nerve_feature_33_outline)</title>
	</path>
	<path d="M 6.013136701606916 1.155316806422904 C 6.4029331024624145 4.853765385571484, 6.79300543737752 8.55407155096194, 7.17071731883665 12.248723967501302 C 7.548429200295784 15.943376384040663, 7.541375456638613 19.74673368055511, 8.41255452304936 23.225292566852357 C 9.283733589460102 26.703851453149593, 11.547659402235803 29.762139402292714, 11.68357732636414 33.26490156567746 C 11.819495250492476 36.76766372906219, 10.727812512333065 40.03110754099847, 10.193128260091536 43.56211251671454 C 9.65844400785 47.093117492430615, 8.539764733142203 50.54071654375414, 8.201125886782613 53.846624903741755 C 7.862487040423028 57.15253326372941, 6.52459789016107 60.75890892234419, 5.511101137518171 64.46113299146485 C 4.497604384875271 68.16335706058553, 4.373787381495533 71.96161490706189, 2.9244947777927703 75.60372313647788 C 1.4752021740900056 79.24583136589386, -0.29878706389785026 83.4573357715474, -0.7996394492722212 87.14809280208326 C -1.300491834646591 90.83884983261909, -2.989222859370904 92.6909976389304, -3.771742205843693 96.04954200278718 C -4.5542615523164836 99.40808636664391, -7.454657287985001 101.74856406501112, -6.600930218129751 104.79624165647922 C -5.747203148274503 107.84391924794728, -8.386866937767254 111.77971821203552, -9.400050302509397 115.2937730082615 C -10.413233667251538 118.80782780448746, -11.72649907386799 122.084832261717, -12.224377354634221 125.75952175044945 C -12.72225563540045 129.43421123918182, -13.130147966609362 131.85408661486616, -12.963585928043939 135.53348672744403 C -12.797023889478515 139.21288684002184, -12.063312076632727 142.22824015218194, -12.412654081499946 145.762420219829 C -12.76199608636717 149.29660028747608, -13.279703315263749 153.0712289868388, -13.423633009210462 157.09786402133187 C -13.567562703157185 161.124499055825, -14.4086865235807 164.97609832947404, -15.648266401002186 168.87258906222007 C -16.88784627842368 172.7690797949661, -18.857126115736026 176.15498503002232, -19.509926879036165 179.7811838712381 C -20.1627276423363 183.4073827124537, -19.03357310117851 187.70741096625417, -19.52062727204955 191.33059515366742 C -20.0076814429206 194.95377934108063, -21.23387598013115 198.46889088439252, -21.095690939042296 202.46282751728464 C -20.957505897953432 206.4567641501767, -21.847356156558764 210.43971811963556, -21.833870756920163 214.33594854127338 C -21.820385357281555 218.2321789629113, -22.432447509536214 221.59744148377334, -22.573815472312283 226.00096498921775 C -22.715183435088345 230.40448849466205, -24.738695132249923 231.57957648401018, -23.1183647183967 234.7173351346713 C -21.498034304543474 237.8550937853324, -21.78497379256936 242.3769424991958, -21.540379472777648 246.16543162056706 C -21.295785152985925 249.95392074193836, -21.67853987345665 252.37895851848194, -20.73287352144148 254.63855322054835 C -19.78720716942631 256.8981479226147, -20.15320980745413 260.93026759622154, -18.62545893631362 264.5528344734079 C -17.097708065173112 268.1754013505943, -15.263980831267574 271.6446762499055, -14.340262825230752 275.5376442099554 C -13.416544819193932 279.43061217000525, -13.110569377292638 283.52349464460366, -11.787021280297912 287.4507592190731 C -10.463473183303183 291.3780237935425, -10.101839108491394 295.5025552366428, -8.895907762526878 299.2694291384886 C -7.689976416562371 303.03630304033436, -6.018684269537171 306.6375061767413, -6.028597601707486 310.5468561471844 C -6.038510933877798 314.45620611762763, -6.476525546483456 318.43350988100565, -5.445179562638091 322.35698226905606 C -4.413833578792727 326.2804546571066, -2.7560908742980534 330.17484320775003, -2.61951931648136 334.15447207563955 C -2.4829477586646664 338.134100943529, -2.8660868230013756 342.02328441161757, -0.4749667309164385 343.76612140479943 C 1.9161533611684995 345.50895839798136, 4.1785198105620305 347.59470056465983, 5.895799186787093 346.33515254703235 C 7.613078563012154 345.0756045294046, 7.7356532334775805 340.9283171255162, 7.43914194379349 338.0677633354098 C 7.142630654109399 335.20720954530344, 10.092248616207938 335.988748835756, 13.019825177536939 335.11973338935644 C 15.947401738865944 334.2507179429568, 17.962385297757375 334.09555793853957, 20.163002654985053 335.2996825345588 C 22.363620012212742 336.50380713057814, 25.03678906229463 337.351918673384, 26.64487227417387 338.9831773621058 C 28.25295548605311 340.6144360508276, 29.898219530859848 342.51892376161425, 31.918512843113156 344.1135473408875 C 33.93880615536644 345.7081709201608, 35.91112041818379 347.1356193325937, 37.888089499330334 348.65741295660564 C 39.86505858047686 350.17920658061746, 41.842377933789095 351.7017023919806, 43.819599298278746 353.2245149347686 C 45.79682066276841 354.74732747755644, 47.774030966774994 356.2705230768484, 49.751208004209396 357.79404244917663 C 51.72838504164381 359.31756182150497, 53.70553377342355 360.8414087599285, 55.68265623062683 362.3655434759199 C 57.65977868783011 363.8896781919112, 59.63687515256652 365.4141009060367, 61.61394896709609 366.9387737205752 C 63.591022781625675 368.46344653511375, 65.56807396130404 369.98836946691824, 67.54510586031624 371.51350540855634 C 69.52213775932844 373.0386413501943, 71.49915037785578 374.5639903080996, 73.47614701732795 376.089515807693 C 75.45314365680011 377.61504130728633, 77.43012431653717 379.1407433536755, 79.40709224996289 380.66658599927314 C 81.3840601833886 382.1924286448707, 83.36101539057299 383.7184118955539, 85.33796108611743 385.244500223987 C 87.31490678166189 386.77058855242024, 89.29184296587263 388.2967819661428, 91.26877282501113 389.8230452544131 C 93.24570268414962 391.3493085426834, 95.22262621810609 392.8756417117444, 97.1995465942459 394.40200976456606 C 99.17646697038577 395.9283778173876, 101.15338418874614 397.4547807584228, 103.13030140718729 398.98118369723846" stroke="#01136e" fill="none">
		<title>.id(nerve_feature_34)</title>
	</path>
	<path d="M 4.024153024545677 1.3649448875188126 C 4.413949425401175 5.063393466667392, 4.803375612280598 8.757475481810857, 5.181087493739728 12.45212789835022 C 5.558799375198862 16.146780314889583, 5.601292632289022 20.232612919320992, 6.472471698699769 23.71117180561824 C 7.343650765110511 27.189730691915475, 9.549163382279083 29.839687182513334, 9.685081306407419 33.34244934589808 C 9.820999230535755 36.84521150928281, 8.750355258198422 39.731670054917856, 8.215671005956892 43.26267503063393 C 7.680986753715357 46.793680006349994, 6.550175687200787 50.33691411916128, 6.211536840841197 53.6428224791489 C 5.872897994481613 56.94873083913655, 4.595573639836555 60.23083180519183, 3.582076887193656 63.933055874312494 C 2.5685801345507557 67.63527994343318, 2.5155085154744485 71.22215587770367, 1.0662159117716858 74.86426410711967 C -0.38307669193107863 78.50637233653565, -2.280621861417621 83.1883918455335, -2.781474246791992 86.87914887606935 C -3.2823266321663613 90.56990590660519, -4.937051611216139 92.23716600331534, -5.719570957688928 95.59571036717212 C -6.502090304161718 98.95425473102885, -9.380523402988718 102.28804502582484, -8.526796333133468 105.33572261729294 C -7.67306926327822 108.383400208761, -10.308584923468027 111.22564241989679, -11.321768288210171 114.73969721612276 C -12.334951652952311 118.25375201234873, -13.70839086512535 121.81630865428798, -14.206269145891582 125.49099814302043 C -14.704147426657808 129.1656876317528, -15.128101846336188 131.94453159529365, -14.961539807770764 135.62393170787152 C -14.794977769205339 139.30333182044933, -14.053612429754427 142.03150554830242, -14.402954434621646 145.5656856159495 C -14.75229643948887 149.09986568359656, -15.278426875425902 152.99978579225228, -15.422356569372615 157.02642082674535 C -15.566286263319338 161.05305586123848, -16.314568130761117 164.369785456931, -17.554148008182604 168.26627618967703 C -18.793727885604095 172.16276692242306, -20.82548472139337 175.80063435691068, -21.478285484693508 179.42683319812647 C -22.131086247993643 183.05303203934204, -21.015743734417132 187.44095350111874, -21.50279790528817 191.06413768853199 C -21.98985207615922 194.6873218759452, -23.23267998330637 198.53804691732321, -23.094494942217516 202.53198355021533 C -22.95630990112865 206.5259201831074, -23.847344177175092 210.44664035852077, -23.83385877753649 214.3428707801586 C -23.820373377897884 218.2391012017965, -24.43141767886276 221.53326779646625, -24.57278564163883 225.93679130191066 C -24.714153604414893 230.34031480735496, -26.515742039345817 232.49723888924476, -24.895411625492592 235.63499753990587 C -23.275081211639367 238.77275619056698, -23.780818462517345 242.50579921590167, -23.536224142725633 246.29428833727295 C -23.29162982293391 250.08277745864424, -23.52348306320348 253.15108844706054, -22.57781671118831 255.41068314912695 C -21.63215035917314 257.6702778511933, -21.996032766536423 261.70744424376005, -20.468281895395915 265.33001112094644 C -18.940531024255407 268.9525779981328, -17.20995074830564 272.10641327677564, -16.28623274226882 275.9993812368255 C -15.362514736232 279.8923491968754, -15.005832112818808 284.1622271107629, -13.682284015824083 288.08949168523236 C -12.35873591882935 292.01675625970176, -12.006609343765483 296.11235057182824, -10.800677997800967 299.879224473674 C -9.594746651836461 303.6460983755198, -8.018677839283278 306.63243459176033, -8.028591171453595 310.5417845622035 C -8.038504503623905 314.4511345326467, -8.410813689880401 318.94196772420804, -7.379467706035036 322.86544011225845 C -6.348121722189674 326.7889125003089, -4.754914211599009 330.2434381511575, -4.618342653782316 334.223067019047 C -4.481771095965621 338.20269588693645, -4.044127469782886 343.6395208530241, -1.6530073776979488 345.382357846206 C 0.7381127143869897 347.1251948393879, 5.36137526272865 349.2074165902761, 7.078654638953712 347.94786857264864 C 8.795934015178844 346.6883205550209, 9.724994645561114 340.7221115335224, 9.428483355877024 337.86155774341603 C 9.131972066192931 335.0010039533097, 10.661379682129159 337.9060620156521, 13.58895624345816 337.03704656925254 C 16.516532804787197 336.1680311228529, 17.00235436041848 335.85007798668727, 19.202971717646157 337.0542025827065 C 21.403589074873846 338.25832717872584, 23.612494132234247 338.75597848414856, 25.220577344113487 340.38723717287036 C 26.828660555992727 342.01849586159216, 28.659096029323887 344.0888196014524, 30.679389341577195 345.6834431807257 C 32.69968265383048 347.278066759999, 34.6911710599402 348.720461142782, 36.668140141086745 350.24225476679396 C 38.645109222233295 351.76404839080584, 40.62201360417098 353.28622468686814, 42.59923496866063 354.80903722965616 C 44.576456333150325 356.331849772444, 46.553294012415115 357.8547583145136, 48.53047104984952 359.37827768684184 C 50.507648087283904 360.9017970591702, 52.48446638042298 362.4253893222306, 54.461588837626266 363.94952403822197 C 56.43871129482957 365.47365875421326, 58.41551856303127 366.99785848887535, 60.392592377560845 368.52253130341387 C 62.369666192090435 370.0472041179524, 64.34646853501185 371.57193512152605, 66.32350043402406 373.09707106316415 C 68.30053233303629 374.6222070048022, 70.2773357042193 376.147394521586, 72.25433234369146 377.6729200211794 C 74.23132898316362 379.19844552077274, 76.20813933244753 380.7240161345504, 78.18510726587324 382.2498587801481 C 80.16207519929898 383.77570142574564, 82.1388984981032 385.3015828595183, 84.11584419364766 386.8276711879514 C 86.09278988919208 388.3537595163846, 88.06963215027459 389.8798804224099, 90.04656200941308 391.40614371068017 C 92.02349186855157 392.93240699895046, 94.00035916743622 394.4586967508529, 95.97727954357603 395.98506480367456 C 97.95419991971595 397.5114328564961, 99.93109841306055 399.03782133988517, 101.9080156315017 400.5642242787008 C 103.88493284994284 402.09062721751644, 106.32950440131403 398.92454605459176, 104.35258718287288 397.3981431157761 C 102.37566996443174 395.8717401769605, 100.3987340210556 394.3453227782791, 98.42181364491576 392.8189547254575 C 96.44489326877596 391.2925866726359, 94.46791349974767 389.7662100864163, 92.49098364060917 388.23994679814604 C 90.51405378147068 386.71368350987575, 88.5370236741317 385.18741758845584, 86.56007797858726 383.6613292600227 C 84.58313228304277 382.1352409315895, 82.60604516747821 380.60915586399574, 80.6290772340525 379.08331321839813 C 78.65210930062682 377.5574705728005, 76.6749583304366 376.03163709379993, 74.69796169096443 374.5061115942066 C 72.72096505149227 372.9805860946132, 70.7437431856206 371.45507569558646, 68.7667112866084 369.9299397539484 C 66.78967938759622 368.40480381231043, 64.81237937116092 366.8796889522751, 62.83530555663134 365.3550161377366 C 60.858231742101765 363.83034332319806, 58.88084608083066 362.3056976296091, 56.90372362362738 360.7815629136178 C 54.92660116642411 359.25742819762644, 52.94912199600372 357.73332658383976, 50.97194495856931 356.2098072115115 C 48.99476792113487 354.6862878391832, 47.0171849923865 353.1628051826689, 45.03996362789684 351.6399926398809 C 43.06274226340721 350.117180097093, 41.08500793872043 348.5943647704291, 39.108038857573895 347.0725711464172 C 37.13106977642738 345.5507775224054, 35.17792965690241 344.1382750803226, 33.157636344649106 342.54365150104934 C 31.13734303239581 340.94902792177606, 29.677250416113495 339.210376240063, 28.069167204234255 337.5791175513412 C 26.461083992355015 335.9478588626194, 23.323650949551638 334.74928708243044, 21.123033592323956 333.5451624864112 C 18.92241623509627 332.3410378903919, 15.378270672944689 332.3334047630607, 12.450694111615686 333.2024202094603 C 9.523117550286717 334.0714356558599, 5.153289242025866 335.4134151372972, 5.449800531709957 338.27396892740353 C 5.7463118213940465 341.1345227175099, 6.430223110845464 343.4628885037883, 4.712943734620403 344.7224365214159 C 2.995664358395411 345.98198453904354, 3.0941940079500094 343.8927219565748, 0.7030739158650712 342.14988496339294 C -1.6880461762198653 340.407047970211, -0.48412442136371125 338.06550600012156, -0.6206959791804045 334.08587713223204 C -0.7572675369970983 330.1062482643426, -2.47954543539578 325.77199681390425, -3.5108914192411445 321.8485244258538 C -4.542237403086512 317.92505203780325, -4.03851736413169 314.4612777026086, -4.028604031961375 310.5519277321654 C -4.018690699791063 306.64257776172224, -5.785206181288282 302.42650770514894, -6.991137527252796 298.65963380330317 C -8.197068873217304 294.8927599014574, -8.568210447777016 290.7392913273833, -9.891758544771744 286.8120267529139 C -11.215306641766468 282.8847621784444, -11.470574902155864 278.9688751431351, -12.394292908192684 275.07590718308523 C -13.318010914229506 271.18293922303536, -15.254885106090816 267.3982247030558, -16.782635977231326 263.7756578258694 C -18.310386848371834 260.15309094868303, -17.94226397967948 256.12601799403615, -18.88793033169465 253.8664232919697 C -19.83359668370982 251.60682858990333, -19.29994048303794 249.82506402523248, -19.544534802829656 246.0365749038612 C -19.789129122621375 242.2480857824899, -19.72098739744758 236.93743138009782, -21.341317811300804 233.7996727294367 C -22.96164822515403 230.6619140787756, -20.716213265761798 230.46866218196914, -20.574845302985732 226.06513867652478 C -20.433477340209667 221.66161517108043, -19.820397336665227 218.22525672402608, -19.83388273630383 214.3290263023882 C -19.847368135942435 210.43279588075035, -18.958701894778212 206.387608117246, -19.09688693586707 202.39367148435392 C -19.23507197695593 198.39973485146183, -18.02551080968198 195.22023680621606, -17.53845663881094 191.59705261880282 C -17.05140246793989 187.9738684313896, -18.194369036678957 183.76173338556538, -17.54156827337882 180.13553454434967 C -16.888767510078683 176.50933570313396, -14.981964671243265 173.37539266750915, -13.742384793821774 169.47890193476314 C -12.502804916400283 165.58241120201708, -11.568839142995031 161.19594225041152, -11.424909449048316 157.16930721591842 C -11.280979755101596 153.14267218142533, -10.771695733245469 149.4933348913556, -10.42235372837825 145.95915482370853 C -10.073011723511026 142.42497475606146, -10.799070009751691 139.12244185959435, -10.965632048317115 135.4430417470165 C -11.132194086882537 131.76364163443867, -10.74036384414309 129.70273484661084, -10.24248556337686 126.02804535787841 C -9.744607282610628 122.35335586914601, -8.491515681550764 119.36190359662619, -7.478332316808624 115.84784880040023 C -6.465148952066479 112.33379400417425, -3.821337033270786 107.30443828713356, -4.675064103126036 104.25676069566548 C -5.5287911729812835 101.2090831041974, -2.606432800471249 99.86191800225897, -1.82391345399846 96.50337363840221 C -1.0413941075256692 93.14482927454546, 0.6813429628731795 91.107793758633, 1.18219534824755 87.41703672809716 C 1.6830477336219205 83.72627969756131, 3.33348104011109 79.98529039525208, 4.7827736438138535 76.34318216583608 C 6.2320662475166175 72.7010739364201, 6.426628635199787 68.69143417773788, 7.440125387842684 64.98921010861721 C 8.453622140485585 61.28698603949655, 9.852076086364445 57.35633568832227, 10.190714932724031 54.050427328334635 C 10.529353779083618 50.744518968346995, 11.635901261984642 47.392554978511235, 12.170585514226172 43.86155000279516 C 12.705269766467708 40.33054502707908, 13.817991270449198 36.69011594884157, 13.682073346320859 33.18735378545683 C 13.546155422192523 29.684591622072094, 11.223816413809693 26.21797221438371, 10.352637347398947 22.739413328086467 C 9.481458280988203 19.260854441789228, 9.538059025392705 15.739972453191745, 9.160347143933574 12.045320036652383 C 8.782635262474443 8.350667620113022, 8.391916779523653 4.644137304475576, 8.002120378668154 0.9456887253269954 C 7.612323977812656 -2.752759853821585, 3.634356623690178 -2.333503691629767, 4.024153024545677 1.3649448875188126" stroke="#e28343" fill="none">
		<title>.id(nerve_feature_34_outline)</title>
	</path>
	<circle cx="7.494850925235871" cy="16.35740364795347" r="1" fill="orange">
		<title>.id(marker_10001)</title>
	</circle>
	<circle cx="9.142335958899794" cy="25.444065132422754" r="1" fill="orange">
		<title>.id(marker_10002)</title>
	</circle>
	<circle cx="4.848367135611306" cy="67.4371641966641" r="1" fill="orange">
		<title>.id(marker_10003)</title>
	</circle>
	<circle cx="-0.5412921452206462" cy="85.67534578906249" r="1" fill="orange">
		<title>.id(marker_10004)</title>
	</circle>
	<circle cx="-6.574560472422802" cy="107.44326764062394" r="1" fill="orange">
		<title>.id(marker_10005)</title>
	</circle>
	<circle cx="-19.33914429946861" cy="178.95811534081557" r="1" fill="orange">
		<title>.id(marker_10006)</title>
	</circle>
	<circle cx="-21.08571049343898" cy="202.83609252359338" r="1" fill="orange">
		<title>.id(marker_10007)</title>
	</circle>
	<circle cx="-20.30114356038136" cy="256.1691100130957" r="1" fill="orange">
		<title>.id(marker_10008)</title>
	</circle>
</svg>
