<?xml version="1.0" ?>
<svg xmlns="http://www.w3.org/2000/svg" width="1000" height="1000" viewBox="-42 -12 194 374">
	<rect x="-42" y="-12" width="194" height="25" fill="red">
		<title>.id(brain_region)</title>
	</rect>
	<rect x="-42" y="13" width="194" height="141" fill="green">
		<title>.id(cervical_region)</title>
	</rect>
	<rect x="-42" y="154" width="194" height="324" fill="grey">
		<title>.id(thoracic_region)</title>
	</rect>
	<rect x="-42" y="478" width="194" height="158" fill="blue">
		<title>.id(lumbar_region)</title>
	</rect>
	<circle style="fill: rgb(216, 216, 216);" cx="-0.23850108597573177" cy="59.327871803927884" r="0.9054">
		<title>.id(point_01)</title>
	</circle>
	<circle style="fill: rgb(216, 216, 216);" cx="0.6892727122760103" cy="59.35363032289283" r="0.9054">
		<title>.id(point_02)</title>
	</circle>
	<circle style="fill: rgb(216, 216, 216);" cx="2.677798440355376" cy="27.691105525218852" r="0.9054">
		<title>.id(point_03)</title>
	</circle>
	<circle style="fill: rgb(216, 216, 216);" cx="3.9021498324012955" cy="28.063068415835794" r="0.9054">
		<title>.id(point_04)</title>
	</circle>
	<circle style="fill: rgb(216, 216, 216);" cx="-1.6283845143765028" cy="58.7613840732316" r="0.9054">
		<title>.id(point_05)</title>
	</circle>
	<circle style="fill: rgb(216, 216, 216);" cx="-2.082936048344211" cy="58.56382375186604" r="0.9054">
		<title>.id(point_06)</title>
	</circle>
	<circle style="fill: rgb(216, 216, 216);" cx="-2.6299573928349664" cy="51.85076079137349" r="0.9054">
		<title>.id(point_07)</title>
	</circle>
	<circle style="fill: rgb(216, 216, 216);" cx="-3.285435150835282" cy="52.4149639808727" r="0.9054">
		<title>.id(point_08)</title>
	</circle>
	<circle style="fill: rgb(216, 216, 216);" cx="-10.463329297851988" cy="298.84819075978606" r="0.9054">
		<title>.id(point_09)</title>
	</circle>
	<circle style="fill: rgb(216, 216, 216);" cx="-10.85850775009942" cy="298.5554348850466" r="0.9054">
		<title>.id(point_10)</title>
	</circle>
	<circle style="fill: rgb(216, 216, 216);" cx="-16.246754195886012" cy="314.9542071362468" r="0.9054">
		<title>.id(point_11)</title>
	</circle>
	<circle style="fill: rgb(216, 216, 216);" cx="-7.718530559544852" cy="341.91447449045614" r="0.9054">
		<title>.id(point_12)</title>
	</circle>
	<circle style="fill: rgb(216, 216, 216);" cx="-6.602757906105255" cy="343.2283783995599" r="0.9054">
		<title>.id(point_13)</title>
	</circle>
	<circle style="fill: rgb(216, 216, 216);" cx="-3.0827271711349975" cy="342.7129314267842" r="0.9054">
		<title>.id(point_14)</title>
	</circle>
	<circle style="fill: rgb(216, 216, 216);" cx="2.9656781611119483" cy="342.559311133171" r="0.9054">
		<title>.id(point_15)</title>
	</circle>
	<circle style="fill: rgb(216, 216, 216);" cx="13.036687015024556" cy="338.2100044706905" r="0.9054">
		<title>.id(point_16)</title>
	</circle>
	<circle style="fill: rgb(216, 216, 216);" cx="-1.282306632731748" cy="79.13014137544809" r="0.9054">
		<title>.id(point_17)</title>
	</circle>
	<circle style="fill: rgb(216, 216, 216);" cx="-0.34152660906156307" cy="79.23139403432418" r="0.9054">
		<title>.id(point_18)</title>
	</circle>
	<circle style="fill: rgb(216, 216, 216);" cx="-3.5334575361325022" cy="89.6137101560176" r="0.9054">
		<title>.id(point_19)</title>
	</circle>
	<circle style="fill: rgb(216, 216, 216);" cx="-4.8067765384333185" cy="98.83301594401618" r="0.9054">
		<title>.id(point_20)</title>
	</circle>
	<circle style="fill: rgb(216, 216, 216);" cx="-4.164268776600857" cy="109.37267986374917" r="0.9054">
		<title>.id(point_21)</title>
	</circle>
	<circle style="fill: rgb(216, 216, 216);" cx="13.454715848106675" cy="237.60613082258584" r="0.9054">
		<title>.id(point_22)</title>
	</circle>
	<circle style="fill: rgb(216, 216, 216);" cx="15.90529595873018" cy="237.15112121903684" r="0.9054">
		<title>.id(point_23)</title>
	</circle>
	<circle style="fill: rgb(216, 216, 216);" cx="-13.597551759640748" cy="339.52686619116184" r="0.9054">
		<title>.id(point_24)</title>
	</circle>
	<circle style="fill: rgb(216, 216, 216);" cx="0.1981519041771539" cy="52.12914097517595" r="0.9054">
		<title>.id(point_25)</title>
	</circle>
	<circle style="fill: rgb(216, 216, 216);" cx="1.049500568535938" cy="51.79755712114118" r="0.9054">
		<title>.id(point_26)</title>
	</circle>
	<circle style="fill: rgb(216, 216, 216);" cx="-0.37083335663144273" cy="54.24536752874631" r="0.9054">
		<title>.id(point_27)</title>
	</circle>
	<circle style="fill: rgb(216, 216, 216);" cx="6.443844959573305" cy="258.6503237901718" r="0.9054">
		<title>.id(point_28)</title>
	</circle>
	<circle style="fill: rgb(216, 216, 216);" cx="5.876986345708249" cy="261.4092446763636" r="0.9054">
		<title>.id(point_29)</title>
	</circle>
	<circle style="fill: rgb(216, 216, 216);" cx="3.461596117800262" cy="261.8603726599556" r="0.9054">
		<title>.id(point_30)</title>
	</circle>
	<circle style="fill: rgb(216, 216, 216);" cx="-15.438435655316816" cy="315.5872446897258" r="0.9054">
		<title>.id(point_31)</title>
	</circle>
	<circle style="fill: rgb(216, 216, 216);" cx="-3.4824429637356737" cy="89.61674798416986" r="0.9054">
		<title>.id(point_32)</title>
	</circle>
	<circle style="fill: rgb(216, 216, 216);" cx="-13.865537289667577" cy="341.6001671722729" r="0.9054">
		<title>.id(point_33)</title>
	</circle>
	<circle style="fill: rgb(216, 216, 216);" cx="0.19453156440944064" cy="53.98714313535641" r="0.9054">
		<title>.id(point_34)</title>
	</circle>
	<circle style="fill: rgb(216, 216, 216);" cx="3.205900140660122" cy="261.73521334186694" r="0.9054">
		<title>.id(point_35)</title>
	</circle>
	<circle style="fill: rgb(216, 216, 216);" cx="-7.79689712940347" cy="341.38973163892257" r="0.9054">
		<title>.id(point_36)</title>
	</circle>
	<circle style="fill: rgb(216, 216, 216);" cx="-5.273065962416821" cy="98.83856415024762" r="0.9054">
		<title>.id(point_37)</title>
	</circle>
	<circle style="fill: rgb(216, 216, 216);" cx="-6.640220915975424" cy="343.73479594798795" r="0.9054">
		<title>.id(point_38)</title>
	</circle>
	<circle style="fill: rgb(216, 216, 216);" cx="-5.287240219082164" cy="109.55155982620819" r="0.9054">
		<title>.id(point_39)</title>
	</circle>
	<circle style="fill: rgb(216, 216, 216);" cx="-3.1098701136429177" cy="342.08362256314854" r="0.9054">
		<title>.id(point_40)</title>
	</circle>
	<circle style="fill: rgb(216, 216, 216);" cx="3.304850159445211" cy="343.14185261773537" r="0.9054">
		<title>.id(point_41)</title>
	</circle>
	<circle style="fill: rgb(216, 216, 216);" cx="13.306618486035486" cy="338.7773786401041" r="0.9054">
		<title>.id(point_42)</title>
	</circle>
	<circle style="fill: rgb(216, 216, 216);" cx="7.118406817011671" cy="-0.6384929351749697" r="0.9054">
		<title>.id(point_43)</title>
	</circle>
	<circle style="fill: rgb(216, 216, 216);" cx="4.2606256301876115" cy="185.37257458915386" r="0.9054">
		<title>.id(point_44)</title>
	</circle>
	<circle style="fill: rgb(216, 216, 216);" cx="138.298394344703" cy="257.514845476913" r="0.9054">
		<title>.id(point_45)</title>
	</circle>
	<circle style="fill: rgb(216, 216, 216);" cx="-6.030091309365839" cy="291.4249788359798" r="0.9054">
		<title>.id(point_46)</title>
	</circle>
	<circle style="fill: rgb(216, 216, 216);" cx="-5.732546392407358" cy="291.4319806342625" r="0.9054">
		<title>.id(point_47)</title>
	</circle>
	<circle style="fill: rgb(216, 216, 216);" cx="-1.9831440365246928" cy="50.942850356759095" r="0.9054">
		<title>.id(point_48)</title>
	</circle>
	<circle style="fill: rgb(216, 216, 216);" cx="-2.1256242624461725" cy="50.69387487021132" r="0.9054">
		<title>.id(point_49)</title>
	</circle>
	<circle style="fill: rgb(216, 216, 216);" cx="12.231422185803101" cy="239.2204346323381" r="0.9054">
		<title>.id(point_50)</title>
	</circle>
	<circle style="fill: rgb(216, 216, 216);" cx="19.423399553352397" cy="263.8662596196075" r="0.9054">
		<title>.id(point_51)</title>
	</circle>
	<circle style="fill: rgb(216, 216, 216);" cx="8.059157440856017" cy="250.8454482395581" r="0.9054">
		<title>.id(point_52)</title>
	</circle>
	<circle style="fill: rgb(216, 216, 216);" cx="10.04586372143942" cy="269.03995001793083" r="0.9054">
		<title>.id(point_53)</title>
	</circle>
	<path d="M -0.23850108597573177 59.327871803927884 C 0.0707568467733527 59.33645797690864, 0.3800147795261197 59.34504414991641, 0.6892727122760103 59.35363032289283" stroke="#01136e" fill="none">
		<title>.id(nerve_feature_02)</title>
	</path>
	<path d="M -0.29400728162556317 61.32710142111659 C 0.015250651123521308 61.335687594097344, 0.3245085839044309 61.344273767105896, 0.6337665166543215 61.35285994008232 C 0.9430244494042122 61.36144611305874, 1.0540368406475897 57.36298687867977, 0.7447789078976991 57.35440070570335 C 0.43552097514780846 57.345814532726926, 0.1262630424231841 57.33722835971994, -0.18299489032590038 57.32864218673918 C -0.49225282307498486 57.320056013758425, -0.6032652143746476 61.31851524813583, -0.29400728162556317 61.32710142111659" stroke="#e28343" fill="none">
		<title>.id(nerve_feature_02_outline)</title>
	</path>
	<path d="M 2.677798440355376 27.691105525218852 C 3.085915571038306 27.815093155437193, 3.4940327017191666 27.939080785623577, 3.9021498324012955 28.063068415835794" stroke="#01136e" fill="none">
		<title>.id(nerve_feature_03)</title>
	</path>
	<path d="M 2.09642768491093 29.60474291111879 C 2.50454481559386 29.728730541337132, 2.9126619462999686 29.852718171531187, 3.3207790769820975 29.976705801743403 C 3.7288962076642265 30.10069343195562, 4.891637718502623 26.2734186601404, 4.483520587820494 26.149431029928184 C 4.075403457138365 26.025443399715968, 3.6672863264827518 25.901455769537254, 3.2591691957998217 25.777468139318913 C 2.8510520651168916 25.65348050910057, 1.688310554228 29.48075528090045, 2.09642768491093 29.60474291111879" stroke="#e28343" fill="none">
		<title>.id(nerve_feature_03_outline)</title>
	</path>
	<path d="M -1.6283845143765028 58.7613840732316 C -1.7799016923654827 58.695530632764886, -1.9314188703549873 58.6296771923304, -2.082936048344211 58.56382375186604" stroke="#01136e" fill="none">
		<title>.id(nerve_feature_04)</title>
	</path>
	<path d="M -0.8311725087183104 56.927139537180196 C -0.9826896867072903 56.86128609671348, -1.1342068647218941 56.79543265626808, -1.2857240427111178 56.729579215803724 C -1.4372412207003415 56.663725775339365, -3.031665231966528 60.332214847463995, -2.880148053977304 60.39806828792835 C -2.72863087598808 60.46392172839271, -2.577113698023675 60.52977516881629, -2.425596520034695 60.59562860928301 C -2.274079342045715 60.66148204974973, -0.6796553307293305 56.992992977646914, -0.8311725087183104 56.927139537180196" stroke="#e28343" fill="none">
		<title>.id(nerve_feature_04_outline)</title>
	</path>
	<path d="M -2.6299573928349664 51.85076079137349 C -2.848449978832238 52.038828521198994, -3.066942564838792 52.22689625104547, -3.285435150835282 52.4149639808727" stroke="#01136e" fill="none">
		<title>.id(nerve_feature_06)</title>
	</path>
	<path d="M -3.934690267414521 50.33495337418905 C -4.153182853411792 50.52302110401455, -4.371675439427906 50.711088833869255, -4.590168025424397 50.899156563696486 C -4.808660611420888 51.08722429352372, -2.199194862242658 54.11883912787614, -1.9807022762461675 53.93077139804891 C -1.762209690249677 53.74270366822168, -1.5437171042526834 53.554635938383434, -1.3252245182554119 53.36656820855793 C -1.1067319322581404 53.178500478732424, -3.71619768141725 50.14688564436354, -3.934690267414521 50.33495337418905" stroke="#e28343" fill="none">
		<title>.id(nerve_feature_06_outline)</title>
	</path>
	<path d="M -10.463329297851988 298.84819075978606 C -10.595055448603445 298.75060546812927, -10.72678159934801 298.6530201766942, -10.85850775009942 298.5554348850466" stroke="#01136e" fill="none">
		<title>.id(nerve_feature_07)</title>
	</path>
	<path d="M -9.272792545796936 297.2411368583857 C -9.40451869654839 297.1435515667289, -9.536244847365223 297.0459662752403, -9.667970998116633 296.9483809835927 C -9.799697148868043 296.8507956919451, -12.180770652833617 300.06490349485296, -12.049044502082207 300.16248878650055 C -11.917318351330797 300.26007407814814, -11.785592200658499 300.35765936952964, -11.653866049907041 300.45524466118644 C -11.522139899155583 300.55282995284324, -9.141066395045481 297.3387221500425, -9.272792545796936 297.2411368583857" stroke="#e28343" fill="none">
		<title>.id(nerve_feature_07_outline)</title>
	</path>
	<path d="M -1.282306632731748 79.13014137544809 C -0.9687132915093675 79.16389226175468, -0.6551199502838084 79.19764314802887, -0.34152660906156307 79.23139403432418" stroke="#01136e" fill="none">
		<title>.id(nerve_feature_08)</title>
	</path>
	<path d="M -1.4963232496211227 81.11865762825953 C -1.1827299083987421 81.15240851456612, -0.8691365671025448 81.18615940084791, -0.5555432258802995 81.21991028714322 C -0.24194988465805412 81.25366117343853, 0.18608334897941864 77.27662866780045, -0.12750999224282672 77.24287778150514 C -0.4411033334650721 77.20912689520983, -0.7546966746199928 77.17537600894325, -1.0682900158423734 77.14162512263665 C -1.381883357064754 77.10787423633006, -1.8099165908435033 81.08490674195293, -1.4963232496211227 81.11865762825953" stroke="#e28343" fill="none">
		<title>.id(nerve_feature_08_outline)</title>
	</path>
	<path d="M 13.454715848106675 237.60613082258584 C 14.153365410962357 238.259005641063, 15.831400095981515 238.19928060798324, 15.90529595873018 237.15112121903684" stroke="#01136e" fill="none">
		<title>.id(nerve_feature_09)</title>
	</path>
	<path d="M 12.089183230183377 239.06740446889154 C 12.787832793039058 239.7202792873687, 17.826448213549902 238.33993269146168, 17.90034407629857 237.29177330251528 C 17.974239939047237 236.24361391356888, 13.984143703910458 235.962309746612, 13.910247841161793 237.0104691355584 C 13.836351978413127 238.0586285245048, 15.518898028885655 236.7977319947573, 14.820248466029973 236.14485717628014 C 14.121598903174291 235.49198235780298, 11.390533667327695 238.41452965041438, 12.089183230183377 239.06740446889154" stroke="#e28343" fill="none">
		<title>.id(nerve_feature_09_outline)</title>
	</path>
	<path d="M 0.1981519041771539 52.12914097517595 C 0.4819347922972936 52.01861302384057, 0.7657176804167267 51.9080850724777, 1.049500568535938 51.79755712114118" stroke="#01136e" fill="none">
		<title>.id(nerve_feature_10)</title>
	</path>
	<path d="M 0.9240023263219114 53.992777518247664 C 1.2077852144420511 53.882249566912286, 1.4915681025700287 53.77172161554608, 1.77535099068924 53.66119366420956 C 2.059133878808451 53.55066571287305, 0.6074330345018473 49.823392626736286, 0.323650146382636 49.9339205780728 C 0.03986725826342474 50.044448529409316, -0.2439156298474639 50.15497648076886, -0.5276985179676036 50.26550443210424 C -0.8114814060877433 50.376032383439615, 0.6402194382017716 54.10330546958304, 0.9240023263219114 53.992777518247664" stroke="#e28343" fill="none">
		<title>.id(nerve_feature_10_outline)</title>
	</path>
	<path d="M 6.443844959573305 258.6503237901718 C 6.459396152761908 258.669407336533, 5.495615174498031 260.1606764851366, 5.876986345708249 261.4092446763636" stroke="#01136e" fill="none">
		<title>.id(nerve_feature_11)</title>
	</path>
	<path d="M 4.893440113284659 259.91374961411424 C 4.908991306473262 259.93283316047547, 3.5828539122748757 260.74492331117716, 3.964225083485094 261.99349150240414 C 4.345596254695312 263.2420596936311, 8.171118779141624 262.07356604155, 7.789747607931405 260.82499785032303 C 7.408376436721186 259.57642965909605, 8.009800999050555 257.4059815125906, 7.99424980586195 257.38689796622936 C 7.978698612673346 257.3678144198681, 4.877888920096056 259.894666067753, 4.893440113284659 259.91374961411424" stroke="#e28343" fill="none">
		<title>.id(nerve_feature_11_outline)</title>
	</path>
	<path d="M -16.246754195886012 314.95420713624674 C -15.97731468235293 315.1652196540894, -15.707875168847053 315.37623217190026, -15.438435655316816 315.5872446897258" stroke="#01136e" fill="none">
		<title>.id(nerve_feature_12)</title>
	</path>
	<path d="M -17.47990272549161 316.52880064059366 C -17.210463211958526 316.73981315843633, -16.941023698398745 316.9508256762894, -16.671584184868507 317.161838194115 C -16.40214467133827 317.37285071194054, -13.935847612234888 314.22366370316223, -14.205287125765125 314.01265118533667 C -14.474726639295362 313.8016386675111, -14.744166152747333 313.5906261497425, -15.013605666280416 313.3796136318998 C -15.283045179813499 313.16860111405714, -17.749342239024692 316.317788122751, -17.47990272549161 316.52880064059366" stroke="#e28343" fill="none">
		<title>.id(nerve_feature_12_outline)</title>
	</path>
	<path d="M -3.5334575361325022 89.6137101560176 C -3.516452678664387 89.61472276540071, -3.499447821203903 89.61573537478719, -3.4824429637356737 89.61674798416986" stroke="#01136e" fill="none">
		<title>.id(nerve_feature_13)</title>
	</path>
	<path d="M -3.6523434241985515 91.61017356555426 C -3.6353385667304363 91.61118617493737, -3.6183337092176187 91.61219878432696, -3.6013288517493893 91.61321139370963 C -3.58432399428116 91.6142240030923, -3.346552218253729 87.62129718401276, -3.363557075721958 87.62028457463009 C -3.3805619331901875 87.61927196524742, -3.3975667905983378 87.61825935586405, -3.414571648066453 87.61724674648094 C -3.431576505534568 87.61623413709783, -3.6693482816666667 91.60916095617115, -3.6523434241985515 91.61017356555426" stroke="#e28343" fill="none">
		<title>.id(nerve_feature_13_outline)</title>
	</path>
	<path d="M -13.597551759640748 339.52686619116184 C -13.585432822586338 341.0505781838792, -13.877656226735192 340.0764551795764, -13.865537289667577 341.6001671722729" stroke="#01136e" fill="none">
		<title>.id(nerve_feature_14)</title>
	</path>
	<path d="M -15.597488503501218 339.5427728110661 C -15.585369566446808 341.06648480378345, -15.877592970595524 340.0923617994981, -15.865474033527908 341.61607379219464 C -15.853355096460293 343.13978578489116, -11.85348160873963 343.1079725450477, -11.865600545807245 341.58426055235117 C -11.877719482874861 340.06054855965465, -11.585496078725868 341.034671563975, -11.597615015780278 339.5109595712576 C -11.609733952834688 337.98724757854023, -15.609607440555628 338.0190608183487, -15.597488503501218 339.5427728110661" stroke="#e28343" fill="none">
		<title>.id(nerve_feature_14_outline)</title>
	</path>
	<path d="M -0.37083335663144323 54.24536752874631 C -0.18237838295222317 54.15929273095687, 0.006076590730133197 54.073217933149046, 0.19453156440944064 53.98714313535641" stroke="#01136e" fill="none">
		<title>.id(nerve_feature_15)</title>
	</path>
	<path d="M 0.46007890031634713 56.06459396359545 C 0.6485338739955672 55.97851916580601, 0.8369888477031434 55.89244436798667, 1.0254438213824508 55.806369570194036 C 1.2138987950617581 55.7202947724014, -0.44792571888426214 52.081841902726154, -0.6363806925635695 52.16791670051879 C -0.824835666242877 52.25399149831142, -1.0132906399000134 52.34006629610773, -1.2017456135792335 52.426141093897165 C -1.3902005872584535 52.5122158916866, 0.2716239266371271 56.150668761384885, 0.46007890031634713 56.06459396359545" stroke="#e28343" fill="none">
		<title>.id(nerve_feature_15_outline)</title>
	</path>
	<path d="M 3.461596117800263 261.8603726599556 C 3.3763641254188963 261.81865288717705, 3.29113213304135 261.7769331146432, 3.205900140660122 261.73521334186694" stroke="#01136e" fill="none">
		<title>.id(nerve_feature_16)</title>
	</path>
	<path d="M 4.340880381308713 260.06402659531597 C 4.255648388927346 260.0223068225374, 4.1704163965122945 259.9805870499852, 4.085184404131066 259.93886727720894 C 3.999952411749838 259.89714750443267, 2.24138388480795 263.48983963374866, 2.326615877189178 263.53155940652493 C 2.411847869570406 263.5732791793012, 2.4970798619104464 263.6149989518167, 2.582311854291813 263.65671872459524 C 2.66754384667318 263.6984384973738, 4.42611237369008 260.1057463680945, 4.340880381308713 260.06402659531597" stroke="#e28343" fill="none">
		<title>.id(nerve_feature_16_outline)</title>
	</path>
	<path d="M -7.718530559544853 341.91447449045614 C -7.744652749499647 341.73956020658125, -7.7707749394486365 341.56464592280867, -7.79689712940347 341.38973163892257" stroke="#01136e" fill="none">
		<title>.id(nerve_feature_17)</title>
	</path>
	<path d="M -5.74046755759521 341.619065011397 C -5.766589747550004 341.4441507275221, -5.792711937496295 341.2692364437676, -5.818834127451129 341.09432215988153 C -5.844956317405962 340.91940787599543, -9.801082321310643 341.5102268340775, -9.77496013135581 341.6851411179636 C -9.748837941400977 341.8600554018497, -9.72271575144929 342.03496968564036, -9.696593561494495 342.20988396951526 C -9.670471371539701 342.38479825339016, -5.714345367640416 341.7939792952719, -5.74046755759521 341.619065011397" stroke="#e28343" fill="none">
		<title>.id(nerve_feature_17_outline)</title>
	</path>
	<path d="M -4.8067765384333185 98.83301594401618 C -4.962206346428105 98.83486534609429, -5.117636154422763 98.83671474816812, -5.273065962416821 98.83856415024762" stroke="#01136e" fill="none">
		<title>.id(nerve_feature_18)</title>
	</path>
	<path d="M -4.830572117917807 96.83315750642691 C -4.986001925912594 96.83500690850502, -5.1414317339252795 96.83685631057907, -5.296861541919338 96.83870571265857 C -5.452291349913396 96.84055511473807, -5.404700190908362 100.84027198991618, -5.249270382914304 100.83842258783667 C -5.093840574920246 100.83657318575717, -4.938410766943616 100.83472378368356, -4.78298095894883 100.83287438160545 C -4.6275511509540435 100.83102497952734, -4.675142309923021 96.8313081043488, -4.830572117917807 96.83315750642691" stroke="#e28343" fill="none">
		<title>.id(nerve_feature_18_outline)</title>
	</path>
	<path d="M -6.60275790610525 343.2283783995599 C -6.615245576060716 343.39718424907346, -6.627733246017665 343.565990098482, -6.640220915975424 343.73479594798795" stroke="#01136e" fill="none">
		<title>.id(nerve_feature_19)</title>
	</path>
	<path d="M -8.597307739482309 343.08082853620675 C -8.609795409437776 343.2496343857203, -8.622283079392242 343.41844023509526, -8.63477074935 343.5872460846012 C -8.647258419307759 343.7560519341071, -4.658158752558606 344.05115166088063, -4.645671082600847 343.8823458113747 C -4.633183412643088 343.7135399618688, -4.620695742683657 343.5447341124266, -4.608208072728191 343.3759282629131 C -4.5957204027727245 343.20712241339953, -8.584820069526842 342.9120226866932, -8.597307739482309 343.08082853620675" stroke="#e28343" fill="none">
		<title>.id(nerve_feature_19_outline)</title>
	</path>
	<path d="M -4.164268776600857 109.37267986374917 C -4.538592590759189 109.43230651791042, -4.91291640492557 109.49193317204505, -5.287240219082164 109.55155982620819" stroke="#01136e" fill="none">
		<title>.id(nerve_feature_20)</title>
	</path>
	<path d="M -4.478885544276216 107.39758080560107 C -4.8532093584345475 107.45720745976232, -5.227533172612079 107.51683411389872, -5.601856986768673 107.57646076806186 C -5.976180800925267 107.636087422225, -5.346947265552249 111.58628553851766, -4.972623451395655 111.52665888435452 C -4.5982996372390605 111.46703223019138, -4.22397582308383 111.40740557605852, -3.849652008925498 111.34777892189727 C -3.475328194767166 111.28815226773602, -4.104561730117885 107.33795415143982, -4.478885544276216 107.39758080560107" stroke="#e28343" fill="none">
		<title>.id(nerve_feature_20_outline)</title>
	</path>
	<path d="M -3.082727171134998 342.7129314267842 C -3.0917748186712264 342.5031618055427, -3.100822466106425 342.29339218440754, -3.1098701136429177 342.08362256314854" stroke="#01136e" fill="none">
		<title>.id(nerve_feature_21)</title>
	</path>
	<path d="M -1.0845848931698863 342.6267488472893 C -1.0936325407061147 342.4169792260478, -1.1026801881411132 342.2072096049173, -1.111727835677606 341.9974399836583 C -1.1207754832140986 341.7876703623993, -5.117060039144722 341.9600355213798, -5.108012391608229 342.1698051426388 C -5.098964744071736 342.3795747638978, -5.089917096636338 342.5893443850376, -5.08086944910011 342.7991140062791 C -5.071821801563882 343.0088836275207, -1.0755372456336578 342.83651846853087, -1.0845848931698863 342.6267488472893" stroke="#e28343" fill="none">
		<title>.id(nerve_feature_21_outline)</title>
	</path>
	<path d="M 2.965678161111948 342.5593111331709 C 3.0787354938913127 342.75349162809147, 3.1917928266658766 342.94767212281363, 3.304850159445211 343.14185261773537" stroke="#01136e" fill="none">
		<title>.id(nerve_feature_22)</title>
	</path>
	<path d="M 1.237289502901734 343.5656275079608 C 1.3503468356810988 343.75980800288136, 1.463404168452854 343.9539884975987, 1.5764615012321883 344.1481689925204 C 1.6895188340115226 344.34234948744216, 5.146296150437568 342.32971673787205, 5.033238817658233 342.1355362429503 C 4.920181484878899 341.94135574802857, 4.807124152101527 341.7471752533016, 4.6940668193221615 341.55299475838103 C 4.581009486542796 341.3588142634605, 1.124232170122369 343.37144701304027, 1.237289502901734 343.5656275079608" stroke="#e28343" fill="none">
		<title>.id(nerve_feature_22_outline)</title>
	</path>
	<path d="M 13.036687015024558 338.2100044706905 C 13.126664172031969 338.39912919393055, 13.216641329028283 338.5882539168635, 13.306618486035486 338.7773786401041" stroke="#01136e" fill="none">
		<title>.id(nerve_feature_23)</title>
	</path>
	<path d="M 11.230661263148692 339.0692314392856 C 11.320638420156103 339.2583561625257, 11.410615577150745 339.44748088545515, 11.500592734157948 339.63660560869573 C 11.590569891165151 339.8257303319363, 15.202621394920227 338.107276394753, 15.112644237913024 337.9181516715124 C 15.022667080905821 337.72902694827184, 14.932689923907835 337.5399022253354, 14.842712766900425 337.35077750209535 C 14.752735609893014 337.1616527788553, 11.140684106141281 338.88010671604553, 11.230661263148692 339.0692314392856" stroke="#e28343" fill="none">
		<title>.id(nerve_feature_23_outline)</title>
	</path>
	<path d="M -2.6299573928349664 51.85076079137349 C -2.848449978832238 52.038828521198994, -3.066942564838792 52.22689625104547, -3.285435150835282 52.4149639808727" stroke="#01136e" fill="none">
		<title>.id(nerve_feature_24)</title>
	</path>
	<path d="M -3.934690267414521 50.33495337418905 C -4.153182853411792 50.52302110401455, -4.371675439427906 50.711088833869255, -4.590168025424397 50.899156563696486 C -4.808660611420888 51.08722429352372, -2.199194862242658 54.11883912787614, -1.9807022762461675 53.93077139804891 C -1.762209690249677 53.74270366822168, -1.5437171042526834 53.554635938383434, -1.3252245182554119 53.36656820855793 C -1.1067319322581404 53.178500478732424, -3.71619768141725 50.14688564436354, -3.934690267414521 50.33495337418905" stroke="#e28343" fill="none">
		<title>.id(nerve_feature_24_outline)</title>
	</path>
	<path d="M -10.463329297851988 298.84819075978606 C -10.595055448603445 298.75060546812927, -10.72678159934801 298.6530201766942, -10.85850775009942 298.5554348850466 M -16.246754195886012 314.95420713624674 C -15.97731468235293 315.1652196540894, -15.707875168847053 315.37623217190026, -15.438435655316816 315.5872446897258 M -7.718530559544853 341.91447449045614 C -7.744652749499647 341.73956020658125, -7.7707749394486365 341.56464592280867, -7.79689712940347 341.38973163892257 M -6.60275790610525 343.2283783995599 C -6.615245576060716 343.39718424907346, -6.627733246017665 343.565990098482, -6.640220915975424 343.73479594798795 M -3.082727171134998 342.7129314267842 C -3.0917748186712264 342.5031618055427, -3.100822466106425 342.29339218440754, -3.1098701136429177 342.08362256314854 M 2.965678161111948 342.5593111331709 C 3.0787354938913127 342.75349162809147, 3.1917928266658766 342.94767212281363, 3.304850159445211 343.14185261773537 M 13.036687015024558 338.2100044706905 C 13.126664172031969 338.39912919393055, 13.216641329028283 338.5882539168635, 13.306618486035486 338.7773786401041" stroke="#01136e" fill="none">
		<title>.id(nerve_feature_25)</title>
	</path>
	<path d="M -9.272792545796936 297.2411368583857 C -9.40451869654839 297.1435515667289, -9.536244847365223 297.0459662752403, -9.667970998116633 296.9483809835927 C -9.799697148868043 296.8507956919451, -12.180770652833617 300.06490349485296, -12.049044502082207 300.16248878650055 C -11.917318351330797 300.26007407814814, -11.785592200658499 300.35765936952964, -11.653866049907041 300.45524466118644 C -11.522139899155583 300.55282995284324, -9.141066395045481 297.3387221500425, -9.272792545796936 297.2411368583857 M -17.47990272549161 316.52880064059366 C -17.210463211958526 316.73981315843633, -16.941023698398745 316.9508256762894, -16.671584184868507 317.161838194115 C -16.40214467133827 317.37285071194054, -13.935847612234888 314.22366370316223, -14.205287125765125 314.01265118533667 C -14.474726639295362 313.8016386675111, -14.744166152747333 313.5906261497425, -15.013605666280416 313.3796136318998 C -15.283045179813499 313.16860111405714, -17.749342239024692 316.317788122751, -17.47990272549161 316.52880064059366 M -5.74046755759521 341.619065011397 C -5.766589747550004 341.4441507275221, -5.792711937496295 341.2692364437676, -5.818834127451129 341.09432215988153 C -5.844956317405962 340.91940787599543, -9.801082321310643 341.5102268340775, -9.77496013135581 341.6851411179636 C -9.748837941400977 341.8600554018497, -9.72271575144929 342.03496968564036, -9.696593561494495 342.20988396951526 C -9.670471371539701 342.38479825339016, -5.714345367640416 341.7939792952719, -5.74046755759521 341.619065011397 M -8.597307739482309 343.08082853620675 C -8.609795409437776 343.2496343857203, -8.622283079392242 343.41844023509526, -8.63477074935 343.5872460846012 C -8.647258419307759 343.7560519341071, -4.658158752558606 344.05115166088063, -4.645671082600847 343.8823458113747 C -4.633183412643088 343.7135399618688, -4.620695742683657 343.5447341124266, -4.608208072728191 343.3759282629131 C -4.5957204027727245 343.20712241339953, -8.584820069526842 342.9120226866932, -8.597307739482309 343.08082853620675 M -1.0845848931698863 342.6267488472893 C -1.0936325407061147 342.4169792260478, -1.1026801881411132 342.2072096049173, -1.111727835677606 341.9974399836583 C -1.1207754832140986 341.7876703623993, -5.117060039144722 341.9600355213798, -5.108012391608229 342.1698051426388 C -5.098964744071736 342.3795747638978, -5.089917096636338 342.5893443850376, -5.08086944910011 342.7991140062791 C -5.071821801563882 343.0088836275207, -1.0755372456336578 342.83651846853087, -1.0845848931698863 342.6267488472893 M 1.237289502901734 343.5656275079608 C 1.3503468356810988 343.75980800288136, 1.463404168452854 343.9539884975987, 1.5764615012321883 344.1481689925204 C 1.6895188340115226 344.34234948744216, 5.146296150437568 342.32971673787205, 5.033238817658233 342.1355362429503 C 4.920181484878899 341.94135574802857, 4.807124152101527 341.7471752533016, 4.6940668193221615 341.55299475838103 C 4.581009486542796 341.3588142634605, 1.124232170122369 343.37144701304027, 1.237289502901734 343.5656275079608 M 11.230661263148692 339.0692314392856 C 11.320638420156103 339.2583561625257, 11.410615577150745 339.44748088545515, 11.500592734157948 339.63660560869573 C 11.590569891165151 339.8257303319363, 15.202621394920227 338.107276394753, 15.112644237913024 337.9181516715124 C 15.022667080905821 337.72902694827184, 14.932689923907835 337.5399022253354, 14.842712766900425 337.35077750209535 C 14.752735609893014 337.1616527788553, 11.140684106141281 338.88010671604553, 11.230661263148692 339.0692314392856" stroke="#e28343" fill="none">
		<title>.id(nerve_feature_25_outline)</title>
	</path>
	<path d="M -1.282306632731748 79.13014137544809 C -0.9687132915093675 79.16389226175468, -0.6551199502838084 79.19764314802887, -0.34152660906156307 79.23139403432418 M -3.5334575361325022 89.6137101560176 C -3.516452678664387 89.61472276540071, -3.499447821203903 89.61573537478719, -3.4824429637356737 89.61674798416986 M -4.8067765384333185 98.83301594401618 C -4.962206346428105 98.83486534609429, -5.117636154422763 98.83671474816812, -5.273065962416821 98.83856415024762 M -4.164268776600857 109.37267986374917 C -4.538592590759189 109.43230651791042, -4.91291640492557 109.49193317204505, -5.287240219082164 109.55155982620819" stroke="#01136e" fill="none">
		<title>.id(nerve_feature_26)</title>
	</path>
	<path d="M -1.4963232496211227 81.11865762825953 C -1.1827299083987421 81.15240851456612, -0.8691365671025448 81.18615940084791, -0.5555432258802995 81.21991028714322 C -0.24194988465805412 81.25366117343853, 0.18608334897941864 77.27662866780045, -0.12750999224282672 77.24287778150514 C -0.4411033334650721 77.20912689520983, -0.7546966746199928 77.17537600894325, -1.0682900158423734 77.14162512263665 C -1.381883357064754 77.10787423633006, -1.8099165908435033 81.08490674195293, -1.4963232496211227 81.11865762825953 M -3.6523434241985515 91.61017356555426 C -3.6353385667304363 91.61118617493737, -3.6183337092176187 91.61219878432696, -3.6013288517493893 91.61321139370963 C -3.58432399428116 91.6142240030923, -3.346552218253729 87.62129718401276, -3.363557075721958 87.62028457463009 C -3.3805619331901875 87.61927196524742, -3.3975667905983378 87.61825935586405, -3.414571648066453 87.61724674648094 C -3.431576505534568 87.61623413709783, -3.6693482816666667 91.60916095617115, -3.6523434241985515 91.61017356555426 M -4.830572117917807 96.83315750642691 C -4.986001925912594 96.83500690850502, -5.1414317339252795 96.83685631057907, -5.296861541919338 96.83870571265857 C -5.452291349913396 96.84055511473807, -5.404700190908362 100.84027198991618, -5.249270382914304 100.83842258783667 C -5.093840574920246 100.83657318575717, -4.938410766943616 100.83472378368356, -4.78298095894883 100.83287438160545 C -4.6275511509540435 100.83102497952734, -4.675142309923021 96.8313081043488, -4.830572117917807 96.83315750642691 M -4.478885544276216 107.39758080560107 C -4.8532093584345475 107.45720745976232, -5.227533172612079 107.51683411389872, -5.601856986768673 107.57646076806186 C -5.976180800925267 107.636087422225, -5.346947265552249 111.58628553851766, -4.972623451395655 111.52665888435452 C -4.5982996372390605 111.46703223019138, -4.22397582308383 111.40740557605852, -3.849652008925498 111.34777892189727 C -3.475328194767166 111.28815226773602, -4.104561730117885 107.33795415143982, -4.478885544276216 107.39758080560107" stroke="#e28343" fill="none">
		<title>.id(nerve_feature_26_outline)</title>
	</path>
	<path d="M 13.454715848106675 237.60613082258584 C 14.153365410962357 238.259005641063, 15.831400095981515 238.19928060798324, 15.90529595873018 237.15112121903684 M -13.597551759640748 339.52686619116184 C -13.585432822586338 341.0505781838792, -13.877656226735192 340.0764551795764, -13.865537289667577 341.6001671722729" stroke="#01136e" fill="none">
		<title>.id(nerve_feature_27)</title>
	</path>
	<path d="M 12.089183230183377 239.06740446889154 C 12.787832793039058 239.7202792873687, 17.826448213549902 238.33993269146168, 17.90034407629857 237.29177330251528 C 17.974239939047237 236.24361391356888, 13.984143703910458 235.962309746612, 13.910247841161793 237.0104691355584 C 13.836351978413127 238.0586285245048, 15.518898028885655 236.7977319947573, 14.820248466029973 236.14485717628014 C 14.121598903174291 235.49198235780298, 11.390533667327695 238.41452965041438, 12.089183230183377 239.06740446889154 M -15.597488503501218 339.5427728110661 C -15.585369566446808 341.06648480378345, -15.877592970595524 340.0923617994981, -15.865474033527908 341.61607379219464 C -15.853355096460293 343.13978578489116, -11.85348160873963 343.1079725450477, -11.865600545807245 341.58426055235117 C -11.877719482874861 340.06054855965465, -11.585496078725868 341.034671563975, -11.597615015780278 339.5109595712576 C -11.609733952834688 337.98724757854023, -15.609607440555628 338.0190608183487, -15.597488503501218 339.5427728110661" stroke="#e28343" fill="none">
		<title>.id(nerve_feature_27_outline)</title>
	</path>
	<path d="M 7.118406817011671 -0.6384929351749697 C 6.381062409364305 3.032112404279927, 5.64297538406073 6.706320033036329, 4.909178483467771 10.364427433343181 C 4.175381582874813 14.022534833650033, 3.3667683450672494 17.748110251284515, 2.7972064678915864 21.119200026058504 C 2.227644590715921 24.490289800832503, 1.1143119629333285 27.36427578044384, 0.10151299490087062 30.860740479762004 C -0.9112859731315848 34.357205179080175, -0.12308565978216224 38.24804849207794, -0.9418396526851485 41.89811832211512 C -1.7605936455881364 45.54818815215229, -1.6017612869066002 49.120451467787156, -0.9880334322643116 52.83009409440282 C -0.37430557762202465 56.53973672101848, -1.0644539010595733 60.129900853356105, -1.0405148701658073 64.00689354855632 C -1.016575839272043 67.88388624375652, -1.163934367984996 71.98075358443216, -1.7157571267017921 76.01439791446676 C -2.267579885418589 80.04804224450137, -3.7257478216810065 84.32074343238509, -3.6738795011696155 87.81969965117364 C -3.6220111806582285 91.31865586996214, -4.1646808087243885 93.6003289417853, -4.110142931520558 96.98552388026097 C -4.055605054316731 100.37071881873663, -5.942826839218138 103.74343807440506, -4.012343286065523 106.60958375001991 C -2.0818597329129105 109.47572942563474, -2.6801839053213254 113.95823302870804, -2.4058034319873434 117.37588877115068 C -2.1314229586533604 120.79354451359337, -1.5008647756926226 124.63342663943327, -2.6085478184939617 128.23684711256615 C -3.7162308612952994 131.84026758569897, -2.003871783714825 134.95916886575387, -1.404898760603851 138.70620378944668 C -0.8059257374928772 142.45323871313954, -1.6128648621449055 146.16069540168334, -1.2856465547391152 150.2842715602245 C -0.9584282473333248 154.40784771876568, 0.25463304303497597 158.04241088554951, 0.2440790799205642 162.1122733400263 C 0.23352511680615273 166.18213579450307, 0.2375168204696705 170.2535524666461, 1.9137400102766775 174.0948621687212 C 3.5899632000836847 177.9361718707963, 2.8205900266782935 181.8793933751266, 4.2606256301876115 185.37257458915386" stroke="#01136e" fill="none">
		<title>.id(nerve_feature_28)</title>
	</path>
	<path d="M 5.157577299362349 -1.032380739905107 C 4.420232891714983 2.63822459954979, 3.682038610746848 6.312966539260891, 2.94824171015389 9.971073939567743 C 2.2144448095609315 13.629181339874595, 1.3947171171865342 17.414922684568463, 0.8251552400108713 20.78601245934245 C 0.25559336283520584 24.15710223411645, -0.8067190308145968 26.80782279854882, -1.8195179988470547 30.304287497866984 C -2.8323169668795103 33.800752197185155, -2.0745923439275944 37.810302376463305, -2.8933463368305805 41.46037220650048 C -3.7121003297335684 45.110442036537655, -3.5749398393747667 49.44689656283322, -2.9612119847324783 53.15653918944888 C -2.347484130090191 56.86618181606454, -3.0644157759810655 60.142249896254576, -3.0404767450873 64.0192425914548 C -3.016537714193536 67.896235286655, -3.145477431145338 71.70966856300691, -3.6973001898621343 75.7433128930415 C -4.249122948578931 79.77695722307612, -5.7255281086652134 84.35038805735087, -5.673659788153823 87.84934427613942 C -5.621791467642436 91.34830049492791, -6.164421304422655 93.6325461710959, -6.109883427218825 97.01774110957156 C -6.055345550014997 100.40293604804722, -7.60164111269844 104.86072729662911, -5.671157559545825 107.72687297224395 C -3.740674006393213 110.59301864785878, -4.673769497789697 114.1182845376123, -4.399389024455715 117.53594028005494 C -4.125008551121732 120.95359602249763, -3.412581048831237 124.04576951915223, -4.520264091632576 127.64918999228512 C -5.627947134433914 131.25261046541792, -3.978798461901777 135.27486589739252, -3.379825438790803 139.02190082108532 C -2.7808524156798295 142.7689357447782, -3.6065975401169856 146.31890415234614, -3.2793792327111952 150.4424803108873 C -2.952160925305405 154.56605646942847, -1.7453602323180553 158.03722450505308, -1.7559141954324669 162.10708695952985 C -1.7664681585468784 166.17694941400663, -1.59555925644086 171.0534475199239, 0.08066393336614697 174.894757221999 C 1.7568871231731518 178.7360669240741, 0.9715446240584311 182.64164733480825, 2.4115802275677494 186.13482854883551 C 3.8516158310770674 189.62800976286277, 7.549706636316792 188.10350184349946, 6.109671032807474 184.6103206294722 C 4.669635429298156 181.11713941544494, 5.423039276994218 177.1362768175185, 3.746816087187211 173.2949671154434 C 2.070592897380201 169.45365741336832, 2.233518392159184 166.1873221749995, 2.2440723552735955 162.11745972052273 C 2.254626318388007 158.04759726604595, 1.0353044306387553 154.2496389681029, 0.7080861232329652 150.12606280956172 C 0.38086781582717455 146.00248665102055, 1.1690009406940751 142.1375416815009, 0.5700279175831011 138.39050675780805 C -0.028945105527873327 134.64347183411522, -1.8045145881566855 132.42792470598002, -0.6968315453553464 128.82450423284715 C 0.41085149744599203 125.2210837597143, -0.13783736618498899 120.63349300468911, -0.4122178395189715 117.21583726224644 C -0.686598312852954 113.79818151980378, -0.4230454594326081 108.3584402034107, -2.353529012585222 105.49229452779585 C -4.284012565737836 102.62614885218102, -2.055864558618464 100.33850158942604, -2.1104024358222935 96.95330665095038 C -2.164940313026122 93.56811171247472, -1.6222308936740213 91.28901124499637, -1.67409921418541 87.79005502620785 C -1.7259675346967993 84.2910988074193, -0.286036822258247 80.31912726592662, 0.2657859364585491 76.28548293589203 C 0.8176086951753461 72.25183860585742, 0.9833860356494497 67.87153720085804, 0.9594470047556849 63.994544505657835 C 0.9355079738619192 60.117551810457634, 1.598872974846142 56.21329162597242, 0.9851451202038539 52.503648999356756 C 0.3714172655615662 48.794006372741094, 0.1909130385572957 45.98593426776693, 1.0096670314602827 42.335864437729754 C 1.8284210243632701 38.68579460769258, 1.0097450206163407 34.913658160975196, 2.0225439886487973 31.417193461657032 C 3.0353429566812538 27.92072876233886, 4.199695818596636 24.823477367548556, 4.7692576957723 21.452387592774564 C 5.338819572947965 18.081297818000568, 6.136318356188695 14.41588832742547, 6.870115256781653 10.757780927118617 C 7.603912157374611 7.099673526811767, 8.341891927013627 3.426000209010064, 9.079236334660994 -0.2446051304448325 C 9.81658074230836 -3.9152104698997294, 5.894921707009715 -4.702986079360004, 5.157577299362349 -1.032380739905107" stroke="#e28343" fill="none">
		<title>.id(nerve_feature_28_outline)</title>
	</path>
	<path d="M 0.1981519041771539 52.12914097517595 C 0.4819347922972936 52.01861302384057, 0.7657176804167267 51.9080850724777, 1.049500568535938 51.79755712114118 M -0.37083335663144323 54.24536752874631 C -0.18237838295222317 54.15929273095687, 0.006076590730133197 54.073217933149046, 0.19453156440944064 53.98714313535641" stroke="#01136e" fill="none">
		<title>.id(nerve_feature_29)</title>
	</path>
	<path d="M 0.9240023263219114 53.992777518247664 C 1.2077852144420511 53.882249566912286, 1.4915681025700287 53.77172161554608, 1.77535099068924 53.66119366420956 C 2.059133878808451 53.55066571287305, 0.6074330345018473 49.823392626736286, 0.323650146382636 49.9339205780728 C 0.03986725826342474 50.044448529409316, -0.2439156298474639 50.15497648076886, -0.5276985179676036 50.26550443210424 C -0.8114814060877433 50.376032383439615, 0.6402194382017716 54.10330546958304, 0.9240023263219114 53.992777518247664 M 0.46007890031634713 56.06459396359545 C 0.6485338739955672 55.97851916580601, 0.8369888477031434 55.89244436798667, 1.0254438213824508 55.806369570194036 C 1.2138987950617581 55.7202947724014, -0.44792571888426214 52.081841902726154, -0.6363806925635695 52.16791670051879 C -0.824835666242877 52.25399149831142, -1.0132906399000134 52.34006629610773, -1.2017456135792335 52.426141093897165 C -1.3902005872584535 52.5122158916866, 0.2716239266371271 56.150668761384885, 0.46007890031634713 56.06459396359545" stroke="#e28343" fill="none">
		<title>.id(nerve_feature_29_outline)</title>
	</path>
	<path d="M 6.443844959573305 258.6503237901718 C 6.459396152761908 258.669407336533, 5.495615174498031 260.1606764851366, 5.876986345708249 261.4092446763636 M 3.461596117800263 261.8603726599556 C 3.3763641254188963 261.81865288717705, 3.29113213304135 261.7769331146432, 3.205900140660122 261.73521334186694" stroke="#01136e" fill="none">
		<title>.id(nerve_feature_30)</title>
	</path>
	<path d="M 4.893440113284659 259.91374961411424 C 4.908991306473262 259.93283316047547, 3.5828539122748757 260.74492331117716, 3.964225083485094 261.99349150240414 C 4.345596254695312 263.2420596936311, 8.171118779141624 262.07356604155, 7.789747607931405 260.82499785032303 C 7.408376436721186 259.57642965909605, 8.009800999050555 257.4059815125906, 7.99424980586195 257.38689796622936 C 7.978698612673346 257.3678144198681, 4.877888920096056 259.894666067753, 4.893440113284659 259.91374961411424 M 4.340880381308713 260.06402659531597 C 4.255648388927346 260.0223068225374, 4.1704163965122945 259.9805870499852, 4.085184404131066 259.93886727720894 C 3.999952411749838 259.89714750443267, 2.24138388480795 263.48983963374866, 2.326615877189178 263.53155940652493 C 2.411847869570406 263.5732791793012, 2.4970798619104464 263.6149989518167, 2.582311854291813 263.65671872459524 C 2.66754384667318 263.6984384973738, 4.42611237369008 260.1057463680945, 4.340880381308713 260.06402659531597" stroke="#e28343" fill="none">
		<title>.id(nerve_feature_30_outline)</title>
	</path>
	<path d="M -6.030091309365839 291.4249788359798 C -5.930909670378926 291.42731276873826, -5.831728031394513 291.4296467014895, -5.732546392407358 291.4319806342625" stroke="#01136e" fill="none">
		<title>.id(nerve_feature_31)</title>
	</path>
	<path d="M -6.077142090989395 293.4244253153707 C -5.977960452002482 293.42675924812914, -5.87877881331115 293.4290931808735, -5.779597174323995 293.4314271136465 C -5.680415535336841 293.43376104641953, -5.586313971503567 289.4348680876515, -5.6854956104907215 289.4325341548785 C -5.784677249477876 289.4302002221055, -5.883858888755371 289.4278662893474, -5.983040527742284 289.4255323565889 C -6.0822221667291965 289.42319842383046, -6.176323729976308 293.4220913826122, -6.077142090989395 293.4244253153707" stroke="#e28343" fill="none">
		<title>.id(nerve_feature_31_outline)</title>
	</path>
	<path d="M -1.9831440365246928 50.942850356759095 C -2.0306374451650995 50.859858527906816, -2.078130853805626 50.77686669906236, -2.1256242624461725 50.69387487021132" stroke="#01136e" fill="none">
		<title>.id(nerve_feature_32)</title>
	</path>
	<path d="M -0.24728434992746262 49.94947673699332 C -0.29477775856786925 49.86648490814104, -0.34227116721603656 49.78349307928323, -0.3897645758565831 49.70050125043219 C -0.4372579844971296 49.61750942158115, -3.9089773576763083 51.6042566611394, -3.8614839490357618 51.687248489990445 C -3.8139905403952152 51.77024031884149, -3.7664971317623297 51.85323214767259, -3.719003723121923 51.93622397652487 C -3.6715103144815164 52.01921580537715, -0.199790941287056 50.0324685658456, -0.24728434992746262 49.94947673699332" stroke="#e28343" fill="none">
		<title>.id(nerve_feature_32_outline)</title>
	</path>
	<path d="M 12.231422185803101 239.2204346323381 C 13.993443674814563 241.24516387002237, 12.708006986950368 244.61874669264506, 13.470922325426757 247.5123665256109 C 14.233837663903152 250.40598635857685, 15.385253506347189 252.57683808406836, 16.46760532909027 255.38988808689626 C 17.54995715183335 258.20293808972417, 18.221936605457536 261.11359043377536, 19.423399553352397 263.8662596196075" stroke="#01136e" fill="none">
		<title>.id(nerve_feature_33)</title>
	</path>
	<path d="M 10.722723138276379 240.5333806266547 C 12.48474462728784 242.55810986433895, 10.774094395760883 245.12863108114777, 11.537009734237273 248.0222509141136 C 12.299925072713666 250.91587074707957, 13.518653353548842 253.29503295287012, 14.601005176291922 256.108082955698 C 15.683356999035006 258.92113295852596, 16.3889306487286 261.91364615845725, 17.59039359662346 264.6663153442894 C 18.79185654451832 267.4189845301215, 22.457868457976193 265.8188730807577, 21.256405510081333 263.0662038949256 C 20.054942562186472 260.31353470909346, 19.416557304631695 257.4847432209224, 18.334205481888613 254.6716932180945 C 17.251853659145535 251.8586432152666, 16.16775025509264 249.89610197007414, 15.404834916616245 247.00248213710827 C 14.641919578139852 244.10886230414235, 15.502142722341285 239.9322178757058, 13.740121233329823 237.90748863802153 C 11.978099744318362 235.88275940033728, 8.960701649264918 238.50865138897043, 10.722723138276379 240.5333806266547" stroke="#e28343" fill="none">
		<title>.id(nerve_feature_33_outline)</title>
	</path>
	<path d="M 8.059157440856017 250.8454482395581 C 8.331244359014452 251.47719922443156, 10.212323199694847 253.27194392314374, 11.38867396059516 255.4719776581821 C 12.565024721495472 257.67201139322054, 11.840919476354516 259.7063244294387, 11.750982037809703 262.1516262959826 C 11.661044599264887 264.59692816252664, 11.198654891113279 267.2091842181627, 10.04586372143942 269.03995001793083" stroke="#01136e" fill="none">
		<title>.id(nerve_feature_34)</title>
	</path>
	<path d="M 6.222277311653518 251.6365685786602 C 6.494364229811953 252.26831956353365, 8.448616745561228 254.21499193021836, 9.624967506461541 256.41502566525674 C 10.801318267361848 258.61505940029514, 9.842270850873813 259.63281475753024, 9.752333412328998 262.07811662407414 C 9.662395973784182 264.52341849061816, 9.506225381905905 266.14350023293815, 8.353434212232047 267.9742660327063 C 7.200643042558189 269.8050318324744, 10.585502060972937 271.9363998029235, 11.738293230646795 270.1056340031554 C 12.891084400320652 268.27486820338726, 13.659693224745592 264.6704378344351, 13.749630663290404 262.22513596789116 C 13.83956810183522 259.7798341013472, 14.328731175629096 256.72896338614595, 13.152380414728784 254.52892965110752 C 11.976029653828466 252.32889591606911, 10.168124488216952 250.68607888532947, 9.896037570058517 250.054327900456 C 9.623950651900083 249.42257691558254, 5.950190393495084 251.00481759378673, 6.222277311653518 251.6365685786602" stroke="#e28343" fill="none">
		<title>.id(nerve_feature_34_outline)</title>
	</path>
	<path d="M 4.26062563018761 185.3725745891539 C 5.700661233696927 188.8657558031812, 6.2581127867136646 192.65910206307035, 7.73580562889487 196.54745880569666 C 9.213498471076077 200.43581554832286, 12.368695107815816 203.60970003824482, 13.52479572861496 207.74252952811642 C 14.680896349414104 211.87535901798796, 15.01352225680698 216.35630158835815, 15.216400431890168 221.05233808502186 C 15.419278606973359 225.74837458168562, 13.995858728739064 230.3029127528767, 13.450313283503304 234.10831071704445 C 12.90476783826755 237.91370868121209, 13.975426196075727 237.88247294822077, 12.16521868383105 239.4201769101093 C 10.355011171586355 240.95788087199782, 9.279427820374703 244.71323083169918, 8.541212169372866 249.28069552663274 C 7.802996518371027 253.84816022156627, 6.321139964938029 257.284578431747, 5.65043105813152 260.2583234227349 C 4.979722151325014 263.2320684137229, 1.9672770579925978 266.13433150268486, 1.948734806444689 269.6956146475807 C 1.9301925548967804 273.25689779247665, 1.2958582823071736 276.95701680262545, -0.9586237408721506 280.2910493847104 C -3.2131057640514755 283.62508196679516, -5.01755689587409 287.2556521680945, -6.3480909915398875 291.0800165483873 C -7.678625087205689 294.90438092868004, -10.11483603979938 298.25446140917177, -10.695464722387477 302.16741805066204 C -11.276093404975578 306.08037469215225, -12.552632994601508 309.7233555026017, -15.397159379975351 312.61072336933483 C -18.241685765349196 315.4980912360679, -21.067077450410004 318.5083968747299, -22.195428651327422 322.35577050816954 C -23.323779852244833 326.2031441416091, -24.249999856902768 330.21219479459717, -26.79580677884224 333.24291143938393 C -29.341613700781714 336.27362808417064, -32.07839942844796 338.86737652376263, -30.332121626350176 341.862204574415 C -28.5858438242524 344.85703262506735, -26.555363053612794 348.07895052015317, -23.112478017736702 348.467201397466 C -19.669592981860603 348.8554522747787, -17.151158210828513 345.5468056645162, -15.412713223712888 343.3190379273694 C -13.674268236597268 341.09127019022253, -9.394667392220777 342.33231852710696, -5.783078306343126 343.11952581407627 C -2.171489220465479 343.90673310104575, 1.2266999561103957 342.71455816264546, 4.577003074824992 341.1497201089837 C 7.927306193539591 339.58488205532177, 11.467550561920534 338.61546994142884, 14.39773886475083 336.3219022161738 C 17.327927167581127 334.02833449091867, 20.20729304616874 331.6123840349037, 23.414539827324962 329.6623851942846 C 26.621786608481177 327.7123863536654, 29.79096453701267 325.66793722662356, 32.98160454387034 323.663819565885 C 36.17224455072801 321.65970190514645, 39.36375583606494 319.65505570228413, 42.55512697950303 317.6505091133441 C 45.746498122941105 315.6459625244042, 48.93792347700462 313.6413942615365, 52.12934458793524 311.6368385023416 C 55.32076569886587 309.6322827431468, 58.51219366511917 307.62773257594387, 61.70362457598446 305.6231886972344 C 64.89505548684976 303.61864481852496, 68.08648997915618 301.61410684218515, 71.27792735173179 299.60957382878377 C 74.46936472430737 297.6050408153823, 77.66080501545747 295.60051274930765, 80.8522477640009 293.59598876952293 C 84.04369051254432 291.59146478973815, 87.23513572197191 289.5869449001762, 90.42658297376255 287.58242834456456 C 93.6180302255532 285.5779117889531, 96.80947952062347 283.57339857113357, 100.00093045386208 281.56888799507686 C 103.19238138710071 279.56437741902005, 106.38383395921164 277.55986948642243, 109.57528776645172 275.55536352835253 C 112.76674157369176 273.5508575702826, 115.958196616295 271.546353589335, 119.14965248701789 269.5418509241866 C 122.34110835774081 267.5373482590382, 125.53256505635031 265.5328469118811, 128.72402217062188 263.5283462235569 C 131.91547928489348 261.52384553523274, 135.10693681487456 259.5193455065822, 138.298394344703 257.514845476913" stroke="#01136e" fill="none">
		<title>.id(nerve_feature_35)</title>
	</path>
	<path d="M 2.411580227567745 186.13482854883554 C 3.851615831077062 189.62800976286283, 4.388564350256502 193.36958685793974, 5.866257192437708 197.25794360056605 C 7.343950034618919 201.14630034319225, 10.442635033566818 204.1484881138218, 11.598735654365962 208.2813176036934 C 12.754836275165108 212.41414709356494, 13.015386061161903 216.44262507098614, 13.218264236245092 221.13866156764985 C 13.421142411328283 225.8346980643136, 12.016099619441695 230.0190926176606, 11.470554174205935 233.82449058182834 C 10.92500872897018 237.62988854599598, 12.680604790649264 236.358190320868, 10.870397278404587 237.89589428275653 C 9.060189766159896 239.43359824464505, 7.305049502572064 244.39412229500545, 6.566833851570227 248.961586989939 C 5.828618200568389 253.52905168487254, 4.370147807028394 256.8445447969245, 3.6994389002218853 259.8182897879124 C 3.0287299934153786 262.7920347789004, -0.03269583365650086 266.12391840186217, -0.051238085204409645 269.68520154675804 C -0.0697803367523182 273.24648469165396, -0.36091445155207436 275.83670251264226, -2.6153964747313987 279.1707350947272 C -4.869878497910714 282.504767676812, -6.9065013804387 286.59846974727594, -8.237035476104497 290.4228341275687 C -9.5675695717703 294.24719850786147, -12.09317464548159 297.96090330373545, -12.673803328069686 301.8738599452257 C -13.254432010657787 305.78681658671593, -13.977376915357041 308.319751299035, -16.821903300730884 311.2071191657681 C -19.666429686104728 314.0944870325012, -22.986243937694404 317.9455469888061, -24.114595138611822 321.79292062224573 C -25.242946339529233 325.64029425568526, -25.78140835705421 328.92580915814756, -28.327215278993684 331.9565258029343 C -30.873022200933157 334.98724244772103, -33.8061342782228 339.8748150027148, -32.05985647612502 342.86964305336716 C -30.313578674027244 345.8644711040195, -26.779480621281404 350.0663536790171, -23.336595585405313 350.4546045563299 C -19.893710549529214 350.8428554336426, -15.57442347023644 346.7772151726923, -13.835978483120815 344.54944743554546 C -12.097533496005193 342.3216796983986, -9.820600853468116 344.28643742998617, -6.209011767590465 345.07364471695547 C -2.597422681712848 345.86085200392495, 2.0730763287008838 344.52664177989953, 5.4233794474154795 342.96180372623775 C 8.773682566130104 341.39696567257585, 12.700292704530316 340.19038162461425, 15.630481007360611 337.8968138993592 C 18.560669310190907 335.6032461741041, 21.246316577331562 333.3213106283213, 24.453563358487784 331.3713117877022 C 27.660810139644 329.42131294708304, 30.854764444003692 327.3615516331181, 34.04540445086136 325.3574339723795 C 37.23604445771901 323.35331631164104, 40.427544206275165 321.34867735525313, 43.618915349713255 319.3441307663131 C 46.81028649315133 317.3395841773732, 50.001703393365794 315.3350212244615, 53.19312450429642 313.3304654652666 C 56.38454561522705 311.3259097060718, 59.57596671795437 309.3213638498821, 62.767397628819666 307.31681997117266 C 65.95882853968496 305.3122760924632, 69.15025735269438 303.3077416832875, 72.34169472526999 301.3032086698861 C 75.53313209784557 299.29867565648465, 78.72456766625756 297.29415055673957, 81.91601041480098 295.28962657695484 C 85.1074531633444 293.28510259717007, 88.2988944711041 291.2805851582135, 91.49034172289474 289.27606860260187 C 94.68178897468538 287.2715520469904, 97.87323511426561 285.267040811099, 101.06468604750422 283.2625302350423 C 104.25613698074288 281.25801965898546, 107.44758710850873 279.25351326164804, 110.63904091574881 277.24900730357814 C 113.83049472298885 275.2445013455082, 117.02194801923697 273.23999846141976, 120.21340388995986 271.2354957962713 C 123.40485976068275 269.23099313112294, 126.59631540976615 267.2264924431561, 129.7877725240377 265.2219917548319 C 132.9792296383093 263.2174910665077, 136.17068681830852 261.2129912576749, 139.36214434813698 259.2084912280057 C 142.55360187796543 257.2039911983365, 140.4261018710975 253.81669969615115, 137.23464434126905 255.82119972582035 C 134.0431868114406 257.82569975548955, 130.85172893147765 259.83020000395777, 127.66027181720607 261.83470069228196 C 124.46881470293447 263.83920138060614, 121.27735695479886 265.84370338695345, 118.08590108407596 267.84820605210183 C 114.89444521335302 269.85270871725027, 111.70298842439468 271.85721379505696, 108.51153461715461 273.86171975312686 C 105.32008080991456 275.8662257111968, 102.12862579345854 277.87073517905463, 98.93717486021993 279.8752457551114 C 95.74572392698133 281.87975633116815, 92.55427147642102 283.8842715309158, 89.36282422463039 285.88878808652737 C 86.17137697283972 287.8933046421389, 82.97992786174423 289.89782698230624, 79.7884851132008 291.90235096209096 C 76.59704236465738 293.90687494187574, 73.40559735076917 295.91140597428, 70.21415997819358 297.9159389876814 C 67.02272260561799 299.9204720010828, 63.831282434014554 301.9250135445867, 60.63985152314926 303.92955742329616 C 57.44842061228397 305.9341013020056, 54.25698578250469 307.9386557802218, 51.065564671574066 309.94321153941667 C 47.87414356064344 311.9477672986115, 44.68270975273088 313.9523408714352, 41.4913386092928 315.9568874603752 C 38.299967465854714 317.96143404931513, 35.10844464373701 319.96608749865186, 31.91780463687934 321.9702051593904 C 28.727164630021647 323.97432282012903, 25.582763077318354 326.0034597602478, 22.375516296162136 327.9534586008669 C 19.168269515005917 329.90345744148607, 16.095185024971347 332.45342280773326, 13.16499672214105 334.7469905329883 C 10.234808419310752 337.04055825824344, 7.080929820949078 337.7727984380677, 3.730626702234481 339.33763649172954 C 0.3803235835199077 340.9024745453914, -1.7455557592181103 341.95261419816654, -5.35714484509576 341.1654069111972 C -8.968733930973437 340.37819962422776, -15.251002977189343 339.86086068204645, -16.98944796430496 342.0886284191933 C -18.727892951420586 344.31639615634015, -19.445475414191993 346.8680491159148, -22.888360450068088 346.479798238602 C -26.331245485944184 346.09154736128926, -26.858108974477556 343.8495941461152, -28.604386776575335 340.8547660954628 C -30.350664578673115 337.85993804481046, -27.81020520063027 337.56001372062025, -25.2643982786908 334.5292970758335 C -22.718591356751325 331.4985804310468, -21.404613364960433 326.7659940275329, -20.27626216404302 322.9186203940933 C -19.147910963125604 319.0712467606537, -16.816941844593664 316.90169543963464, -13.972415459219816 314.0143275729015 C -11.127889073845974 311.1269597061684, -9.297754799293369 306.37393279758857, -8.717126116705272 302.4609761560983 C -8.136497434117171 298.5480195146081, -5.78968060264108 295.5615633494986, -4.459146506975282 291.73719896920585 C -3.1286124113094806 287.9128345889131, -1.5563330301922365 284.74539625677835, 0.6981489929870884 281.41136367469346 C 2.9526310161664213 278.07733109260863, 3.930165446545879 273.26731089329934, 3.9487076980937874 269.7060277484034 C 3.9672499496416966 266.14474460350755, 6.930714309234649 263.6721020485454, 7.601423216041156 260.6983570575575 C 8.272132122847664 257.7246120665695, 9.777374836173665 254.16726875826, 10.515590487175505 249.59980406332645 C 11.253806138177342 245.0323393683929, 11.649832577012814 242.48216349935058, 13.460040089257499 240.94445953746205 C 15.27024760150219 239.40675557557353, 14.884526947564918 238.1975288164282, 15.430072392800678 234.3921308522605 C 15.975617838036433 230.5867328880928, 17.417414802618435 225.66205109905763, 17.214536627535242 220.9660146023939 C 17.011658452452053 216.26997810573016, 16.6069564236631 211.336570942411, 15.450855802863959 207.20374145253942 C 14.294755182064813 203.07091196266785, 11.083046907533236 199.72533075345348, 9.60535406535203 195.83697401082722 C 8.127661223170827 191.94861726820096, 7.549706636316792 188.10350184349957, 6.109671032807475 184.61032062947228 C 4.6696354292981574 181.117139415445, 0.9715446240584278 182.64164733480825, 2.411580227567745 186.13482854883554" stroke="#e28343" fill="none">
		<title>.id(nerve_feature_35_outline)</title>
	</path>
	<path d="M 7.118406817011671 -0.6384929351749697 C 6.381062409364305 3.032112404279927, 5.64297538406073 6.706320033036329, 4.909178483467771 10.364427433343181 C 4.175381582874813 14.022534833650033, 3.3667683450672494 17.748110251284515, 2.7972064678915864 21.119200026058504 C 2.227644590715921 24.490289800832503, 1.1143119629333285 27.36427578044384, 0.10151299490087062 30.860740479762004 C -0.9112859731315848 34.357205179080175, -0.12308565978216224 38.24804849207794, -0.9418396526851485 41.89811832211512 C -1.7605936455881364 45.54818815215229, -1.6017612869066002 49.120451467787156, -0.9880334322643116 52.83009409440282 C -0.37430557762202465 56.53973672101848, -1.0644539010595733 60.129900853356105, -1.0405148701658073 64.00689354855632 C -1.016575839272043 67.88388624375652, -1.163934367984996 71.98075358443216, -1.7157571267017921 76.01439791446676 C -2.267579885418589 80.04804224450137, -3.7257478216810065 84.32074343238509, -3.6738795011696155 87.81969965117364 C -3.6220111806582285 91.31865586996214, -4.1646808087243885 93.6003289417853, -4.110142931520558 96.98552388026097 C -4.055605054316731 100.37071881873663, -5.942826839218138 103.74343807440506, -4.012343286065523 106.60958375001991 C -2.0818597329129105 109.47572942563474, -2.6801839053213254 113.95823302870804, -2.4058034319873434 117.37588877115068 C -2.1314229586533604 120.79354451359337, -1.5008647756926226 124.63342663943327, -2.6085478184939617 128.23684711256615 C -3.7162308612952994 131.84026758569897, -2.003871783714825 134.95916886575387, -1.404898760603851 138.70620378944668 C -0.8059257374928772 142.45323871313954, -1.6128648621449055 146.16069540168334, -1.2856465547391152 150.2842715602245 C -0.9584282473333248 154.40784771876568, 0.25463304303497597 158.04241088554951, 0.2440790799205642 162.1122733400263 C 0.23352511680615273 166.18213579450307, 0.2375168204696705 170.2535524666461, 1.9137400102766775 174.0948621687212 C 3.5899632000836847 177.9361718707963, 2.8205900266782935 181.8793933751266, 4.2606256301876115 185.37257458915386 C 5.700661233696927 188.8657558031812, 6.2581127867136646 192.65910206307035, 7.73580562889487 196.54745880569666 C 9.213498471076077 200.43581554832286, 12.368695107815816 203.60970003824482, 13.52479572861496 207.74252952811642 C 14.680896349414104 211.87535901798796, 15.01352225680698 216.35630158835815, 15.216400431890168 221.05233808502186 C 15.419278606973359 225.74837458168562, 13.995858728739064 230.3029127528767, 13.450313283503304 234.10831071704445 C 12.90476783826755 237.91370868121209, 13.975426196075727 237.88247294822077, 12.16521868383105 239.4201769101093 C 10.355011171586355 240.95788087199782, 9.279427820374703 244.71323083169918, 8.541212169372866 249.28069552663274 C 7.802996518371027 253.84816022156627, 6.321139964938029 257.284578431747, 5.65043105813152 260.2583234227349 C 4.979722151325014 263.2320684137229, 1.9672770579925978 266.13433150268486, 1.948734806444689 269.6956146475807 C 1.9301925548967804 273.25689779247665, 1.2958582823071736 276.95701680262545, -0.9586237408721506 280.2910493847104 C -3.2131057640514755 283.62508196679516, -5.01755689587409 287.2556521680945, -6.3480909915398875 291.0800165483873 C -7.678625087205689 294.90438092868004, -10.11483603979938 298.25446140917177, -10.695464722387477 302.16741805066204 C -11.276093404975578 306.08037469215225, -12.552632994601508 309.7233555026017, -15.397159379975351 312.61072336933483 C -18.241685765349196 315.4980912360679, -21.067077450410004 318.5083968747299, -22.195428651327422 322.35577050816954 C -23.323779852244833 326.2031441416091, -24.249999856902768 330.21219479459717, -26.79580677884224 333.24291143938393 C -29.341613700781714 336.27362808417064, -32.07839942844796 338.86737652376263, -30.332121626350176 341.862204574415 C -28.5858438242524 344.85703262506735, -26.555363053612794 348.07895052015317, -23.112478017736702 348.467201397466 C -19.669592981860603 348.8554522747787, -17.151158210828513 345.5468056645162, -15.412713223712888 343.3190379273694 C -13.674268236597268 341.09127019022253, -9.394667392220777 342.33231852710696, -5.783078306343126 343.11952581407627 C -2.171489220465479 343.90673310104575, 1.2266999561103957 342.71455816264546, 4.577003074824992 341.1497201089837 C 7.927306193539591 339.58488205532177, 11.467550561920534 338.61546994142884, 14.39773886475083 336.3219022161738 C 17.327927167581127 334.02833449091867, 20.20729304616874 331.6123840349037, 23.414539827324962 329.6623851942846 C 26.621786608481177 327.7123863536654, 29.79096453701267 325.66793722662356, 32.98160454387034 323.663819565885 C 36.17224455072801 321.65970190514645, 39.36375583606494 319.65505570228413, 42.55512697950303 317.6505091133441 C 45.746498122941105 315.6459625244042, 48.93792347700462 313.6413942615365, 52.12934458793524 311.6368385023416 C 55.32076569886587 309.6322827431468, 58.51219366511917 307.62773257594387, 61.70362457598446 305.6231886972344 C 64.89505548684976 303.61864481852496, 68.08648997915618 301.61410684218515, 71.27792735173179 299.60957382878377 C 74.46936472430737 297.6050408153823, 77.66080501545747 295.60051274930765, 80.8522477640009 293.59598876952293 C 84.04369051254432 291.59146478973815, 87.23513572197191 289.5869449001762, 90.42658297376255 287.58242834456456 C 93.6180302255532 285.5779117889531, 96.80947952062347 283.57339857113357, 100.00093045386208 281.56888799507686 C 103.19238138710071 279.56437741902005, 106.38383395921164 277.55986948642243, 109.57528776645172 275.55536352835253 C 112.76674157369176 273.5508575702826, 115.958196616295 271.546353589335, 119.14965248701789 269.5418509241866 C 122.34110835774081 267.5373482590382, 125.53256505635031 265.5328469118811, 128.72402217062188 263.5283462235569 C 131.91547928489348 261.52384553523274, 135.10693681487456 259.5193455065822, 138.298394344703 257.514845476913" stroke="#01136e" fill="none">
		<title>.id(nerve_feature_36)</title>
	</path>
	<path d="M 5.157577299362349 -1.032380739905107 C 4.420232891714983 2.63822459954979, 3.682038610746848 6.312966539260891, 2.94824171015389 9.971073939567743 C 2.2144448095609315 13.629181339874595, 1.3947171171865342 17.414922684568463, 0.8251552400108713 20.78601245934245 C 0.25559336283520584 24.15710223411645, -0.8067190308145968 26.80782279854882, -1.8195179988470547 30.304287497866984 C -2.8323169668795103 33.800752197185155, -2.0745923439275944 37.810302376463305, -2.8933463368305805 41.46037220650048 C -3.7121003297335684 45.110442036537655, -3.5749398393747667 49.44689656283322, -2.9612119847324783 53.15653918944888 C -2.347484130090191 56.86618181606454, -3.0644157759810655 60.142249896254576, -3.0404767450873 64.0192425914548 C -3.016537714193536 67.896235286655, -3.145477431145338 71.70966856300691, -3.6973001898621343 75.7433128930415 C -4.249122948578931 79.77695722307612, -5.7255281086652134 84.35038805735087, -5.673659788153823 87.84934427613942 C -5.621791467642436 91.34830049492791, -6.164421304422655 93.6325461710959, -6.109883427218825 97.01774110957156 C -6.055345550014997 100.40293604804722, -7.60164111269844 104.86072729662911, -5.671157559545825 107.72687297224395 C -3.740674006393213 110.59301864785878, -4.673769497789697 114.1182845376123, -4.399389024455715 117.53594028005494 C -4.125008551121732 120.95359602249763, -3.412581048831237 124.04576951915223, -4.520264091632576 127.64918999228512 C -5.627947134433914 131.25261046541792, -3.978798461901777 135.27486589739252, -3.379825438790803 139.02190082108532 C -2.7808524156798295 142.7689357447782, -3.6065975401169856 146.31890415234614, -3.2793792327111952 150.4424803108873 C -2.952160925305405 154.56605646942847, -1.7453602323180553 158.03722450505308, -1.7559141954324669 162.10708695952985 C -1.7664681585468784 166.17694941400663, -1.59555925644086 171.0534475199239, 0.08066393336614697 174.894757221999 C 1.7568871231731518 178.7360669240741, 0.9715446240584311 182.64164733480825, 2.4115802275677494 186.13482854883551 C 3.851615831077062 189.62800976286283, 4.388564350256502 193.36958685793974, 5.866257192437708 197.25794360056605 C 7.343950034618919 201.14630034319225, 10.442635033566818 204.1484881138218, 11.598735654365962 208.2813176036934 C 12.754836275165108 212.41414709356494, 13.015386061161903 216.44262507098614, 13.218264236245092 221.13866156764985 C 13.421142411328283 225.8346980643136, 12.016099619441695 230.0190926176606, 11.470554174205935 233.82449058182834 C 10.92500872897018 237.62988854599598, 12.680604790649264 236.358190320868, 10.870397278404587 237.89589428275653 C 9.060189766159896 239.43359824464505, 7.305049502572064 244.39412229500545, 6.566833851570227 248.961586989939 C 5.828618200568389 253.52905168487254, 4.370147807028394 256.8445447969245, 3.6994389002218853 259.8182897879124 C 3.0287299934153786 262.7920347789004, -0.03269583365650086 266.12391840186217, -0.051238085204409645 269.68520154675804 C -0.0697803367523182 273.24648469165396, -0.36091445155207436 275.83670251264226, -2.6153964747313987 279.1707350947272 C -4.869878497910714 282.504767676812, -6.9065013804387 286.59846974727594, -8.237035476104497 290.4228341275687 C -9.5675695717703 294.24719850786147, -12.09317464548159 297.96090330373545, -12.673803328069686 301.8738599452257 C -13.254432010657787 305.78681658671593, -13.977376915357041 308.319751299035, -16.821903300730884 311.2071191657681 C -19.666429686104728 314.0944870325012, -22.986243937694404 317.9455469888061, -24.114595138611822 321.79292062224573 C -25.242946339529233 325.64029425568526, -25.78140835705421 328.92580915814756, -28.327215278993684 331.9565258029343 C -30.873022200933157 334.98724244772103, -33.8061342782228 339.8748150027148, -32.05985647612502 342.86964305336716 C -30.313578674027244 345.8644711040195, -26.779480621281404 350.0663536790171, -23.336595585405313 350.4546045563299 C -19.893710549529214 350.8428554336426, -15.57442347023644 346.7772151726923, -13.835978483120815 344.54944743554546 C -12.097533496005193 342.3216796983986, -9.820600853468116 344.28643742998617, -6.209011767590465 345.07364471695547 C -2.597422681712848 345.86085200392495, 2.0730763287008838 344.52664177989953, 5.4233794474154795 342.96180372623775 C 8.773682566130104 341.39696567257585, 12.700292704530316 340.19038162461425, 15.630481007360611 337.8968138993592 C 18.560669310190907 335.6032461741041, 21.246316577331562 333.3213106283213, 24.453563358487784 331.3713117877022 C 27.660810139644 329.42131294708304, 30.854764444003692 327.3615516331181, 34.04540445086136 325.3574339723795 C 37.23604445771901 323.35331631164104, 40.427544206275165 321.34867735525313, 43.618915349713255 319.3441307663131 C 46.81028649315133 317.3395841773732, 50.001703393365794 315.3350212244615, 53.19312450429642 313.3304654652666 C 56.38454561522705 311.3259097060718, 59.57596671795437 309.3213638498821, 62.767397628819666 307.31681997117266 C 65.95882853968496 305.3122760924632, 69.15025735269438 303.3077416832875, 72.34169472526999 301.3032086698861 C 75.53313209784557 299.29867565648465, 78.72456766625756 297.29415055673957, 81.91601041480098 295.28962657695484 C 85.1074531633444 293.28510259717007, 88.2988944711041 291.2805851582135, 91.49034172289474 289.27606860260187 C 94.68178897468538 287.2715520469904, 97.87323511426561 285.267040811099, 101.06468604750422 283.2625302350423 C 104.25613698074288 281.25801965898546, 107.44758710850873 279.25351326164804, 110.63904091574881 277.24900730357814 C 113.83049472298885 275.2445013455082, 117.02194801923697 273.23999846141976, 120.21340388995986 271.2354957962713 C 123.40485976068275 269.23099313112294, 126.59631540976615 267.2264924431561, 129.7877725240377 265.2219917548319 C 132.9792296383093 263.2174910665077, 136.17068681830852 261.2129912576749, 139.36214434813698 259.2084912280057 C 142.55360187796543 257.2039911983365, 140.4261018710975 253.81669969615115, 137.23464434126905 255.82119972582035 C 134.0431868114406 257.82569975548955, 130.85172893147765 259.83020000395777, 127.66027181720607 261.83470069228196 C 124.46881470293447 263.83920138060614, 121.27735695479886 265.84370338695345, 118.08590108407596 267.84820605210183 C 114.89444521335302 269.85270871725027, 111.70298842439468 271.85721379505696, 108.51153461715461 273.86171975312686 C 105.32008080991456 275.8662257111968, 102.12862579345854 277.87073517905463, 98.93717486021993 279.8752457551114 C 95.74572392698133 281.87975633116815, 92.55427147642102 283.8842715309158, 89.36282422463039 285.88878808652737 C 86.17137697283972 287.8933046421389, 82.97992786174423 289.89782698230624, 79.7884851132008 291.90235096209096 C 76.59704236465738 293.90687494187574, 73.40559735076917 295.91140597428, 70.21415997819358 297.9159389876814 C 67.02272260561799 299.9204720010828, 63.831282434014554 301.9250135445867, 60.63985152314926 303.92955742329616 C 57.44842061228397 305.9341013020056, 54.25698578250469 307.9386557802218, 51.065564671574066 309.94321153941667 C 47.87414356064344 311.9477672986115, 44.68270975273088 313.9523408714352, 41.4913386092928 315.9568874603752 C 38.299967465854714 317.96143404931513, 35.10844464373701 319.96608749865186, 31.91780463687934 321.9702051593904 C 28.727164630021647 323.97432282012903, 25.582763077318354 326.0034597602478, 22.375516296162136 327.9534586008669 C 19.168269515005917 329.90345744148607, 16.095185024971347 332.45342280773326, 13.16499672214105 334.7469905329883 C 10.234808419310752 337.04055825824344, 7.080929820949078 337.7727984380677, 3.730626702234481 339.33763649172954 C 0.3803235835199077 340.9024745453914, -1.7455557592181103 341.95261419816654, -5.35714484509576 341.1654069111972 C -8.968733930973437 340.37819962422776, -15.251002977189343 339.86086068204645, -16.98944796430496 342.0886284191933 C -18.727892951420586 344.31639615634015, -19.445475414191993 346.8680491159148, -22.888360450068088 346.479798238602 C -26.331245485944184 346.09154736128926, -26.858108974477556 343.8495941461152, -28.604386776575335 340.8547660954628 C -30.350664578673115 337.85993804481046, -27.81020520063027 337.56001372062025, -25.2643982786908 334.5292970758335 C -22.718591356751325 331.4985804310468, -21.404613364960433 326.7659940275329, -20.27626216404302 322.9186203940933 C -19.147910963125604 319.0712467606537, -16.816941844593664 316.90169543963464, -13.972415459219816 314.0143275729015 C -11.127889073845974 311.1269597061684, -9.297754799293369 306.37393279758857, -8.717126116705272 302.4609761560983 C -8.136497434117171 298.5480195146081, -5.78968060264108 295.5615633494986, -4.459146506975282 291.73719896920585 C -3.1286124113094806 287.9128345889131, -1.5563330301922365 284.74539625677835, 0.6981489929870884 281.41136367469346 C 2.9526310161664213 278.07733109260863, 3.930165446545879 273.26731089329934, 3.9487076980937874 269.7060277484034 C 3.9672499496416966 266.14474460350755, 6.930714309234649 263.6721020485454, 7.601423216041156 260.6983570575575 C 8.272132122847664 257.7246120665695, 9.777374836173665 254.16726875826, 10.515590487175505 249.59980406332645 C 11.253806138177342 245.0323393683929, 11.649832577012814 242.48216349935058, 13.460040089257499 240.94445953746205 C 15.27024760150219 239.40675557557353, 14.884526947564918 238.1975288164282, 15.430072392800678 234.3921308522605 C 15.975617838036433 230.5867328880928, 17.417414802618435 225.66205109905763, 17.214536627535242 220.9660146023939 C 17.011658452452053 216.26997810573016, 16.6069564236631 211.336570942411, 15.450855802863959 207.20374145253942 C 14.294755182064813 203.07091196266785, 11.083046907533236 199.72533075345348, 9.60535406535203 195.83697401082722 C 8.127661223170827 191.94861726820096, 7.549706636316792 188.10350184349957, 6.109671032807475 184.61032062947228 C 4.669635429298156 181.11713941544494, 5.423039276994218 177.1362768175185, 3.746816087187211 173.2949671154434 C 2.070592897380201 169.45365741336832, 2.233518392159184 166.1873221749995, 2.2440723552735955 162.11745972052273 C 2.254626318388007 158.04759726604595, 1.0353044306387553 154.2496389681029, 0.7080861232329652 150.12606280956172 C 0.38086781582717455 146.00248665102055, 1.1690009406940751 142.1375416815009, 0.5700279175831011 138.39050675780805 C -0.028945105527873327 134.64347183411522, -1.8045145881566855 132.42792470598002, -0.6968315453553464 128.82450423284715 C 0.41085149744599203 125.2210837597143, -0.13783736618498899 120.63349300468911, -0.4122178395189715 117.21583726224644 C -0.686598312852954 113.79818151980378, -0.4230454594326081 108.3584402034107, -2.353529012585222 105.49229452779585 C -4.284012565737836 102.62614885218102, -2.055864558618464 100.33850158942604, -2.1104024358222935 96.95330665095038 C -2.164940313026122 93.56811171247472, -1.6222308936740213 91.28901124499637, -1.67409921418541 87.79005502620785 C -1.7259675346967993 84.2910988074193, -0.286036822258247 80.31912726592662, 0.2657859364585491 76.28548293589203 C 0.8176086951753461 72.25183860585742, 0.9833860356494497 67.87153720085804, 0.9594470047556849 63.994544505657835 C 0.9355079738619192 60.117551810457634, 1.598872974846142 56.21329162597242, 0.9851451202038539 52.503648999356756 C 0.3714172655615662 48.794006372741094, 0.1909130385572957 45.98593426776693, 1.0096670314602827 42.335864437729754 C 1.8284210243632701 38.68579460769258, 1.0097450206163407 34.913658160975196, 2.0225439886487973 31.417193461657032 C 3.0353429566812538 27.92072876233886, 4.199695818596636 24.823477367548556, 4.7692576957723 21.452387592774564 C 5.338819572947965 18.081297818000568, 6.136318356188695 14.41588832742547, 6.870115256781653 10.757780927118617 C 7.603912157374611 7.099673526811767, 8.341891927013627 3.426000209010064, 9.079236334660994 -0.2446051304448325 C 9.81658074230836 -3.9152104698997294, 5.894921707009715 -4.702986079360004, 5.157577299362349 -1.032380739905107" stroke="#e28343" fill="none">
		<title>.id(nerve_feature_36_outline)</title>
	</path>
	<circle cx="4.082861977186191" cy="14.416456570404213" r="1" fill="orange">
		<title>.id(marker_10001)</title>
	</circle>
	<circle cx="2.355081240495265" cy="23.259576298853464" r="1" fill="orange">
		<title>.id(marker_10002)</title>
	</circle>
	<circle cx="-1.0622959913856325" cy="67.14847999695876" r="1" fill="orange">
		<title>.id(marker_10003)</title>
	</circle>
	<circle cx="-3.6221197336007855" cy="86.40906357791033" r="1" fill="orange">
		<title>.id(marker_10004)</title>
	</circle>
	<circle cx="-2.9323961880782723" cy="109.24216730233985" r="1" fill="orange">
		<title>.id(marker_10005)</title>
	</circle>
	<circle cx="3.9684979937990468" cy="184.5684451653773" r="1" fill="orange">
		<title>.id(marker_10006)</title>
	</circle>
	<circle cx="13.630475431980958" cy="208.1298203166629" r="1" fill="orange">
		<title>.id(marker_10007)</title>
	</circle>
	<circle cx="5.019563789668806" cy="262.0187079094213" r="1" fill="orange">
		<title>.id(marker_10008)</title>
	</circle>
</svg>
